<svg width="831" height="575" xmlns="http://www.w3.org/2000/svg" xmlns:xlink="http://www.w3.org/1999/xlink" xml:space="preserve" overflow="hidden"><defs><linearGradient x1="354.5" y1="3784.5" x2="354.5" y2="4344.5" gradientUnits="userSpaceOnUse" spreadMethod="reflect" id="fill0"><stop offset="0" stop-color="#00B050"/><stop offset="0.5" stop-color="#FFFF00"/><stop offset="1" stop-color="#FF0000"/></linearGradient></defs><g transform="translate(-340 -3782)"><path d="M342.5 3796.5C342.5 3789.87 347.872 3784.5 354.5 3784.5L354.5 3784.5C361.127 3784.5 366.5 3789.87 366.5 3796.5L366.5 4332.5C366.5 4339.13 361.127 4344.5 354.5 4344.5L354.5 4344.5C347.872 4344.5 342.5 4339.13 342.5 4332.5Z" stroke="#0F1B37" stroke-width="4.58333" stroke-linejoin="round" stroke-miterlimit="10" fill="url(#fill0)" fill-rule="evenodd"/><path d="M389.5 4344.5 1167.37 4344.5" stroke="#000000" stroke-width="6.875" stroke-linejoin="round" stroke-miterlimit="10" fill="none" fill-rule="evenodd"/><path d="M0 0 0.000360892 23.7716" stroke="#000000" stroke-width="6.875" stroke-linejoin="round" stroke-miterlimit="10" fill="none" fill-rule="evenodd" transform="matrix(1 0 0 -1 406.5 4356.27)"/><path d="M0 0 0.000360892 23.7716" stroke="#000000" stroke-width="6.875" stroke-linejoin="round" stroke-miterlimit="10" fill="none" fill-rule="evenodd" transform="matrix(1 0 0 -1 460.5 4356.27)"/><path d="M0 0 0.000360892 23.7716" stroke="#000000" stroke-width="6.875" stroke-linejoin="round" stroke-miterlimit="10" fill="none" fill-rule="evenodd" transform="matrix(1 0 0 -1 514.5 4356.27)"/><path d="M0 0 0.000360892 23.7716" stroke="#000000" stroke-width="6.875" stroke-linejoin="round" stroke-miterlimit="10" fill="none" fill-rule="evenodd" transform="matrix(1 0 0 -1 568.5 4356.27)"/><path d="M0 0 0.000360892 23.7716" stroke="#000000" stroke-width="6.875" stroke-linejoin="round" stroke-miterlimit="10" fill="none" fill-rule="evenodd" transform="matrix(1 0 0 -1 623.5 4356.27)"/><path d="M0 0 0.000360892 23.7716" stroke="#000000" stroke-width="6.875" stroke-linejoin="round" stroke-miterlimit="10" fill="none" fill-rule="evenodd" transform="matrix(1 0 0 -1 677.5 4356.27)"/><path d="M0 0 0.000360892 23.7716" stroke="#000000" stroke-width="6.875" stroke-linejoin="round" stroke-miterlimit="10" fill="none" fill-rule="evenodd" transform="matrix(1 0 0 -1 731.5 4356.27)"/><path d="M0 0 0.000360892 23.7716" stroke="#000000" stroke-width="6.875" stroke-linejoin="round" stroke-miterlimit="10" fill="none" fill-rule="evenodd" transform="matrix(1 0 0 -1 785.5 4356.27)"/><path d="M0 0 0.000360892 23.7716" stroke="#000000" stroke-width="6.875" stroke-linejoin="round" stroke-miterlimit="10" fill="none" fill-rule="evenodd" transform="matrix(1 0 0 -1 839.5 4356.27)"/><path d="M0 0 0.000360892 23.7716" stroke="#000000" stroke-width="6.875" stroke-linejoin="round" stroke-miterlimit="10" fill="none" fill-rule="evenodd" transform="matrix(1 0 0 -1 893.5 4356.27)"/><path d="M0 0 0.000360892 23.7716" stroke="#000000" stroke-width="6.875" stroke-linejoin="round" stroke-miterlimit="10" fill="none" fill-rule="evenodd" transform="matrix(1 0 0 -1 948.5 4356.27)"/><path d="M0 0 0.000360892 23.7716" stroke="#000000" stroke-width="6.875" stroke-linejoin="round" stroke-miterlimit="10" fill="none" fill-rule="evenodd" transform="matrix(1 0 0 -1 1002.5 4356.27)"/><path d="M0 0 0.000360892 23.7716" stroke="#000000" stroke-width="6.875" stroke-linejoin="round" stroke-miterlimit="10" fill="none" fill-rule="evenodd" transform="matrix(1 0 0 -1 1056.5 4356.27)"/><path d="M0 0 0.000360892 23.7716" stroke="#000000" stroke-width="6.875" stroke-linejoin="round" stroke-miterlimit="10" fill="none" fill-rule="evenodd" transform="matrix(1 0 0 -1 1110.5 4356.27)"/><path d="M0 0 0.000360892 23.7716" stroke="#000000" stroke-width="6.875" stroke-linejoin="round" stroke-miterlimit="10" fill="none" fill-rule="evenodd" transform="matrix(1 0 0 -1 1164.5 4356.27)"/><path d="M422 3873C422 3869.69 424.686 3867 428 3867 431.314 3867 434 3869.69 434 3873 434 3876.31 431.314 3879 428 3879 424.686 3879 422 3876.31 422 3873Z" fill-rule="evenodd"/><path d="M451 3858C451 3854.69 453.686 3852 457 3852 460.314 3852 463 3854.69 463 3858 463 3861.31 460.314 3864 457 3864 453.686 3864 451 3861.31 451 3858Z" fill-rule="evenodd"/><path d="M485 3885C485 3881.69 487.686 3879 491 3879 494.314 3879 497 3881.69 497 3885 497 3888.31 494.314 3891 491 3891 487.686 3891 485 3888.31 485 3885Z" fill-rule="evenodd"/><path d="M516 3862C516 3858.69 518.686 3856 522 3856 525.314 3856 528 3858.69 528 3862 528 3865.31 525.314 3868 522 3868 518.686 3868 516 3865.31 516 3862Z" fill-rule="evenodd"/><path d="M547 3881C547 3877.69 549.91 3875 553.5 3875 557.09 3875 560 3877.69 560 3881 560 3884.31 557.09 3887 553.5 3887 549.91 3887 547 3884.31 547 3881Z" fill-rule="evenodd"/><path d="M579 3857C579 3853.69 581.686 3851 585 3851 588.314 3851 591 3853.69 591 3857 591 3860.31 588.314 3863 585 3863 581.686 3863 579 3860.31 579 3857Z" fill-rule="evenodd"/><path d="M610 3892.5C610 3888.91 612.686 3886 616 3886 619.314 3886 622 3888.91 622 3892.5 622 3896.09 619.314 3899 616 3899 612.686 3899 610 3896.09 610 3892.5Z" fill-rule="evenodd"/><path d="M641 3862C641 3858.69 643.91 3856 647.5 3856 651.09 3856 654 3858.69 654 3862 654 3865.31 651.09 3868 647.5 3868 643.91 3868 641 3865.31 641 3862Z" fill-rule="evenodd"/><path d="M673 3875.5C673 3871.91 675.686 3869 679 3869 682.314 3869 685 3871.91 685 3875.5 685 3879.09 682.314 3882 679 3882 675.686 3882 673 3879.09 673 3875.5Z" fill-rule="evenodd"/><path d="M704 3871.5C704 3867.91 706.686 3865 710 3865 713.314 3865 716 3867.91 716 3871.5 716 3875.09 713.314 3878 710 3878 706.686 3878 704 3875.09 704 3871.5Z" fill-rule="evenodd"/><path d="M735 3864C735 3860.69 737.91 3858 741.5 3858 745.09 3858 748 3860.69 748 3864 748 3867.31 745.09 3870 741.5 3870 737.91 3870 735 3867.31 735 3864Z" fill-rule="evenodd"/><path d="M767 3878C767 3874.69 769.686 3872 773 3872 776.314 3872 779 3874.69 779 3878 779 3881.31 776.314 3884 773 3884 769.686 3884 767 3881.31 767 3878Z" fill-rule="evenodd"/><path d="M798 3865C798 3861.69 800.686 3859 804 3859 807.314 3859 810 3861.69 810 3865 810 3868.31 807.314 3871 804 3871 800.686 3871 798 3868.31 798 3865Z" fill-rule="evenodd"/><path d="M829 3882C829 3878.69 831.91 3876 835.5 3876 839.09 3876 842 3878.69 842 3882 842 3885.31 839.09 3888 835.5 3888 831.91 3888 829 3885.31 829 3882Z" fill-rule="evenodd"/><path d="M861 3866C861 3862.69 863.686 3860 867 3860 870.314 3860 873 3862.69 873 3866 873 3869.31 870.314 3872 867 3872 863.686 3872 861 3869.31 861 3866Z" fill-rule="evenodd"/><path d="M892 3883C892 3879.69 894.686 3877 898 3877 901.314 3877 904 3879.69 904 3883 904 3886.31 901.314 3889 898 3889 894.686 3889 892 3886.31 892 3883Z" fill-rule="evenodd"/><path d="M923 3865C923 3861.69 925.91 3859 929.5 3859 933.09 3859 936 3861.69 936 3865 936 3868.31 933.09 3871 929.5 3871 925.91 3871 923 3868.31 923 3865Z" fill-rule="evenodd"/><path d="M955 3879.5C955 3875.91 957.686 3873 961 3873 964.314 3873 967 3875.91 967 3879.5 967 3883.09 964.314 3886 961 3886 957.686 3886 955 3883.09 955 3879.5Z" fill-rule="evenodd"/><path d="M986 3866C986 3862.69 988.686 3860 992 3860 995.314 3860 998 3862.69 998 3866 998 3869.31 995.314 3872 992 3872 988.686 3872 986 3869.31 986 3866Z" fill-rule="evenodd"/><path d="M1017 3875.5C1017 3871.91 1019.91 3869 1023.5 3869 1027.09 3869 1030 3871.91 1030 3875.5 1030 3879.09 1027.09 3882 1023.5 3882 1019.91 3882 1017 3879.09 1017 3875.5Z" fill-rule="evenodd"/><path d="M1048 3862C1048 3858.69 1050.91 3856 1054.5 3856 1058.09 3856 1061 3858.69 1061 3862 1061 3865.31 1058.09 3868 1054.5 3868 1050.91 3868 1048 3865.31 1048 3862Z" fill-rule="evenodd"/><path d="M1080 3877C1080 3873.69 1082.69 3871 1086 3871 1089.31 3871 1092 3873.69 1092 3877 1092 3880.31 1089.31 3883 1086 3883 1082.69 3883 1080 3880.31 1080 3877Z" fill-rule="evenodd"/><path d="M1111 3867.5C1111 3863.91 1113.69 3861 1117 3861 1120.31 3861 1123 3863.91 1123 3867.5 1123 3871.09 1120.31 3874 1117 3874 1113.69 3874 1111 3871.09 1111 3867.5Z" fill-rule="evenodd"/><path d="M1142 3873C1142 3869.69 1144.91 3867 1148.5 3867 1152.09 3867 1155 3869.69 1155 3873 1155 3876.31 1152.09 3879 1148.5 3879 1144.91 3879 1142 3876.31 1142 3873Z" fill-rule="evenodd"/><path d="M0 0 16.5383 14.5909" stroke="#000000" stroke-width="4.58333" stroke-linejoin="round" stroke-miterlimit="10" fill="none" fill-rule="evenodd" transform="matrix(1 0 0 -1 434.5 3873.09)"/><path d="M463.5 3858.5 485.177 3885.32" stroke="#000000" stroke-width="4.58333" stroke-linejoin="round" stroke-miterlimit="10" fill="none" fill-rule="evenodd"/><path d="M0 0 19.1074 22.7586" stroke="#000000" stroke-width="4.58333" stroke-linejoin="round" stroke-miterlimit="10" fill="none" fill-rule="evenodd" transform="matrix(1 0 0 -1 497.5 3885.26)"/><path d="M528.5 3862.5 547.607 3880.89" stroke="#000000" stroke-width="4.58333" stroke-linejoin="round" stroke-miterlimit="10" fill="none" fill-rule="evenodd"/><path d="M591.5 3857.5 610.608 3892.9" stroke="#000000" stroke-width="4.58333" stroke-linejoin="round" stroke-miterlimit="10" fill="none" fill-rule="evenodd"/><path d="M0 0 19.1074 30.1515" stroke="#000000" stroke-width="4.58333" stroke-linejoin="round" stroke-miterlimit="10" fill="none" fill-rule="evenodd" transform="matrix(1 0 0 -1 622.5 3892.65)"/><path d="M654.5 3862.5 673.607 3875.61" stroke="#000000" stroke-width="4.58333" stroke-linejoin="round" stroke-miterlimit="10" fill="none" fill-rule="evenodd"/><path d="M0 0 19.1074 23.5969" stroke="#000000" stroke-width="4.58333" stroke-linejoin="round" stroke-miterlimit="10" fill="none" fill-rule="evenodd" transform="matrix(1 0 0 -1 560.5 3881.1)"/><path d="M0 0 19.1074 3.93301" stroke="#000000" stroke-width="4.58333" stroke-linejoin="round" stroke-miterlimit="10" fill="none" fill-rule="evenodd" transform="matrix(1 0 0 -1 685.5 3876.43)"/><path d="M748.5 3864.5 767.607 3878.92" stroke="#000000" stroke-width="4.58333" stroke-linejoin="round" stroke-miterlimit="10" fill="none" fill-rule="evenodd"/><path d="M0 0 19.1074 13.1098" stroke="#000000" stroke-width="4.58333" stroke-linejoin="round" stroke-miterlimit="10" fill="none" fill-rule="evenodd" transform="matrix(1 0 0 -1 779.5 3878.61)"/><path d="M810.5 3865.5 829.607 3882.54" stroke="#000000" stroke-width="4.58333" stroke-linejoin="round" stroke-miterlimit="10" fill="none" fill-rule="evenodd"/><path d="M0 0 19.1074 15.7317" stroke="#000000" stroke-width="4.58333" stroke-linejoin="round" stroke-miterlimit="10" fill="none" fill-rule="evenodd" transform="matrix(1 0 0 -1 842.5 3882.23)"/><path d="M0 0 19.1074 18.3535" stroke="#000000" stroke-width="4.58333" stroke-linejoin="round" stroke-miterlimit="10" fill="none" fill-rule="evenodd" transform="matrix(1 0 0 -1 904.5 3883.85)"/><path d="M936.5 3865.5 955.607 3879.92" stroke="#000000" stroke-width="4.58333" stroke-linejoin="round" stroke-miterlimit="10" fill="none" fill-rule="evenodd"/><path d="M0 0 19.1074 13.1098" stroke="#000000" stroke-width="4.58333" stroke-linejoin="round" stroke-miterlimit="10" fill="none" fill-rule="evenodd" transform="matrix(1 0 0 -1 967.5 3879.61)"/><path d="M998.5 3866.5 1017.61 3875.68" stroke="#000000" stroke-width="4.58333" stroke-linejoin="round" stroke-miterlimit="10" fill="none" fill-rule="evenodd"/><path d="M873.5 3866.5 892.607 3883.54" stroke="#000000" stroke-width="4.58333" stroke-linejoin="round" stroke-miterlimit="10" fill="none" fill-rule="evenodd"/><path d="M0 0 19.1074 7.86565" stroke="#000000" stroke-width="4.58333" stroke-linejoin="round" stroke-miterlimit="10" fill="none" fill-rule="evenodd" transform="matrix(1 0 0 -1 716.5 3872.37)"/><path d="M1061.5 3862.5 1080.61 3876.92" stroke="#000000" stroke-width="4.58333" stroke-linejoin="round" stroke-miterlimit="10" fill="none" fill-rule="evenodd"/><path d="M1123.5 3868.5 1142.61 3873.74" stroke="#000000" stroke-width="4.58333" stroke-linejoin="round" stroke-miterlimit="10" fill="none" fill-rule="evenodd"/><path d="M0 0 19.1074 9.17677" stroke="#000000" stroke-width="4.58333" stroke-linejoin="round" stroke-miterlimit="10" fill="none" fill-rule="evenodd" transform="matrix(1 0 0 -1 1092.5 3877.68)"/><path d="M0 0 18.6939 8.9541" stroke="#000000" stroke-width="4.58333" stroke-linejoin="round" stroke-miterlimit="10" fill="none" fill-rule="evenodd" transform="matrix(1 0 0 -1 1030.5 3873.45)"/></g></svg>