<svg width="831" height="575" xmlns="http://www.w3.org/2000/svg" xmlns:xlink="http://www.w3.org/1999/xlink" xml:space="preserve" overflow="hidden"><defs><linearGradient x1="1251" y1="3652.5" x2="1251" y2="4212.5" gradientUnits="userSpaceOnUse" spreadMethod="reflect" id="fill0"><stop offset="0" stop-color="#00B050"/><stop offset="0.5" stop-color="#FFFF00"/><stop offset="1" stop-color="#FF0000"/></linearGradient></defs><g transform="translate(-1236 -3650)"><path d="M1238.5 3665C1238.5 3658.1 1244.1 3652.5 1251 3652.5L1251 3652.5C1257.9 3652.5 1263.5 3658.1 1263.5 3665L1263.5 4200C1263.5 4206.9 1257.9 4212.5 1251 4212.5L1251 4212.5C1244.1 4212.5 1238.5 4206.9 1238.5 4200Z" stroke="#0F1B37" stroke-width="4.58333" stroke-linejoin="round" stroke-miterlimit="10" fill="url(#fill0)" fill-rule="evenodd"/><path d="M1285.5 4212.5 2063.37 4212.5" stroke="#000000" stroke-width="6.875" stroke-linejoin="round" stroke-miterlimit="10" fill="none" fill-rule="evenodd"/><path d="M0 0 0.000360892 23.7716" stroke="#000000" stroke-width="6.875" stroke-linejoin="round" stroke-miterlimit="10" fill="none" fill-rule="evenodd" transform="matrix(1 0 0 -1 1302.5 4224.27)"/><path d="M0 0 0.000360892 23.7716" stroke="#000000" stroke-width="6.875" stroke-linejoin="round" stroke-miterlimit="10" fill="none" fill-rule="evenodd" transform="matrix(1 0 0 -1 1357.5 4224.27)"/><path d="M0 0 0.000360892 23.7716" stroke="#000000" stroke-width="6.875" stroke-linejoin="round" stroke-miterlimit="10" fill="none" fill-rule="evenodd" transform="matrix(1 0 0 -1 1411.5 4224.27)"/><path d="M0 0 0.000360892 23.7716" stroke="#000000" stroke-width="6.875" stroke-linejoin="round" stroke-miterlimit="10" fill="none" fill-rule="evenodd" transform="matrix(1 0 0 -1 1465.5 4224.27)"/><path d="M0 0 0.000360892 23.7716" stroke="#000000" stroke-width="6.875" stroke-linejoin="round" stroke-miterlimit="10" fill="none" fill-rule="evenodd" transform="matrix(1 0 0 -1 1519.5 4224.27)"/><path d="M0 0 0.000360892 23.7716" stroke="#000000" stroke-width="6.875" stroke-linejoin="round" stroke-miterlimit="10" fill="none" fill-rule="evenodd" transform="matrix(1 0 0 -1 1573.5 4224.27)"/><path d="M0 0 0.000360892 23.7716" stroke="#000000" stroke-width="6.875" stroke-linejoin="round" stroke-miterlimit="10" fill="none" fill-rule="evenodd" transform="matrix(1 0 0 -1 1627.5 4224.27)"/><path d="M0 0 0.000360892 23.7716" stroke="#000000" stroke-width="6.875" stroke-linejoin="round" stroke-miterlimit="10" fill="none" fill-rule="evenodd" transform="matrix(1 0 0 -1 1682.5 4224.27)"/><path d="M0 0 0.000360892 23.7716" stroke="#000000" stroke-width="6.875" stroke-linejoin="round" stroke-miterlimit="10" fill="none" fill-rule="evenodd" transform="matrix(1 0 0 -1 1736.5 4224.27)"/><path d="M0 0 0.000360892 23.7716" stroke="#000000" stroke-width="6.875" stroke-linejoin="round" stroke-miterlimit="10" fill="none" fill-rule="evenodd" transform="matrix(1 0 0 -1 1790.5 4224.27)"/><path d="M0 0 0.000360892 23.7716" stroke="#000000" stroke-width="6.875" stroke-linejoin="round" stroke-miterlimit="10" fill="none" fill-rule="evenodd" transform="matrix(1 0 0 -1 1844.5 4224.27)"/><path d="M0 0 0.000360892 23.7716" stroke="#000000" stroke-width="6.875" stroke-linejoin="round" stroke-miterlimit="10" fill="none" fill-rule="evenodd" transform="matrix(1 0 0 -1 1898.5 4224.27)"/><path d="M0 0 0.000360892 23.7716" stroke="#000000" stroke-width="6.875" stroke-linejoin="round" stroke-miterlimit="10" fill="none" fill-rule="evenodd" transform="matrix(1 0 0 -1 1952.5 4224.27)"/><path d="M0 0 0.000360892 23.7716" stroke="#000000" stroke-width="6.875" stroke-linejoin="round" stroke-miterlimit="10" fill="none" fill-rule="evenodd" transform="matrix(1 0 0 -1 2007.5 4224.27)"/><path d="M0 0 0.000360892 23.7716" stroke="#000000" stroke-width="6.875" stroke-linejoin="round" stroke-miterlimit="10" fill="none" fill-rule="evenodd" transform="matrix(1 0 0 -1 2061.5 4224.27)"/><path d="M1318 3741C1318 3737.69 1320.91 3735 1324.5 3735 1328.09 3735 1331 3737.69 1331 3741 1331 3744.31 1328.09 3747 1324.5 3747 1320.91 3747 1318 3744.31 1318 3741Z" fill-rule="evenodd"/><path d="M1347 3726C1347 3722.69 1349.69 3720 1353 3720 1356.31 3720 1359 3722.69 1359 3726 1359 3729.31 1356.31 3732 1353 3732 1349.69 3732 1347 3729.31 1347 3726Z" fill-rule="evenodd"/><path d="M1381 3753C1381 3749.69 1383.69 3747 1387 3747 1390.31 3747 1393 3749.69 1393 3753 1393 3756.31 1390.31 3759 1387 3759 1383.69 3759 1381 3756.31 1381 3753Z" fill-rule="evenodd"/><path d="M1412 3730C1412 3726.69 1414.91 3724 1418.5 3724 1422.09 3724 1425 3726.69 1425 3730 1425 3733.31 1422.09 3736 1418.5 3736 1414.91 3736 1412 3733.31 1412 3730Z" fill-rule="evenodd"/><path d="M1444 3749C1444 3745.69 1446.69 3743 1450 3743 1453.31 3743 1456 3745.69 1456 3749 1456 3752.31 1453.31 3755 1450 3755 1446.69 3755 1444 3752.31 1444 3749Z" fill-rule="evenodd"/><path d="M1475 3725C1475 3721.69 1477.69 3719 1481 3719 1484.31 3719 1487 3721.69 1487 3725 1487 3728.31 1484.31 3731 1481 3731 1477.69 3731 1475 3728.31 1475 3725Z" fill-rule="evenodd"/><path d="M1506 3760.5C1506 3756.91 1508.91 3754 1512.5 3754 1516.09 3754 1519 3756.91 1519 3760.5 1519 3764.09 1516.09 3767 1512.5 3767 1508.91 3767 1506 3764.09 1506 3760.5Z" fill-rule="evenodd"/><path d="M1538 3730C1538 3726.69 1540.69 3724 1544 3724 1547.31 3724 1550 3726.69 1550 3730 1550 3733.31 1547.31 3736 1544 3736 1540.69 3736 1538 3733.31 1538 3730Z" fill-rule="evenodd"/><path d="M1569 3743.5C1569 3739.91 1571.69 3737 1575 3737 1578.31 3737 1581 3739.91 1581 3743.5 1581 3747.09 1578.31 3750 1575 3750 1571.69 3750 1569 3747.09 1569 3743.5Z" fill-rule="evenodd"/><path d="M1600 3739.5C1600 3735.91 1602.91 3733 1606.5 3733 1610.09 3733 1613 3735.91 1613 3739.5 1613 3743.09 1610.09 3746 1606.5 3746 1602.91 3746 1600 3743.09 1600 3739.5Z" fill-rule="evenodd"/><path d="M1632 3732C1632 3728.69 1634.69 3726 1638 3726 1641.31 3726 1644 3728.69 1644 3732 1644 3735.31 1641.31 3738 1638 3738 1634.69 3738 1632 3735.31 1632 3732Z" fill-rule="evenodd"/><path d="M1663 3746C1663 3742.69 1665.69 3740 1669 3740 1672.31 3740 1675 3742.69 1675 3746 1675 3749.31 1672.31 3752 1669 3752 1665.69 3752 1663 3749.31 1663 3746Z" fill-rule="evenodd"/><path d="M1695 3733C1695 3729.69 1697.69 3727 1701 3727 1704.31 3727 1707 3729.69 1707 3733 1707 3736.31 1704.31 3739 1701 3739 1697.69 3739 1695 3736.31 1695 3733Z" fill-rule="evenodd"/><path d="M1726 3750C1726 3746.69 1728.69 3744 1732 3744 1735.31 3744 1738 3746.69 1738 3750 1738 3753.31 1735.31 3756 1732 3756 1728.69 3756 1726 3753.31 1726 3750Z" fill-rule="evenodd"/><path d="M1757 3943C1757 3939.69 1759.69 3937 1763 3937 1766.31 3937 1769 3939.69 1769 3943 1769 3946.31 1766.31 3949 1763 3949 1759.69 3949 1757 3946.31 1757 3943Z" fill-rule="evenodd"/><path d="M1789 3978.5C1789 3974.91 1791.69 3972 1795 3972 1798.31 3972 1801 3974.91 1801 3978.5 1801 3982.09 1798.31 3985 1795 3985 1791.69 3985 1789 3982.09 1789 3978.5Z" fill-rule="evenodd"/><path d="M1820 3946C1820 3942.69 1822.69 3940 1826 3940 1829.31 3940 1832 3942.69 1832 3946 1832 3949.31 1829.31 3952 1826 3952 1822.69 3952 1820 3949.31 1820 3946Z" fill-rule="evenodd"/><path d="M1851 3970C1851 3966.69 1853.69 3964 1857 3964 1860.31 3964 1863 3966.69 1863 3970 1863 3973.31 1860.31 3976 1857 3976 1853.69 3976 1851 3973.31 1851 3970Z" fill-rule="evenodd"/><path d="M1883 3973C1883 3969.69 1885.69 3967 1889 3967 1892.31 3967 1895 3969.69 1895 3973 1895 3976.31 1892.31 3979 1889 3979 1885.69 3979 1883 3976.31 1883 3973Z" fill-rule="evenodd"/><path d="M1914 3954C1914 3950.69 1916.69 3948 1920 3948 1923.31 3948 1926 3950.69 1926 3954 1926 3957.31 1923.31 3960 1920 3960 1916.69 3960 1914 3957.31 1914 3954Z" fill-rule="evenodd"/><path d="M1945 3950C1945 3946.69 1947.69 3944 1951 3944 1954.31 3944 1957 3946.69 1957 3950 1957 3953.31 1954.31 3956 1951 3956 1947.69 3956 1945 3953.31 1945 3950Z" fill-rule="evenodd"/><path d="M1976 3931C1976 3927.69 1978.69 3925 1982 3925 1985.31 3925 1988 3927.69 1988 3931 1988 3934.31 1985.31 3937 1982 3937 1978.69 3937 1976 3934.31 1976 3931Z" fill-rule="evenodd"/><path d="M2007 3915C2007 3911.69 2009.91 3909 2013.5 3909 2017.09 3909 2020 3911.69 2020 3915 2020 3918.31 2017.09 3921 2013.5 3921 2009.91 3921 2007 3918.31 2007 3915Z" fill-rule="evenodd"/><path d="M2039 3909C2039 3905.69 2041.69 3903 2045 3903 2048.31 3903 2051 3905.69 2051 3909 2051 3912.31 2048.31 3915 2045 3915 2041.69 3915 2039 3912.31 2039 3909Z" fill-rule="evenodd"/><path d="M0 0 16.5383 14.5912" stroke="#000000" stroke-width="4.58333" stroke-linejoin="round" stroke-miterlimit="10" fill="none" fill-rule="evenodd" transform="matrix(1 0 0 -1 1331.5 3741.09)"/><path d="M1359.5 3726.5 1381.18 3753.32" stroke="#000000" stroke-width="4.58333" stroke-linejoin="round" stroke-miterlimit="10" fill="none" fill-rule="evenodd"/><path d="M0 0 19.1074 22.759" stroke="#000000" stroke-width="4.58333" stroke-linejoin="round" stroke-miterlimit="10" fill="none" fill-rule="evenodd" transform="matrix(1 0 0 -1 1393.5 3753.26)"/><path d="M1425.5 3730.5 1444.61 3748.89" stroke="#000000" stroke-width="4.58333" stroke-linejoin="round" stroke-miterlimit="10" fill="none" fill-rule="evenodd"/><path d="M1487.5 3725.5 1506.61 3760.9" stroke="#000000" stroke-width="4.58333" stroke-linejoin="round" stroke-miterlimit="10" fill="none" fill-rule="evenodd"/><path d="M0 0 19.1074 30.1515" stroke="#000000" stroke-width="4.58333" stroke-linejoin="round" stroke-miterlimit="10" fill="none" fill-rule="evenodd" transform="matrix(1 0 0 -1 1519.5 3760.65)"/><path d="M1550.5 3730.5 1569.61 3743.61" stroke="#000000" stroke-width="4.58333" stroke-linejoin="round" stroke-miterlimit="10" fill="none" fill-rule="evenodd"/><path d="M0 0 19.1074 3.93301" stroke="#000000" stroke-width="4.58333" stroke-linejoin="round" stroke-miterlimit="10" fill="none" fill-rule="evenodd" transform="matrix(1 0 0 -1 1581.5 3744.43)"/><path d="M0 0 19.1074 23.5969" stroke="#000000" stroke-width="4.58333" stroke-linejoin="round" stroke-miterlimit="10" fill="none" fill-rule="evenodd" transform="matrix(1 0 0 -1 1456.5 3749.1)"/><path d="M1644.5 3732.5 1663.61 3746.92" stroke="#000000" stroke-width="4.58333" stroke-linejoin="round" stroke-miterlimit="10" fill="none" fill-rule="evenodd"/><path d="M0 0 19.1074 13.1094" stroke="#000000" stroke-width="4.58333" stroke-linejoin="round" stroke-miterlimit="10" fill="none" fill-rule="evenodd" transform="matrix(1 0 0 -1 1675.5 3746.61)"/><path d="M1707.5 3733.5 1726.61 3750.54" stroke="#000000" stroke-width="4.58333" stroke-linejoin="round" stroke-miterlimit="10" fill="none" fill-rule="evenodd"/><path d="M1738.5 3750.5 1757.61 3943.57" stroke="#000000" stroke-width="4.58333" stroke-linejoin="round" stroke-miterlimit="10" fill="none" fill-rule="evenodd"/><path d="M0 0 19.1074 32.3544" stroke="#000000" stroke-width="4.58333" stroke-linejoin="round" stroke-miterlimit="10" fill="none" fill-rule="evenodd" transform="matrix(1 0 0 -1 1801.5 3978.85)"/><path d="M1832.5 3946.5 1851.61 3970.1" stroke="#000000" stroke-width="4.58333" stroke-linejoin="round" stroke-miterlimit="10" fill="none" fill-rule="evenodd"/><path d="M1863.5 3970.5 1882.61 3974.08" stroke="#000000" stroke-width="4.58333" stroke-linejoin="round" stroke-miterlimit="10" fill="none" fill-rule="evenodd"/><path d="M0 0 19.1074 19.2579" stroke="#000000" stroke-width="4.58333" stroke-linejoin="round" stroke-miterlimit="10" fill="none" fill-rule="evenodd" transform="matrix(1 0 0 -1 1895.5 3973.76)"/><path d="M1769.5 3943.5 1788.61 3978.9" stroke="#000000" stroke-width="4.58333" stroke-linejoin="round" stroke-miterlimit="10" fill="none" fill-rule="evenodd"/><path d="M0 0 19.1074 7.86565" stroke="#000000" stroke-width="4.58333" stroke-linejoin="round" stroke-miterlimit="10" fill="none" fill-rule="evenodd" transform="matrix(1 0 0 -1 1613.5 3740.37)"/><path d="M0 0 19.1074 18.407" stroke="#000000" stroke-width="4.58333" stroke-linejoin="round" stroke-miterlimit="10" fill="none" fill-rule="evenodd" transform="matrix(1 0 0 -1 1957.5 3949.91)"/><path d="M0 0 19.1074 6.55489" stroke="#000000" stroke-width="4.58333" stroke-linejoin="round" stroke-miterlimit="10" fill="none" fill-rule="evenodd" transform="matrix(1 0 0 -1 2020.5 3916.05)"/><path d="M0 0 19.1074 16.1507" stroke="#000000" stroke-width="4.58333" stroke-linejoin="round" stroke-miterlimit="10" fill="none" fill-rule="evenodd" transform="matrix(1 0 0 -1 1988.5 3931.65)"/><path d="M0 0 18.6942 4.29823" stroke="#000000" stroke-width="4.58333" stroke-linejoin="round" stroke-miterlimit="10" fill="none" fill-rule="evenodd" transform="matrix(1 0 0 -1 1926.5 3954.8)"/></g></svg>