<?xml version="1.0" encoding="UTF-8" standalone="no"?>
<svg
   width="830.78961"
   height="579.22162"
   xml:space="preserve"
   overflow="hidden"
   version="1.1"
   id="svg66"
   sodipodi:docname="12.svg"
   inkscape:version="1.3.2 (091e20e, 2023-11-25, custom)"
   xmlns:inkscape="http://www.inkscape.org/namespaces/inkscape"
   xmlns:sodipodi="http://sodipodi.sourceforge.net/DTD/sodipodi-0.dtd"
   xmlns="http://www.w3.org/2000/svg"
   xmlns:svg="http://www.w3.org/2000/svg"><sodipodi:namedview
     id="namedview66"
     pagecolor="#ffffff"
     bordercolor="#666666"
     borderopacity="1.0"
     inkscape:showpageshadow="2"
     inkscape:pageopacity="0.0"
     inkscape:pagecheckerboard="0"
     inkscape:deskcolor="#d1d1d1"
     inkscape:zoom="10.204573"
     inkscape:cx="802.77736"
     inkscape:cy="540.49298"
     inkscape:window-width="1920"
     inkscape:window-height="1051"
     inkscape:window-x="-9"
     inkscape:window-y="-9"
     inkscape:window-maximized="1"
     inkscape:current-layer="svg66" /><defs
     id="defs3"><linearGradient
       x1="1251"
       y1="3652.5"
       x2="1251"
       y2="4212.5"
       gradientUnits="userSpaceOnUse"
       spreadMethod="reflect"
       id="fill0"
       gradientTransform="translate(-1236.2083,-3650.2083)"><stop
         offset="0"
         stop-color="#00B050"
         id="stop1" /><stop
         offset="0.5"
         stop-color="#FFFF00"
         id="stop2" /><stop
         offset="1"
         stop-color="#FF0000"
         id="stop3" /></linearGradient></defs><path
     d="m 2.2916651,14.791665 c 0,-6.8999999 5.6,-12.4999999 12.4999999,-12.4999999 v 0 c 6.9,0 12.5,5.6 12.5,12.4999999 V 549.79167 c 0,6.9 -5.6,12.5 -12.5,12.5 v 0 c -6.8999999,0 -12.4999999,-5.6 -12.4999999,-12.5 z"
     stroke="#0f1b37"
     stroke-width="4.58333"
     stroke-linejoin="round"
     stroke-miterlimit="10"
     fill="url(#fill0)"
     fill-rule="evenodd"
     id="path3"
     style="fill:url(#fill0)" /><path
     d="M 49.291665,562.29167 H 827.16167"
     stroke="#000000"
     stroke-width="6.875"
     stroke-linejoin="round"
     stroke-miterlimit="10"
     fill="none"
     fill-rule="evenodd"
     id="path4" /><path
     d="m 66.291665,574.06167 3.61e-4,-23.7716"
     stroke="#000000"
     stroke-width="6.875"
     stroke-linejoin="round"
     stroke-miterlimit="10"
     fill="none"
     fill-rule="evenodd"
     id="path5" /><path
     d="m 121.29167,574.06167 3.6e-4,-23.7716"
     stroke="#000000"
     stroke-width="6.875"
     stroke-linejoin="round"
     stroke-miterlimit="10"
     fill="none"
     fill-rule="evenodd"
     id="path6" /><path
     d="m 175.29167,574.06167 3.6e-4,-23.7716"
     stroke="#000000"
     stroke-width="6.875"
     stroke-linejoin="round"
     stroke-miterlimit="10"
     fill="none"
     fill-rule="evenodd"
     id="path7" /><path
     d="m 229.29167,574.06167 3.6e-4,-23.7716"
     stroke="#000000"
     stroke-width="6.875"
     stroke-linejoin="round"
     stroke-miterlimit="10"
     fill="none"
     fill-rule="evenodd"
     id="path8" /><path
     d="m 283.29167,574.06167 3.6e-4,-23.7716"
     stroke="#000000"
     stroke-width="6.875"
     stroke-linejoin="round"
     stroke-miterlimit="10"
     fill="none"
     fill-rule="evenodd"
     id="path9" /><path
     d="m 337.29167,574.06167 3.6e-4,-23.7716"
     stroke="#000000"
     stroke-width="6.875"
     stroke-linejoin="round"
     stroke-miterlimit="10"
     fill="none"
     fill-rule="evenodd"
     id="path10" /><path
     d="m 391.29167,574.06167 3.6e-4,-23.7716"
     stroke="#000000"
     stroke-width="6.875"
     stroke-linejoin="round"
     stroke-miterlimit="10"
     fill="none"
     fill-rule="evenodd"
     id="path11" /><path
     d="m 446.29167,574.06167 3.6e-4,-23.7716"
     stroke="#000000"
     stroke-width="6.875"
     stroke-linejoin="round"
     stroke-miterlimit="10"
     fill="none"
     fill-rule="evenodd"
     id="path12" /><path
     d="m 500.29167,574.06167 3.6e-4,-23.7716"
     stroke="#000000"
     stroke-width="6.875"
     stroke-linejoin="round"
     stroke-miterlimit="10"
     fill="none"
     fill-rule="evenodd"
     id="path13" /><path
     d="m 554.29167,574.06167 3.6e-4,-23.7716"
     stroke="#000000"
     stroke-width="6.875"
     stroke-linejoin="round"
     stroke-miterlimit="10"
     fill="none"
     fill-rule="evenodd"
     id="path14" /><path
     d="m 608.29167,574.06167 3.6e-4,-23.7716"
     stroke="#000000"
     stroke-width="6.875"
     stroke-linejoin="round"
     stroke-miterlimit="10"
     fill="none"
     fill-rule="evenodd"
     id="path15" /><path
     d="m 662.29167,574.06167 3.6e-4,-23.7716"
     stroke="#000000"
     stroke-width="6.875"
     stroke-linejoin="round"
     stroke-miterlimit="10"
     fill="none"
     fill-rule="evenodd"
     id="path16" /><path
     d="m 716.29167,574.06167 3.6e-4,-23.7716"
     stroke="#000000"
     stroke-width="6.875"
     stroke-linejoin="round"
     stroke-miterlimit="10"
     fill="none"
     fill-rule="evenodd"
     id="path17" /><path
     d="m 771.29167,574.06167 3.6e-4,-23.7716"
     stroke="#000000"
     stroke-width="6.875"
     stroke-linejoin="round"
     stroke-miterlimit="10"
     fill="none"
     fill-rule="evenodd"
     id="path18" /><path
     d="m 81.791665,90.791665 c 0,-3.31 2.91,-6 6.5,-6 3.59,0 6.5,2.69 6.5,6 0,3.31 -2.91,6 -6.5,6 -3.59,0 -6.5,-2.69 -6.5,-6 z"
     fill-rule="evenodd"
     id="path20" /><path
     d="m 110.79167,75.791665 c 0,-3.31 2.69,-6 6,-6 3.31,0 6,2.69 6,6 0,3.31 -2.69,6 -6,6 -3.31,0 -6,-2.69 -6,-6 z"
     fill-rule="evenodd"
     id="path21" /><path
     d="m 144.79167,102.79167 c 0,-3.310005 2.69,-6.000005 6,-6.000005 3.31,0 6,2.69 6,6.000005 0,3.31 -2.69,6 -6,6 -3.31,0 -6,-2.69 -6,-6 z"
     fill-rule="evenodd"
     id="path22" /><path
     d="m 175.79167,79.791665 c 0,-3.31 2.91,-6 6.5,-6 3.59,0 6.5,2.69 6.5,6 0,3.31 -2.91,6 -6.5,6 -3.59,0 -6.5,-2.69 -6.5,-6 z"
     fill-rule="evenodd"
     id="path23" /><path
     d="m 207.79167,98.791665 c 0,-3.31 2.69,-6 6,-6 3.31,0 6,2.69 6,6 0,3.310005 -2.69,6.000005 -6,6.000005 -3.31,0 -6,-2.69 -6,-6.000005 z"
     fill-rule="evenodd"
     id="path24" /><path
     d="m 238.79167,74.791665 c 0,-3.31 2.69,-6 6,-6 3.31,0 6,2.69 6,6 0,3.31 -2.69,6 -6,6 -3.31,0 -6,-2.69 -6,-6 z"
     fill-rule="evenodd"
     id="path25" /><path
     d="m 269.79167,110.29167 c 0,-3.59 2.91,-6.5 6.5,-6.5 3.59,0 6.5,2.91 6.5,6.5 0,3.59 -2.91,6.5 -6.5,6.5 -3.59,0 -6.5,-2.91 -6.5,-6.5 z"
     fill-rule="evenodd"
     id="path26" /><path
     d="m 301.79167,79.791665 c 0,-3.31 2.69,-6 6,-6 3.31,0 6,2.69 6,6 0,3.31 -2.69,6 -6,6 -3.31,0 -6,-2.69 -6,-6 z"
     fill-rule="evenodd"
     id="path27" /><path
     d="m 332.79167,93.291665 c 0,-3.59 2.69,-6.5 6,-6.5 3.31,0 6,2.91 6,6.5 0,3.59 -2.69,6.5 -6,6.5 -3.31,0 -6,-2.91 -6,-6.5 z"
     fill-rule="evenodd"
     id="path28" /><path
     d="m 363.79167,89.291665 c 0,-3.59 2.91,-6.5 6.5,-6.5 3.59,0 6.5,2.91 6.5,6.5 0,3.59 -2.91,6.5 -6.5,6.5 -3.59,0 -6.5,-2.91 -6.5,-6.5 z"
     fill-rule="evenodd"
     id="path29" /><path
     d="m 395.79167,81.791665 c 0,-3.31 2.69,-6 6,-6 3.31,0 6,2.69 6,6 0,3.31 -2.69,6 -6,6 -3.31,0 -6,-2.69 -6,-6 z"
     fill-rule="evenodd"
     id="path30" /><path
     d="m 426.79167,95.791665 c 0,-3.31 2.69,-6 6,-6 3.31,0 6,2.69 6,6 0,3.31 -2.69,6.000005 -6,6.000005 -3.31,0 -6,-2.690005 -6,-6.000005 z"
     fill-rule="evenodd"
     id="path31" /><path
     d="m 458.79167,82.791665 c 0,-3.31 2.69,-6 6,-6 3.31,0 6,2.69 6,6 0,3.31 -2.69,6 -6,6 -3.31,0 -6,-2.69 -6,-6 z"
     fill-rule="evenodd"
     id="path32" /><path
     d="m 489.79167,99.791665 c 0,-3.31 2.69,-6 6,-6 3.31,0 6,2.69 6,6 0,3.310005 -2.69,6.000005 -6,6.000005 -3.31,0 -6,-2.69 -6,-6.000005 z"
     fill-rule="evenodd"
     id="path33" /><path
     d="m 520.79167,292.79167 c 0,-3.31 2.69,-6 6,-6 3.31,0 6,2.69 6,6 0,3.31 -2.69,6 -6,6 -3.31,0 -6,-2.69 -6,-6 z"
     fill-rule="evenodd"
     id="path34" /><path
     d="m 552.79167,328.29167 c 0,-3.59 2.69,-6.5 6,-6.5 3.31,0 6,2.91 6,6.5 0,3.59 -2.69,6.5 -6,6.5 -3.31,0 -6,-2.91 -6,-6.5 z"
     fill-rule="evenodd"
     id="path35" /><path
     d="m 583.79167,295.79167 c 0,-3.31 2.69,-6 6,-6 3.31,0 6,2.69 6,6 0,3.31 -2.69,6 -6,6 -3.31,0 -6,-2.69 -6,-6 z"
     fill-rule="evenodd"
     id="path36" /><path
     d="m 614.79167,319.79167 c 0,-3.31 2.69,-6 6,-6 3.31,0 6,2.69 6,6 0,3.31 -2.69,6 -6,6 -3.31,0 -6,-2.69 -6,-6 z"
     fill-rule="evenodd"
     id="path37" /><path
     d="m 646.79167,322.79167 c 0,-3.31 2.69,-6 6,-6 3.31,0 6,2.69 6,6 0,3.31 -2.69,6 -6,6 -3.31,0 -6,-2.69 -6,-6 z"
     fill-rule="evenodd"
     id="path38" /><path
     d="m 677.79167,303.79167 c 0,-3.31 2.69,-6 6,-6 3.31,0 6,2.69 6,6 0,3.31 -2.69,6 -6,6 -3.31,0 -6,-2.69 -6,-6 z"
     fill-rule="evenodd"
     id="path39" /><path
     d="m 708.79167,299.79167 c 0,-3.31 2.69,-6 6,-6 3.31,0 6,2.69 6,6 0,3.31 -2.69,6 -6,6 -3.31,0 -6,-2.69 -6,-6 z"
     fill-rule="evenodd"
     id="path40" /><path
     d="m 739.79167,280.79167 c 0,-3.31 2.69,-6 6,-6 3.31,0 6,2.69 6,6 0,3.31 -2.69,6 -6,6 -3.31,0 -6,-2.69 -6,-6 z"
     fill-rule="evenodd"
     id="path41" /><path
     d="m 770.79167,264.79167 c 0,-3.31 2.91,-6 6.5,-6 3.59,0 6.5,2.69 6.5,6 0,3.31 -2.91,6 -6.5,6 -3.59,0 -6.5,-2.69 -6.5,-6 z"
     fill-rule="evenodd"
     id="path42" /><path
     d="m 802.79167,258.79167 c 0,-3.31 2.69,-6 6,-6 3.31,0 6,2.69 6,6 0,3.31 -2.69,6 -6,6 -3.31,0 -6,-2.69 -6,-6 z"
     fill-rule="evenodd"
     id="path43" /><path
     d="m 95.291665,90.881665 16.538305,-14.5912"
     stroke="#000000"
     stroke-width="4.58333"
     stroke-linejoin="round"
     stroke-miterlimit="10"
     fill="none"
     fill-rule="evenodd"
     id="path44" /><path
     d="m 123.29167,76.291665 21.68,26.820005"
     stroke="#000000"
     stroke-width="4.58333"
     stroke-linejoin="round"
     stroke-miterlimit="10"
     fill="none"
     fill-rule="evenodd"
     id="path45" /><path
     d="m 157.29167,103.05167 19.1074,-22.759005"
     stroke="#000000"
     stroke-width="4.58333"
     stroke-linejoin="round"
     stroke-miterlimit="10"
     fill="none"
     fill-rule="evenodd"
     id="path46" /><path
     d="m 189.29167,80.291665 19.11,18.39"
     stroke="#000000"
     stroke-width="4.58333"
     stroke-linejoin="round"
     stroke-miterlimit="10"
     fill="none"
     fill-rule="evenodd"
     id="path47" /><path
     d="m 251.29167,75.291665 19.11,35.400005"
     stroke="#000000"
     stroke-width="4.58333"
     stroke-linejoin="round"
     stroke-miterlimit="10"
     fill="none"
     fill-rule="evenodd"
     id="path48" /><path
     d="m 283.29167,110.44167 19.1074,-30.151505"
     stroke="#000000"
     stroke-width="4.58333"
     stroke-linejoin="round"
     stroke-miterlimit="10"
     fill="none"
     fill-rule="evenodd"
     id="path49" /><path
     d="m 314.29167,80.291665 19.11,13.11"
     stroke="#000000"
     stroke-width="4.58333"
     stroke-linejoin="round"
     stroke-miterlimit="10"
     fill="none"
     fill-rule="evenodd"
     id="path50" /><path
     d="m 345.29167,94.221665 19.1074,-3.93301"
     stroke="#000000"
     stroke-width="4.58333"
     stroke-linejoin="round"
     stroke-miterlimit="10"
     fill="none"
     fill-rule="evenodd"
     id="path51" /><path
     d="m 220.29167,98.891665 19.1074,-23.5969"
     stroke="#000000"
     stroke-width="4.58333"
     stroke-linejoin="round"
     stroke-miterlimit="10"
     fill="none"
     fill-rule="evenodd"
     id="path52" /><path
     d="m 408.29167,82.291665 19.11,14.42"
     stroke="#000000"
     stroke-width="4.58333"
     stroke-linejoin="round"
     stroke-miterlimit="10"
     fill="none"
     fill-rule="evenodd"
     id="path53" /><path
     d="m 439.29167,96.401665 19.1074,-13.1094"
     stroke="#000000"
     stroke-width="4.58333"
     stroke-linejoin="round"
     stroke-miterlimit="10"
     fill="none"
     fill-rule="evenodd"
     id="path54" /><path
     d="m 471.29167,83.291665 19.11,17.040005"
     stroke="#000000"
     stroke-width="4.58333"
     stroke-linejoin="round"
     stroke-miterlimit="10"
     fill="none"
     fill-rule="evenodd"
     id="path55" /><path
     d="m 502.29167,100.29167 19.11,193.07"
     stroke="#000000"
     stroke-width="4.58333"
     stroke-linejoin="round"
     stroke-miterlimit="10"
     fill="none"
     fill-rule="evenodd"
     id="path56" /><path
     d="m 565.29167,328.64167 19.1074,-32.3544"
     stroke="#000000"
     stroke-width="4.58333"
     stroke-linejoin="round"
     stroke-miterlimit="10"
     fill="none"
     fill-rule="evenodd"
     id="path57" /><path
     d="m 596.29167,296.29167 19.11,23.6"
     stroke="#000000"
     stroke-width="4.58333"
     stroke-linejoin="round"
     stroke-miterlimit="10"
     fill="none"
     fill-rule="evenodd"
     id="path58" /><path
     d="m 627.29167,320.29167 19.11,3.58"
     stroke="#000000"
     stroke-width="4.58333"
     stroke-linejoin="round"
     stroke-miterlimit="10"
     fill="none"
     fill-rule="evenodd"
     id="path59" /><path
     d="m 659.29167,323.55167 19.1074,-19.2579"
     stroke="#000000"
     stroke-width="4.58333"
     stroke-linejoin="round"
     stroke-miterlimit="10"
     fill="none"
     fill-rule="evenodd"
     id="path60" /><path
     d="m 533.29167,293.29167 19.11,35.4"
     stroke="#000000"
     stroke-width="4.58333"
     stroke-linejoin="round"
     stroke-miterlimit="10"
     fill="none"
     fill-rule="evenodd"
     id="path61" /><path
     d="m 377.29167,90.161665 19.1074,-7.86565"
     stroke="#000000"
     stroke-width="4.58333"
     stroke-linejoin="round"
     stroke-miterlimit="10"
     fill="none"
     fill-rule="evenodd"
     id="path62" /><path
     d="m 721.29167,299.70167 19.1074,-18.407"
     stroke="#000000"
     stroke-width="4.58333"
     stroke-linejoin="round"
     stroke-miterlimit="10"
     fill="none"
     fill-rule="evenodd"
     id="path63" /><path
     d="m 784.29167,265.84167 19.1074,-6.55489"
     stroke="#000000"
     stroke-width="4.58333"
     stroke-linejoin="round"
     stroke-miterlimit="10"
     fill="none"
     fill-rule="evenodd"
     id="path64" /><path
     d="m 752.29167,281.44167 19.1074,-16.1507"
     stroke="#000000"
     stroke-width="4.58333"
     stroke-linejoin="round"
     stroke-miterlimit="10"
     fill="none"
     fill-rule="evenodd"
     id="path65" /><path
     d="m 690.29167,304.59167 18.6942,-4.29823"
     stroke="#000000"
     stroke-width="4.58333"
     stroke-linejoin="round"
     stroke-miterlimit="10"
     fill="none"
     fill-rule="evenodd"
     id="path66" /><path
     d="m 811.54967,576.79089 16.80932,-16.8088"
     stroke="#000000"
     stroke-width="6.875"
     stroke-linejoin="round"
     stroke-miterlimit="10"
     fill="none"
     fill-rule="evenodd"
     id="path19"
     sodipodi:nodetypes="cc" /><path
     d="M 828.35891,564.81352 811.55011,548.0042"
     stroke="#000000"
     stroke-width="6.875"
     stroke-linejoin="round"
     stroke-miterlimit="10"
     fill="none"
     fill-rule="evenodd"
     id="path19-6"
     sodipodi:nodetypes="cc" /></svg>
