<?xml version="1.0" encoding="UTF-8" standalone="no"?>
<svg
   width="830.71838"
   height="579.14569"
   xml:space="preserve"
   overflow="hidden"
   version="1.1"
   id="svg66"
   sodipodi:docname="13.svg"
   inkscape:version="1.3.2 (091e20e, 2023-11-25, custom)"
   xmlns:inkscape="http://www.inkscape.org/namespaces/inkscape"
   xmlns:sodipodi="http://sodipodi.sourceforge.net/DTD/sodipodi-0.dtd"
   xmlns="http://www.w3.org/2000/svg"
   xmlns:svg="http://www.w3.org/2000/svg"><sodipodi:namedview
     id="namedview66"
     pagecolor="#ffffff"
     bordercolor="#666666"
     borderopacity="1.0"
     inkscape:showpageshadow="2"
     inkscape:pageopacity="0.0"
     inkscape:pagecheckerboard="0"
     inkscape:deskcolor="#d1d1d1"
     inkscape:zoom="20.409146"
     inkscape:cx="805.76622"
     inkscape:cy="561.0475"
     inkscape:window-width="1920"
     inkscape:window-height="1051"
     inkscape:window-x="-9"
     inkscape:window-y="-9"
     inkscape:window-maximized="1"
     inkscape:current-layer="svg66" /><defs
     id="defs3"><linearGradient
       x1="2152"
       y1="3828.5"
       x2="2152"
       y2="4388.5"
       gradientUnits="userSpaceOnUse"
       spreadMethod="reflect"
       id="fill0"
       gradientTransform="translate(-2137.2083,-3826.2084)"><stop
         offset="0"
         stop-color="#00B050"
         id="stop1" /><stop
         offset="0.5"
         stop-color="#FFFF00"
         id="stop2" /><stop
         offset="1"
         stop-color="#FF0000"
         id="stop3" /></linearGradient></defs><path
     d="m 2.2916651,14.791665 c 0,-6.8999999 5.6,-12.4999999 12.4999999,-12.4999999 v 0 c 6.9,0 12.5,5.6 12.5,12.4999999 V 549.79167 c 0,6.9 -5.6,12.5 -12.5,12.5 v 0 c -6.8999999,0 -12.4999999,-5.6 -12.4999999,-12.5 z"
     stroke="#0f1b37"
     stroke-width="4.58333"
     stroke-linejoin="round"
     stroke-miterlimit="10"
     fill="url(#fill0)"
     fill-rule="evenodd"
     id="path3"
     style="fill:url(#fill0)" /><path
     d="M 49.291665,562.29167 H 827.17167"
     stroke="#000000"
     stroke-width="6.875"
     stroke-linejoin="round"
     stroke-miterlimit="10"
     fill="none"
     fill-rule="evenodd"
     id="path4" /><path
     d="m 67.291665,574.06167 3.6e-4,-23.7716"
     stroke="#000000"
     stroke-width="6.875"
     stroke-linejoin="round"
     stroke-miterlimit="10"
     fill="none"
     fill-rule="evenodd"
     id="path5" /><path
     d="m 121.29167,574.06167 3.6e-4,-23.7716"
     stroke="#000000"
     stroke-width="6.875"
     stroke-linejoin="round"
     stroke-miterlimit="10"
     fill="none"
     fill-rule="evenodd"
     id="path6" /><path
     d="m 175.29167,574.06167 3.6e-4,-23.7716"
     stroke="#000000"
     stroke-width="6.875"
     stroke-linejoin="round"
     stroke-miterlimit="10"
     fill="none"
     fill-rule="evenodd"
     id="path7" /><path
     d="m 229.29167,574.06167 3.6e-4,-23.7716"
     stroke="#000000"
     stroke-width="6.875"
     stroke-linejoin="round"
     stroke-miterlimit="10"
     fill="none"
     fill-rule="evenodd"
     id="path8" /><path
     d="m 283.29167,574.06167 3.6e-4,-23.7716"
     stroke="#000000"
     stroke-width="6.875"
     stroke-linejoin="round"
     stroke-miterlimit="10"
     fill="none"
     fill-rule="evenodd"
     id="path9" /><path
     d="m 337.29167,574.06167 3.6e-4,-23.7716"
     stroke="#000000"
     stroke-width="6.875"
     stroke-linejoin="round"
     stroke-miterlimit="10"
     fill="none"
     fill-rule="evenodd"
     id="path10" /><path
     d="m 392.29167,574.06167 3.6e-4,-23.7716"
     stroke="#000000"
     stroke-width="6.875"
     stroke-linejoin="round"
     stroke-miterlimit="10"
     fill="none"
     fill-rule="evenodd"
     id="path11" /><path
     d="m 446.29167,574.06167 3.6e-4,-23.7716"
     stroke="#000000"
     stroke-width="6.875"
     stroke-linejoin="round"
     stroke-miterlimit="10"
     fill="none"
     fill-rule="evenodd"
     id="path12" /><path
     d="m 500.29167,574.06167 3.6e-4,-23.7716"
     stroke="#000000"
     stroke-width="6.875"
     stroke-linejoin="round"
     stroke-miterlimit="10"
     fill="none"
     fill-rule="evenodd"
     id="path13" /><path
     d="m 554.29167,574.06167 3.6e-4,-23.7716"
     stroke="#000000"
     stroke-width="6.875"
     stroke-linejoin="round"
     stroke-miterlimit="10"
     fill="none"
     fill-rule="evenodd"
     id="path14" /><path
     d="m 608.29167,574.06167 3.6e-4,-23.7716"
     stroke="#000000"
     stroke-width="6.875"
     stroke-linejoin="round"
     stroke-miterlimit="10"
     fill="none"
     fill-rule="evenodd"
     id="path15" /><path
     d="m 662.29167,574.06167 3.6e-4,-23.7716"
     stroke="#000000"
     stroke-width="6.875"
     stroke-linejoin="round"
     stroke-miterlimit="10"
     fill="none"
     fill-rule="evenodd"
     id="path16" /><path
     d="m 717.29167,574.06167 3.6e-4,-23.7716"
     stroke="#000000"
     stroke-width="6.875"
     stroke-linejoin="round"
     stroke-miterlimit="10"
     fill="none"
     fill-rule="evenodd"
     id="path17" /><path
     d="m 771.29167,574.06167 3.6e-4,-23.7716"
     stroke="#000000"
     stroke-width="6.875"
     stroke-linejoin="round"
     stroke-miterlimit="10"
     fill="none"
     fill-rule="evenodd"
     id="path18" /><path
     d="m 82.791665,90.291665 c 0,-3.59 2.69,-6.5 6,-6.5 3.31,0 6,2.91 6,6.5 0,3.59 -2.69,6.5 -6,6.5 -3.31,0 -6,-2.91 -6,-6.5 z"
     fill-rule="evenodd"
     id="path20" /><path
     d="m 110.79167,75.791665 c 0,-3.31 2.91,-6 6.5,-6 3.59,0 6.5,2.69 6.5,6 0,3.31 -2.91,6 -6.5,6 -3.59,0 -6.5,-2.69 -6.5,-6 z"
     fill-rule="evenodd"
     id="path21" /><path
     d="m 144.79167,102.79167 c 0,-3.310005 2.91,-6.000005 6.5,-6.000005 3.59,0 6.5,2.69 6.5,6.000005 0,3.31 -2.91,6 -6.5,6 -3.59,0 -6.5,-2.69 -6.5,-6 z"
     fill-rule="evenodd"
     id="path22" /><path
     d="m 176.79167,339.29167 c 0,-3.59 2.69,-6.5 6,-6.5 3.31,0 6,2.91 6,6.5 0,3.59 -2.69,6.5 -6,6.5 -3.31,0 -6,-2.91 -6,-6.5 z"
     fill-rule="evenodd"
     id="path23" /><path
     d="m 207.79167,465.29167 c 0,-3.59 2.69,-6.5 6,-6.5 3.31,0 6,2.91 6,6.5 0,3.59 -2.69,6.5 -6,6.5 -3.31,0 -6,-2.91 -6,-6.5 z"
     fill-rule="evenodd"
     id="path24" /><path
     d="m 95.291665,90.881665 16.537905,-14.5909"
     stroke="#000000"
     stroke-width="4.58333"
     stroke-linejoin="round"
     stroke-miterlimit="10"
     fill="none"
     fill-rule="evenodd"
     id="path25" /><path
     d="m 124.29167,76.291665 21.68,26.820005"
     stroke="#000000"
     stroke-width="4.58333"
     stroke-linejoin="round"
     stroke-miterlimit="10"
     fill="none"
     fill-rule="evenodd"
     id="path26" /><path
     d="m 158.29167,103.29167 19.11,236.81"
     stroke="#000000"
     stroke-width="4.58333"
     stroke-linejoin="round"
     stroke-miterlimit="10"
     fill="none"
     fill-rule="evenodd"
     id="path27" /><path
     d="m 189.29167,340.29167 19.11,125.89"
     stroke="#000000"
     stroke-width="4.58333"
     stroke-linejoin="round"
     stroke-miterlimit="10"
     fill="none"
     fill-rule="evenodd"
     id="path28" /><path
     d="m 238.79167,74.791665 c 0,-3.31 2.91,-6 6.5,-6 3.59,0 6.5,2.69 6.5,6 0,3.31 -2.91,6 -6.5,6 -3.59,0 -6.5,-2.69 -6.5,-6 z"
     fill-rule="evenodd"
     id="path29" /><path
     d="m 270.79167,471.79167 c 0,-3.31 2.69,-6 6,-6 3.31,0 6,2.69 6,6 0,3.31 -2.69,6 -6,6 -3.31,0 -6,-2.69 -6,-6 z"
     fill-rule="evenodd"
     id="path30" /><path
     d="m 301.79167,79.791665 c 0,-3.31 2.69,-6 6,-6 3.31,0 6,2.69 6,6 0,3.31 -2.69,6 -6,6 -3.31,0 -6,-2.69 -6,-6 z"
     fill-rule="evenodd"
     id="path31" /><path
     d="m 332.79167,92.791665 c 0,-3.31 2.91,-6 6.5,-6 3.59,0 6.5,2.69 6.5,6 0,3.31 -2.91,6 -6.5,6 -3.59,0 -6.5,-2.69 -6.5,-6 z"
     fill-rule="evenodd"
     id="path32" /><path
     d="m 364.79167,419.29167 c 0,-3.59 2.69,-6.5 6,-6.5 3.31,0 6,2.91 6,6.5 0,3.59 -2.69,6.5 -6,6.5 -3.31,0 -6,-2.91 -6,-6.5 z"
     fill-rule="evenodd"
     id="path33" /><path
     d="m 252.29167,75.291665 19.11,397.210005"
     stroke="#000000"
     stroke-width="4.58333"
     stroke-linejoin="round"
     stroke-miterlimit="10"
     fill="none"
     fill-rule="evenodd"
     id="path34" /><path
     d="M 283.29167,472.26167 302.39947,80.293665"
     stroke="#000000"
     stroke-width="4.58333"
     stroke-linejoin="round"
     stroke-miterlimit="10"
     fill="none"
     fill-rule="evenodd"
     id="path35" /><path
     d="m 314.29167,80.291665 19.11,13.11"
     stroke="#000000"
     stroke-width="4.58333"
     stroke-linejoin="round"
     stroke-miterlimit="10"
     fill="none"
     fill-rule="evenodd"
     id="path36" /><path
     d="m 346.29167,93.291665 19.11,326.420005"
     stroke="#000000"
     stroke-width="4.58333"
     stroke-linejoin="round"
     stroke-miterlimit="10"
     fill="none"
     fill-rule="evenodd"
     id="path37" /><path
     d="M 220.29167,465.95167 239.39947,75.293665"
     stroke="#000000"
     stroke-width="4.58333"
     stroke-linejoin="round"
     stroke-miterlimit="10"
     fill="none"
     fill-rule="evenodd"
     id="path38" /><path
     d="m 395.79167,411.79167 c 0,-3.31 2.69,-6 6,-6 3.31,0 6,2.69 6,6 0,3.31 -2.69,6 -6,6 -3.31,0 -6,-2.69 -6,-6 z"
     fill-rule="evenodd"
     id="path39" /><path
     d="m 426.79167,95.791665 c 0,-3.31 2.91,-6 6.5,-6 3.59,0 6.5,2.69 6.5,6 0,3.31 -2.91,6.000005 -6.5,6.000005 -3.59,0 -6.5,-2.690005 -6.5,-6.000005 z"
     fill-rule="evenodd"
     id="path40" /><path
     d="m 458.79167,82.791665 c 0,-3.31 2.69,-6 6,-6 3.31,0 6,2.69 6,6 0,3.31 -2.69,6 -6,6 -3.31,0 -6,-2.69 -6,-6 z"
     fill-rule="evenodd"
     id="path41" /><path
     d="m 489.79167,247.79167 c 0,-3.31 2.69,-6 6,-6 3.31,0 6,2.69 6,6 0,3.31 -2.69,6 -6,6 -3.31,0 -6,-2.69 -6,-6 z"
     fill-rule="evenodd"
     id="path42" /><path
     d="m 520.79167,286.79167 c 0,-3.31 2.91,-6 6.5,-6 3.59,0 6.5,2.69 6.5,6 0,3.31 -2.91,6 -6.5,6 -3.59,0 -6.5,-2.69 -6.5,-6 z"
     fill-rule="evenodd"
     id="path43" /><path
     d="M 408.29167,412.22167 427.39947,96.287665"
     stroke="#000000"
     stroke-width="4.58333"
     stroke-linejoin="round"
     stroke-miterlimit="10"
     fill="none"
     fill-rule="evenodd"
     id="path44" /><path
     d="m 440.29167,96.401665 19.1078,-13.1098"
     stroke="#000000"
     stroke-width="4.58333"
     stroke-linejoin="round"
     stroke-miterlimit="10"
     fill="none"
     fill-rule="evenodd"
     id="path45" /><path
     d="m 471.29167,83.291665 19.11,165.180005"
     stroke="#000000"
     stroke-width="4.58333"
     stroke-linejoin="round"
     stroke-miterlimit="10"
     fill="none"
     fill-rule="evenodd"
     id="path46" /><path
     d="m 502.29167,248.29167 19.11,39.33"
     stroke="#000000"
     stroke-width="4.58333"
     stroke-linejoin="round"
     stroke-miterlimit="10"
     fill="none"
     fill-rule="evenodd"
     id="path47" /><path
     d="m 552.79167,174.29167 c 0,-3.59 2.69,-6.5 6,-6.5 3.31,0 6,2.91 6,6.5 0,3.59 -2.69,6.5 -6,6.5 -3.31,0 -6,-2.91 -6,-6.5 z"
     fill-rule="evenodd"
     id="path48" /><path
     d="m 583.79167,438.79167 c 0,-3.31 2.69,-6 6,-6 3.31,0 6,2.69 6,6 0,3.31 -2.69,6 -6,6 -3.31,0 -6,-2.69 -6,-6 z"
     fill-rule="evenodd"
     id="path49" /><path
     d="m 614.79167,462.79167 c 0,-3.31 2.91,-6 6.5,-6 3.59,0 6.5,2.69 6.5,6 0,3.31 -2.91,6 -6.5,6 -3.59,0 -6.5,-2.69 -6.5,-6 z"
     fill-rule="evenodd"
     id="path50" /><path
     d="m 646.79167,209.79167 c 0,-3.31 2.69,-6 6,-6 3.31,0 6,2.69 6,6 0,3.31 -2.69,6 -6,6 -3.31,0 -6,-2.69 -6,-6 z"
     fill-rule="evenodd"
     id="path51" /><path
     d="m 677.79167,79.791665 c 0,-3.31 2.69,-6 6,-6 3.31,0 6,2.69 6,6 0,3.31 -2.69,6 -6,6 -3.31,0 -6,-2.69 -6,-6 z"
     fill-rule="evenodd"
     id="path52" /><path
     d="m 565.29167,174.29167 19.11,264.81"
     stroke="#000000"
     stroke-width="4.58333"
     stroke-linejoin="round"
     stroke-miterlimit="10"
     fill="none"
     fill-rule="evenodd"
     id="path53" /><path
     d="m 596.29167,439.29167 19.11,23.6"
     stroke="#000000"
     stroke-width="4.58333"
     stroke-linejoin="round"
     stroke-miterlimit="10"
     fill="none"
     fill-rule="evenodd"
     id="path54" /><path
     d="m 628.29167,463.30167 19.1078,-253.01"
     stroke="#000000"
     stroke-width="4.58333"
     stroke-linejoin="round"
     stroke-miterlimit="10"
     fill="none"
     fill-rule="evenodd"
     id="path55" /><path
     d="M 659.29167,209.96167 678.39947,80.288665"
     stroke="#000000"
     stroke-width="4.58333"
     stroke-linejoin="round"
     stroke-miterlimit="10"
     fill="none"
     fill-rule="evenodd"
     id="path56" /><path
     d="m 534.29167,287.03167 19.1078,-112.74"
     stroke="#000000"
     stroke-width="4.58333"
     stroke-linejoin="round"
     stroke-miterlimit="10"
     fill="none"
     fill-rule="evenodd"
     id="path57" /><path
     d="m 377.29167,420.16167 19.1078,-7.86565"
     stroke="#000000"
     stroke-width="4.58333"
     stroke-linejoin="round"
     stroke-miterlimit="10"
     fill="none"
     fill-rule="evenodd"
     id="path58" /><path
     d="m 708.79167,125.79167 c 0,-3.31 2.69,-6 6,-6 3.31,0 6,2.69 6,6 0,3.31 -2.69,6 -6,6 -3.31,0 -6,-2.69 -6,-6 z"
     fill-rule="evenodd"
     id="path59" /><path
     d="m 739.79167,242.79167 c 0,-3.31 2.91,-6 6.5,-6 3.59,0 6.5,2.69 6.5,6 0,3.31 -2.91,6 -6.5,6 -3.59,0 -6.5,-2.69 -6.5,-6 z"
     fill-rule="evenodd"
     id="path60" /><path
     d="m 721.29167,126.29167 19.11,116.56"
     stroke="#000000"
     stroke-width="4.58333"
     stroke-linejoin="round"
     stroke-miterlimit="10"
     fill="none"
     fill-rule="evenodd"
     id="path61" /><path
     d="m 771.79167,471.79167 c 0,-3.31 2.69,-6 6,-6 3.31,0 6,2.69 6,6 0,3.31 -2.69,6 -6,6 -3.31,0 -6,-2.69 -6,-6 z"
     fill-rule="evenodd"
     id="path62" /><path
     d="m 802.79167,257.79167 c 0,-3.31 2.69,-6 6,-6 3.31,0 6,2.69 6,6 0,3.31 -2.69,6 -6,6 -3.31,0 -6,-2.69 -6,-6 z"
     fill-rule="evenodd"
     id="path63" /><path
     d="m 784.29167,471.97167 19.1078,-213.682"
     stroke="#000000"
     stroke-width="4.58333"
     stroke-linejoin="round"
     stroke-miterlimit="10"
     fill="none"
     fill-rule="evenodd"
     id="path64" /><path
     d="m 753.29167,243.29167 19.11,229.41"
     stroke="#000000"
     stroke-width="4.58333"
     stroke-linejoin="round"
     stroke-miterlimit="10"
     fill="none"
     fill-rule="evenodd"
     id="path65" /><path
     d="m 690.29167,80.291665 18.69,45.880005"
     stroke="#000000"
     stroke-width="4.58333"
     stroke-linejoin="round"
     stroke-miterlimit="10"
     fill="none"
     fill-rule="evenodd"
     id="path66" /><path
     d="m 811.4784,576.71496 16.80932,-16.8088"
     stroke="#000000"
     stroke-width="6.875"
     stroke-linejoin="round"
     stroke-miterlimit="10"
     fill="none"
     fill-rule="evenodd"
     id="path19"
     sodipodi:nodetypes="cc" /><path
     d="m 828.28764,564.73759 -16.8088,-16.80932"
     stroke="#000000"
     stroke-width="6.875"
     stroke-linejoin="round"
     stroke-miterlimit="10"
     fill="none"
     fill-rule="evenodd"
     id="path19-6"
     sodipodi:nodetypes="cc" /></svg>
