<svg width="831" height="575" xmlns="http://www.w3.org/2000/svg" xmlns:xlink="http://www.w3.org/1999/xlink" xml:space="preserve" overflow="hidden"><defs><linearGradient x1="2152" y1="3828.5" x2="2152" y2="4388.5" gradientUnits="userSpaceOnUse" spreadMethod="reflect" id="fill0"><stop offset="0" stop-color="#00B050"/><stop offset="0.5" stop-color="#FFFF00"/><stop offset="1" stop-color="#FF0000"/></linearGradient></defs><g transform="translate(-2137 -3826)"><path d="M2139.5 3841C2139.5 3834.1 2145.1 3828.5 2152 3828.5L2152 3828.5C2158.9 3828.5 2164.5 3834.1 2164.5 3841L2164.5 4376C2164.5 4382.9 2158.9 4388.5 2152 4388.5L2152 4388.5C2145.1 4388.5 2139.5 4382.9 2139.5 4376Z" stroke="#0F1B37" stroke-width="4.58333" stroke-linejoin="round" stroke-miterlimit="10" fill="url(#fill0)" fill-rule="evenodd"/><path d="M2186.5 4388.5 2964.38 4388.5" stroke="#000000" stroke-width="6.875" stroke-linejoin="round" stroke-miterlimit="10" fill="none" fill-rule="evenodd"/><path d="M0 0 0.000360892 23.7716" stroke="#000000" stroke-width="6.875" stroke-linejoin="round" stroke-miterlimit="10" fill="none" fill-rule="evenodd" transform="matrix(1 0 0 -1 2204.5 4400.27)"/><path d="M0 0 0.000360892 23.7716" stroke="#000000" stroke-width="6.875" stroke-linejoin="round" stroke-miterlimit="10" fill="none" fill-rule="evenodd" transform="matrix(1 0 0 -1 2258.5 4400.27)"/><path d="M0 0 0.000360892 23.7716" stroke="#000000" stroke-width="6.875" stroke-linejoin="round" stroke-miterlimit="10" fill="none" fill-rule="evenodd" transform="matrix(1 0 0 -1 2312.5 4400.27)"/><path d="M0 0 0.000360892 23.7716" stroke="#000000" stroke-width="6.875" stroke-linejoin="round" stroke-miterlimit="10" fill="none" fill-rule="evenodd" transform="matrix(1 0 0 -1 2366.5 4400.27)"/><path d="M0 0 0.000360892 23.7716" stroke="#000000" stroke-width="6.875" stroke-linejoin="round" stroke-miterlimit="10" fill="none" fill-rule="evenodd" transform="matrix(1 0 0 -1 2420.5 4400.27)"/><path d="M0 0 0.000360892 23.7716" stroke="#000000" stroke-width="6.875" stroke-linejoin="round" stroke-miterlimit="10" fill="none" fill-rule="evenodd" transform="matrix(1 0 0 -1 2474.5 4400.27)"/><path d="M0 0 0.000360892 23.7716" stroke="#000000" stroke-width="6.875" stroke-linejoin="round" stroke-miterlimit="10" fill="none" fill-rule="evenodd" transform="matrix(1 0 0 -1 2529.5 4400.27)"/><path d="M0 0 0.000360892 23.7716" stroke="#000000" stroke-width="6.875" stroke-linejoin="round" stroke-miterlimit="10" fill="none" fill-rule="evenodd" transform="matrix(1 0 0 -1 2583.5 4400.27)"/><path d="M0 0 0.000360892 23.7716" stroke="#000000" stroke-width="6.875" stroke-linejoin="round" stroke-miterlimit="10" fill="none" fill-rule="evenodd" transform="matrix(1 0 0 -1 2637.5 4400.27)"/><path d="M0 0 0.000360892 23.7716" stroke="#000000" stroke-width="6.875" stroke-linejoin="round" stroke-miterlimit="10" fill="none" fill-rule="evenodd" transform="matrix(1 0 0 -1 2691.5 4400.27)"/><path d="M0 0 0.000360892 23.7716" stroke="#000000" stroke-width="6.875" stroke-linejoin="round" stroke-miterlimit="10" fill="none" fill-rule="evenodd" transform="matrix(1 0 0 -1 2745.5 4400.27)"/><path d="M0 0 0.000360892 23.7716" stroke="#000000" stroke-width="6.875" stroke-linejoin="round" stroke-miterlimit="10" fill="none" fill-rule="evenodd" transform="matrix(1 0 0 -1 2799.5 4400.27)"/><path d="M0 0 0.000360892 23.7716" stroke="#000000" stroke-width="6.875" stroke-linejoin="round" stroke-miterlimit="10" fill="none" fill-rule="evenodd" transform="matrix(1 0 0 -1 2854.5 4400.27)"/><path d="M0 0 0.000360892 23.7716" stroke="#000000" stroke-width="6.875" stroke-linejoin="round" stroke-miterlimit="10" fill="none" fill-rule="evenodd" transform="matrix(1 0 0 -1 2908.5 4400.27)"/><path d="M0 0 0.000360892 23.7716" stroke="#000000" stroke-width="6.875" stroke-linejoin="round" stroke-miterlimit="10" fill="none" fill-rule="evenodd" transform="matrix(1 0 0 -1 2962.5 4400.27)"/><path d="M2220 3916.5C2220 3912.91 2222.69 3910 2226 3910 2229.31 3910 2232 3912.91 2232 3916.5 2232 3920.09 2229.31 3923 2226 3923 2222.69 3923 2220 3920.09 2220 3916.5Z" fill-rule="evenodd"/><path d="M2248 3902C2248 3898.69 2250.91 3896 2254.5 3896 2258.09 3896 2261 3898.69 2261 3902 2261 3905.31 2258.09 3908 2254.5 3908 2250.91 3908 2248 3905.31 2248 3902Z" fill-rule="evenodd"/><path d="M2282 3929C2282 3925.69 2284.91 3923 2288.5 3923 2292.09 3923 2295 3925.69 2295 3929 2295 3932.31 2292.09 3935 2288.5 3935 2284.91 3935 2282 3932.31 2282 3929Z" fill-rule="evenodd"/><path d="M2314 4165.5C2314 4161.91 2316.69 4159 2320 4159 2323.31 4159 2326 4161.91 2326 4165.5 2326 4169.09 2323.31 4172 2320 4172 2316.69 4172 2314 4169.09 2314 4165.5Z" fill-rule="evenodd"/><path d="M2345 4291.5C2345 4287.91 2347.69 4285 2351 4285 2354.31 4285 2357 4287.91 2357 4291.5 2357 4295.09 2354.31 4298 2351 4298 2347.69 4298 2345 4295.09 2345 4291.5Z" fill-rule="evenodd"/><path d="M0 0 16.5379 14.5909" stroke="#000000" stroke-width="4.58333" stroke-linejoin="round" stroke-miterlimit="10" fill="none" fill-rule="evenodd" transform="matrix(1 0 0 -1 2232.5 3917.09)"/><path d="M2261.5 3902.5 2283.18 3929.32" stroke="#000000" stroke-width="4.58333" stroke-linejoin="round" stroke-miterlimit="10" fill="none" fill-rule="evenodd"/><path d="M2295.5 3929.5 2314.61 4166.31" stroke="#000000" stroke-width="4.58333" stroke-linejoin="round" stroke-miterlimit="10" fill="none" fill-rule="evenodd"/><path d="M2326.5 4166.5 2345.61 4292.39" stroke="#000000" stroke-width="4.58333" stroke-linejoin="round" stroke-miterlimit="10" fill="none" fill-rule="evenodd"/><path d="M2376 3901C2376 3897.69 2378.91 3895 2382.5 3895 2386.09 3895 2389 3897.69 2389 3901 2389 3904.31 2386.09 3907 2382.5 3907 2378.91 3907 2376 3904.31 2376 3901Z" fill-rule="evenodd"/><path d="M2408 4298C2408 4294.69 2410.69 4292 2414 4292 2417.31 4292 2420 4294.69 2420 4298 2420 4301.31 2417.31 4304 2414 4304 2410.69 4304 2408 4301.31 2408 4298Z" fill-rule="evenodd"/><path d="M2439 3906C2439 3902.69 2441.69 3900 2445 3900 2448.31 3900 2451 3902.69 2451 3906 2451 3909.31 2448.31 3912 2445 3912 2441.69 3912 2439 3909.31 2439 3906Z" fill-rule="evenodd"/><path d="M2470 3919C2470 3915.69 2472.91 3913 2476.5 3913 2480.09 3913 2483 3915.69 2483 3919 2483 3922.31 2480.09 3925 2476.5 3925 2472.91 3925 2470 3922.31 2470 3919Z" fill-rule="evenodd"/><path d="M2502 4245.5C2502 4241.91 2504.69 4239 2508 4239 2511.31 4239 2514 4241.91 2514 4245.5 2514 4249.09 2511.31 4252 2508 4252 2504.69 4252 2502 4249.09 2502 4245.5Z" fill-rule="evenodd"/><path d="M2389.5 3901.5 2408.61 4298.71" stroke="#000000" stroke-width="4.58333" stroke-linejoin="round" stroke-miterlimit="10" fill="none" fill-rule="evenodd"/><path d="M0 0 19.1078 391.968" stroke="#000000" stroke-width="4.58333" stroke-linejoin="round" stroke-miterlimit="10" fill="none" fill-rule="evenodd" transform="matrix(1 0 0 -1 2420.5 4298.47)"/><path d="M2451.5 3906.5 2470.61 3919.61" stroke="#000000" stroke-width="4.58333" stroke-linejoin="round" stroke-miterlimit="10" fill="none" fill-rule="evenodd"/><path d="M2483.5 3919.5 2502.61 4245.92" stroke="#000000" stroke-width="4.58333" stroke-linejoin="round" stroke-miterlimit="10" fill="none" fill-rule="evenodd"/><path d="M0 0 19.1078 390.658" stroke="#000000" stroke-width="4.58333" stroke-linejoin="round" stroke-miterlimit="10" fill="none" fill-rule="evenodd" transform="matrix(1 0 0 -1 2357.5 4292.16)"/><path d="M2533 4238C2533 4234.69 2535.69 4232 2539 4232 2542.31 4232 2545 4234.69 2545 4238 2545 4241.31 2542.31 4244 2539 4244 2535.69 4244 2533 4241.31 2533 4238Z" fill-rule="evenodd"/><path d="M2564 3922C2564 3918.69 2566.91 3916 2570.5 3916 2574.09 3916 2577 3918.69 2577 3922 2577 3925.31 2574.09 3928 2570.5 3928 2566.91 3928 2564 3925.31 2564 3922Z" fill-rule="evenodd"/><path d="M2596 3909C2596 3905.69 2598.69 3903 2602 3903 2605.31 3903 2608 3905.69 2608 3909 2608 3912.31 2605.31 3915 2602 3915 2598.69 3915 2596 3912.31 2596 3909Z" fill-rule="evenodd"/><path d="M2627 4074C2627 4070.69 2629.69 4068 2633 4068 2636.31 4068 2639 4070.69 2639 4074 2639 4077.31 2636.31 4080 2633 4080 2629.69 4080 2627 4077.31 2627 4074Z" fill-rule="evenodd"/><path d="M2658 4113C2658 4109.69 2660.91 4107 2664.5 4107 2668.09 4107 2671 4109.69 2671 4113 2671 4116.31 2668.09 4119 2664.5 4119 2660.91 4119 2658 4116.31 2658 4113Z" fill-rule="evenodd"/><path d="M0 0 19.1078 315.934" stroke="#000000" stroke-width="4.58333" stroke-linejoin="round" stroke-miterlimit="10" fill="none" fill-rule="evenodd" transform="matrix(1 0 0 -1 2545.5 4238.43)"/><path d="M0 0 19.1078 13.1098" stroke="#000000" stroke-width="4.58333" stroke-linejoin="round" stroke-miterlimit="10" fill="none" fill-rule="evenodd" transform="matrix(1 0 0 -1 2577.5 3922.61)"/><path d="M2608.5 3909.5 2627.61 4074.68" stroke="#000000" stroke-width="4.58333" stroke-linejoin="round" stroke-miterlimit="10" fill="none" fill-rule="evenodd"/><path d="M2639.5 4074.5 2658.61 4113.83" stroke="#000000" stroke-width="4.58333" stroke-linejoin="round" stroke-miterlimit="10" fill="none" fill-rule="evenodd"/><path d="M2690 4000.5C2690 3996.91 2692.69 3994 2696 3994 2699.31 3994 2702 3996.91 2702 4000.5 2702 4004.09 2699.31 4007 2696 4007 2692.69 4007 2690 4004.09 2690 4000.5Z" fill-rule="evenodd"/><path d="M2721 4265C2721 4261.69 2723.69 4259 2727 4259 2730.31 4259 2733 4261.69 2733 4265 2733 4268.31 2730.31 4271 2727 4271 2723.69 4271 2721 4268.31 2721 4265Z" fill-rule="evenodd"/><path d="M2752 4289C2752 4285.69 2754.91 4283 2758.5 4283 2762.09 4283 2765 4285.69 2765 4289 2765 4292.31 2762.09 4295 2758.5 4295 2754.91 4295 2752 4292.31 2752 4289Z" fill-rule="evenodd"/><path d="M2784 4036C2784 4032.69 2786.69 4030 2790 4030 2793.31 4030 2796 4032.69 2796 4036 2796 4039.31 2793.31 4042 2790 4042 2786.69 4042 2784 4039.31 2784 4036Z" fill-rule="evenodd"/><path d="M2815 3906C2815 3902.69 2817.69 3900 2821 3900 2824.31 3900 2827 3902.69 2827 3906 2827 3909.31 2824.31 3912 2821 3912 2817.69 3912 2815 3909.31 2815 3906Z" fill-rule="evenodd"/><path d="M2702.5 4000.5 2721.61 4265.31" stroke="#000000" stroke-width="4.58333" stroke-linejoin="round" stroke-miterlimit="10" fill="none" fill-rule="evenodd"/><path d="M2733.5 4265.5 2752.61 4289.1" stroke="#000000" stroke-width="4.58333" stroke-linejoin="round" stroke-miterlimit="10" fill="none" fill-rule="evenodd"/><path d="M0 0 19.1078 253.01" stroke="#000000" stroke-width="4.58333" stroke-linejoin="round" stroke-miterlimit="10" fill="none" fill-rule="evenodd" transform="matrix(1 0 0 -1 2765.5 4289.51)"/><path d="M0 0 19.1078 129.673" stroke="#000000" stroke-width="4.58333" stroke-linejoin="round" stroke-miterlimit="10" fill="none" fill-rule="evenodd" transform="matrix(1 0 0 -1 2796.5 4036.17)"/><path d="M0 0 19.1078 112.74" stroke="#000000" stroke-width="4.58333" stroke-linejoin="round" stroke-miterlimit="10" fill="none" fill-rule="evenodd" transform="matrix(1 0 0 -1 2671.5 4113.24)"/><path d="M0 0 19.1078 7.86565" stroke="#000000" stroke-width="4.58333" stroke-linejoin="round" stroke-miterlimit="10" fill="none" fill-rule="evenodd" transform="matrix(1 0 0 -1 2514.5 4246.37)"/><path d="M2846 3952C2846 3948.69 2848.69 3946 2852 3946 2855.31 3946 2858 3948.69 2858 3952 2858 3955.31 2855.31 3958 2852 3958 2848.69 3958 2846 3955.31 2846 3952Z" fill-rule="evenodd"/><path d="M2877 4069C2877 4065.69 2879.91 4063 2883.5 4063 2887.09 4063 2890 4065.69 2890 4069 2890 4072.31 2887.09 4075 2883.5 4075 2879.91 4075 2877 4072.31 2877 4069Z" fill-rule="evenodd"/><path d="M2858.5 3952.5 2877.61 4069.06" stroke="#000000" stroke-width="4.58333" stroke-linejoin="round" stroke-miterlimit="10" fill="none" fill-rule="evenodd"/><path d="M2909 4298C2909 4294.69 2911.69 4292 2915 4292 2918.31 4292 2921 4294.69 2921 4298 2921 4301.31 2918.31 4304 2915 4304 2911.69 4304 2909 4301.31 2909 4298Z" fill-rule="evenodd"/><path d="M2940 4084C2940 4080.69 2942.69 4078 2946 4078 2949.31 4078 2952 4080.69 2952 4084 2952 4087.31 2949.31 4090 2946 4090 2942.69 4090 2940 4087.31 2940 4084Z" fill-rule="evenodd"/><path d="M0 0 19.1078 213.682" stroke="#000000" stroke-width="4.58333" stroke-linejoin="round" stroke-miterlimit="10" fill="none" fill-rule="evenodd" transform="matrix(1 0 0 -1 2921.5 4298.18)"/><path d="M2890.5 4069.5 2909.61 4298.91" stroke="#000000" stroke-width="4.58333" stroke-linejoin="round" stroke-miterlimit="10" fill="none" fill-rule="evenodd"/><path d="M2827.5 3906.5 2846.19 3952.38" stroke="#000000" stroke-width="4.58333" stroke-linejoin="round" stroke-miterlimit="10" fill="none" fill-rule="evenodd"/></g></svg>