<?xml version="1.0" encoding="UTF-8" standalone="no"?>
<svg
   width="830.8183"
   height="578.99786"
   xml:space="preserve"
   overflow="hidden"
   version="1.1"
   id="svg163"
   sodipodi:docname="21.svg"
   inkscape:version="1.3.2 (091e20e, 2023-11-25, custom)"
   xmlns:inkscape="http://www.inkscape.org/namespaces/inkscape"
   xmlns:sodipodi="http://sodipodi.sourceforge.net/DTD/sodipodi-0.dtd"
   xmlns="http://www.w3.org/2000/svg"
   xmlns:svg="http://www.w3.org/2000/svg"><sodipodi:namedview
     id="namedview163"
     pagecolor="#ffffff"
     bordercolor="#666666"
     borderopacity="1.0"
     inkscape:showpageshadow="2"
     inkscape:pageopacity="0.0"
     inkscape:pagecheckerboard="0"
     inkscape:deskcolor="#d1d1d1"
     inkscape:zoom="14.431445"
     inkscape:cx="829.64664"
     inkscape:cy="560.06172"
     inkscape:window-width="1920"
     inkscape:window-height="1051"
     inkscape:window-x="-9"
     inkscape:window-y="-9"
     inkscape:window-maximized="1"
     inkscape:current-layer="svg163" /><defs
     id="defs3"><linearGradient
       x1="3169"
       y1="3636.5"
       x2="3169"
       y2="4196.5"
       gradientUnits="userSpaceOnUse"
       spreadMethod="reflect"
       id="fill0"
       gradientTransform="translate(-3154.2083,-3634.2083)"><stop
         offset="0"
         stop-color="#00B050"
         id="stop1" /><stop
         offset="0.5"
         stop-color="#FFFF00"
         id="stop2" /><stop
         offset="1"
         stop-color="#FF0000"
         id="stop3" /></linearGradient></defs><path
     d="m 2.2916651,14.791665 c 0,-6.8999999 5.6,-12.4999999 12.4999999,-12.4999999 v 0 c 6.9,0 12.5,5.6 12.5,12.4999999 V 549.79167 c 0,6.9 -5.6,12.5 -12.5,12.5 v 0 c -6.8999999,0 -12.4999999,-5.6 -12.4999999,-12.5 z"
     stroke="#0f1b37"
     stroke-width="4.58333"
     stroke-linejoin="round"
     stroke-miterlimit="10"
     fill="url(#fill0)"
     fill-rule="evenodd"
     id="path3"
     style="fill:url(#fill0)" /><path
     d="M 49.291665,562.29167 H 827.17167"
     stroke="#000000"
     stroke-width="6.875"
     stroke-linejoin="round"
     stroke-miterlimit="10"
     fill="none"
     fill-rule="evenodd"
     id="path4" /><path
     d="m 67.291665,574.06167 3.61e-4,-23.7716"
     stroke="#000000"
     stroke-width="6.875"
     stroke-linejoin="round"
     stroke-miterlimit="10"
     fill="none"
     fill-rule="evenodd"
     id="path5" /><path
     d="m 121.29167,574.06167 3.6e-4,-23.7716"
     stroke="#000000"
     stroke-width="6.875"
     stroke-linejoin="round"
     stroke-miterlimit="10"
     fill="none"
     fill-rule="evenodd"
     id="path6" /><path
     d="m 175.29167,574.06167 3.6e-4,-23.7716"
     stroke="#000000"
     stroke-width="6.875"
     stroke-linejoin="round"
     stroke-miterlimit="10"
     fill="none"
     fill-rule="evenodd"
     id="path7" /><path
     d="m 229.29167,574.06167 3.6e-4,-23.7716"
     stroke="#000000"
     stroke-width="6.875"
     stroke-linejoin="round"
     stroke-miterlimit="10"
     fill="none"
     fill-rule="evenodd"
     id="path8" /><path
     d="m 283.29167,574.06167 3.6e-4,-23.7716"
     stroke="#000000"
     stroke-width="6.875"
     stroke-linejoin="round"
     stroke-miterlimit="10"
     fill="none"
     fill-rule="evenodd"
     id="path9" /><path
     d="m 338.29167,574.06167 3.6e-4,-23.7716"
     stroke="#000000"
     stroke-width="6.875"
     stroke-linejoin="round"
     stroke-miterlimit="10"
     fill="none"
     fill-rule="evenodd"
     id="path10" /><path
     d="m 392.29167,574.06167 3.6e-4,-23.7716"
     stroke="#000000"
     stroke-width="6.875"
     stroke-linejoin="round"
     stroke-miterlimit="10"
     fill="none"
     fill-rule="evenodd"
     id="path11" /><path
     d="m 446.29167,574.06167 3.6e-4,-23.7716"
     stroke="#000000"
     stroke-width="6.875"
     stroke-linejoin="round"
     stroke-miterlimit="10"
     fill="none"
     fill-rule="evenodd"
     id="path12" /><path
     d="m 500.29167,574.06167 3.6e-4,-23.7716"
     stroke="#000000"
     stroke-width="6.875"
     stroke-linejoin="round"
     stroke-miterlimit="10"
     fill="none"
     fill-rule="evenodd"
     id="path13" /><path
     d="m 554.29167,574.06167 3.6e-4,-23.7716"
     stroke="#000000"
     stroke-width="6.875"
     stroke-linejoin="round"
     stroke-miterlimit="10"
     fill="none"
     fill-rule="evenodd"
     id="path14" /><path
     d="m 608.29167,574.06167 3.6e-4,-23.7716"
     stroke="#000000"
     stroke-width="6.875"
     stroke-linejoin="round"
     stroke-miterlimit="10"
     fill="none"
     fill-rule="evenodd"
     id="path15" /><path
     d="m 663.29167,574.06167 3.6e-4,-23.7716"
     stroke="#000000"
     stroke-width="6.875"
     stroke-linejoin="round"
     stroke-miterlimit="10"
     fill="none"
     fill-rule="evenodd"
     id="path16" /><path
     d="m 717.29167,574.06167 3.6e-4,-23.7716"
     stroke="#000000"
     stroke-width="6.875"
     stroke-linejoin="round"
     stroke-miterlimit="10"
     fill="none"
     fill-rule="evenodd"
     id="path17" /><path
     d="m 771.29167,574.06167 3.6e-4,-23.7716"
     stroke="#000000"
     stroke-width="6.875"
     stroke-linejoin="round"
     stroke-miterlimit="10"
     fill="none"
     fill-rule="evenodd"
     id="path18" /><path
     d="m 82.791665,52.291665 c 0,-3.59 2.69,-6.5 6,-6.5 3.31,0 6,2.91 6,6.5 0,3.59 -2.69,6.5 -6,6.5 -3.31,0 -6,-2.91 -6,-6.5 z"
     fill="#3b7d23"
     fill-rule="evenodd"
     id="path20" /><path
     d="m 110.79167,52.291665 c 0,-3.59 2.91,-6.5 6.5,-6.5 3.59,0 6.5,2.91 6.5,6.5 0,3.59 -2.91,6.5 -6.5,6.5 -3.59,0 -6.5,-2.91 -6.5,-6.5 z"
     fill="#3b7d23"
     fill-rule="evenodd"
     id="path21" /><path
     d="m 144.79167,59.791665 c 0,-3.31 2.91,-6 6.5,-6 3.59,0 6.5,2.69 6.5,6 0,3.31 -2.91,6 -6.5,6 -3.59,0 -6.5,-2.69 -6.5,-6 z"
     fill="#3b7d23"
     fill-rule="evenodd"
     id="path22" /><path
     d="m 176.79167,52.291665 c 0,-3.59 2.69,-6.5 6,-6.5 3.31,0 6,2.91 6,6.5 0,3.59 -2.69,6.5 -6,6.5 -3.31,0 -6,-2.91 -6,-6.5 z"
     fill="#3b7d23"
     fill-rule="evenodd"
     id="path23" /><path
     d="m 207.79167,60.791665 c 0,-3.31 2.69,-6 6,-6 3.31,0 6,2.69 6,6 0,3.31 -2.69,6 -6,6 -3.31,0 -6,-2.69 -6,-6 z"
     fill="#3b7d23"
     fill-rule="evenodd"
     id="path24" /><path
     d="m 238.79167,52.291665 c 0,-3.59 2.91,-6.5 6.5,-6.5 3.59,0 6.5,2.91 6.5,6.5 0,3.59 -2.91,6.5 -6.5,6.5 -3.59,0 -6.5,-2.91 -6.5,-6.5 z"
     fill="#3b7d23"
     fill-rule="evenodd"
     id="path25" /><path
     d="m 270.79167,54.791665 c 0,-3.31 2.69,-6 6,-6 3.31,0 6,2.69 6,6 0,3.31 -2.69,6 -6,6 -3.31,0 -6,-2.69 -6,-6 z"
     fill="#3b7d23"
     fill-rule="evenodd"
     id="path26" /><path
     d="m 301.79167,52.291665 c 0,-3.59 2.69,-6.5 6,-6.5 3.31,0 6,2.91 6,6.5 0,3.59 -2.69,6.5 -6,6.5 -3.31,0 -6,-2.91 -6,-6.5 z"
     fill="#3b7d23"
     fill-rule="evenodd"
     id="path27" /><path
     d="m 332.79167,56.791665 c 0,-3.31 2.91,-6 6.5,-6 3.59,0 6.5,2.69 6.5,6 0,3.31 -2.91,6 -6.5,6 -3.59,0 -6.5,-2.69 -6.5,-6 z"
     fill="#3b7d23"
     fill-rule="evenodd"
     id="path28" /><path
     d="m 364.79167,52.291665 c 0,-3.59 2.69,-6.5 6,-6.5 3.31,0 6,2.91 6,6.5 0,3.59 -2.69,6.5 -6,6.5 -3.31,0 -6,-2.91 -6,-6.5 z"
     fill="#3b7d23"
     fill-rule="evenodd"
     id="path29" /><path
     d="m 395.79167,59.291665 c 0,-3.59 2.69,-6.5 6,-6.5 3.31,0 6,2.91 6,6.5 0,3.59 -2.69,6.5 -6,6.5 -3.31,0 -6,-2.91 -6,-6.5 z"
     fill="#3b7d23"
     fill-rule="evenodd"
     id="path30" /><path
     d="m 426.79167,52.291665 c 0,-3.59 2.91,-6.5 6.5,-6.5 3.59,0 6.5,2.91 6.5,6.5 0,3.59 -2.91,6.5 -6.5,6.5 -3.59,0 -6.5,-2.91 -6.5,-6.5 z"
     fill="#3b7d23"
     fill-rule="evenodd"
     id="path31" /><path
     d="m 458.79167,47.791665 c 0,-3.31 2.69,-6 6,-6 3.31,0 6,2.69 6,6 0,3.31 -2.69,6 -6,6 -3.31,0 -6,-2.69 -6,-6 z"
     fill="#3b7d23"
     fill-rule="evenodd"
     id="path32" /><path
     d="m 489.79167,52.291665 c 0,-3.59 2.69,-6.5 6,-6.5 3.31,0 6,2.91 6,6.5 0,3.59 -2.69,6.5 -6,6.5 -3.31,0 -6,-2.91 -6,-6.5 z"
     fill="#3b7d23"
     fill-rule="evenodd"
     id="path33" /><path
     d="m 520.79167,60.791665 c 0,-3.31 2.91,-6 6.5,-6 3.59,0 6.5,2.69 6.5,6 0,3.31 -2.91,6 -6.5,6 -3.59,0 -6.5,-2.69 -6.5,-6 z"
     fill="#3b7d23"
     fill-rule="evenodd"
     id="path34" /><path
     d="m 552.79167,52.291665 c 0,-3.59 2.69,-6.5 6,-6.5 3.31,0 6,2.91 6,6.5 0,3.59 -2.69,6.5 -6,6.5 -3.31,0 -6,-2.91 -6,-6.5 z"
     fill="#3b7d23"
     fill-rule="evenodd"
     id="path35" /><path
     d="m 583.79167,49.791665 c 0,-3.31 2.69,-6 6,-6 3.31,0 6,2.69 6,6 0,3.31 -2.69,6 -6,6 -3.31,0 -6,-2.69 -6,-6 z"
     fill="#3b7d23"
     fill-rule="evenodd"
     id="path36" /><path
     d="m 615.79167,52.291665 c 0,-3.59 2.69,-6.5 6,-6.5 3.31,0 6,2.91 6,6.5 0,3.59 -2.69,6.5 -6,6.5 -3.31,0 -6,-2.91 -6,-6.5 z"
     fill="#3b7d23"
     fill-rule="evenodd"
     id="path37" /><path
     d="m 646.79167,59.291665 c 0,-3.59 2.69,-6.5 6,-6.5 3.31,0 6,2.91 6,6.5 0,3.59 -2.69,6.5 -6,6.5 -3.31,0 -6,-2.91 -6,-6.5 z"
     fill="#3b7d23"
     fill-rule="evenodd"
     id="path38" /><path
     d="m 677.79167,52.291665 c 0,-3.59 2.69,-6.5 6,-6.5 3.31,0 6,2.91 6,6.5 0,3.59 -2.69,6.5 -6,6.5 -3.31,0 -6,-2.91 -6,-6.5 z"
     fill="#3b7d23"
     fill-rule="evenodd"
     id="path39" /><path
     d="m 708.79167,62.791665 c 0,-3.31 2.69,-6 6,-6 3.31,0 6,2.69 6,6 0,3.31 -2.69,6 -6,6 -3.31,0 -6,-2.69 -6,-6 z"
     fill="#3b7d23"
     fill-rule="evenodd"
     id="path40" /><path
     d="m 739.79167,52.291665 c 0,-3.59 2.91,-6.5 6.5,-6.5 3.59,0 6.5,2.91 6.5,6.5 0,3.59 -2.91,6.5 -6.5,6.5 -3.59,0 -6.5,-2.91 -6.5,-6.5 z"
     fill="#3b7d23"
     fill-rule="evenodd"
     id="path41" /><path
     d="m 771.79167,58.291665 c 0,-3.59 2.69,-6.5 6,-6.5 3.31,0 6,2.91 6,6.5 0,3.59 -2.69,6.5 -6,6.5 -3.31,0 -6,-2.91 -6,-6.5 z"
     fill="#3b7d23"
     fill-rule="evenodd"
     id="path42" /><path
     d="m 802.79167,52.291665 c 0,-3.59 2.69,-6.5 6,-6.5 3.31,0 6,2.91 6,6.5 0,3.59 -2.69,6.5 -6,6.5 -3.31,0 -6,-2.91 -6,-6.5 z"
     fill="#3b7d23"
     fill-rule="evenodd"
     id="path43" /><path
     d="m 82.791665,75.791665 c 0,-3.31 2.69,-6 6,-6 3.31,0 6,2.69 6,6 0,3.31 -2.69,6 -6,6 -3.31,0 -6,-2.69 -6,-6 z"
     fill="#3b7d23"
     fill-rule="evenodd"
     id="path44" /><path
     d="m 110.79167,84.791665 c 0,-3.31 2.91,-6 6.5,-6 3.59,0 6.5,2.69 6.5,6 0,3.31 -2.91,6 -6.5,6 -3.59,0 -6.5,-2.69 -6.5,-6 z"
     fill="#3b7d23"
     fill-rule="evenodd"
     id="path45" /><path
     d="m 144.79167,97.291665 c 0,-3.59 2.91,-6.5 6.5,-6.5 3.59,0 6.5,2.91 6.5,6.5 0,3.590005 -2.91,6.500005 -6.5,6.500005 -3.59,0 -6.5,-2.91 -6.5,-6.500005 z"
     fill="#3b7d23"
     fill-rule="evenodd"
     id="path46" /><path
     d="m 176.79167,90.291665 c 0,-3.59 2.69,-6.5 6,-6.5 3.31,0 6,2.91 6,6.5 0,3.59 -2.69,6.5 -6,6.5 -3.31,0 -6,-2.91 -6,-6.5 z"
     fill="#3b7d23"
     fill-rule="evenodd"
     id="path47" /><path
     d="m 207.79167,98.791665 c 0,-3.31 2.69,-6 6,-6 3.31,0 6,2.69 6,6 0,3.310005 -2.69,6.000005 -6,6.000005 -3.31,0 -6,-2.69 -6,-6.000005 z"
     fill="#3b7d23"
     fill-rule="evenodd"
     id="path48" /><path
     d="m 238.79167,90.291665 c 0,-3.59 2.91,-6.5 6.5,-6.5 3.59,0 6.5,2.91 6.5,6.5 0,3.59 -2.91,6.5 -6.5,6.5 -3.59,0 -6.5,-2.91 -6.5,-6.5 z"
     fill="#3b7d23"
     fill-rule="evenodd"
     id="path49" /><path
     d="m 270.79167,92.791665 c 0,-3.31 2.69,-6 6,-6 3.31,0 6,2.69 6,6 0,3.31 -2.69,6 -6,6 -3.31,0 -6,-2.69 -6,-6 z"
     fill="#3b7d23"
     fill-rule="evenodd"
     id="path50" /><path
     d="m 301.79167,90.291665 c 0,-3.59 2.69,-6.5 6,-6.5 3.31,0 6,2.91 6,6.5 0,3.59 -2.69,6.5 -6,6.5 -3.31,0 -6,-2.91 -6,-6.5 z"
     fill="#3b7d23"
     fill-rule="evenodd"
     id="path51" /><path
     d="m 332.79167,94.791665 c 0,-3.31 2.91,-6 6.5,-6 3.59,0 6.5,2.69 6.5,6 0,3.31 -2.91,6.000005 -6.5,6.000005 -3.59,0 -6.5,-2.690005 -6.5,-6.000005 z"
     fill="#3b7d23"
     fill-rule="evenodd"
     id="path52" /><path
     d="m 364.79167,90.291665 c 0,-3.59 2.69,-6.5 6,-6.5 3.31,0 6,2.91 6,6.5 0,3.59 -2.69,6.5 -6,6.5 -3.31,0 -6,-2.91 -6,-6.5 z"
     fill="#3b7d23"
     fill-rule="evenodd"
     id="path53" /><path
     d="m 395.79167,97.291665 c 0,-3.59 2.69,-6.5 6,-6.5 3.31,0 6,2.91 6,6.5 0,3.590005 -2.69,6.500005 -6,6.500005 -3.31,0 -6,-2.91 -6,-6.500005 z"
     fill="#3b7d23"
     fill-rule="evenodd"
     id="path54" /><path
     d="m 426.79167,90.291665 c 0,-3.59 2.91,-6.5 6.5,-6.5 3.59,0 6.5,2.91 6.5,6.5 0,3.59 -2.91,6.5 -6.5,6.5 -3.59,0 -6.5,-2.91 -6.5,-6.5 z"
     fill="#3b7d23"
     fill-rule="evenodd"
     id="path55" /><path
     d="m 458.79167,85.791665 c 0,-3.31 2.69,-6 6,-6 3.31,0 6,2.69 6,6 0,3.31 -2.69,6 -6,6 -3.31,0 -6,-2.69 -6,-6 z"
     fill="#3b7d23"
     fill-rule="evenodd"
     id="path56" /><path
     d="m 489.79167,90.291665 c 0,-3.59 2.69,-6.5 6,-6.5 3.31,0 6,2.91 6,6.5 0,3.59 -2.69,6.5 -6,6.5 -3.31,0 -6,-2.91 -6,-6.5 z"
     fill="#3b7d23"
     fill-rule="evenodd"
     id="path57" /><path
     d="m 520.79167,98.791665 c 0,-3.31 2.91,-6 6.5,-6 3.59,0 6.5,2.69 6.5,6 0,3.310005 -2.91,6.000005 -6.5,6.000005 -3.59,0 -6.5,-2.69 -6.5,-6.000005 z"
     fill="#3b7d23"
     fill-rule="evenodd"
     id="path58" /><path
     d="m 552.79167,90.291665 c 0,-3.59 2.69,-6.5 6,-6.5 3.31,0 6,2.91 6,6.5 0,3.59 -2.69,6.5 -6,6.5 -3.31,0 -6,-2.91 -6,-6.5 z"
     fill="#3b7d23"
     fill-rule="evenodd"
     id="path59" /><path
     d="m 583.79167,87.791665 c 0,-3.31 2.69,-6 6,-6 3.31,0 6,2.69 6,6 0,3.31 -2.69,6 -6,6 -3.31,0 -6,-2.69 -6,-6 z"
     fill="#3b7d23"
     fill-rule="evenodd"
     id="path60" /><path
     d="m 615.79167,90.291665 c 0,-3.59 2.69,-6.5 6,-6.5 3.31,0 6,2.91 6,6.5 0,3.59 -2.69,6.5 -6,6.5 -3.31,0 -6,-2.91 -6,-6.5 z"
     fill="#3b7d23"
     fill-rule="evenodd"
     id="path61" /><path
     d="m 646.79167,97.291665 c 0,-3.59 2.69,-6.5 6,-6.5 3.31,0 6,2.91 6,6.5 0,3.590005 -2.69,6.500005 -6,6.500005 -3.31,0 -6,-2.91 -6,-6.500005 z"
     fill="#3b7d23"
     fill-rule="evenodd"
     id="path62" /><path
     d="m 677.79167,90.291665 c 0,-3.59 2.69,-6.5 6,-6.5 3.31,0 6,2.91 6,6.5 0,3.59 -2.69,6.5 -6,6.5 -3.31,0 -6,-2.91 -6,-6.5 z"
     fill="#3b7d23"
     fill-rule="evenodd"
     id="path63" /><path
     d="m 708.79167,100.79167 c 0,-3.310005 2.69,-6.000005 6,-6.000005 3.31,0 6,2.69 6,6.000005 0,3.31 -2.69,6 -6,6 -3.31,0 -6,-2.69 -6,-6 z"
     fill="#3b7d23"
     fill-rule="evenodd"
     id="path64" /><path
     d="m 739.79167,90.291665 c 0,-3.59 2.91,-6.5 6.5,-6.5 3.59,0 6.5,2.91 6.5,6.5 0,3.59 -2.91,6.5 -6.5,6.5 -3.59,0 -6.5,-2.91 -6.5,-6.5 z"
     fill="#3b7d23"
     fill-rule="evenodd"
     id="path65" /><path
     d="m 771.79167,96.291665 c 0,-3.59 2.69,-6.5 6,-6.5 3.31,0 6,2.91 6,6.5 0,3.59 -2.69,6.500005 -6,6.500005 -3.31,0 -6,-2.910005 -6,-6.500005 z"
     fill="#3b7d23"
     fill-rule="evenodd"
     id="path66" /><path
     d="m 802.79167,90.291665 c 0,-3.59 2.69,-6.5 6,-6.5 3.31,0 6,2.91 6,6.5 0,3.59 -2.69,6.5 -6,6.5 -3.31,0 -6,-2.91 -6,-6.5 z"
     fill="#3b7d23"
     fill-rule="evenodd"
     id="path67" /><path
     d="m 83.791665,116.29167 c 0,-3.59 2.69,-6.5 6,-6.5 3.31,0 6,2.91 6,6.5 0,3.59 -2.69,6.5 -6,6.5 -3.31,0 -6,-2.91 -6,-6.5 z"
     fill="#3b7d23"
     fill-rule="evenodd"
     id="path68" /><path
     d="m 110.79167,128.29167 c 0,-3.59 2.91,-6.5 6.5,-6.5 3.59,0 6.5,2.91 6.5,6.5 0,3.59 -2.91,6.5 -6.5,6.5 -3.59,0 -6.5,-2.91 -6.5,-6.5 z"
     fill="#3b7d23"
     fill-rule="evenodd"
     id="path69" /><path
     d="m 144.79167,135.79167 c 0,-3.31 2.91,-6 6.5,-6 3.59,0 6.5,2.69 6.5,6 0,3.31 -2.91,6 -6.5,6 -3.59,0 -6.5,-2.69 -6.5,-6 z"
     fill="#3b7d23"
     fill-rule="evenodd"
     id="path70" /><path
     d="m 176.79167,128.29167 c 0,-3.59 2.69,-6.5 6,-6.5 3.31,0 6,2.91 6,6.5 0,3.59 -2.69,6.5 -6,6.5 -3.31,0 -6,-2.91 -6,-6.5 z"
     fill="#3b7d23"
     fill-rule="evenodd"
     id="path71" /><path
     d="m 207.79167,136.79167 c 0,-3.31 2.69,-6 6,-6 3.31,0 6,2.69 6,6 0,3.31 -2.69,6 -6,6 -3.31,0 -6,-2.69 -6,-6 z"
     fill="#3b7d23"
     fill-rule="evenodd"
     id="path72" /><path
     d="m 238.79167,128.29167 c 0,-3.59 2.91,-6.5 6.5,-6.5 3.59,0 6.5,2.91 6.5,6.5 0,3.59 -2.91,6.5 -6.5,6.5 -3.59,0 -6.5,-2.91 -6.5,-6.5 z"
     fill="#3b7d23"
     fill-rule="evenodd"
     id="path73" /><path
     d="m 270.79167,130.79167 c 0,-3.31 2.69,-6 6,-6 3.31,0 6,2.69 6,6 0,3.31 -2.69,6 -6,6 -3.31,0 -6,-2.69 -6,-6 z"
     fill="#3b7d23"
     fill-rule="evenodd"
     id="path74" /><path
     d="m 301.79167,128.29167 c 0,-3.59 2.69,-6.5 6,-6.5 3.31,0 6,2.91 6,6.5 0,3.59 -2.69,6.5 -6,6.5 -3.31,0 -6,-2.91 -6,-6.5 z"
     fill="#3b7d23"
     fill-rule="evenodd"
     id="path75" /><path
     d="m 332.79167,132.79167 c 0,-3.31 2.91,-6 6.5,-6 3.59,0 6.5,2.69 6.5,6 0,3.31 -2.91,6 -6.5,6 -3.59,0 -6.5,-2.69 -6.5,-6 z"
     fill="#3b7d23"
     fill-rule="evenodd"
     id="path76" /><path
     d="m 364.79167,128.29167 c 0,-3.59 2.69,-6.5 6,-6.5 3.31,0 6,2.91 6,6.5 0,3.59 -2.69,6.5 -6,6.5 -3.31,0 -6,-2.91 -6,-6.5 z"
     fill="#3b7d23"
     fill-rule="evenodd"
     id="path77" /><path
     d="m 395.79167,135.29167 c 0,-3.59 2.69,-6.5 6,-6.5 3.31,0 6,2.91 6,6.5 0,3.59 -2.69,6.5 -6,6.5 -3.31,0 -6,-2.91 -6,-6.5 z"
     fill="#3b7d23"
     fill-rule="evenodd"
     id="path78" /><path
     d="m 426.79167,128.29167 c 0,-3.59 2.91,-6.5 6.5,-6.5 3.59,0 6.5,2.91 6.5,6.5 0,3.59 -2.91,6.5 -6.5,6.5 -3.59,0 -6.5,-2.91 -6.5,-6.5 z"
     fill="#3b7d23"
     fill-rule="evenodd"
     id="path79" /><path
     d="m 458.79167,123.79167 c 0,-3.31 2.69,-6 6,-6 3.31,0 6,2.69 6,6 0,3.31 -2.69,6 -6,6 -3.31,0 -6,-2.69 -6,-6 z"
     fill="#3b7d23"
     fill-rule="evenodd"
     id="path80" /><path
     d="m 489.79167,128.29167 c 0,-3.59 2.69,-6.5 6,-6.5 3.31,0 6,2.91 6,6.5 0,3.59 -2.69,6.5 -6,6.5 -3.31,0 -6,-2.91 -6,-6.5 z"
     fill="#3b7d23"
     fill-rule="evenodd"
     id="path81" /><path
     d="m 520.79167,136.79167 c 0,-3.31 2.91,-6 6.5,-6 3.59,0 6.5,2.69 6.5,6 0,3.31 -2.91,6 -6.5,6 -3.59,0 -6.5,-2.69 -6.5,-6 z"
     fill="#3b7d23"
     fill-rule="evenodd"
     id="path82" /><path
     d="m 552.79167,128.29167 c 0,-3.59 2.69,-6.5 6,-6.5 3.31,0 6,2.91 6,6.5 0,3.59 -2.69,6.5 -6,6.5 -3.31,0 -6,-2.91 -6,-6.5 z"
     fill="#3b7d23"
     fill-rule="evenodd"
     id="path83" /><path
     d="m 583.79167,125.79167 c 0,-3.31 2.69,-6 6,-6 3.31,0 6,2.69 6,6 0,3.31 -2.69,6 -6,6 -3.31,0 -6,-2.69 -6,-6 z"
     fill="#3b7d23"
     fill-rule="evenodd"
     id="path84" /><path
     d="m 615.79167,128.29167 c 0,-3.59 2.69,-6.5 6,-6.5 3.31,0 6,2.91 6,6.5 0,3.59 -2.69,6.5 -6,6.5 -3.31,0 -6,-2.91 -6,-6.5 z"
     fill="#3b7d23"
     fill-rule="evenodd"
     id="path85" /><path
     d="m 646.79167,135.29167 c 0,-3.59 2.69,-6.5 6,-6.5 3.31,0 6,2.91 6,6.5 0,3.59 -2.69,6.5 -6,6.5 -3.31,0 -6,-2.91 -6,-6.5 z"
     fill="#3b7d23"
     fill-rule="evenodd"
     id="path86" /><path
     d="m 677.79167,128.29167 c 0,-3.59 2.69,-6.5 6,-6.5 3.31,0 6,2.91 6,6.5 0,3.59 -2.69,6.5 -6,6.5 -3.31,0 -6,-2.91 -6,-6.5 z"
     fill="#3b7d23"
     fill-rule="evenodd"
     id="path87" /><path
     d="m 708.79167,138.79167 c 0,-3.31 2.69,-6 6,-6 3.31,0 6,2.69 6,6 0,3.31 -2.69,6 -6,6 -3.31,0 -6,-2.69 -6,-6 z"
     fill="#3b7d23"
     fill-rule="evenodd"
     id="path88" /><path
     d="m 739.79167,128.29167 c 0,-3.59 2.91,-6.5 6.5,-6.5 3.59,0 6.5,2.91 6.5,6.5 0,3.59 -2.91,6.5 -6.5,6.5 -3.59,0 -6.5,-2.91 -6.5,-6.5 z"
     fill="#3b7d23"
     fill-rule="evenodd"
     id="path89" /><path
     d="m 771.79167,134.29167 c 0,-3.59 2.69,-6.5 6,-6.5 3.31,0 6,2.91 6,6.5 0,3.59 -2.69,6.5 -6,6.5 -3.31,0 -6,-2.91 -6,-6.5 z"
     fill="#3b7d23"
     fill-rule="evenodd"
     id="path90" /><path
     d="m 802.79167,128.29167 c 0,-3.59 2.69,-6.5 6,-6.5 3.31,0 6,2.91 6,6.5 0,3.59 -2.69,6.5 -6,6.5 -3.31,0 -6,-2.91 -6,-6.5 z"
     fill="#3b7d23"
     fill-rule="evenodd"
     id="path91" /><path
     d="m 82.791665,298.79167 c 0,-3.31 2.69,-6 6,-6 3.31,0 6,2.69 6,6 0,3.31 -2.69,6 -6,6 -3.31,0 -6,-2.69 -6,-6 z"
     fill="#0041d8"
     fill-rule="evenodd"
     id="path92" /><path
     d="m 110.79167,298.79167 c 0,-3.31 2.91,-6 6.5,-6 3.59,0 6.5,2.69 6.5,6 0,3.31 -2.91,6 -6.5,6 -3.59,0 -6.5,-2.69 -6.5,-6 z"
     fill="#0041d8"
     fill-rule="evenodd"
     id="path93" /><path
     d="m 144.79167,308.79167 c 0,-3.31 2.91,-6 6.5,-6 3.59,0 6.5,2.69 6.5,6 0,3.31 -2.91,6 -6.5,6 -3.59,0 -6.5,-2.69 -6.5,-6 z"
     fill="#0041d8"
     fill-rule="evenodd"
     id="path94" /><path
     d="m 176.79167,298.79167 c 0,-3.31 2.69,-6 6,-6 3.31,0 6,2.69 6,6 0,3.31 -2.69,6 -6,6 -3.31,0 -6,-2.69 -6,-6 z"
     fill="#0041d8"
     fill-rule="evenodd"
     id="path95" /><path
     d="m 207.79167,306.79167 c 0,-3.31 2.69,-6 6,-6 3.31,0 6,2.69 6,6 0,3.31 -2.69,6 -6,6 -3.31,0 -6,-2.69 -6,-6 z"
     fill="#0041d8"
     fill-rule="evenodd"
     id="path96" /><path
     d="m 238.79167,298.79167 c 0,-3.31 2.91,-6 6.5,-6 3.59,0 6.5,2.69 6.5,6 0,3.31 -2.91,6 -6.5,6 -3.59,0 -6.5,-2.69 -6.5,-6 z"
     fill="#0041d8"
     fill-rule="evenodd"
     id="path97" /><path
     d="m 270.79167,307.79167 c 0,-3.31 2.69,-6 6,-6 3.31,0 6,2.69 6,6 0,3.31 -2.69,6 -6,6 -3.31,0 -6,-2.69 -6,-6 z"
     fill="#0041d8"
     fill-rule="evenodd"
     id="path98" /><path
     d="m 301.79167,298.79167 c 0,-3.31 2.69,-6 6,-6 3.31,0 6,2.69 6,6 0,3.31 -2.69,6 -6,6 -3.31,0 -6,-2.69 -6,-6 z"
     fill="#0041d8"
     fill-rule="evenodd"
     id="path99" /><path
     d="m 332.79167,309.79167 c 0,-3.31 2.91,-6 6.5,-6 3.59,0 6.5,2.69 6.5,6 0,3.31 -2.91,6 -6.5,6 -3.59,0 -6.5,-2.69 -6.5,-6 z"
     fill="#0041d8"
     fill-rule="evenodd"
     id="path100" /><path
     d="m 364.79167,298.79167 c 0,-3.31 2.69,-6 6,-6 3.31,0 6,2.69 6,6 0,3.31 -2.69,6 -6,6 -3.31,0 -6,-2.69 -6,-6 z"
     fill="#0041d8"
     fill-rule="evenodd"
     id="path101" /><path
     d="m 395.79167,318.79167 c 0,-3.31 2.69,-6 6,-6 3.31,0 6,2.69 6,6 0,3.31 -2.69,6 -6,6 -3.31,0 -6,-2.69 -6,-6 z"
     fill="#0041d8"
     fill-rule="evenodd"
     id="path102" /><path
     d="m 426.79167,298.79167 c 0,-3.31 2.91,-6 6.5,-6 3.59,0 6.5,2.69 6.5,6 0,3.31 -2.91,6 -6.5,6 -3.59,0 -6.5,-2.69 -6.5,-6 z"
     fill="#0041d8"
     fill-rule="evenodd"
     id="path103" /><path
     d="m 458.79167,314.79167 c 0,-3.31 2.69,-6 6,-6 3.31,0 6,2.69 6,6 0,3.31 -2.69,6 -6,6 -3.31,0 -6,-2.69 -6,-6 z"
     fill="#0041d8"
     fill-rule="evenodd"
     id="path104" /><path
     d="m 489.79167,311.79167 c 0,-3.31 2.69,-6 6,-6 3.31,0 6,2.69 6,6 0,3.31 -2.69,6 -6,6 -3.31,0 -6,-2.69 -6,-6 z"
     fill="#0041d8"
     fill-rule="evenodd"
     id="path105" /><path
     d="m 520.79167,316.79167 c 0,-3.31 2.91,-6 6.5,-6 3.59,0 6.5,2.69 6.5,6 0,3.31 -2.91,6 -6.5,6 -3.59,0 -6.5,-2.69 -6.5,-6 z"
     fill="#0041d8"
     fill-rule="evenodd"
     id="path106" /><path
     d="m 552.79167,298.79167 c 0,-3.31 2.69,-6 6,-6 3.31,0 6,2.69 6,6 0,3.31 -2.69,6 -6,6 -3.31,0 -6,-2.69 -6,-6 z"
     fill="#0041d8"
     fill-rule="evenodd"
     id="path107" /><path
     d="m 583.79167,309.29167 c 0,-3.59 2.69,-6.5 6,-6.5 3.31,0 6,2.91 6,6.5 0,3.59 -2.69,6.5 -6,6.5 -3.31,0 -6,-2.91 -6,-6.5 z"
     fill="#0041d8"
     fill-rule="evenodd"
     id="path108" /><path
     d="m 615.79167,309.29167 c 0,-3.59 2.69,-6.5 6,-6.5 3.31,0 6,2.91 6,6.5 0,3.59 -2.69,6.5 -6,6.5 -3.31,0 -6,-2.91 -6,-6.5 z"
     fill="#0041d8"
     fill-rule="evenodd"
     id="path109" /><path
     d="m 646.79167,316.79167 c 0,-3.31 2.69,-6 6,-6 3.31,0 6,2.69 6,6 0,3.31 -2.69,6 -6,6 -3.31,0 -6,-2.69 -6,-6 z"
     fill="#0041d8"
     fill-rule="evenodd"
     id="path110" /><path
     d="m 677.79167,316.79167 c 0,-3.31 2.69,-6 6,-6 3.31,0 6,2.69 6,6 0,3.31 -2.69,6 -6,6 -3.31,0 -6,-2.69 -6,-6 z"
     fill="#0041d8"
     fill-rule="evenodd"
     id="path111" /><path
     d="m 708.79167,308.79167 c 0,-3.31 2.69,-6 6,-6 3.31,0 6,2.69 6,6 0,3.31 -2.69,6 -6,6 -3.31,0 -6,-2.69 -6,-6 z"
     fill="#0041d8"
     fill-rule="evenodd"
     id="path112" /><path
     d="m 739.79167,316.79167 c 0,-3.31 2.91,-6 6.5,-6 3.59,0 6.5,2.69 6.5,6 0,3.31 -2.91,6 -6.5,6 -3.59,0 -6.5,-2.69 -6.5,-6 z"
     fill="#0041d8"
     fill-rule="evenodd"
     id="path113" /><path
     d="m 771.79167,311.79167 c 0,-3.31 2.69,-6 6,-6 3.31,0 6,2.69 6,6 0,3.31 -2.69,6 -6,6 -3.31,0 -6,-2.69 -6,-6 z"
     fill="#0041d8"
     fill-rule="evenodd"
     id="path114" /><path
     d="m 802.79167,311.79167 c 0,-3.31 2.69,-6 6,-6 3.31,0 6,2.69 6,6 0,3.31 -2.69,6 -6,6 -3.31,0 -6,-2.69 -6,-6 z"
     fill="#0041d8"
     fill-rule="evenodd"
     id="path115" /><path
     d="m 82.791665,347.79167 c 0,-3.31 2.69,-6 6,-6 3.31,0 6,2.69 6,6 0,3.31 -2.69,6 -6,6 -3.31,0 -6,-2.69 -6,-6 z"
     fill="#0041d8"
     fill-rule="evenodd"
     id="path116" /><path
     d="m 110.79167,347.79167 c 0,-3.31 2.91,-6 6.5,-6 3.59,0 6.5,2.69 6.5,6 0,3.31 -2.91,6 -6.5,6 -3.59,0 -6.5,-2.69 -6.5,-6 z"
     fill="#0041d8"
     fill-rule="evenodd"
     id="path117" /><path
     d="m 144.79167,357.79167 c 0,-3.31 2.91,-6 6.5,-6 3.59,0 6.5,2.69 6.5,6 0,3.31 -2.91,6 -6.5,6 -3.59,0 -6.5,-2.69 -6.5,-6 z"
     fill="#0041d8"
     fill-rule="evenodd"
     id="path118" /><path
     d="m 176.79167,347.79167 c 0,-3.31 2.69,-6 6,-6 3.31,0 6,2.69 6,6 0,3.31 -2.69,6 -6,6 -3.31,0 -6,-2.69 -6,-6 z"
     fill="#0041d8"
     fill-rule="evenodd"
     id="path119" /><path
     d="m 207.79167,355.79167 c 0,-3.31 2.69,-6 6,-6 3.31,0 6,2.69 6,6 0,3.31 -2.69,6 -6,6 -3.31,0 -6,-2.69 -6,-6 z"
     fill="#0041d8"
     fill-rule="evenodd"
     id="path120" /><path
     d="m 238.79167,347.79167 c 0,-3.31 2.91,-6 6.5,-6 3.59,0 6.5,2.69 6.5,6 0,3.31 -2.91,6 -6.5,6 -3.59,0 -6.5,-2.69 -6.5,-6 z"
     fill="#0041d8"
     fill-rule="evenodd"
     id="path121" /><path
     d="m 270.79167,356.79167 c 0,-3.31 2.69,-6 6,-6 3.31,0 6,2.69 6,6 0,3.31 -2.69,6 -6,6 -3.31,0 -6,-2.69 -6,-6 z"
     fill="#0041d8"
     fill-rule="evenodd"
     id="path122" /><path
     d="m 301.79167,347.79167 c 0,-3.31 2.69,-6 6,-6 3.31,0 6,2.69 6,6 0,3.31 -2.69,6 -6,6 -3.31,0 -6,-2.69 -6,-6 z"
     fill="#0041d8"
     fill-rule="evenodd"
     id="path123" /><path
     d="m 332.79167,358.79167 c 0,-3.31 2.91,-6 6.5,-6 3.59,0 6.5,2.69 6.5,6 0,3.31 -2.91,6 -6.5,6 -3.59,0 -6.5,-2.69 -6.5,-6 z"
     fill="#0041d8"
     fill-rule="evenodd"
     id="path124" /><path
     d="m 364.79167,347.79167 c 0,-3.31 2.69,-6 6,-6 3.31,0 6,2.69 6,6 0,3.31 -2.69,6 -6,6 -3.31,0 -6,-2.69 -6,-6 z"
     fill="#0041d8"
     fill-rule="evenodd"
     id="path125" /><path
     d="m 395.79167,367.79167 c 0,-3.31 2.69,-6 6,-6 3.31,0 6,2.69 6,6 0,3.31 -2.69,6 -6,6 -3.31,0 -6,-2.69 -6,-6 z"
     fill="#0041d8"
     fill-rule="evenodd"
     id="path126" /><path
     d="m 426.79167,347.79167 c 0,-3.31 2.91,-6 6.5,-6 3.59,0 6.5,2.69 6.5,6 0,3.31 -2.91,6 -6.5,6 -3.59,0 -6.5,-2.69 -6.5,-6 z"
     fill="#0041d8"
     fill-rule="evenodd"
     id="path127" /><path
     d="m 458.79167,363.79167 c 0,-3.31 2.69,-6 6,-6 3.31,0 6,2.69 6,6 0,3.31 -2.69,6 -6,6 -3.31,0 -6,-2.69 -6,-6 z"
     fill="#0041d8"
     fill-rule="evenodd"
     id="path128" /><path
     d="m 489.79167,360.79167 c 0,-3.31 2.69,-6 6,-6 3.31,0 6,2.69 6,6 0,3.31 -2.69,6 -6,6 -3.31,0 -6,-2.69 -6,-6 z"
     fill="#0041d8"
     fill-rule="evenodd"
     id="path129" /><path
     d="m 520.79167,365.79167 c 0,-3.31 2.91,-6 6.5,-6 3.59,0 6.5,2.69 6.5,6 0,3.31 -2.91,6 -6.5,6 -3.59,0 -6.5,-2.69 -6.5,-6 z"
     fill="#0041d8"
     fill-rule="evenodd"
     id="path130" /><path
     d="m 552.79167,347.79167 c 0,-3.31 2.69,-6 6,-6 3.31,0 6,2.69 6,6 0,3.31 -2.69,6 -6,6 -3.31,0 -6,-2.69 -6,-6 z"
     fill="#0041d8"
     fill-rule="evenodd"
     id="path131" /><path
     d="m 583.79167,358.29167 c 0,-3.59 2.69,-6.5 6,-6.5 3.31,0 6,2.91 6,6.5 0,3.59 -2.69,6.5 -6,6.5 -3.31,0 -6,-2.91 -6,-6.5 z"
     fill="#0041d8"
     fill-rule="evenodd"
     id="path132" /><path
     d="m 615.79167,358.29167 c 0,-3.59 2.69,-6.5 6,-6.5 3.31,0 6,2.91 6,6.5 0,3.59 -2.69,6.5 -6,6.5 -3.31,0 -6,-2.91 -6,-6.5 z"
     fill="#0041d8"
     fill-rule="evenodd"
     id="path133" /><path
     d="m 646.79167,365.79167 c 0,-3.31 2.69,-6 6,-6 3.31,0 6,2.69 6,6 0,3.31 -2.69,6 -6,6 -3.31,0 -6,-2.69 -6,-6 z"
     fill="#0041d8"
     fill-rule="evenodd"
     id="path134" /><path
     d="m 677.79167,365.79167 c 0,-3.31 2.69,-6 6,-6 3.31,0 6,2.69 6,6 0,3.31 -2.69,6 -6,6 -3.31,0 -6,-2.69 -6,-6 z"
     fill="#0041d8"
     fill-rule="evenodd"
     id="path135" /><path
     d="m 708.79167,357.79167 c 0,-3.31 2.69,-6 6,-6 3.31,0 6,2.69 6,6 0,3.31 -2.69,6 -6,6 -3.31,0 -6,-2.69 -6,-6 z"
     fill="#0041d8"
     fill-rule="evenodd"
     id="path136" /><path
     d="m 739.79167,365.79167 c 0,-3.31 2.91,-6 6.5,-6 3.59,0 6.5,2.69 6.5,6 0,3.31 -2.91,6 -6.5,6 -3.59,0 -6.5,-2.69 -6.5,-6 z"
     fill="#0041d8"
     fill-rule="evenodd"
     id="path137" /><path
     d="m 771.79167,360.79167 c 0,-3.31 2.69,-6 6,-6 3.31,0 6,2.69 6,6 0,3.31 -2.69,6 -6,6 -3.31,0 -6,-2.69 -6,-6 z"
     fill="#0041d8"
     fill-rule="evenodd"
     id="path138" /><path
     d="m 802.79167,360.79167 c 0,-3.31 2.69,-6 6,-6 3.31,0 6,2.69 6,6 0,3.31 -2.69,6 -6,6 -3.31,0 -6,-2.69 -6,-6 z"
     fill="#0041d8"
     fill-rule="evenodd"
     id="path139" /><path
     d="m 82.791665,380.79167 c 0,-3.31 2.69,-6 6,-6 3.31,0 6,2.69 6,6 0,3.31 -2.69,6 -6,6 -3.31,0 -6,-2.69 -6,-6 z"
     fill="#0041d8"
     fill-rule="evenodd"
     id="path140" /><path
     d="m 110.79167,380.79167 c 0,-3.31 2.91,-6 6.5,-6 3.59,0 6.5,2.69 6.5,6 0,3.31 -2.91,6 -6.5,6 -3.59,0 -6.5,-2.69 -6.5,-6 z"
     fill="#0041d8"
     fill-rule="evenodd"
     id="path141" /><path
     d="m 144.79167,390.29167 c 0,-3.59 2.91,-6.5 6.5,-6.5 3.59,0 6.5,2.91 6.5,6.5 0,3.59 -2.91,6.5 -6.5,6.5 -3.59,0 -6.5,-2.91 -6.5,-6.5 z"
     fill="#0041d8"
     fill-rule="evenodd"
     id="path142" /><path
     d="m 176.79167,380.79167 c 0,-3.31 2.69,-6 6,-6 3.31,0 6,2.69 6,6 0,3.31 -2.69,6 -6,6 -3.31,0 -6,-2.69 -6,-6 z"
     fill="#0041d8"
     fill-rule="evenodd"
     id="path143" /><path
     d="m 207.79167,388.79167 c 0,-3.31 2.69,-6 6,-6 3.31,0 6,2.69 6,6 0,3.31 -2.69,6 -6,6 -3.31,0 -6,-2.69 -6,-6 z"
     fill="#0041d8"
     fill-rule="evenodd"
     id="path144" /><path
     d="m 238.79167,380.79167 c 0,-3.31 2.91,-6 6.5,-6 3.59,0 6.5,2.69 6.5,6 0,3.31 -2.91,6 -6.5,6 -3.59,0 -6.5,-2.69 -6.5,-6 z"
     fill="#0041d8"
     fill-rule="evenodd"
     id="path145" /><path
     d="m 270.79167,389.29167 c 0,-3.59 2.69,-6.5 6,-6.5 3.31,0 6,2.91 6,6.5 0,3.59 -2.69,6.5 -6,6.5 -3.31,0 -6,-2.91 -6,-6.5 z"
     fill="#0041d8"
     fill-rule="evenodd"
     id="path146" /><path
     d="m 301.79167,380.79167 c 0,-3.31 2.69,-6 6,-6 3.31,0 6,2.69 6,6 0,3.31 -2.69,6 -6,6 -3.31,0 -6,-2.69 -6,-6 z"
     fill="#0041d8"
     fill-rule="evenodd"
     id="path147" /><path
     d="m 332.79167,391.79167 c 0,-3.31 2.91,-6 6.5,-6 3.59,0 6.5,2.69 6.5,6 0,3.31 -2.91,6 -6.5,6 -3.59,0 -6.5,-2.69 -6.5,-6 z"
     fill="#0041d8"
     fill-rule="evenodd"
     id="path148" /><path
     d="m 364.79167,380.79167 c 0,-3.31 2.69,-6 6,-6 3.31,0 6,2.69 6,6 0,3.31 -2.69,6 -6,6 -3.31,0 -6,-2.69 -6,-6 z"
     fill="#0041d8"
     fill-rule="evenodd"
     id="path149" /><path
     d="m 395.79167,400.79167 c 0,-3.31 2.69,-6 6,-6 3.31,0 6,2.69 6,6 0,3.31 -2.69,6 -6,6 -3.31,0 -6,-2.69 -6,-6 z"
     fill="#0041d8"
     fill-rule="evenodd"
     id="path150" /><path
     d="m 426.79167,380.79167 c 0,-3.31 2.91,-6 6.5,-6 3.59,0 6.5,2.69 6.5,6 0,3.31 -2.91,6 -6.5,6 -3.59,0 -6.5,-2.69 -6.5,-6 z"
     fill="#0041d8"
     fill-rule="evenodd"
     id="path151" /><path
     d="m 458.79167,396.29167 c 0,-3.59 2.69,-6.5 6,-6.5 3.31,0 6,2.91 6,6.5 0,3.59 -2.69,6.5 -6,6.5 -3.31,0 -6,-2.91 -6,-6.5 z"
     fill="#0041d8"
     fill-rule="evenodd"
     id="path152" /><path
     d="m 489.79167,393.79167 c 0,-3.31 2.69,-6 6,-6 3.31,0 6,2.69 6,6 0,3.31 -2.69,6 -6,6 -3.31,0 -6,-2.69 -6,-6 z"
     fill="#0041d8"
     fill-rule="evenodd"
     id="path153" /><path
     d="m 520.79167,398.79167 c 0,-3.31 2.91,-6 6.5,-6 3.59,0 6.5,2.69 6.5,6 0,3.31 -2.91,6 -6.5,6 -3.59,0 -6.5,-2.69 -6.5,-6 z"
     fill="#0041d8"
     fill-rule="evenodd"
     id="path154" /><path
     d="m 552.79167,380.79167 c 0,-3.31 2.69,-6 6,-6 3.31,0 6,2.69 6,6 0,3.31 -2.69,6 -6,6 -3.31,0 -6,-2.69 -6,-6 z"
     fill="#0041d8"
     fill-rule="evenodd"
     id="path155" /><path
     d="m 583.79167,390.79167 c 0,-3.31 2.69,-6 6,-6 3.31,0 6,2.69 6,6 0,3.31 -2.69,6 -6,6 -3.31,0 -6,-2.69 -6,-6 z"
     fill="#0041d8"
     fill-rule="evenodd"
     id="path156" /><path
     d="m 615.79167,390.79167 c 0,-3.31 2.69,-6 6,-6 3.31,0 6,2.69 6,6 0,3.31 -2.69,6 -6,6 -3.31,0 -6,-2.69 -6,-6 z"
     fill="#0041d8"
     fill-rule="evenodd"
     id="path157" /><path
     d="m 646.79167,398.79167 c 0,-3.31 2.69,-6 6,-6 3.31,0 6,2.69 6,6 0,3.31 -2.69,6 -6,6 -3.31,0 -6,-2.69 -6,-6 z"
     fill="#0041d8"
     fill-rule="evenodd"
     id="path158" /><path
     d="m 677.79167,398.79167 c 0,-3.31 2.69,-6 6,-6 3.31,0 6,2.69 6,6 0,3.31 -2.69,6 -6,6 -3.31,0 -6,-2.69 -6,-6 z"
     fill="#0041d8"
     fill-rule="evenodd"
     id="path159" /><path
     d="m 708.79167,390.29167 c 0,-3.59 2.69,-6.5 6,-6.5 3.31,0 6,2.91 6,6.5 0,3.59 -2.69,6.5 -6,6.5 -3.31,0 -6,-2.91 -6,-6.5 z"
     fill="#0041d8"
     fill-rule="evenodd"
     id="path160" /><path
     d="m 739.79167,398.79167 c 0,-3.31 2.91,-6 6.5,-6 3.59,0 6.5,2.69 6.5,6 0,3.31 -2.91,6 -6.5,6 -3.59,0 -6.5,-2.69 -6.5,-6 z"
     fill="#0041d8"
     fill-rule="evenodd"
     id="path161" /><path
     d="m 771.79167,393.79167 c 0,-3.31 2.69,-6 6,-6 3.31,0 6,2.69 6,6 0,3.31 -2.69,6 -6,6 -3.31,0 -6,-2.69 -6,-6 z"
     fill="#0041d8"
     fill-rule="evenodd"
     id="path162" /><path
     d="m 802.79167,393.79167 c 0,-3.31 2.69,-6 6,-6 3.31,0 6,2.69 6,6 0,3.31 -2.69,6 -6,6 -3.31,0 -6,-2.69 -6,-6 z"
     fill="#0041d8"
     fill-rule="evenodd"
     id="path163" /><path
     d="m 811.57832,576.56718 16.80932,-16.8088"
     stroke="#000000"
     stroke-width="6.875"
     stroke-linejoin="round"
     stroke-miterlimit="10"
     fill="none"
     fill-rule="evenodd"
     id="path19-2"
     sodipodi:nodetypes="cc" /><path
     d="m 828.38756,564.58981 -16.8088,-16.80932"
     stroke="#000000"
     stroke-width="6.875"
     stroke-linejoin="round"
     stroke-miterlimit="10"
     fill="none"
     fill-rule="evenodd"
     id="path19-6"
     sodipodi:nodetypes="cc" /></svg>
