<svg width="831" height="575" xmlns="http://www.w3.org/2000/svg" xmlns:xlink="http://www.w3.org/1999/xlink" xml:space="preserve" overflow="hidden"><defs><linearGradient x1="3169" y1="3636.5" x2="3169" y2="4196.5" gradientUnits="userSpaceOnUse" spreadMethod="reflect" id="fill0"><stop offset="0" stop-color="#00B050"/><stop offset="0.5" stop-color="#FFFF00"/><stop offset="1" stop-color="#FF0000"/></linearGradient></defs><g transform="translate(-3154 -3634)"><path d="M3156.5 3649C3156.5 3642.1 3162.1 3636.5 3169 3636.5L3169 3636.5C3175.9 3636.5 3181.5 3642.1 3181.5 3649L3181.5 4184C3181.5 4190.9 3175.9 4196.5 3169 4196.5L3169 4196.5C3162.1 4196.5 3156.5 4190.9 3156.5 4184Z" stroke="#0F1B37" stroke-width="4.58333" stroke-linejoin="round" stroke-miterlimit="10" fill="url(#fill0)" fill-rule="evenodd"/><path d="M3203.5 4196.5 3981.38 4196.5" stroke="#000000" stroke-width="6.875" stroke-linejoin="round" stroke-miterlimit="10" fill="none" fill-rule="evenodd"/><path d="M0 0 0.000360892 23.7716" stroke="#000000" stroke-width="6.875" stroke-linejoin="round" stroke-miterlimit="10" fill="none" fill-rule="evenodd" transform="matrix(1 0 0 -1 3221.5 4208.27)"/><path d="M0 0 0.000360892 23.7716" stroke="#000000" stroke-width="6.875" stroke-linejoin="round" stroke-miterlimit="10" fill="none" fill-rule="evenodd" transform="matrix(1 0 0 -1 3275.5 4208.27)"/><path d="M0 0 0.000360892 23.7716" stroke="#000000" stroke-width="6.875" stroke-linejoin="round" stroke-miterlimit="10" fill="none" fill-rule="evenodd" transform="matrix(1 0 0 -1 3329.5 4208.27)"/><path d="M0 0 0.000360892 23.7716" stroke="#000000" stroke-width="6.875" stroke-linejoin="round" stroke-miterlimit="10" fill="none" fill-rule="evenodd" transform="matrix(1 0 0 -1 3383.5 4208.27)"/><path d="M0 0 0.000360892 23.7716" stroke="#000000" stroke-width="6.875" stroke-linejoin="round" stroke-miterlimit="10" fill="none" fill-rule="evenodd" transform="matrix(1 0 0 -1 3437.5 4208.27)"/><path d="M0 0 0.000360892 23.7716" stroke="#000000" stroke-width="6.875" stroke-linejoin="round" stroke-miterlimit="10" fill="none" fill-rule="evenodd" transform="matrix(1 0 0 -1 3492.5 4208.27)"/><path d="M0 0 0.000360892 23.7716" stroke="#000000" stroke-width="6.875" stroke-linejoin="round" stroke-miterlimit="10" fill="none" fill-rule="evenodd" transform="matrix(1 0 0 -1 3546.5 4208.27)"/><path d="M0 0 0.000360892 23.7716" stroke="#000000" stroke-width="6.875" stroke-linejoin="round" stroke-miterlimit="10" fill="none" fill-rule="evenodd" transform="matrix(1 0 0 -1 3600.5 4208.27)"/><path d="M0 0 0.000360892 23.7716" stroke="#000000" stroke-width="6.875" stroke-linejoin="round" stroke-miterlimit="10" fill="none" fill-rule="evenodd" transform="matrix(1 0 0 -1 3654.5 4208.27)"/><path d="M0 0 0.000360892 23.7716" stroke="#000000" stroke-width="6.875" stroke-linejoin="round" stroke-miterlimit="10" fill="none" fill-rule="evenodd" transform="matrix(1 0 0 -1 3708.5 4208.27)"/><path d="M0 0 0.000360892 23.7716" stroke="#000000" stroke-width="6.875" stroke-linejoin="round" stroke-miterlimit="10" fill="none" fill-rule="evenodd" transform="matrix(1 0 0 -1 3762.5 4208.27)"/><path d="M0 0 0.000360892 23.7716" stroke="#000000" stroke-width="6.875" stroke-linejoin="round" stroke-miterlimit="10" fill="none" fill-rule="evenodd" transform="matrix(1 0 0 -1 3817.5 4208.27)"/><path d="M0 0 0.000360892 23.7716" stroke="#000000" stroke-width="6.875" stroke-linejoin="round" stroke-miterlimit="10" fill="none" fill-rule="evenodd" transform="matrix(1 0 0 -1 3871.5 4208.27)"/><path d="M0 0 0.000360892 23.7716" stroke="#000000" stroke-width="6.875" stroke-linejoin="round" stroke-miterlimit="10" fill="none" fill-rule="evenodd" transform="matrix(1 0 0 -1 3925.5 4208.27)"/><path d="M0 0 0.000360892 23.7716" stroke="#000000" stroke-width="6.875" stroke-linejoin="round" stroke-miterlimit="10" fill="none" fill-rule="evenodd" transform="matrix(1 0 0 -1 3979.5 4208.27)"/><path d="M3237 3686.5C3237 3682.91 3239.69 3680 3243 3680 3246.31 3680 3249 3682.91 3249 3686.5 3249 3690.09 3246.31 3693 3243 3693 3239.69 3693 3237 3690.09 3237 3686.5Z" fill="#3B7D23" fill-rule="evenodd"/><path d="M3265 3686.5C3265 3682.91 3267.91 3680 3271.5 3680 3275.09 3680 3278 3682.91 3278 3686.5 3278 3690.09 3275.09 3693 3271.5 3693 3267.91 3693 3265 3690.09 3265 3686.5Z" fill="#3B7D23" fill-rule="evenodd"/><path d="M3299 3694C3299 3690.69 3301.91 3688 3305.5 3688 3309.09 3688 3312 3690.69 3312 3694 3312 3697.31 3309.09 3700 3305.5 3700 3301.91 3700 3299 3697.31 3299 3694Z" fill="#3B7D23" fill-rule="evenodd"/><path d="M3331 3686.5C3331 3682.91 3333.69 3680 3337 3680 3340.31 3680 3343 3682.91 3343 3686.5 3343 3690.09 3340.31 3693 3337 3693 3333.69 3693 3331 3690.09 3331 3686.5Z" fill="#3B7D23" fill-rule="evenodd"/><path d="M3362 3695C3362 3691.69 3364.69 3689 3368 3689 3371.31 3689 3374 3691.69 3374 3695 3374 3698.31 3371.31 3701 3368 3701 3364.69 3701 3362 3698.31 3362 3695Z" fill="#3B7D23" fill-rule="evenodd"/><path d="M3393 3686.5C3393 3682.91 3395.91 3680 3399.5 3680 3403.09 3680 3406 3682.91 3406 3686.5 3406 3690.09 3403.09 3693 3399.5 3693 3395.91 3693 3393 3690.09 3393 3686.5Z" fill="#3B7D23" fill-rule="evenodd"/><path d="M3425 3689C3425 3685.69 3427.69 3683 3431 3683 3434.31 3683 3437 3685.69 3437 3689 3437 3692.31 3434.31 3695 3431 3695 3427.69 3695 3425 3692.31 3425 3689Z" fill="#3B7D23" fill-rule="evenodd"/><path d="M3456 3686.5C3456 3682.91 3458.69 3680 3462 3680 3465.31 3680 3468 3682.91 3468 3686.5 3468 3690.09 3465.31 3693 3462 3693 3458.69 3693 3456 3690.09 3456 3686.5Z" fill="#3B7D23" fill-rule="evenodd"/><path d="M3487 3691C3487 3687.69 3489.91 3685 3493.5 3685 3497.09 3685 3500 3687.69 3500 3691 3500 3694.31 3497.09 3697 3493.5 3697 3489.91 3697 3487 3694.31 3487 3691Z" fill="#3B7D23" fill-rule="evenodd"/><path d="M3519 3686.5C3519 3682.91 3521.69 3680 3525 3680 3528.31 3680 3531 3682.91 3531 3686.5 3531 3690.09 3528.31 3693 3525 3693 3521.69 3693 3519 3690.09 3519 3686.5Z" fill="#3B7D23" fill-rule="evenodd"/><path d="M3550 3693.5C3550 3689.91 3552.69 3687 3556 3687 3559.31 3687 3562 3689.91 3562 3693.5 3562 3697.09 3559.31 3700 3556 3700 3552.69 3700 3550 3697.09 3550 3693.5Z" fill="#3B7D23" fill-rule="evenodd"/><path d="M3581 3686.5C3581 3682.91 3583.91 3680 3587.5 3680 3591.09 3680 3594 3682.91 3594 3686.5 3594 3690.09 3591.09 3693 3587.5 3693 3583.91 3693 3581 3690.09 3581 3686.5Z" fill="#3B7D23" fill-rule="evenodd"/><path d="M3613 3682C3613 3678.69 3615.69 3676 3619 3676 3622.31 3676 3625 3678.69 3625 3682 3625 3685.31 3622.31 3688 3619 3688 3615.69 3688 3613 3685.31 3613 3682Z" fill="#3B7D23" fill-rule="evenodd"/><path d="M3644 3686.5C3644 3682.91 3646.69 3680 3650 3680 3653.31 3680 3656 3682.91 3656 3686.5 3656 3690.09 3653.31 3693 3650 3693 3646.69 3693 3644 3690.09 3644 3686.5Z" fill="#3B7D23" fill-rule="evenodd"/><path d="M3675 3695C3675 3691.69 3677.91 3689 3681.5 3689 3685.09 3689 3688 3691.69 3688 3695 3688 3698.31 3685.09 3701 3681.5 3701 3677.91 3701 3675 3698.31 3675 3695Z" fill="#3B7D23" fill-rule="evenodd"/><path d="M3707 3686.5C3707 3682.91 3709.69 3680 3713 3680 3716.31 3680 3719 3682.91 3719 3686.5 3719 3690.09 3716.31 3693 3713 3693 3709.69 3693 3707 3690.09 3707 3686.5Z" fill="#3B7D23" fill-rule="evenodd"/><path d="M3738 3684C3738 3680.69 3740.69 3678 3744 3678 3747.31 3678 3750 3680.69 3750 3684 3750 3687.31 3747.31 3690 3744 3690 3740.69 3690 3738 3687.31 3738 3684Z" fill="#3B7D23" fill-rule="evenodd"/><path d="M3770 3686.5C3770 3682.91 3772.69 3680 3776 3680 3779.31 3680 3782 3682.91 3782 3686.5 3782 3690.09 3779.31 3693 3776 3693 3772.69 3693 3770 3690.09 3770 3686.5Z" fill="#3B7D23" fill-rule="evenodd"/><path d="M3801 3693.5C3801 3689.91 3803.69 3687 3807 3687 3810.31 3687 3813 3689.91 3813 3693.5 3813 3697.09 3810.31 3700 3807 3700 3803.69 3700 3801 3697.09 3801 3693.5Z" fill="#3B7D23" fill-rule="evenodd"/><path d="M3832 3686.5C3832 3682.91 3834.69 3680 3838 3680 3841.31 3680 3844 3682.91 3844 3686.5 3844 3690.09 3841.31 3693 3838 3693 3834.69 3693 3832 3690.09 3832 3686.5Z" fill="#3B7D23" fill-rule="evenodd"/><path d="M3863 3697C3863 3693.69 3865.69 3691 3869 3691 3872.31 3691 3875 3693.69 3875 3697 3875 3700.31 3872.31 3703 3869 3703 3865.69 3703 3863 3700.31 3863 3697Z" fill="#3B7D23" fill-rule="evenodd"/><path d="M3894 3686.5C3894 3682.91 3896.91 3680 3900.5 3680 3904.09 3680 3907 3682.91 3907 3686.5 3907 3690.09 3904.09 3693 3900.5 3693 3896.91 3693 3894 3690.09 3894 3686.5Z" fill="#3B7D23" fill-rule="evenodd"/><path d="M3926 3692.5C3926 3688.91 3928.69 3686 3932 3686 3935.31 3686 3938 3688.91 3938 3692.5 3938 3696.09 3935.31 3699 3932 3699 3928.69 3699 3926 3696.09 3926 3692.5Z" fill="#3B7D23" fill-rule="evenodd"/><path d="M3957 3686.5C3957 3682.91 3959.69 3680 3963 3680 3966.31 3680 3969 3682.91 3969 3686.5 3969 3690.09 3966.31 3693 3963 3693 3959.69 3693 3957 3690.09 3957 3686.5Z" fill="#3B7D23" fill-rule="evenodd"/><path d="M3237 3710C3237 3706.69 3239.69 3704 3243 3704 3246.31 3704 3249 3706.69 3249 3710 3249 3713.31 3246.31 3716 3243 3716 3239.69 3716 3237 3713.31 3237 3710Z" fill="#3B7D23" fill-rule="evenodd"/><path d="M3265 3719C3265 3715.69 3267.91 3713 3271.5 3713 3275.09 3713 3278 3715.69 3278 3719 3278 3722.31 3275.09 3725 3271.5 3725 3267.91 3725 3265 3722.31 3265 3719Z" fill="#3B7D23" fill-rule="evenodd"/><path d="M3299 3731.5C3299 3727.91 3301.91 3725 3305.5 3725 3309.09 3725 3312 3727.91 3312 3731.5 3312 3735.09 3309.09 3738 3305.5 3738 3301.91 3738 3299 3735.09 3299 3731.5Z" fill="#3B7D23" fill-rule="evenodd"/><path d="M3331 3724.5C3331 3720.91 3333.69 3718 3337 3718 3340.31 3718 3343 3720.91 3343 3724.5 3343 3728.09 3340.31 3731 3337 3731 3333.69 3731 3331 3728.09 3331 3724.5Z" fill="#3B7D23" fill-rule="evenodd"/><path d="M3362 3733C3362 3729.69 3364.69 3727 3368 3727 3371.31 3727 3374 3729.69 3374 3733 3374 3736.31 3371.31 3739 3368 3739 3364.69 3739 3362 3736.31 3362 3733Z" fill="#3B7D23" fill-rule="evenodd"/><path d="M3393 3724.5C3393 3720.91 3395.91 3718 3399.5 3718 3403.09 3718 3406 3720.91 3406 3724.5 3406 3728.09 3403.09 3731 3399.5 3731 3395.91 3731 3393 3728.09 3393 3724.5Z" fill="#3B7D23" fill-rule="evenodd"/><path d="M3425 3727C3425 3723.69 3427.69 3721 3431 3721 3434.31 3721 3437 3723.69 3437 3727 3437 3730.31 3434.31 3733 3431 3733 3427.69 3733 3425 3730.31 3425 3727Z" fill="#3B7D23" fill-rule="evenodd"/><path d="M3456 3724.5C3456 3720.91 3458.69 3718 3462 3718 3465.31 3718 3468 3720.91 3468 3724.5 3468 3728.09 3465.31 3731 3462 3731 3458.69 3731 3456 3728.09 3456 3724.5Z" fill="#3B7D23" fill-rule="evenodd"/><path d="M3487 3729C3487 3725.69 3489.91 3723 3493.5 3723 3497.09 3723 3500 3725.69 3500 3729 3500 3732.31 3497.09 3735 3493.5 3735 3489.91 3735 3487 3732.31 3487 3729Z" fill="#3B7D23" fill-rule="evenodd"/><path d="M3519 3724.5C3519 3720.91 3521.69 3718 3525 3718 3528.31 3718 3531 3720.91 3531 3724.5 3531 3728.09 3528.31 3731 3525 3731 3521.69 3731 3519 3728.09 3519 3724.5Z" fill="#3B7D23" fill-rule="evenodd"/><path d="M3550 3731.5C3550 3727.91 3552.69 3725 3556 3725 3559.31 3725 3562 3727.91 3562 3731.5 3562 3735.09 3559.31 3738 3556 3738 3552.69 3738 3550 3735.09 3550 3731.5Z" fill="#3B7D23" fill-rule="evenodd"/><path d="M3581 3724.5C3581 3720.91 3583.91 3718 3587.5 3718 3591.09 3718 3594 3720.91 3594 3724.5 3594 3728.09 3591.09 3731 3587.5 3731 3583.91 3731 3581 3728.09 3581 3724.5Z" fill="#3B7D23" fill-rule="evenodd"/><path d="M3613 3720C3613 3716.69 3615.69 3714 3619 3714 3622.31 3714 3625 3716.69 3625 3720 3625 3723.31 3622.31 3726 3619 3726 3615.69 3726 3613 3723.31 3613 3720Z" fill="#3B7D23" fill-rule="evenodd"/><path d="M3644 3724.5C3644 3720.91 3646.69 3718 3650 3718 3653.31 3718 3656 3720.91 3656 3724.5 3656 3728.09 3653.31 3731 3650 3731 3646.69 3731 3644 3728.09 3644 3724.5Z" fill="#3B7D23" fill-rule="evenodd"/><path d="M3675 3733C3675 3729.69 3677.91 3727 3681.5 3727 3685.09 3727 3688 3729.69 3688 3733 3688 3736.31 3685.09 3739 3681.5 3739 3677.91 3739 3675 3736.31 3675 3733Z" fill="#3B7D23" fill-rule="evenodd"/><path d="M3707 3724.5C3707 3720.91 3709.69 3718 3713 3718 3716.31 3718 3719 3720.91 3719 3724.5 3719 3728.09 3716.31 3731 3713 3731 3709.69 3731 3707 3728.09 3707 3724.5Z" fill="#3B7D23" fill-rule="evenodd"/><path d="M3738 3722C3738 3718.69 3740.69 3716 3744 3716 3747.31 3716 3750 3718.69 3750 3722 3750 3725.31 3747.31 3728 3744 3728 3740.69 3728 3738 3725.31 3738 3722Z" fill="#3B7D23" fill-rule="evenodd"/><path d="M3770 3724.5C3770 3720.91 3772.69 3718 3776 3718 3779.31 3718 3782 3720.91 3782 3724.5 3782 3728.09 3779.31 3731 3776 3731 3772.69 3731 3770 3728.09 3770 3724.5Z" fill="#3B7D23" fill-rule="evenodd"/><path d="M3801 3731.5C3801 3727.91 3803.69 3725 3807 3725 3810.31 3725 3813 3727.91 3813 3731.5 3813 3735.09 3810.31 3738 3807 3738 3803.69 3738 3801 3735.09 3801 3731.5Z" fill="#3B7D23" fill-rule="evenodd"/><path d="M3832 3724.5C3832 3720.91 3834.69 3718 3838 3718 3841.31 3718 3844 3720.91 3844 3724.5 3844 3728.09 3841.31 3731 3838 3731 3834.69 3731 3832 3728.09 3832 3724.5Z" fill="#3B7D23" fill-rule="evenodd"/><path d="M3863 3735C3863 3731.69 3865.69 3729 3869 3729 3872.31 3729 3875 3731.69 3875 3735 3875 3738.31 3872.31 3741 3869 3741 3865.69 3741 3863 3738.31 3863 3735Z" fill="#3B7D23" fill-rule="evenodd"/><path d="M3894 3724.5C3894 3720.91 3896.91 3718 3900.5 3718 3904.09 3718 3907 3720.91 3907 3724.5 3907 3728.09 3904.09 3731 3900.5 3731 3896.91 3731 3894 3728.09 3894 3724.5Z" fill="#3B7D23" fill-rule="evenodd"/><path d="M3926 3730.5C3926 3726.91 3928.69 3724 3932 3724 3935.31 3724 3938 3726.91 3938 3730.5 3938 3734.09 3935.31 3737 3932 3737 3928.69 3737 3926 3734.09 3926 3730.5Z" fill="#3B7D23" fill-rule="evenodd"/><path d="M3957 3724.5C3957 3720.91 3959.69 3718 3963 3718 3966.31 3718 3969 3720.91 3969 3724.5 3969 3728.09 3966.31 3731 3963 3731 3959.69 3731 3957 3728.09 3957 3724.5Z" fill="#3B7D23" fill-rule="evenodd"/><path d="M3238 3750.5C3238 3746.91 3240.69 3744 3244 3744 3247.31 3744 3250 3746.91 3250 3750.5 3250 3754.09 3247.31 3757 3244 3757 3240.69 3757 3238 3754.09 3238 3750.5Z" fill="#3B7D23" fill-rule="evenodd"/><path d="M3265 3762.5C3265 3758.91 3267.91 3756 3271.5 3756 3275.09 3756 3278 3758.91 3278 3762.5 3278 3766.09 3275.09 3769 3271.5 3769 3267.91 3769 3265 3766.09 3265 3762.5Z" fill="#3B7D23" fill-rule="evenodd"/><path d="M3299 3770C3299 3766.69 3301.91 3764 3305.5 3764 3309.09 3764 3312 3766.69 3312 3770 3312 3773.31 3309.09 3776 3305.5 3776 3301.91 3776 3299 3773.31 3299 3770Z" fill="#3B7D23" fill-rule="evenodd"/><path d="M3331 3762.5C3331 3758.91 3333.69 3756 3337 3756 3340.31 3756 3343 3758.91 3343 3762.5 3343 3766.09 3340.31 3769 3337 3769 3333.69 3769 3331 3766.09 3331 3762.5Z" fill="#3B7D23" fill-rule="evenodd"/><path d="M3362 3771C3362 3767.69 3364.69 3765 3368 3765 3371.31 3765 3374 3767.69 3374 3771 3374 3774.31 3371.31 3777 3368 3777 3364.69 3777 3362 3774.31 3362 3771Z" fill="#3B7D23" fill-rule="evenodd"/><path d="M3393 3762.5C3393 3758.91 3395.91 3756 3399.5 3756 3403.09 3756 3406 3758.91 3406 3762.5 3406 3766.09 3403.09 3769 3399.5 3769 3395.91 3769 3393 3766.09 3393 3762.5Z" fill="#3B7D23" fill-rule="evenodd"/><path d="M3425 3765C3425 3761.69 3427.69 3759 3431 3759 3434.31 3759 3437 3761.69 3437 3765 3437 3768.31 3434.31 3771 3431 3771 3427.69 3771 3425 3768.31 3425 3765Z" fill="#3B7D23" fill-rule="evenodd"/><path d="M3456 3762.5C3456 3758.91 3458.69 3756 3462 3756 3465.31 3756 3468 3758.91 3468 3762.5 3468 3766.09 3465.31 3769 3462 3769 3458.69 3769 3456 3766.09 3456 3762.5Z" fill="#3B7D23" fill-rule="evenodd"/><path d="M3487 3767C3487 3763.69 3489.91 3761 3493.5 3761 3497.09 3761 3500 3763.69 3500 3767 3500 3770.31 3497.09 3773 3493.5 3773 3489.91 3773 3487 3770.31 3487 3767Z" fill="#3B7D23" fill-rule="evenodd"/><path d="M3519 3762.5C3519 3758.91 3521.69 3756 3525 3756 3528.31 3756 3531 3758.91 3531 3762.5 3531 3766.09 3528.31 3769 3525 3769 3521.69 3769 3519 3766.09 3519 3762.5Z" fill="#3B7D23" fill-rule="evenodd"/><path d="M3550 3769.5C3550 3765.91 3552.69 3763 3556 3763 3559.31 3763 3562 3765.91 3562 3769.5 3562 3773.09 3559.31 3776 3556 3776 3552.69 3776 3550 3773.09 3550 3769.5Z" fill="#3B7D23" fill-rule="evenodd"/><path d="M3581 3762.5C3581 3758.91 3583.91 3756 3587.5 3756 3591.09 3756 3594 3758.91 3594 3762.5 3594 3766.09 3591.09 3769 3587.5 3769 3583.91 3769 3581 3766.09 3581 3762.5Z" fill="#3B7D23" fill-rule="evenodd"/><path d="M3613 3758C3613 3754.69 3615.69 3752 3619 3752 3622.31 3752 3625 3754.69 3625 3758 3625 3761.31 3622.31 3764 3619 3764 3615.69 3764 3613 3761.31 3613 3758Z" fill="#3B7D23" fill-rule="evenodd"/><path d="M3644 3762.5C3644 3758.91 3646.69 3756 3650 3756 3653.31 3756 3656 3758.91 3656 3762.5 3656 3766.09 3653.31 3769 3650 3769 3646.69 3769 3644 3766.09 3644 3762.5Z" fill="#3B7D23" fill-rule="evenodd"/><path d="M3675 3771C3675 3767.69 3677.91 3765 3681.5 3765 3685.09 3765 3688 3767.69 3688 3771 3688 3774.31 3685.09 3777 3681.5 3777 3677.91 3777 3675 3774.31 3675 3771Z" fill="#3B7D23" fill-rule="evenodd"/><path d="M3707 3762.5C3707 3758.91 3709.69 3756 3713 3756 3716.31 3756 3719 3758.91 3719 3762.5 3719 3766.09 3716.31 3769 3713 3769 3709.69 3769 3707 3766.09 3707 3762.5Z" fill="#3B7D23" fill-rule="evenodd"/><path d="M3738 3760C3738 3756.69 3740.69 3754 3744 3754 3747.31 3754 3750 3756.69 3750 3760 3750 3763.31 3747.31 3766 3744 3766 3740.69 3766 3738 3763.31 3738 3760Z" fill="#3B7D23" fill-rule="evenodd"/><path d="M3770 3762.5C3770 3758.91 3772.69 3756 3776 3756 3779.31 3756 3782 3758.91 3782 3762.5 3782 3766.09 3779.31 3769 3776 3769 3772.69 3769 3770 3766.09 3770 3762.5Z" fill="#3B7D23" fill-rule="evenodd"/><path d="M3801 3769.5C3801 3765.91 3803.69 3763 3807 3763 3810.31 3763 3813 3765.91 3813 3769.5 3813 3773.09 3810.31 3776 3807 3776 3803.69 3776 3801 3773.09 3801 3769.5Z" fill="#3B7D23" fill-rule="evenodd"/><path d="M3832 3762.5C3832 3758.91 3834.69 3756 3838 3756 3841.31 3756 3844 3758.91 3844 3762.5 3844 3766.09 3841.31 3769 3838 3769 3834.69 3769 3832 3766.09 3832 3762.5Z" fill="#3B7D23" fill-rule="evenodd"/><path d="M3863 3773C3863 3769.69 3865.69 3767 3869 3767 3872.31 3767 3875 3769.69 3875 3773 3875 3776.31 3872.31 3779 3869 3779 3865.69 3779 3863 3776.31 3863 3773Z" fill="#3B7D23" fill-rule="evenodd"/><path d="M3894 3762.5C3894 3758.91 3896.91 3756 3900.5 3756 3904.09 3756 3907 3758.91 3907 3762.5 3907 3766.09 3904.09 3769 3900.5 3769 3896.91 3769 3894 3766.09 3894 3762.5Z" fill="#3B7D23" fill-rule="evenodd"/><path d="M3926 3768.5C3926 3764.91 3928.69 3762 3932 3762 3935.31 3762 3938 3764.91 3938 3768.5 3938 3772.09 3935.31 3775 3932 3775 3928.69 3775 3926 3772.09 3926 3768.5Z" fill="#3B7D23" fill-rule="evenodd"/><path d="M3957 3762.5C3957 3758.91 3959.69 3756 3963 3756 3966.31 3756 3969 3758.91 3969 3762.5 3969 3766.09 3966.31 3769 3963 3769 3959.69 3769 3957 3766.09 3957 3762.5Z" fill="#3B7D23" fill-rule="evenodd"/><path d="M3237 3933C3237 3929.69 3239.69 3927 3243 3927 3246.31 3927 3249 3929.69 3249 3933 3249 3936.31 3246.31 3939 3243 3939 3239.69 3939 3237 3936.31 3237 3933Z" fill="#0041D8" fill-rule="evenodd"/><path d="M3265 3933C3265 3929.69 3267.91 3927 3271.5 3927 3275.09 3927 3278 3929.69 3278 3933 3278 3936.31 3275.09 3939 3271.5 3939 3267.91 3939 3265 3936.31 3265 3933Z" fill="#0041D8" fill-rule="evenodd"/><path d="M3299 3943C3299 3939.69 3301.91 3937 3305.5 3937 3309.09 3937 3312 3939.69 3312 3943 3312 3946.31 3309.09 3949 3305.5 3949 3301.91 3949 3299 3946.31 3299 3943Z" fill="#0041D8" fill-rule="evenodd"/><path d="M3331 3933C3331 3929.69 3333.69 3927 3337 3927 3340.31 3927 3343 3929.69 3343 3933 3343 3936.31 3340.31 3939 3337 3939 3333.69 3939 3331 3936.31 3331 3933Z" fill="#0041D8" fill-rule="evenodd"/><path d="M3362 3941C3362 3937.69 3364.69 3935 3368 3935 3371.31 3935 3374 3937.69 3374 3941 3374 3944.31 3371.31 3947 3368 3947 3364.69 3947 3362 3944.31 3362 3941Z" fill="#0041D8" fill-rule="evenodd"/><path d="M3393 3933C3393 3929.69 3395.91 3927 3399.5 3927 3403.09 3927 3406 3929.69 3406 3933 3406 3936.31 3403.09 3939 3399.5 3939 3395.91 3939 3393 3936.31 3393 3933Z" fill="#0041D8" fill-rule="evenodd"/><path d="M3425 3942C3425 3938.69 3427.69 3936 3431 3936 3434.31 3936 3437 3938.69 3437 3942 3437 3945.31 3434.31 3948 3431 3948 3427.69 3948 3425 3945.31 3425 3942Z" fill="#0041D8" fill-rule="evenodd"/><path d="M3456 3933C3456 3929.69 3458.69 3927 3462 3927 3465.31 3927 3468 3929.69 3468 3933 3468 3936.31 3465.31 3939 3462 3939 3458.69 3939 3456 3936.31 3456 3933Z" fill="#0041D8" fill-rule="evenodd"/><path d="M3487 3944C3487 3940.69 3489.91 3938 3493.5 3938 3497.09 3938 3500 3940.69 3500 3944 3500 3947.31 3497.09 3950 3493.5 3950 3489.91 3950 3487 3947.31 3487 3944Z" fill="#0041D8" fill-rule="evenodd"/><path d="M3519 3933C3519 3929.69 3521.69 3927 3525 3927 3528.31 3927 3531 3929.69 3531 3933 3531 3936.31 3528.31 3939 3525 3939 3521.69 3939 3519 3936.31 3519 3933Z" fill="#0041D8" fill-rule="evenodd"/><path d="M3550 3953C3550 3949.69 3552.69 3947 3556 3947 3559.31 3947 3562 3949.69 3562 3953 3562 3956.31 3559.31 3959 3556 3959 3552.69 3959 3550 3956.31 3550 3953Z" fill="#0041D8" fill-rule="evenodd"/><path d="M3581 3933C3581 3929.69 3583.91 3927 3587.5 3927 3591.09 3927 3594 3929.69 3594 3933 3594 3936.31 3591.09 3939 3587.5 3939 3583.91 3939 3581 3936.31 3581 3933Z" fill="#0041D8" fill-rule="evenodd"/><path d="M3613 3949C3613 3945.69 3615.69 3943 3619 3943 3622.31 3943 3625 3945.69 3625 3949 3625 3952.31 3622.31 3955 3619 3955 3615.69 3955 3613 3952.31 3613 3949Z" fill="#0041D8" fill-rule="evenodd"/><path d="M3644 3946C3644 3942.69 3646.69 3940 3650 3940 3653.31 3940 3656 3942.69 3656 3946 3656 3949.31 3653.31 3952 3650 3952 3646.69 3952 3644 3949.31 3644 3946Z" fill="#0041D8" fill-rule="evenodd"/><path d="M3675 3951C3675 3947.69 3677.91 3945 3681.5 3945 3685.09 3945 3688 3947.69 3688 3951 3688 3954.31 3685.09 3957 3681.5 3957 3677.91 3957 3675 3954.31 3675 3951Z" fill="#0041D8" fill-rule="evenodd"/><path d="M3707 3933C3707 3929.69 3709.69 3927 3713 3927 3716.31 3927 3719 3929.69 3719 3933 3719 3936.31 3716.31 3939 3713 3939 3709.69 3939 3707 3936.31 3707 3933Z" fill="#0041D8" fill-rule="evenodd"/><path d="M3738 3943.5C3738 3939.91 3740.69 3937 3744 3937 3747.31 3937 3750 3939.91 3750 3943.5 3750 3947.09 3747.31 3950 3744 3950 3740.69 3950 3738 3947.09 3738 3943.5Z" fill="#0041D8" fill-rule="evenodd"/><path d="M3770 3943.5C3770 3939.91 3772.69 3937 3776 3937 3779.31 3937 3782 3939.91 3782 3943.5 3782 3947.09 3779.31 3950 3776 3950 3772.69 3950 3770 3947.09 3770 3943.5Z" fill="#0041D8" fill-rule="evenodd"/><path d="M3801 3951C3801 3947.69 3803.69 3945 3807 3945 3810.31 3945 3813 3947.69 3813 3951 3813 3954.31 3810.31 3957 3807 3957 3803.69 3957 3801 3954.31 3801 3951Z" fill="#0041D8" fill-rule="evenodd"/><path d="M3832 3951C3832 3947.69 3834.69 3945 3838 3945 3841.31 3945 3844 3947.69 3844 3951 3844 3954.31 3841.31 3957 3838 3957 3834.69 3957 3832 3954.31 3832 3951Z" fill="#0041D8" fill-rule="evenodd"/><path d="M3863 3943C3863 3939.69 3865.69 3937 3869 3937 3872.31 3937 3875 3939.69 3875 3943 3875 3946.31 3872.31 3949 3869 3949 3865.69 3949 3863 3946.31 3863 3943Z" fill="#0041D8" fill-rule="evenodd"/><path d="M3894 3951C3894 3947.69 3896.91 3945 3900.5 3945 3904.09 3945 3907 3947.69 3907 3951 3907 3954.31 3904.09 3957 3900.5 3957 3896.91 3957 3894 3954.31 3894 3951Z" fill="#0041D8" fill-rule="evenodd"/><path d="M3926 3946C3926 3942.69 3928.69 3940 3932 3940 3935.31 3940 3938 3942.69 3938 3946 3938 3949.31 3935.31 3952 3932 3952 3928.69 3952 3926 3949.31 3926 3946Z" fill="#0041D8" fill-rule="evenodd"/><path d="M3957 3946C3957 3942.69 3959.69 3940 3963 3940 3966.31 3940 3969 3942.69 3969 3946 3969 3949.31 3966.31 3952 3963 3952 3959.69 3952 3957 3949.31 3957 3946Z" fill="#0041D8" fill-rule="evenodd"/><path d="M3237 3982C3237 3978.69 3239.69 3976 3243 3976 3246.31 3976 3249 3978.69 3249 3982 3249 3985.31 3246.31 3988 3243 3988 3239.69 3988 3237 3985.31 3237 3982Z" fill="#0041D8" fill-rule="evenodd"/><path d="M3265 3982C3265 3978.69 3267.91 3976 3271.5 3976 3275.09 3976 3278 3978.69 3278 3982 3278 3985.31 3275.09 3988 3271.5 3988 3267.91 3988 3265 3985.31 3265 3982Z" fill="#0041D8" fill-rule="evenodd"/><path d="M3299 3992C3299 3988.69 3301.91 3986 3305.5 3986 3309.09 3986 3312 3988.69 3312 3992 3312 3995.31 3309.09 3998 3305.5 3998 3301.91 3998 3299 3995.31 3299 3992Z" fill="#0041D8" fill-rule="evenodd"/><path d="M3331 3982C3331 3978.69 3333.69 3976 3337 3976 3340.31 3976 3343 3978.69 3343 3982 3343 3985.31 3340.31 3988 3337 3988 3333.69 3988 3331 3985.31 3331 3982Z" fill="#0041D8" fill-rule="evenodd"/><path d="M3362 3990C3362 3986.69 3364.69 3984 3368 3984 3371.31 3984 3374 3986.69 3374 3990 3374 3993.31 3371.31 3996 3368 3996 3364.69 3996 3362 3993.31 3362 3990Z" fill="#0041D8" fill-rule="evenodd"/><path d="M3393 3982C3393 3978.69 3395.91 3976 3399.5 3976 3403.09 3976 3406 3978.69 3406 3982 3406 3985.31 3403.09 3988 3399.5 3988 3395.91 3988 3393 3985.31 3393 3982Z" fill="#0041D8" fill-rule="evenodd"/><path d="M3425 3991C3425 3987.69 3427.69 3985 3431 3985 3434.31 3985 3437 3987.69 3437 3991 3437 3994.31 3434.31 3997 3431 3997 3427.69 3997 3425 3994.31 3425 3991Z" fill="#0041D8" fill-rule="evenodd"/><path d="M3456 3982C3456 3978.69 3458.69 3976 3462 3976 3465.31 3976 3468 3978.69 3468 3982 3468 3985.31 3465.31 3988 3462 3988 3458.69 3988 3456 3985.31 3456 3982Z" fill="#0041D8" fill-rule="evenodd"/><path d="M3487 3993C3487 3989.69 3489.91 3987 3493.5 3987 3497.09 3987 3500 3989.69 3500 3993 3500 3996.31 3497.09 3999 3493.5 3999 3489.91 3999 3487 3996.31 3487 3993Z" fill="#0041D8" fill-rule="evenodd"/><path d="M3519 3982C3519 3978.69 3521.69 3976 3525 3976 3528.31 3976 3531 3978.69 3531 3982 3531 3985.31 3528.31 3988 3525 3988 3521.69 3988 3519 3985.31 3519 3982Z" fill="#0041D8" fill-rule="evenodd"/><path d="M3550 4002C3550 3998.69 3552.69 3996 3556 3996 3559.31 3996 3562 3998.69 3562 4002 3562 4005.31 3559.31 4008 3556 4008 3552.69 4008 3550 4005.31 3550 4002Z" fill="#0041D8" fill-rule="evenodd"/><path d="M3581 3982C3581 3978.69 3583.91 3976 3587.5 3976 3591.09 3976 3594 3978.69 3594 3982 3594 3985.31 3591.09 3988 3587.5 3988 3583.91 3988 3581 3985.31 3581 3982Z" fill="#0041D8" fill-rule="evenodd"/><path d="M3613 3998C3613 3994.69 3615.69 3992 3619 3992 3622.31 3992 3625 3994.69 3625 3998 3625 4001.31 3622.31 4004 3619 4004 3615.69 4004 3613 4001.31 3613 3998Z" fill="#0041D8" fill-rule="evenodd"/><path d="M3644 3995C3644 3991.69 3646.69 3989 3650 3989 3653.31 3989 3656 3991.69 3656 3995 3656 3998.31 3653.31 4001 3650 4001 3646.69 4001 3644 3998.31 3644 3995Z" fill="#0041D8" fill-rule="evenodd"/><path d="M3675 4000C3675 3996.69 3677.91 3994 3681.5 3994 3685.09 3994 3688 3996.69 3688 4000 3688 4003.31 3685.09 4006 3681.5 4006 3677.91 4006 3675 4003.31 3675 4000Z" fill="#0041D8" fill-rule="evenodd"/><path d="M3707 3982C3707 3978.69 3709.69 3976 3713 3976 3716.31 3976 3719 3978.69 3719 3982 3719 3985.31 3716.31 3988 3713 3988 3709.69 3988 3707 3985.31 3707 3982Z" fill="#0041D8" fill-rule="evenodd"/><path d="M3738 3992.5C3738 3988.91 3740.69 3986 3744 3986 3747.31 3986 3750 3988.91 3750 3992.5 3750 3996.09 3747.31 3999 3744 3999 3740.69 3999 3738 3996.09 3738 3992.5Z" fill="#0041D8" fill-rule="evenodd"/><path d="M3770 3992.5C3770 3988.91 3772.69 3986 3776 3986 3779.31 3986 3782 3988.91 3782 3992.5 3782 3996.09 3779.31 3999 3776 3999 3772.69 3999 3770 3996.09 3770 3992.5Z" fill="#0041D8" fill-rule="evenodd"/><path d="M3801 4000C3801 3996.69 3803.69 3994 3807 3994 3810.31 3994 3813 3996.69 3813 4000 3813 4003.31 3810.31 4006 3807 4006 3803.69 4006 3801 4003.31 3801 4000Z" fill="#0041D8" fill-rule="evenodd"/><path d="M3832 4000C3832 3996.69 3834.69 3994 3838 3994 3841.31 3994 3844 3996.69 3844 4000 3844 4003.31 3841.31 4006 3838 4006 3834.69 4006 3832 4003.31 3832 4000Z" fill="#0041D8" fill-rule="evenodd"/><path d="M3863 3992C3863 3988.69 3865.69 3986 3869 3986 3872.31 3986 3875 3988.69 3875 3992 3875 3995.31 3872.31 3998 3869 3998 3865.69 3998 3863 3995.31 3863 3992Z" fill="#0041D8" fill-rule="evenodd"/><path d="M3894 4000C3894 3996.69 3896.91 3994 3900.5 3994 3904.09 3994 3907 3996.69 3907 4000 3907 4003.31 3904.09 4006 3900.5 4006 3896.91 4006 3894 4003.31 3894 4000Z" fill="#0041D8" fill-rule="evenodd"/><path d="M3926 3995C3926 3991.69 3928.69 3989 3932 3989 3935.31 3989 3938 3991.69 3938 3995 3938 3998.31 3935.31 4001 3932 4001 3928.69 4001 3926 3998.31 3926 3995Z" fill="#0041D8" fill-rule="evenodd"/><path d="M3957 3995C3957 3991.69 3959.69 3989 3963 3989 3966.31 3989 3969 3991.69 3969 3995 3969 3998.31 3966.31 4001 3963 4001 3959.69 4001 3957 3998.31 3957 3995Z" fill="#0041D8" fill-rule="evenodd"/><path d="M3237 4015C3237 4011.69 3239.69 4009 3243 4009 3246.31 4009 3249 4011.69 3249 4015 3249 4018.31 3246.31 4021 3243 4021 3239.69 4021 3237 4018.31 3237 4015Z" fill="#0041D8" fill-rule="evenodd"/><path d="M3265 4015C3265 4011.69 3267.91 4009 3271.5 4009 3275.09 4009 3278 4011.69 3278 4015 3278 4018.31 3275.09 4021 3271.5 4021 3267.91 4021 3265 4018.31 3265 4015Z" fill="#0041D8" fill-rule="evenodd"/><path d="M3299 4024.5C3299 4020.91 3301.91 4018 3305.5 4018 3309.09 4018 3312 4020.91 3312 4024.5 3312 4028.09 3309.09 4031 3305.5 4031 3301.91 4031 3299 4028.09 3299 4024.5Z" fill="#0041D8" fill-rule="evenodd"/><path d="M3331 4015C3331 4011.69 3333.69 4009 3337 4009 3340.31 4009 3343 4011.69 3343 4015 3343 4018.31 3340.31 4021 3337 4021 3333.69 4021 3331 4018.31 3331 4015Z" fill="#0041D8" fill-rule="evenodd"/><path d="M3362 4023C3362 4019.69 3364.69 4017 3368 4017 3371.31 4017 3374 4019.69 3374 4023 3374 4026.31 3371.31 4029 3368 4029 3364.69 4029 3362 4026.31 3362 4023Z" fill="#0041D8" fill-rule="evenodd"/><path d="M3393 4015C3393 4011.69 3395.91 4009 3399.5 4009 3403.09 4009 3406 4011.69 3406 4015 3406 4018.31 3403.09 4021 3399.5 4021 3395.91 4021 3393 4018.31 3393 4015Z" fill="#0041D8" fill-rule="evenodd"/><path d="M3425 4023.5C3425 4019.91 3427.69 4017 3431 4017 3434.31 4017 3437 4019.91 3437 4023.5 3437 4027.09 3434.31 4030 3431 4030 3427.69 4030 3425 4027.09 3425 4023.5Z" fill="#0041D8" fill-rule="evenodd"/><path d="M3456 4015C3456 4011.69 3458.69 4009 3462 4009 3465.31 4009 3468 4011.69 3468 4015 3468 4018.31 3465.31 4021 3462 4021 3458.69 4021 3456 4018.31 3456 4015Z" fill="#0041D8" fill-rule="evenodd"/><path d="M3487 4026C3487 4022.69 3489.91 4020 3493.5 4020 3497.09 4020 3500 4022.69 3500 4026 3500 4029.31 3497.09 4032 3493.5 4032 3489.91 4032 3487 4029.31 3487 4026Z" fill="#0041D8" fill-rule="evenodd"/><path d="M3519 4015C3519 4011.69 3521.69 4009 3525 4009 3528.31 4009 3531 4011.69 3531 4015 3531 4018.31 3528.31 4021 3525 4021 3521.69 4021 3519 4018.31 3519 4015Z" fill="#0041D8" fill-rule="evenodd"/><path d="M3550 4035C3550 4031.69 3552.69 4029 3556 4029 3559.31 4029 3562 4031.69 3562 4035 3562 4038.31 3559.31 4041 3556 4041 3552.69 4041 3550 4038.31 3550 4035Z" fill="#0041D8" fill-rule="evenodd"/><path d="M3581 4015C3581 4011.69 3583.91 4009 3587.5 4009 3591.09 4009 3594 4011.69 3594 4015 3594 4018.31 3591.09 4021 3587.5 4021 3583.91 4021 3581 4018.31 3581 4015Z" fill="#0041D8" fill-rule="evenodd"/><path d="M3613 4030.5C3613 4026.91 3615.69 4024 3619 4024 3622.31 4024 3625 4026.91 3625 4030.5 3625 4034.09 3622.31 4037 3619 4037 3615.69 4037 3613 4034.09 3613 4030.5Z" fill="#0041D8" fill-rule="evenodd"/><path d="M3644 4028C3644 4024.69 3646.69 4022 3650 4022 3653.31 4022 3656 4024.69 3656 4028 3656 4031.31 3653.31 4034 3650 4034 3646.69 4034 3644 4031.31 3644 4028Z" fill="#0041D8" fill-rule="evenodd"/><path d="M3675 4033C3675 4029.69 3677.91 4027 3681.5 4027 3685.09 4027 3688 4029.69 3688 4033 3688 4036.31 3685.09 4039 3681.5 4039 3677.91 4039 3675 4036.31 3675 4033Z" fill="#0041D8" fill-rule="evenodd"/><path d="M3707 4015C3707 4011.69 3709.69 4009 3713 4009 3716.31 4009 3719 4011.69 3719 4015 3719 4018.31 3716.31 4021 3713 4021 3709.69 4021 3707 4018.31 3707 4015Z" fill="#0041D8" fill-rule="evenodd"/><path d="M3738 4025C3738 4021.69 3740.69 4019 3744 4019 3747.31 4019 3750 4021.69 3750 4025 3750 4028.31 3747.31 4031 3744 4031 3740.69 4031 3738 4028.31 3738 4025Z" fill="#0041D8" fill-rule="evenodd"/><path d="M3770 4025C3770 4021.69 3772.69 4019 3776 4019 3779.31 4019 3782 4021.69 3782 4025 3782 4028.31 3779.31 4031 3776 4031 3772.69 4031 3770 4028.31 3770 4025Z" fill="#0041D8" fill-rule="evenodd"/><path d="M3801 4033C3801 4029.69 3803.69 4027 3807 4027 3810.31 4027 3813 4029.69 3813 4033 3813 4036.31 3810.31 4039 3807 4039 3803.69 4039 3801 4036.31 3801 4033Z" fill="#0041D8" fill-rule="evenodd"/><path d="M3832 4033C3832 4029.69 3834.69 4027 3838 4027 3841.31 4027 3844 4029.69 3844 4033 3844 4036.31 3841.31 4039 3838 4039 3834.69 4039 3832 4036.31 3832 4033Z" fill="#0041D8" fill-rule="evenodd"/><path d="M3863 4024.5C3863 4020.91 3865.69 4018 3869 4018 3872.31 4018 3875 4020.91 3875 4024.5 3875 4028.09 3872.31 4031 3869 4031 3865.69 4031 3863 4028.09 3863 4024.5Z" fill="#0041D8" fill-rule="evenodd"/><path d="M3894 4033C3894 4029.69 3896.91 4027 3900.5 4027 3904.09 4027 3907 4029.69 3907 4033 3907 4036.31 3904.09 4039 3900.5 4039 3896.91 4039 3894 4036.31 3894 4033Z" fill="#0041D8" fill-rule="evenodd"/><path d="M3926 4028C3926 4024.69 3928.69 4022 3932 4022 3935.31 4022 3938 4024.69 3938 4028 3938 4031.31 3935.31 4034 3932 4034 3928.69 4034 3926 4031.31 3926 4028Z" fill="#0041D8" fill-rule="evenodd"/><path d="M3957 4028C3957 4024.69 3959.69 4022 3963 4022 3966.31 4022 3969 4024.69 3969 4028 3969 4031.31 3966.31 4034 3963 4034 3959.69 4034 3957 4031.31 3957 4028Z" fill="#0041D8" fill-rule="evenodd"/></g></svg>