<?xml version="1.0" encoding="UTF-8" standalone="no"?>
<svg
   width="831.05377"
   height="579.00995"
   xml:space="preserve"
   overflow="hidden"
   version="1.1"
   id="svg167"
   sodipodi:docname="22.svg"
   inkscape:version="1.3.2 (091e20e, 2023-11-25, custom)"
   xmlns:inkscape="http://www.inkscape.org/namespaces/inkscape"
   xmlns:sodipodi="http://sodipodi.sourceforge.net/DTD/sodipodi-0.dtd"
   xmlns="http://www.w3.org/2000/svg"
   xmlns:svg="http://www.w3.org/2000/svg"><sodipodi:namedview
     id="namedview167"
     pagecolor="#ffffff"
     bordercolor="#666666"
     borderopacity="1.0"
     inkscape:showpageshadow="2"
     inkscape:pageopacity="0.0"
     inkscape:pagecheckerboard="0"
     inkscape:deskcolor="#d1d1d1"
     inkscape:zoom="7.2157226"
     inkscape:cx="774.69718"
     inkscape:cy="522.26232"
     inkscape:window-width="1920"
     inkscape:window-height="1051"
     inkscape:window-x="-9"
     inkscape:window-y="-9"
     inkscape:window-maximized="1"
     inkscape:current-layer="svg167" /><defs
     id="defs6"><linearGradient
       x1="4197"
       y1="3700.5"
       x2="4197"
       y2="4260.5"
       gradientUnits="userSpaceOnUse"
       spreadMethod="reflect"
       id="fill0"
       gradientTransform="translate(-4182.2083,-3698.2083)"><stop
         offset="0"
         stop-color="#00B050"
         id="stop1" /><stop
         offset="0.5"
         stop-color="#FFFF00"
         id="stop2" /><stop
         offset="1"
         stop-color="#FF0000"
         id="stop3" /></linearGradient><linearGradient
       x1="4198"
       y1="3700.5"
       x2="4198"
       y2="4260.5"
       gradientUnits="userSpaceOnUse"
       spreadMethod="reflect"
       id="fill1"
       gradientTransform="translate(-4182.2083,-3698.2083)"><stop
         offset="0"
         stop-color="#00B050"
         id="stop4" /><stop
         offset="0.5"
         stop-color="#FFFF00"
         id="stop5" /><stop
         offset="1"
         stop-color="#FF0000"
         id="stop6" /></linearGradient></defs><path
     d="m 2.2916651,14.791665 c 0,-6.8999999 5.6,-12.4999999 12.4999999,-12.4999999 v 0 c 6.9,0 12.5,5.6 12.5,12.4999999 V 549.79167 c 0,6.9 -5.6,12.5 -12.5,12.5 v 0 c -6.8999999,0 -12.4999999,-5.6 -12.4999999,-12.5 z"
     stroke="#0f1b37"
     stroke-width="4.58333"
     stroke-linejoin="round"
     stroke-miterlimit="10"
     fill="url(#fill0)"
     fill-rule="evenodd"
     id="path6"
     style="fill:url(#fill0)" /><path
     d="m 814.79167,52.791505 c 0,-3.31362 -2.6863,-5.99984 -6.00002,-5.99984 -3.31371,0 -5.99998,2.68622 -5.99998,5.99984 0,3.31361 2.68627,5.99986 5.99998,5.99986 3.31372,0 6.00002,-2.68625 6.00002,-5.99986 z"
     fill="#3b7d23"
     fill-rule="evenodd"
     id="path7" /><path
     d="m 785.79167,52.791505 c 0,-3.31362 -2.6863,-5.99984 -6.00002,-5.99984 -3.31371,0 -5.99998,2.68622 -5.99998,5.99984 0,3.31361 2.68627,5.99986 5.99998,5.99986 3.31372,0 6.00002,-2.68625 6.00002,-5.99986 z"
     fill="#3b7d23"
     fill-rule="evenodd"
     id="path8" /><path
     d="m 751.79167,60.291695 c 0,-3.58987 -2.68622,-6.50003 -5.99984,-6.50003 -3.31361,0 -5.99986,2.91016 -5.99986,6.50003 0,3.58987 2.68625,6.50007 5.99986,6.50007 3.31362,0 5.99984,-2.9102 5.99984,-6.50007 z"
     fill="#3b7d23"
     fill-rule="evenodd"
     id="path9" /><path
     d="m 720.79167,52.791505 c 0,-3.31362 -2.6863,-5.99984 -6.00002,-5.99984 -3.31371,0 -5.99998,2.68622 -5.99998,5.99984 0,3.31361 2.68627,5.99986 5.99998,5.99986 3.31372,0 6.00002,-2.68625 6.00002,-5.99986 z"
     fill="#3b7d23"
     fill-rule="evenodd"
     id="path10" /><path
     d="m 688.79167,61.291695 c 0,-3.58987 -2.6863,-6.50003 -6.00002,-6.50003 -3.31371,0 -5.99998,2.91016 -5.99998,6.50003 0,3.58987 2.68627,6.50007 5.99998,6.50007 3.31372,0 6.00002,-2.9102 6.00002,-6.50007 z"
     fill="#3b7d23"
     fill-rule="evenodd"
     id="path11" /><path
     d="m 657.79167,79.291695 c 0,-3.58987 -2.6863,-6.50003 -6.00002,-6.50003 -3.31371,0 -5.99998,2.91016 -5.99998,6.50003 0,3.58987 2.68627,6.50007 5.99998,6.50007 3.31372,0 6.00002,-2.9102 6.00002,-6.50007 z"
     fill="#3b7d23"
     fill-rule="evenodd"
     id="path12" /><path
     d="m 626.79167,81.791685 c 0,-3.31372 -2.6863,-6.00002 -6.00002,-6.00002 -3.31371,0 -5.99998,2.6863 -5.99998,6.00002 0,3.31371 2.68627,5.99998 5.99998,5.99998 3.31372,0 6.00002,-2.68627 6.00002,-5.99998 z"
     fill="#3b7d23"
     fill-rule="evenodd"
     id="path13" /><path
     d="m 594.79167,106.79169 c 0,-3.31372 -2.6863,-6.00002 -6.00002,-6.00002 -3.31371,0 -5.99998,2.6863 -5.99998,6.00002 0,3.31371 2.68627,5.99998 5.99998,5.99998 3.31372,0 6.00002,-2.68627 6.00002,-5.99998 z"
     fill="#3b7d23"
     fill-rule="evenodd"
     id="path14" /><path
     d="m 563.79167,111.2917 c 0,-3.58987 -2.6863,-6.50003 -6.00002,-6.50003 -3.31371,0 -5.99998,2.91016 -5.99998,6.50003 0,3.58987 2.68627,6.50007 5.99998,6.50007 3.31372,0 6.00002,-2.9102 6.00002,-6.50007 z"
     fill="#3b7d23"
     fill-rule="evenodd"
     id="path15" /><path
     d="m 532.79167,106.79169 c 0,-3.31372 -2.91008,-6.00002 -6.49985,-6.00002 -3.58975,0 -6.49985,2.6863 -6.49985,6.00002 0,3.31371 2.9101,5.99998 6.49985,5.99998 3.58977,0 6.49985,-2.68627 6.49985,-5.99998 z"
     fill="#3b7d23"
     fill-rule="evenodd"
     id="path16" /><path
     d="m 500.79167,113.79169 c 0,-3.31372 -2.6863,-6.00002 -6.00002,-6.00002 -3.31371,0 -5.99998,2.6863 -5.99998,6.00002 0,3.31371 2.68627,5.99998 5.99998,5.99998 3.31372,0 6.00002,-2.68627 6.00002,-5.99998 z"
     fill="#3b7d23"
     fill-rule="evenodd"
     id="path17" /><path
     d="m 469.79167,125.79169 c 0,-3.31372 -2.6863,-6.00002 -6.00002,-6.00002 -3.31371,0 -5.99998,2.6863 -5.99998,6.00002 0,3.31371 2.68627,5.99998 5.99998,5.99998 3.31372,0 6.00002,-2.68627 6.00002,-5.99998 z"
     fill="#3b7d23"
     fill-rule="evenodd"
     id="path18" /><path
     d="m 438.79167,121.79169 c 0,-3.31372 -2.91016,-6.00002 -6.50003,-6.00002 -3.58987,0 -6.50007,2.6863 -6.50007,6.00002 0,3.31371 2.9102,5.99998 6.50007,5.99998 3.58987,0 6.50003,-2.68627 6.50003,-5.99998 z"
     fill="#3b7d23"
     fill-rule="evenodd"
     id="path19" /><path
     d="m 406.79167,128.79169 c 0,-3.31372 -2.6863,-6.00002 -6.00002,-6.00002 -3.31371,0 -5.99998,2.6863 -5.99998,6.00002 0,3.31371 2.68627,5.99998 5.99998,5.99998 3.31372,0 6.00002,-2.68627 6.00002,-5.99998 z"
     fill="#3b7d23"
     fill-rule="evenodd"
     id="path20" /><path
     d="m 375.79167,136.79169 c 0,-3.31372 -2.6863,-6.00002 -6.00002,-6.00002 -3.31371,0 -5.99998,2.6863 -5.99998,6.00002 0,3.31371 2.68627,5.99998 5.99998,5.99998 3.31372,0 6.00002,-2.68627 6.00002,-5.99998 z"
     fill="#3b7d23"
     fill-rule="evenodd"
     id="path21" /><path
     d="m 344.79167,149.2917 c 0,-3.58987 -2.91008,-6.50003 -6.49985,-6.50003 -3.58975,0 -6.49985,2.91016 -6.49985,6.50003 0,3.58987 2.9101,6.50007 6.49985,6.50007 3.58977,0 6.49985,-2.9102 6.49985,-6.50007 z"
     fill="#3b7d23"
     fill-rule="evenodd"
     id="path22" /><path
     d="m 312.79167,146.79169 c 0,-3.31372 -2.6863,-6.00002 -6.00002,-6.00002 -3.31371,0 -5.99998,2.6863 -5.99998,6.00002 0,3.31371 2.68627,5.99998 5.99998,5.99998 3.31372,0 6.00002,-2.68627 6.00002,-5.99998 z"
     fill="#3b7d23"
     fill-rule="evenodd"
     id="path23" /><path
     d="m 281.79167,165.79169 c 0,-3.31372 -2.6863,-6.00002 -6.00002,-6.00002 -3.31371,0 -5.99998,2.6863 -5.99998,6.00002 0,3.31371 2.68627,5.99998 5.99998,5.99998 3.31372,0 6.00002,-2.68627 6.00002,-5.99998 z"
     fill="#3b7d23"
     fill-rule="evenodd"
     id="path24" /><path
     d="m 250.79167,172.79169 c 0,-3.31372 -2.91016,-6.00002 -6.50003,-6.00002 -3.58987,0 -6.50007,2.6863 -6.50007,6.00002 0,3.31371 2.9102,5.99998 6.50007,5.99998 3.58987,0 6.50003,-2.68627 6.50003,-5.99998 z"
     fill="#3b7d23"
     fill-rule="evenodd"
     id="path25" /><path
     d="m 218.79167,193.79169 c 0,-3.31372 -2.6863,-6.00002 -6.00002,-6.00002 -3.31371,0 -5.99998,2.6863 -5.99998,6.00002 0,3.31371 2.68627,5.99998 5.99998,5.99998 3.31372,0 6.00002,-2.68627 6.00002,-5.99998 z"
     fill="#3b7d23"
     fill-rule="evenodd"
     id="path26" /><path
     d="m 187.79167,204.79169 c 0,-3.31372 -2.6863,-6.00002 -6.00002,-6.00002 -3.31371,0 -5.99998,2.6863 -5.99998,6.00002 0,3.31371 2.68627,5.99998 5.99998,5.99998 3.31372,0 6.00002,-2.68627 6.00002,-5.99998 z"
     fill="#3b7d23"
     fill-rule="evenodd"
     id="path27" /><path
     d="m 156.79167,193.79169 c 0,-3.31372 -2.6863,-6.00002 -6.00002,-6.00002 -3.31371,0 -5.99998,2.6863 -5.99998,6.00002 0,3.31371 2.68627,5.99998 5.99998,5.99998 3.31372,0 6.00002,-2.68627 6.00002,-5.99998 z"
     fill="#3b7d23"
     fill-rule="evenodd"
     id="path28" /><path
     d="m 125.79167,199.79169 c 0,-3.31372 -2.91008,-6.00002 -6.49985,-6.00002 -3.58975,0 -6.49985,2.6863 -6.49985,6.00002 0,3.31371 2.9101,5.99998 6.49985,5.99998 3.58977,0 6.49985,-2.68627 6.49985,-5.99998 z"
     fill="#3b7d23"
     fill-rule="evenodd"
     id="path29" /><path
     d="m 93.791665,193.79169 c 0,-3.31372 -2.6863,-6.00002 -6.00002,-6.00002 -3.31371,0 -5.99998,2.6863 -5.99998,6.00002 0,3.31371 2.68627,5.99998 5.99998,5.99998 3.31372,0 6.00002,-2.68627 6.00002,-5.99998 z"
     fill="#3b7d23"
     fill-rule="evenodd"
     id="path30" /><path
     d="m 814.79167,75.791685 c 0,-3.31372 -2.6863,-6.00002 -6.00002,-6.00002 -3.31371,0 -5.99998,2.6863 -5.99998,6.00002 0,3.31371 2.68627,5.99998 5.99998,5.99998 3.31372,0 6.00002,-2.68627 6.00002,-5.99998 z"
     fill="#3b7d23"
     fill-rule="evenodd"
     id="path31" /><path
     d="m 785.79167,85.291515 c 0,-3.58977 -2.6863,-6.49985 -6.00002,-6.49985 -3.31371,0 -5.99998,2.91008 -5.99998,6.49985 0,3.58975 2.68627,6.49985 5.99998,6.49985 3.31372,0 6.00002,-2.9101 6.00002,-6.49985 z"
     fill="#3b7d23"
     fill-rule="evenodd"
     id="path32" /><path
     d="m 751.79167,97.791685 c 0,-3.31372 -2.68622,-6.00002 -5.99984,-6.00002 -3.31361,0 -5.99986,2.6863 -5.99986,6.00002 0,3.313715 2.68625,5.999985 5.99986,5.999985 3.31362,0 5.99984,-2.68627 5.99984,-5.999985 z"
     fill="#3b7d23"
     fill-rule="evenodd"
     id="path33" /><path
     d="m 720.79167,90.791685 c 0,-3.31372 -2.6863,-6.00002 -6.00002,-6.00002 -3.31371,0 -5.99998,2.6863 -5.99998,6.00002 0,3.31371 2.68627,5.99998 5.99998,5.99998 3.31372,0 6.00002,-2.68627 6.00002,-5.99998 z"
     fill="#3b7d23"
     fill-rule="evenodd"
     id="path34" /><path
     d="m 688.79167,98.791685 c 0,-3.31372 -2.6863,-6.00002 -6.00002,-6.00002 -3.31371,0 -5.99998,2.6863 -5.99998,6.00002 0,3.313715 2.68627,5.999985 5.99998,5.999985 3.31372,0 6.00002,-2.68627 6.00002,-5.999985 z"
     fill="#3b7d23"
     fill-rule="evenodd"
     id="path35" /><path
     d="m 657.79167,117.2917 c 0,-3.58987 -2.6863,-6.50003 -6.00002,-6.50003 -3.31371,0 -5.99998,2.91016 -5.99998,6.50003 0,3.58987 2.68627,6.50007 5.99998,6.50007 3.31372,0 6.00002,-2.9102 6.00002,-6.50007 z"
     fill="#3b7d23"
     fill-rule="evenodd"
     id="path36" /><path
     d="m 626.79167,119.79169 c 0,-3.31372 -2.6863,-6.00002 -6.00002,-6.00002 -3.31371,0 -5.99998,2.6863 -5.99998,6.00002 0,3.31371 2.68627,5.99998 5.99998,5.99998 3.31372,0 6.00002,-2.68627 6.00002,-5.99998 z"
     fill="#3b7d23"
     fill-rule="evenodd"
     id="path37" /><path
     d="m 594.79167,144.79169 c 0,-3.31372 -2.6863,-6.00002 -6.00002,-6.00002 -3.31371,0 -5.99998,2.6863 -5.99998,6.00002 0,3.31371 2.68627,5.99998 5.99998,5.99998 3.31372,0 6.00002,-2.68627 6.00002,-5.99998 z"
     fill="#3b7d23"
     fill-rule="evenodd"
     id="path38" /><path
     d="m 563.79167,149.2917 c 0,-3.58987 -2.6863,-6.50003 -6.00002,-6.50003 -3.31371,0 -5.99998,2.91016 -5.99998,6.50003 0,3.58987 2.68627,6.50007 5.99998,6.50007 3.31372,0 6.00002,-2.9102 6.00002,-6.50007 z"
     fill="#3b7d23"
     fill-rule="evenodd"
     id="path39" /><path
     d="m 532.79167,144.79169 c 0,-3.31372 -2.91008,-6.00002 -6.49985,-6.00002 -3.58975,0 -6.49985,2.6863 -6.49985,6.00002 0,3.31371 2.9101,5.99998 6.49985,5.99998 3.58977,0 6.49985,-2.68627 6.49985,-5.99998 z"
     fill="#3b7d23"
     fill-rule="evenodd"
     id="path40" /><path
     d="m 500.79167,151.79151 c 0,-3.31362 -2.6863,-5.99984 -6.00002,-5.99984 -3.31371,0 -5.99998,2.68622 -5.99998,5.99984 0,3.31361 2.68627,5.99986 5.99998,5.99986 3.31372,0 6.00002,-2.68625 6.00002,-5.99986 z"
     fill="#3b7d23"
     fill-rule="evenodd"
     id="path41" /><path
     d="m 469.79167,163.79169 c 0,-3.31372 -2.6863,-6.00002 -6.00002,-6.00002 -3.31371,0 -5.99998,2.6863 -5.99998,6.00002 0,3.31371 2.68627,5.99998 5.99998,5.99998 3.31372,0 6.00002,-2.68627 6.00002,-5.99998 z"
     fill="#3b7d23"
     fill-rule="evenodd"
     id="path42" /><path
     d="m 438.79167,159.79169 c 0,-3.31372 -2.91016,-6.00002 -6.50003,-6.00002 -3.58987,0 -6.50007,2.6863 -6.50007,6.00002 0,3.31371 2.9102,5.99998 6.50007,5.99998 3.58987,0 6.50003,-2.68627 6.50003,-5.99998 z"
     fill="#3b7d23"
     fill-rule="evenodd"
     id="path43" /><path
     d="m 406.79167,166.79169 c 0,-3.31372 -2.6863,-6.00002 -6.00002,-6.00002 -3.31371,0 -5.99998,2.6863 -5.99998,6.00002 0,3.31371 2.68627,5.99998 5.99998,5.99998 3.31372,0 6.00002,-2.68627 6.00002,-5.99998 z"
     fill="#3b7d23"
     fill-rule="evenodd"
     id="path44" /><path
     d="m 375.79167,174.79169 c 0,-3.31372 -2.6863,-6.00002 -6.00002,-6.00002 -3.31371,0 -5.99998,2.6863 -5.99998,6.00002 0,3.31371 2.68627,5.99998 5.99998,5.99998 3.31372,0 6.00002,-2.68627 6.00002,-5.99998 z"
     fill="#3b7d23"
     fill-rule="evenodd"
     id="path45" /><path
     d="m 344.79167,187.2917 c 0,-3.58987 -2.91008,-6.50003 -6.49985,-6.50003 -3.58975,0 -6.49985,2.91016 -6.49985,6.50003 0,3.58987 2.9101,6.50007 6.49985,6.50007 3.58977,0 6.49985,-2.9102 6.49985,-6.50007 z"
     fill="#3b7d23"
     fill-rule="evenodd"
     id="path46" /><path
     d="m 312.79167,184.79151 c 0,-3.31362 -2.6863,-5.99984 -6.00002,-5.99984 -3.31371,0 -5.99998,2.68622 -5.99998,5.99984 0,3.31361 2.68627,5.99986 5.99998,5.99986 3.31372,0 6.00002,-2.68625 6.00002,-5.99986 z"
     fill="#3b7d23"
     fill-rule="evenodd"
     id="path47" /><path
     d="m 281.79167,203.79169 c 0,-3.31372 -2.6863,-6.00002 -6.00002,-6.00002 -3.31371,0 -5.99998,2.6863 -5.99998,6.00002 0,3.31371 2.68627,5.99998 5.99998,5.99998 3.31372,0 6.00002,-2.68627 6.00002,-5.99998 z"
     fill="#3b7d23"
     fill-rule="evenodd"
     id="path48" /><path
     d="m 250.79167,210.79169 c 0,-3.31372 -2.91016,-6.00002 -6.50003,-6.00002 -3.58987,0 -6.50007,2.6863 -6.50007,6.00002 0,3.31371 2.9102,5.99998 6.50007,5.99998 3.58987,0 6.50003,-2.68627 6.50003,-5.99998 z"
     fill="#3b7d23"
     fill-rule="evenodd"
     id="path49" /><path
     d="m 218.79167,231.79169 c 0,-3.31372 -2.6863,-6.00002 -6.00002,-6.00002 -3.31371,0 -5.99998,2.6863 -5.99998,6.00002 0,3.31371 2.68627,5.99998 5.99998,5.99998 3.31372,0 6.00002,-2.68627 6.00002,-5.99998 z"
     fill="#3b7d23"
     fill-rule="evenodd"
     id="path50" /><path
     d="m 187.79167,242.79169 c 0,-3.31372 -2.6863,-6.00002 -6.00002,-6.00002 -3.31371,0 -5.99998,2.6863 -5.99998,6.00002 0,3.31371 2.68627,5.99998 5.99998,5.99998 3.31372,0 6.00002,-2.68627 6.00002,-5.99998 z"
     fill="#3b7d23"
     fill-rule="evenodd"
     id="path51" /><path
     d="m 156.79167,231.79169 c 0,-3.31372 -2.6863,-6.00002 -6.00002,-6.00002 -3.31371,0 -5.99998,2.6863 -5.99998,6.00002 0,3.31371 2.68627,5.99998 5.99998,5.99998 3.31372,0 6.00002,-2.68627 6.00002,-5.99998 z"
     fill="#3b7d23"
     fill-rule="evenodd"
     id="path52" /><path
     d="m 125.79167,237.79169 c 0,-3.31372 -2.91008,-6.00002 -6.49985,-6.00002 -3.58975,0 -6.49985,2.6863 -6.49985,6.00002 0,3.31371 2.9101,5.99998 6.49985,5.99998 3.58977,0 6.49985,-2.68627 6.49985,-5.99998 z"
     fill="#3b7d23"
     fill-rule="evenodd"
     id="path53" /><path
     d="m 93.791665,231.79169 c 0,-3.31372 -2.6863,-6.00002 -6.00002,-6.00002 -3.31371,0 -5.99998,2.6863 -5.99998,6.00002 0,3.31371 2.68627,5.99998 5.99998,5.99998 3.31372,0 6.00002,-2.68627 6.00002,-5.99998 z"
     fill="#3b7d23"
     fill-rule="evenodd"
     id="path54" /><path
     d="m 813.79167,116.79169 c 0,-3.31372 -2.6863,-6.00002 -6.00002,-6.00002 -3.31371,0 -5.99998,2.6863 -5.99998,6.00002 0,3.31371 2.68627,5.99998 5.99998,5.99998 3.31372,0 6.00002,-2.68627 6.00002,-5.99998 z"
     fill="#3b7d23"
     fill-rule="evenodd"
     id="path55" /><path
     d="m 785.79167,128.79169 c 0,-3.31372 -2.6863,-6.00002 -6.00002,-6.00002 -3.31371,0 -5.99998,2.6863 -5.99998,6.00002 0,3.31371 2.68627,5.99998 5.99998,5.99998 3.31372,0 6.00002,-2.68627 6.00002,-5.99998 z"
     fill="#3b7d23"
     fill-rule="evenodd"
     id="path56" /><path
     d="m 751.79167,136.2917 c 0,-3.58987 -2.68622,-6.50003 -5.99984,-6.50003 -3.31361,0 -5.99986,2.91016 -5.99986,6.50003 0,3.58987 2.68625,6.50007 5.99986,6.50007 3.31362,0 5.99984,-2.9102 5.99984,-6.50007 z"
     fill="#3b7d23"
     fill-rule="evenodd"
     id="path57" /><path
     d="m 720.79167,128.79169 c 0,-3.31372 -2.6863,-6.00002 -6.00002,-6.00002 -3.31371,0 -5.99998,2.6863 -5.99998,6.00002 0,3.31371 2.68627,5.99998 5.99998,5.99998 3.31372,0 6.00002,-2.68627 6.00002,-5.99998 z"
     fill="#3b7d23"
     fill-rule="evenodd"
     id="path58" /><path
     d="m 688.79167,136.79169 c 0,-3.31372 -2.6863,-6.00002 -6.00002,-6.00002 -3.31371,0 -5.99998,2.6863 -5.99998,6.00002 0,3.31371 2.68627,5.99998 5.99998,5.99998 3.31372,0 6.00002,-2.68627 6.00002,-5.99998 z"
     fill="#3b7d23"
     fill-rule="evenodd"
     id="path59" /><path
     d="m 657.79167,155.2917 c 0,-3.58987 -2.6863,-6.50003 -6.00002,-6.50003 -3.31371,0 -5.99998,2.91016 -5.99998,6.50003 0,3.58987 2.68627,6.50007 5.99998,6.50007 3.31372,0 6.00002,-2.9102 6.00002,-6.50007 z"
     fill="#3b7d23"
     fill-rule="evenodd"
     id="path60" /><path
     d="m 626.79167,157.79169 c 0,-3.31372 -2.6863,-6.00002 -6.00002,-6.00002 -3.31371,0 -5.99998,2.6863 -5.99998,6.00002 0,3.31371 2.68627,5.99998 5.99998,5.99998 3.31372,0 6.00002,-2.68627 6.00002,-5.99998 z"
     fill="#3b7d23"
     fill-rule="evenodd"
     id="path61" /><path
     d="m 594.79167,182.79169 c 0,-3.31372 -2.6863,-6.00002 -6.00002,-6.00002 -3.31371,0 -5.99998,2.6863 -5.99998,6.00002 0,3.31371 2.68627,5.99998 5.99998,5.99998 3.31372,0 6.00002,-2.68627 6.00002,-5.99998 z"
     fill="#3b7d23"
     fill-rule="evenodd"
     id="path62" /><path
     d="m 563.79167,187.2917 c 0,-3.58987 -2.6863,-6.50003 -6.00002,-6.50003 -3.31371,0 -5.99998,2.91016 -5.99998,6.50003 0,3.58987 2.68627,6.50007 5.99998,6.50007 3.31372,0 6.00002,-2.9102 6.00002,-6.50007 z"
     fill="#3b7d23"
     fill-rule="evenodd"
     id="path63" /><path
     d="m 532.79167,182.79169 c 0,-3.31372 -2.91008,-6.00002 -6.49985,-6.00002 -3.58975,0 -6.49985,2.6863 -6.49985,6.00002 0,3.31371 2.9101,5.99998 6.49985,5.99998 3.58977,0 6.49985,-2.68627 6.49985,-5.99998 z"
     fill="#3b7d23"
     fill-rule="evenodd"
     id="path64" /><path
     d="m 500.79167,189.79169 c 0,-3.31372 -2.6863,-6.00002 -6.00002,-6.00002 -3.31371,0 -5.99998,2.6863 -5.99998,6.00002 0,3.31371 2.68627,5.99998 5.99998,5.99998 3.31372,0 6.00002,-2.68627 6.00002,-5.99998 z"
     fill="#3b7d23"
     fill-rule="evenodd"
     id="path65" /><path
     d="m 469.79167,201.79169 c 0,-3.31372 -2.6863,-6.00002 -6.00002,-6.00002 -3.31371,0 -5.99998,2.6863 -5.99998,6.00002 0,3.31371 2.68627,5.99998 5.99998,5.99998 3.31372,0 6.00002,-2.68627 6.00002,-5.99998 z"
     fill="#3b7d23"
     fill-rule="evenodd"
     id="path66" /><path
     d="m 438.79167,197.79169 c 0,-3.31372 -2.91016,-6.00002 -6.50003,-6.00002 -3.58987,0 -6.50007,2.6863 -6.50007,6.00002 0,3.31371 2.9102,5.99998 6.50007,5.99998 3.58987,0 6.50003,-2.68627 6.50003,-5.99998 z"
     fill="#3b7d23"
     fill-rule="evenodd"
     id="path67" /><path
     d="m 406.79167,204.79169 c 0,-3.31372 -2.6863,-6.00002 -6.00002,-6.00002 -3.31371,0 -5.99998,2.6863 -5.99998,6.00002 0,3.31371 2.68627,5.99998 5.99998,5.99998 3.31372,0 6.00002,-2.68627 6.00002,-5.99998 z"
     fill="#3b7d23"
     fill-rule="evenodd"
     id="path68" /><path
     d="m 375.79167,212.79169 c 0,-3.31372 -2.6863,-6.00002 -6.00002,-6.00002 -3.31371,0 -5.99998,2.6863 -5.99998,6.00002 0,3.31371 2.68627,5.99998 5.99998,5.99998 3.31372,0 6.00002,-2.68627 6.00002,-5.99998 z"
     fill="#3b7d23"
     fill-rule="evenodd"
     id="path69" /><path
     d="m 344.79167,224.79169 c 0,-3.31372 -2.91008,-6.00002 -6.49985,-6.00002 -3.58975,0 -6.49985,2.6863 -6.49985,6.00002 0,3.31371 2.9101,5.99998 6.49985,5.99998 3.58977,0 6.49985,-2.68627 6.49985,-5.99998 z"
     fill="#3b7d23"
     fill-rule="evenodd"
     id="path70" /><path
     d="m 312.79167,222.79169 c 0,-3.31372 -2.6863,-6.00002 -6.00002,-6.00002 -3.31371,0 -5.99998,2.6863 -5.99998,6.00002 0,3.31371 2.68627,5.99998 5.99998,5.99998 3.31372,0 6.00002,-2.68627 6.00002,-5.99998 z"
     fill="#3b7d23"
     fill-rule="evenodd"
     id="path71" /><path
     d="m 281.79167,241.79169 c 0,-3.31372 -2.6863,-6.00002 -6.00002,-6.00002 -3.31371,0 -5.99998,2.6863 -5.99998,6.00002 0,3.31371 2.68627,5.99998 5.99998,5.99998 3.31372,0 6.00002,-2.68627 6.00002,-5.99998 z"
     fill="#3b7d23"
     fill-rule="evenodd"
     id="path72" /><path
     d="m 250.79167,248.79169 c 0,-3.31372 -2.91016,-6.00002 -6.50003,-6.00002 -3.58987,0 -6.50007,2.6863 -6.50007,6.00002 0,3.31371 2.9102,5.99998 6.50007,5.99998 3.58987,0 6.50003,-2.68627 6.50003,-5.99998 z"
     fill="#3b7d23"
     fill-rule="evenodd"
     id="path73" /><path
     d="m 218.79167,269.79169 c 0,-3.31372 -2.6863,-6.00002 -6.00002,-6.00002 -3.31371,0 -5.99998,2.6863 -5.99998,6.00002 0,3.31371 2.68627,5.99998 5.99998,5.99998 3.31372,0 6.00002,-2.68627 6.00002,-5.99998 z"
     fill="#3b7d23"
     fill-rule="evenodd"
     id="path74" /><path
     d="m 187.79167,280.2917 c 0,-3.58987 -2.6863,-6.50003 -6.00002,-6.50003 -3.31371,0 -5.99998,2.91016 -5.99998,6.50003 0,3.58987 2.68627,6.50007 5.99998,6.50007 3.31372,0 6.00002,-2.9102 6.00002,-6.50007 z"
     fill="#3b7d23"
     fill-rule="evenodd"
     id="path75" /><path
     d="m 156.79167,269.79169 c 0,-3.31372 -2.6863,-6.00002 -6.00002,-6.00002 -3.31371,0 -5.99998,2.6863 -5.99998,6.00002 0,3.31371 2.68627,5.99998 5.99998,5.99998 3.31372,0 6.00002,-2.68627 6.00002,-5.99998 z"
     fill="#3b7d23"
     fill-rule="evenodd"
     id="path76" /><path
     d="m 125.79167,275.79169 c 0,-3.31372 -2.91008,-6.00002 -6.49985,-6.00002 -3.58975,0 -6.49985,2.6863 -6.49985,6.00002 0,3.31371 2.9101,5.99998 6.49985,5.99998 3.58977,0 6.49985,-2.68627 6.49985,-5.99998 z"
     fill="#3b7d23"
     fill-rule="evenodd"
     id="path77" /><path
     d="m 93.791665,269.79169 c 0,-3.31372 -2.6863,-6.00002 -6.00002,-6.00002 -3.31371,0 -5.99998,2.6863 -5.99998,6.00002 0,3.31371 2.68627,5.99998 5.99998,5.99998 3.31372,0 6.00002,-2.68627 6.00002,-5.99998 z"
     fill="#3b7d23"
     fill-rule="evenodd"
     id="path78" /><path
     d="m 814.79167,367.2917 c 0,-3.58987 -2.6863,-6.50003 -6.00002,-6.50003 -3.31371,0 -5.99998,2.91016 -5.99998,6.50003 0,3.58987 2.68627,6.50007 5.99998,6.50007 3.31372,0 6.00002,-2.9102 6.00002,-6.50007 z"
     fill="#0041d8"
     fill-rule="evenodd"
     id="path79" /><path
     d="m 785.79167,367.2917 c 0,-3.58987 -2.6863,-6.50003 -6.00002,-6.50003 -3.31371,0 -5.99998,2.91016 -5.99998,6.50003 0,3.58987 2.68627,6.50007 5.99998,6.50007 3.31372,0 6.00002,-2.9102 6.00002,-6.50007 z"
     fill="#0041d8"
     fill-rule="evenodd"
     id="path80" /><path
     d="m 751.79167,376.79169 c 0,-3.31372 -2.68622,-6.00002 -5.99984,-6.00002 -3.31361,0 -5.99986,2.6863 -5.99986,6.00002 0,3.31371 2.68625,5.99998 5.99986,5.99998 3.31362,0 5.99984,-2.68627 5.99984,-5.99998 z"
     fill="#0041d8"
     fill-rule="evenodd"
     id="path81" /><path
     d="m 720.79167,367.2917 c 0,-3.58987 -2.6863,-6.50003 -6.00002,-6.50003 -3.31371,0 -5.99998,2.91016 -5.99998,6.50003 0,3.58987 2.68627,6.50007 5.99998,6.50007 3.31372,0 6.00002,-2.9102 6.00002,-6.50007 z"
     fill="#0041d8"
     fill-rule="evenodd"
     id="path82" /><path
     d="m 688.79167,374.79169 c 0,-3.31372 -2.6863,-6.00002 -6.00002,-6.00002 -3.31371,0 -5.99998,2.6863 -5.99998,6.00002 0,3.31371 2.68627,5.99998 5.99998,5.99998 3.31372,0 6.00002,-2.68627 6.00002,-5.99998 z"
     fill="#0041d8"
     fill-rule="evenodd"
     id="path83" /><path
     d="m 657.79167,367.2917 c 0,-3.58987 -2.6863,-6.50003 -6.00002,-6.50003 -3.31371,0 -5.99998,2.91016 -5.99998,6.50003 0,3.58987 2.68627,6.50007 5.99998,6.50007 3.31372,0 6.00002,-2.9102 6.00002,-6.50007 z"
     fill="#0041d8"
     fill-rule="evenodd"
     id="path84" /><path
     d="m 626.79167,375.79169 c 0,-3.31372 -2.6863,-6.00002 -6.00002,-6.00002 -3.31371,0 -5.99998,2.6863 -5.99998,6.00002 0,3.31371 2.68627,5.99998 5.99998,5.99998 3.31372,0 6.00002,-2.68627 6.00002,-5.99998 z"
     fill="#0041d8"
     fill-rule="evenodd"
     id="path85" /><path
     d="m 594.79167,343.79169 c 0,-3.31372 -2.6863,-6.00002 -6.00002,-6.00002 -3.31371,0 -5.99998,2.6863 -5.99998,6.00002 0,3.31371 2.68627,5.99998 5.99998,5.99998 3.31372,0 6.00002,-2.68627 6.00002,-5.99998 z"
     fill="#0041d8"
     fill-rule="evenodd"
     id="path86" /><path
     d="m 563.79167,355.2917 c 0,-3.58987 -2.6863,-6.50003 -6.00002,-6.50003 -3.31371,0 -5.99998,2.91016 -5.99998,6.50003 0,3.58987 2.68627,6.50007 5.99998,6.50007 3.31372,0 6.00002,-2.9102 6.00002,-6.50007 z"
     fill="#0041d8"
     fill-rule="evenodd"
     id="path87" /><path
     d="m 532.79167,343.79169 c 0,-3.31372 -2.91008,-6.00002 -6.49985,-6.00002 -3.58975,0 -6.49985,2.6863 -6.49985,6.00002 0,3.31371 2.9101,5.99998 6.49985,5.99998 3.58977,0 6.49985,-2.68627 6.49985,-5.99998 z"
     fill="#0041d8"
     fill-rule="evenodd"
     id="path88" /><path
     d="m 500.79167,363.79169 c 0,-3.31372 -2.6863,-6.00002 -6.00002,-6.00002 -3.31371,0 -5.99998,2.6863 -5.99998,6.00002 0,3.31371 2.68627,5.99998 5.99998,5.99998 3.31372,0 6.00002,-2.68627 6.00002,-5.99998 z"
     fill="#0041d8"
     fill-rule="evenodd"
     id="path89" /><path
     d="m 469.79167,343.79169 c 0,-3.31372 -2.6863,-6.00002 -6.00002,-6.00002 -3.31371,0 -5.99998,2.6863 -5.99998,6.00002 0,3.31371 2.68627,5.99998 5.99998,5.99998 3.31372,0 6.00002,-2.68627 6.00002,-5.99998 z"
     fill="#0041d8"
     fill-rule="evenodd"
     id="path90" /><path
     d="m 438.79167,359.79169 c 0,-3.31372 -2.91016,-6.00002 -6.50003,-6.00002 -3.58987,0 -6.50007,2.6863 -6.50007,6.00002 0,3.31371 2.9102,5.99998 6.50007,5.99998 3.58987,0 6.50003,-2.68627 6.50003,-5.99998 z"
     fill="#0041d8"
     fill-rule="evenodd"
     id="path91" /><path
     d="m 406.79167,338.79151 c 0,-3.31362 -2.6863,-5.99984 -6.00002,-5.99984 -3.31371,0 -5.99998,2.68622 -5.99998,5.99984 0,3.31361 2.68627,5.99986 5.99998,5.99986 3.31372,0 6.00002,-2.68625 6.00002,-5.99986 z"
     fill="#0041d8"
     fill-rule="evenodd"
     id="path92" /><path
     d="m 375.79167,343.79169 c 0,-3.31372 -2.6863,-6.00002 -6.00002,-6.00002 -3.31371,0 -5.99998,2.6863 -5.99998,6.00002 0,3.31371 2.68627,5.99998 5.99998,5.99998 3.31372,0 6.00002,-2.68627 6.00002,-5.99998 z"
     fill="#0041d8"
     fill-rule="evenodd"
     id="path93" /><path
     d="m 344.79167,325.79169 c 0,-3.31372 -2.91008,-6.00002 -6.49985,-6.00002 -3.58975,0 -6.49985,2.6863 -6.49985,6.00002 0,3.31371 2.9101,5.99998 6.49985,5.99998 3.58977,0 6.49985,-2.68627 6.49985,-5.99998 z"
     fill="#0041d8"
     fill-rule="evenodd"
     id="path94" /><path
     d="m 312.79167,311.79169 c 0,-3.31372 -2.6863,-6.00002 -6.00002,-6.00002 -3.31371,0 -5.99998,2.6863 -5.99998,6.00002 0,3.31371 2.68627,5.99998 5.99998,5.99998 3.31372,0 6.00002,-2.68627 6.00002,-5.99998 z"
     fill="#0041d8"
     fill-rule="evenodd"
     id="path95" /><path
     d="m 281.79167,311.79169 c 0,-3.31372 -2.6863,-6.00002 -6.00002,-6.00002 -3.31371,0 -5.99998,2.6863 -5.99998,6.00002 0,3.31371 2.68627,5.99998 5.99998,5.99998 3.31372,0 6.00002,-2.68627 6.00002,-5.99998 z"
     fill="#0041d8"
     fill-rule="evenodd"
     id="path96" /><path
     d="m 250.79167,317.29152 c 0,-3.58977 -2.91016,-6.49985 -6.50003,-6.49985 -3.58987,0 -6.50007,2.91008 -6.50007,6.49985 0,3.58975 2.9102,6.49985 6.50007,6.49985 3.58987,0 6.50003,-2.9101 6.50003,-6.49985 z"
     fill="#0041d8"
     fill-rule="evenodd"
     id="path97" /><path
     d="m 218.79167,317.29152 c 0,-3.58977 -2.6863,-6.49985 -6.00002,-6.49985 -3.31371,0 -5.99998,2.91008 -5.99998,6.49985 0,3.58975 2.68627,6.49985 5.99998,6.49985 3.31372,0 6.00002,-2.9101 6.00002,-6.49985 z"
     fill="#0041d8"
     fill-rule="evenodd"
     id="path98" /><path
     d="m 187.79167,308.79169 c 0,-3.31372 -2.6863,-6.00002 -6.00002,-6.00002 -3.31371,0 -5.99998,2.6863 -5.99998,6.00002 0,3.31371 2.68627,5.99998 5.99998,5.99998 3.31372,0 6.00002,-2.68627 6.00002,-5.99998 z"
     fill="#0041d8"
     fill-rule="evenodd"
     id="path99" /><path
     d="m 156.79167,317.29152 c 0,-3.58977 -2.6863,-6.49985 -6.00002,-6.49985 -3.31371,0 -5.99998,2.91008 -5.99998,6.49985 0,3.58975 2.68627,6.49985 5.99998,6.49985 3.31372,0 6.00002,-2.9101 6.00002,-6.49985 z"
     fill="#0041d8"
     fill-rule="evenodd"
     id="path100" /><path
     d="m 125.79167,311.79169 c 0,-3.31372 -2.91008,-6.00002 -6.49985,-6.00002 -3.58975,0 -6.49985,2.6863 -6.49985,6.00002 0,3.31371 2.9101,5.99998 6.49985,5.99998 3.58977,0 6.49985,-2.68627 6.49985,-5.99998 z"
     fill="#0041d8"
     fill-rule="evenodd"
     id="path101" /><path
     d="m 93.791665,311.79169 c 0,-3.31372 -2.6863,-6.00002 -6.00002,-6.00002 -3.31371,0 -5.99998,2.6863 -5.99998,6.00002 0,3.31371 2.68627,5.99998 5.99998,5.99998 3.31372,0 6.00002,-2.68627 6.00002,-5.99998 z"
     fill="#0041d8"
     fill-rule="evenodd"
     id="path102" /><path
     d="m 814.79167,416.29152 c 0,-3.58977 -2.6863,-6.49985 -6.00002,-6.49985 -3.31371,0 -5.99998,2.91008 -5.99998,6.49985 0,3.58975 2.68627,6.49985 5.99998,6.49985 3.31372,0 6.00002,-2.9101 6.00002,-6.49985 z"
     fill="#0041d8"
     fill-rule="evenodd"
     id="path103" /><path
     d="m 785.79167,416.29152 c 0,-3.58977 -2.6863,-6.49985 -6.00002,-6.49985 -3.31371,0 -5.99998,2.91008 -5.99998,6.49985 0,3.58975 2.68627,6.49985 5.99998,6.49985 3.31372,0 6.00002,-2.9101 6.00002,-6.49985 z"
     fill="#0041d8"
     fill-rule="evenodd"
     id="path104" /><path
     d="m 751.79167,425.79169 c 0,-3.31372 -2.68622,-6.00002 -5.99984,-6.00002 -3.31361,0 -5.99986,2.6863 -5.99986,6.00002 0,3.31371 2.68625,5.99998 5.99986,5.99998 3.31362,0 5.99984,-2.68627 5.99984,-5.99998 z"
     fill="#0041d8"
     fill-rule="evenodd"
     id="path105" /><path
     d="m 720.79167,416.29152 c 0,-3.58977 -2.6863,-6.49985 -6.00002,-6.49985 -3.31371,0 -5.99998,2.91008 -5.99998,6.49985 0,3.58975 2.68627,6.49985 5.99998,6.49985 3.31372,0 6.00002,-2.9101 6.00002,-6.49985 z"
     fill="#0041d8"
     fill-rule="evenodd"
     id="path106" /><path
     d="m 688.79167,423.79169 c 0,-3.31372 -2.6863,-6.00002 -6.00002,-6.00002 -3.31371,0 -5.99998,2.6863 -5.99998,6.00002 0,3.31371 2.68627,5.99998 5.99998,5.99998 3.31372,0 6.00002,-2.68627 6.00002,-5.99998 z"
     fill="#0041d8"
     fill-rule="evenodd"
     id="path107" /><path
     d="m 657.79167,416.29152 c 0,-3.58977 -2.6863,-6.49985 -6.00002,-6.49985 -3.31371,0 -5.99998,2.91008 -5.99998,6.49985 0,3.58975 2.68627,6.49985 5.99998,6.49985 3.31372,0 6.00002,-2.9101 6.00002,-6.49985 z"
     fill="#0041d8"
     fill-rule="evenodd"
     id="path108" /><path
     d="m 626.79167,424.79169 c 0,-3.31372 -2.6863,-6.00002 -6.00002,-6.00002 -3.31371,0 -5.99998,2.6863 -5.99998,6.00002 0,3.31371 2.68627,5.99998 5.99998,5.99998 3.31372,0 6.00002,-2.68627 6.00002,-5.99998 z"
     fill="#0041d8"
     fill-rule="evenodd"
     id="path109" /><path
     d="m 594.79167,392.79169 c 0,-3.31372 -2.6863,-6.00002 -6.00002,-6.00002 -3.31371,0 -5.99998,2.6863 -5.99998,6.00002 0,3.31371 2.68627,5.99998 5.99998,5.99998 3.31372,0 6.00002,-2.68627 6.00002,-5.99998 z"
     fill="#0041d8"
     fill-rule="evenodd"
     id="path110" /><path
     d="m 563.79167,404.29152 c 0,-3.58977 -2.6863,-6.49985 -6.00002,-6.49985 -3.31371,0 -5.99998,2.91008 -5.99998,6.49985 0,3.58975 2.68627,6.49985 5.99998,6.49985 3.31372,0 6.00002,-2.9101 6.00002,-6.49985 z"
     fill="#0041d8"
     fill-rule="evenodd"
     id="path111" /><path
     d="m 532.79167,392.79169 c 0,-3.31372 -2.91008,-6.00002 -6.49985,-6.00002 -3.58975,0 -6.49985,2.6863 -6.49985,6.00002 0,3.31371 2.9101,5.99998 6.49985,5.99998 3.58977,0 6.49985,-2.68627 6.49985,-5.99998 z"
     fill="#0041d8"
     fill-rule="evenodd"
     id="path112" /><path
     d="m 500.79167,412.79169 c 0,-3.31372 -2.6863,-6.00002 -6.00002,-6.00002 -3.31371,0 -5.99998,2.6863 -5.99998,6.00002 0,3.31371 2.68627,5.99998 5.99998,5.99998 3.31372,0 6.00002,-2.68627 6.00002,-5.99998 z"
     fill="#0041d8"
     fill-rule="evenodd"
     id="path113" /><path
     d="m 469.79167,392.79169 c 0,-3.31372 -2.6863,-6.00002 -6.00002,-6.00002 -3.31371,0 -5.99998,2.6863 -5.99998,6.00002 0,3.31371 2.68627,5.99998 5.99998,5.99998 3.31372,0 6.00002,-2.68627 6.00002,-5.99998 z"
     fill="#0041d8"
     fill-rule="evenodd"
     id="path114" /><path
     d="m 438.79167,408.79169 c 0,-3.31372 -2.91016,-6.00002 -6.50003,-6.00002 -3.58987,0 -6.50007,2.6863 -6.50007,6.00002 0,3.31371 2.9102,5.99998 6.50007,5.99998 3.58987,0 6.50003,-2.68627 6.50003,-5.99998 z"
     fill="#0041d8"
     fill-rule="evenodd"
     id="path115" /><path
     d="m 406.79167,387.79169 c 0,-3.31372 -2.6863,-6.00002 -6.00002,-6.00002 -3.31371,0 -5.99998,2.6863 -5.99998,6.00002 0,3.31371 2.68627,5.99998 5.99998,5.99998 3.31372,0 6.00002,-2.68627 6.00002,-5.99998 z"
     fill="#0041d8"
     fill-rule="evenodd"
     id="path116" /><path
     d="m 375.79167,392.79169 c 0,-3.31372 -2.6863,-6.00002 -6.00002,-6.00002 -3.31371,0 -5.99998,2.6863 -5.99998,6.00002 0,3.31371 2.68627,5.99998 5.99998,5.99998 3.31372,0 6.00002,-2.68627 6.00002,-5.99998 z"
     fill="#0041d8"
     fill-rule="evenodd"
     id="path117" /><path
     d="m 344.79167,374.79169 c 0,-3.31372 -2.91008,-6.00002 -6.49985,-6.00002 -3.58975,0 -6.49985,2.6863 -6.49985,6.00002 0,3.31371 2.9101,5.99998 6.49985,5.99998 3.58977,0 6.49985,-2.68627 6.49985,-5.99998 z"
     fill="#0041d8"
     fill-rule="evenodd"
     id="path118" /><path
     d="m 312.79167,360.79151 c 0,-3.31362 -2.6863,-5.99984 -6.00002,-5.99984 -3.31371,0 -5.99998,2.68622 -5.99998,5.99984 0,3.31361 2.68627,5.99986 5.99998,5.99986 3.31372,0 6.00002,-2.68625 6.00002,-5.99986 z"
     fill="#0041d8"
     fill-rule="evenodd"
     id="path119" /><path
     d="m 281.79167,360.79151 c 0,-3.31362 -2.6863,-5.99984 -6.00002,-5.99984 -3.31371,0 -5.99998,2.68622 -5.99998,5.99984 0,3.31361 2.68627,5.99986 5.99998,5.99986 3.31372,0 6.00002,-2.68625 6.00002,-5.99986 z"
     fill="#0041d8"
     fill-rule="evenodd"
     id="path120" /><path
     d="m 250.79167,366.2917 c 0,-3.58987 -2.91016,-6.50003 -6.50003,-6.50003 -3.58987,0 -6.50007,2.91016 -6.50007,6.50003 0,3.58987 2.9102,6.50007 6.50007,6.50007 3.58987,0 6.50003,-2.9102 6.50003,-6.50007 z"
     fill="#0041d8"
     fill-rule="evenodd"
     id="path121" /><path
     d="m 218.79167,366.2917 c 0,-3.58987 -2.6863,-6.50003 -6.00002,-6.50003 -3.31371,0 -5.99998,2.91016 -5.99998,6.50003 0,3.58987 2.68627,6.50007 5.99998,6.50007 3.31372,0 6.00002,-2.9102 6.00002,-6.50007 z"
     fill="#0041d8"
     fill-rule="evenodd"
     id="path122" /><path
     d="m 187.79167,357.79169 c 0,-3.31372 -2.6863,-6.00002 -6.00002,-6.00002 -3.31371,0 -5.99998,2.6863 -5.99998,6.00002 0,3.31371 2.68627,5.99998 5.99998,5.99998 3.31372,0 6.00002,-2.68627 6.00002,-5.99998 z"
     fill="#0041d8"
     fill-rule="evenodd"
     id="path123" /><path
     d="m 156.79167,366.2917 c 0,-3.58987 -2.6863,-6.50003 -6.00002,-6.50003 -3.31371,0 -5.99998,2.91016 -5.99998,6.50003 0,3.58987 2.68627,6.50007 5.99998,6.50007 3.31372,0 6.00002,-2.9102 6.00002,-6.50007 z"
     fill="#0041d8"
     fill-rule="evenodd"
     id="path124" /><path
     d="m 125.79167,360.79151 c 0,-3.31362 -2.91008,-5.99984 -6.49985,-5.99984 -3.58975,0 -6.49985,2.68622 -6.49985,5.99984 0,3.31361 2.9101,5.99986 6.49985,5.99986 3.58977,0 6.49985,-2.68625 6.49985,-5.99986 z"
     fill="#0041d8"
     fill-rule="evenodd"
     id="path125" /><path
     d="m 93.791665,360.79151 c 0,-3.31362 -2.6863,-5.99984 -6.00002,-5.99984 -3.31371,0 -5.99998,2.68622 -5.99998,5.99984 0,3.31361 2.68627,5.99986 5.99998,5.99986 3.31372,0 6.00002,-2.68625 6.00002,-5.99986 z"
     fill="#0041d8"
     fill-rule="evenodd"
     id="path126" /><path
     d="m 814.79167,448.79151 c 0,-3.31362 -2.6863,-5.99984 -6.00002,-5.99984 -3.31371,0 -5.99998,2.68622 -5.99998,5.99984 0,3.31361 2.68627,5.99986 5.99998,5.99986 3.31372,0 6.00002,-2.68625 6.00002,-5.99986 z"
     fill="#0041d8"
     fill-rule="evenodd"
     id="path127" /><path
     d="m 785.79167,448.79151 c 0,-3.31362 -2.6863,-5.99984 -6.00002,-5.99984 -3.31371,0 -5.99998,2.68622 -5.99998,5.99984 0,3.31361 2.68627,5.99986 5.99998,5.99986 3.31372,0 6.00002,-2.68625 6.00002,-5.99986 z"
     fill="#0041d8"
     fill-rule="evenodd"
     id="path128" /><path
     d="m 751.79167,458.79169 c 0,-3.31372 -2.68622,-6.00002 -5.99984,-6.00002 -3.31361,0 -5.99986,2.6863 -5.99986,6.00002 0,3.31371 2.68625,5.99998 5.99986,5.99998 3.31362,0 5.99984,-2.68627 5.99984,-5.99998 z"
     fill="#0041d8"
     fill-rule="evenodd"
     id="path129" /><path
     d="m 720.79167,448.79151 c 0,-3.31362 -2.6863,-5.99984 -6.00002,-5.99984 -3.31371,0 -5.99998,2.68622 -5.99998,5.99984 0,3.31361 2.68627,5.99986 5.99998,5.99986 3.31372,0 6.00002,-2.68625 6.00002,-5.99986 z"
     fill="#0041d8"
     fill-rule="evenodd"
     id="path130" /><path
     d="m 688.79167,456.79169 c 0,-3.31372 -2.6863,-6.00002 -6.00002,-6.00002 -3.31371,0 -5.99998,2.6863 -5.99998,6.00002 0,3.31371 2.68627,5.99998 5.99998,5.99998 3.31372,0 6.00002,-2.68627 6.00002,-5.99998 z"
     fill="#0041d8"
     fill-rule="evenodd"
     id="path131" /><path
     d="m 657.79167,448.79151 c 0,-3.31362 -2.6863,-5.99984 -6.00002,-5.99984 -3.31371,0 -5.99998,2.68622 -5.99998,5.99984 0,3.31361 2.68627,5.99986 5.99998,5.99986 3.31372,0 6.00002,-2.68625 6.00002,-5.99986 z"
     fill="#0041d8"
     fill-rule="evenodd"
     id="path132" /><path
     d="m 626.79167,457.79169 c 0,-3.31372 -2.6863,-6.00002 -6.00002,-6.00002 -3.31371,0 -5.99998,2.6863 -5.99998,6.00002 0,3.31371 2.68627,5.99998 5.99998,5.99998 3.31372,0 6.00002,-2.68627 6.00002,-5.99998 z"
     fill="#0041d8"
     fill-rule="evenodd"
     id="path133" /><path
     d="m 594.79167,425.79169 c 0,-3.31372 -2.6863,-6.00002 -6.00002,-6.00002 -3.31371,0 -5.99998,2.6863 -5.99998,6.00002 0,3.31371 2.68627,5.99998 5.99998,5.99998 3.31372,0 6.00002,-2.68627 6.00002,-5.99998 z"
     fill="#0041d8"
     fill-rule="evenodd"
     id="path134" /><path
     d="m 563.79167,436.79169 c 0,-3.31372 -2.6863,-6.00002 -6.00002,-6.00002 -3.31371,0 -5.99998,2.6863 -5.99998,6.00002 0,3.31371 2.68627,5.99998 5.99998,5.99998 3.31372,0 6.00002,-2.68627 6.00002,-5.99998 z"
     fill="#0041d8"
     fill-rule="evenodd"
     id="path135" /><path
     d="m 532.79167,425.79169 c 0,-3.31372 -2.91008,-6.00002 -6.49985,-6.00002 -3.58975,0 -6.49985,2.6863 -6.49985,6.00002 0,3.31371 2.9101,5.99998 6.49985,5.99998 3.58977,0 6.49985,-2.68627 6.49985,-5.99998 z"
     fill="#0041d8"
     fill-rule="evenodd"
     id="path136" /><path
     d="m 500.79167,445.79169 c 0,-3.31372 -2.6863,-6.00002 -6.00002,-6.00002 -3.31371,0 -5.99998,2.6863 -5.99998,6.00002 0,3.31371 2.68627,5.99998 5.99998,5.99998 3.31372,0 6.00002,-2.68627 6.00002,-5.99998 z"
     fill="#0041d8"
     fill-rule="evenodd"
     id="path137" /><path
     d="m 469.79167,425.79169 c 0,-3.31372 -2.6863,-6.00002 -6.00002,-6.00002 -3.31371,0 -5.99998,2.6863 -5.99998,6.00002 0,3.31371 2.68627,5.99998 5.99998,5.99998 3.31372,0 6.00002,-2.68627 6.00002,-5.99998 z"
     fill="#0041d8"
     fill-rule="evenodd"
     id="path138" /><path
     d="m 438.79167,441.2917 c 0,-3.58987 -2.91016,-6.50003 -6.50003,-6.50003 -3.58987,0 -6.50007,2.91016 -6.50007,6.50003 0,3.58987 2.9102,6.50007 6.50007,6.50007 3.58987,0 6.50003,-2.9102 6.50003,-6.50007 z"
     fill="#0041d8"
     fill-rule="evenodd"
     id="path139" /><path
     d="m 406.79167,420.79169 c 0,-3.31372 -2.6863,-6.00002 -6.00002,-6.00002 -3.31371,0 -5.99998,2.6863 -5.99998,6.00002 0,3.31371 2.68627,5.99998 5.99998,5.99998 3.31372,0 6.00002,-2.68627 6.00002,-5.99998 z"
     fill="#0041d8"
     fill-rule="evenodd"
     id="path140" /><path
     d="m 375.79167,425.79169 c 0,-3.31372 -2.6863,-6.00002 -6.00002,-6.00002 -3.31371,0 -5.99998,2.6863 -5.99998,6.00002 0,3.31371 2.68627,5.99998 5.99998,5.99998 3.31372,0 6.00002,-2.68627 6.00002,-5.99998 z"
     fill="#0041d8"
     fill-rule="evenodd"
     id="path141" /><path
     d="m 344.79167,407.79169 c 0,-3.31372 -2.91008,-6.00002 -6.49985,-6.00002 -3.58975,0 -6.49985,2.6863 -6.49985,6.00002 0,3.31371 2.9101,5.99998 6.49985,5.99998 3.58977,0 6.49985,-2.68627 6.49985,-5.99998 z"
     fill="#0041d8"
     fill-rule="evenodd"
     id="path142" /><path
     d="m 312.79167,393.79151 c 0,-3.31362 -2.6863,-5.99984 -6.00002,-5.99984 -3.31371,0 -5.99998,2.68622 -5.99998,5.99984 0,3.31361 2.68627,5.99986 5.99998,5.99986 3.31372,0 6.00002,-2.68625 6.00002,-5.99986 z"
     fill="#0041d8"
     fill-rule="evenodd"
     id="path143" /><path
     d="m 281.79167,393.79151 c 0,-3.31362 -2.6863,-5.99984 -6.00002,-5.99984 -3.31371,0 -5.99998,2.68622 -5.99998,5.99984 0,3.31361 2.68627,5.99986 5.99998,5.99986 3.31372,0 6.00002,-2.68625 6.00002,-5.99986 z"
     fill="#0041d8"
     fill-rule="evenodd"
     id="path144" /><path
     d="m 250.79167,398.79169 c 0,-3.31372 -2.91016,-6.00002 -6.50003,-6.00002 -3.58987,0 -6.50007,2.6863 -6.50007,6.00002 0,3.31371 2.9102,5.99998 6.50007,5.99998 3.58987,0 6.50003,-2.68627 6.50003,-5.99998 z"
     fill="#0041d8"
     fill-rule="evenodd"
     id="path145" /><path
     d="m 218.79167,398.79169 c 0,-3.31372 -2.6863,-6.00002 -6.00002,-6.00002 -3.31371,0 -5.99998,2.6863 -5.99998,6.00002 0,3.31371 2.68627,5.99998 5.99998,5.99998 3.31372,0 6.00002,-2.68627 6.00002,-5.99998 z"
     fill="#0041d8"
     fill-rule="evenodd"
     id="path146" /><path
     d="m 187.79167,390.79169 c 0,-3.31372 -2.6863,-6.00002 -6.00002,-6.00002 -3.31371,0 -5.99998,2.6863 -5.99998,6.00002 0,3.31371 2.68627,5.99998 5.99998,5.99998 3.31372,0 6.00002,-2.68627 6.00002,-5.99998 z"
     fill="#0041d8"
     fill-rule="evenodd"
     id="path147" /><path
     d="m 156.79167,398.79169 c 0,-3.31372 -2.6863,-6.00002 -6.00002,-6.00002 -3.31371,0 -5.99998,2.6863 -5.99998,6.00002 0,3.31371 2.68627,5.99998 5.99998,5.99998 3.31372,0 6.00002,-2.68627 6.00002,-5.99998 z"
     fill="#0041d8"
     fill-rule="evenodd"
     id="path148" /><path
     d="m 125.79167,393.79151 c 0,-3.31362 -2.91008,-5.99984 -6.49985,-5.99984 -3.58975,0 -6.49985,2.68622 -6.49985,5.99984 0,3.31361 2.9101,5.99986 6.49985,5.99986 3.58977,0 6.49985,-2.68625 6.49985,-5.99986 z"
     fill="#0041d8"
     fill-rule="evenodd"
     id="path149" /><path
     d="m 93.791665,393.79151 c 0,-3.31362 -2.6863,-5.99984 -6.00002,-5.99984 -3.31371,0 -5.99998,2.68622 -5.99998,5.99984 0,3.31361 2.68627,5.99986 5.99998,5.99986 3.31372,0 6.00002,-2.68625 6.00002,-5.99986 z"
     fill="#0041d8"
     fill-rule="evenodd"
     id="path150" /><path
     d="m 3.2916651,14.791665 c 0,-6.8999999 5.6,-12.4999999 12.4999999,-12.4999999 v 0 c 6.9,0 12.5,5.6 12.5,12.4999999 V 549.79167 c 0,6.9 -5.6,12.5 -12.5,12.5 v 0 c -6.8999999,0 -12.4999999,-5.6 -12.4999999,-12.5 z"
     stroke="#0f1b37"
     stroke-width="4.58333"
     stroke-linejoin="round"
     stroke-miterlimit="10"
     fill="url(#fill1)"
     fill-rule="evenodd"
     id="path151"
     style="fill:url(#fill1)" /><path
     d="M 49.291665,562.29167 H 827.17167"
     stroke="#000000"
     stroke-width="6.875"
     stroke-linejoin="round"
     stroke-miterlimit="10"
     fill="none"
     fill-rule="evenodd"
     id="path152" /><path
     d="m 66.291665,574.06167 3.61e-4,-23.7716"
     stroke="#000000"
     stroke-width="6.875"
     stroke-linejoin="round"
     stroke-miterlimit="10"
     fill="none"
     fill-rule="evenodd"
     id="path153" /><path
     d="m 120.29167,574.06167 3.6e-4,-23.7716"
     stroke="#000000"
     stroke-width="6.875"
     stroke-linejoin="round"
     stroke-miterlimit="10"
     fill="none"
     fill-rule="evenodd"
     id="path154" /><path
     d="m 174.29167,574.06167 3.6e-4,-23.7716"
     stroke="#000000"
     stroke-width="6.875"
     stroke-linejoin="round"
     stroke-miterlimit="10"
     fill="none"
     fill-rule="evenodd"
     id="path155" /><path
     d="m 229.29167,574.06167 3.6e-4,-23.7716"
     stroke="#000000"
     stroke-width="6.875"
     stroke-linejoin="round"
     stroke-miterlimit="10"
     fill="none"
     fill-rule="evenodd"
     id="path156" /><path
     d="m 283.29167,574.06167 3.6e-4,-23.7716"
     stroke="#000000"
     stroke-width="6.875"
     stroke-linejoin="round"
     stroke-miterlimit="10"
     fill="none"
     fill-rule="evenodd"
     id="path157" /><path
     d="m 337.29167,574.06167 3.6e-4,-23.7716"
     stroke="#000000"
     stroke-width="6.875"
     stroke-linejoin="round"
     stroke-miterlimit="10"
     fill="none"
     fill-rule="evenodd"
     id="path158" /><path
     d="m 391.29167,574.06167 3.6e-4,-23.7716"
     stroke="#000000"
     stroke-width="6.875"
     stroke-linejoin="round"
     stroke-miterlimit="10"
     fill="none"
     fill-rule="evenodd"
     id="path159" /><path
     d="m 445.29167,574.06167 3.6e-4,-23.7716"
     stroke="#000000"
     stroke-width="6.875"
     stroke-linejoin="round"
     stroke-miterlimit="10"
     fill="none"
     fill-rule="evenodd"
     id="path160" /><path
     d="m 499.29167,574.06167 3.6e-4,-23.7716"
     stroke="#000000"
     stroke-width="6.875"
     stroke-linejoin="round"
     stroke-miterlimit="10"
     fill="none"
     fill-rule="evenodd"
     id="path161" /><path
     d="m 554.29167,574.06167 3.6e-4,-23.7716"
     stroke="#000000"
     stroke-width="6.875"
     stroke-linejoin="round"
     stroke-miterlimit="10"
     fill="none"
     fill-rule="evenodd"
     id="path162" /><path
     d="m 608.29167,574.06167 3.6e-4,-23.7716"
     stroke="#000000"
     stroke-width="6.875"
     stroke-linejoin="round"
     stroke-miterlimit="10"
     fill="none"
     fill-rule="evenodd"
     id="path163" /><path
     d="m 662.29167,574.06167 3.6e-4,-23.7716"
     stroke="#000000"
     stroke-width="6.875"
     stroke-linejoin="round"
     stroke-miterlimit="10"
     fill="none"
     fill-rule="evenodd"
     id="path164" /><path
     d="m 716.29167,574.06167 3.6e-4,-23.7716"
     stroke="#000000"
     stroke-width="6.875"
     stroke-linejoin="round"
     stroke-miterlimit="10"
     fill="none"
     fill-rule="evenodd"
     id="path165" /><path
     d="m 770.29167,574.06167 3.6e-4,-23.7716"
     stroke="#000000"
     stroke-width="6.875"
     stroke-linejoin="round"
     stroke-miterlimit="10"
     fill="none"
     fill-rule="evenodd"
     id="path166" /><path
     d="m 811.81382,576.57922 16.80932,-16.8088"
     stroke="#000000"
     stroke-width="6.875"
     stroke-linejoin="round"
     stroke-miterlimit="10"
     fill="none"
     fill-rule="evenodd"
     id="path19-5"
     sodipodi:nodetypes="cc" /><path
     d="m 828.62306,564.60185 -16.8088,-16.80932"
     stroke="#000000"
     stroke-width="6.875"
     stroke-linejoin="round"
     stroke-miterlimit="10"
     fill="none"
     fill-rule="evenodd"
     id="path19-6"
     sodipodi:nodetypes="cc" /></svg>
