<svg width="831" height="575" xmlns="http://www.w3.org/2000/svg" xmlns:xlink="http://www.w3.org/1999/xlink" xml:space="preserve" overflow="hidden"><defs><linearGradient x1="4197" y1="3700.5" x2="4197" y2="4260.5" gradientUnits="userSpaceOnUse" spreadMethod="reflect" id="fill0"><stop offset="0" stop-color="#00B050"/><stop offset="0.5" stop-color="#FFFF00"/><stop offset="1" stop-color="#FF0000"/></linearGradient><linearGradient x1="4198" y1="3700.5" x2="4198" y2="4260.5" gradientUnits="userSpaceOnUse" spreadMethod="reflect" id="fill1"><stop offset="0" stop-color="#00B050"/><stop offset="0.5" stop-color="#FFFF00"/><stop offset="1" stop-color="#FF0000"/></linearGradient></defs><g transform="translate(-4182 -3698)"><path d="M4184.5 3713C4184.5 3706.1 4190.1 3700.5 4197 3700.5L4197 3700.5C4203.9 3700.5 4209.5 3706.1 4209.5 3713L4209.5 4248C4209.5 4254.9 4203.9 4260.5 4197 4260.5L4197 4260.5C4190.1 4260.5 4184.5 4254.9 4184.5 4248Z" stroke="#0F1B37" stroke-width="4.58333" stroke-linejoin="round" stroke-miterlimit="10" fill="url(#fill0)" fill-rule="evenodd"/><path d="M0 5.99984C-7.63882e-16 2.68622 2.6863 -7.63859e-16 6.00002-1.52772e-15 9.31373-3.05544e-15 12 2.68622 12 5.99984 12 9.31345 9.31373 11.9997 6.00002 11.9997 2.6863 11.9997-3.81941e-15 9.31345 0 5.99984Z" fill="#3B7D23" fill-rule="evenodd" transform="matrix(-1 0 0 1 4997 3745)"/><path d="M0 5.99984C-7.63882e-16 2.68622 2.6863 -7.63859e-16 6.00002-1.52772e-15 9.31373-3.05544e-15 12 2.68622 12 5.99984 12 9.31345 9.31373 11.9997 6.00002 11.9997 2.6863 11.9997-3.81941e-15 9.31345 0 5.99984Z" fill="#3B7D23" fill-rule="evenodd" transform="matrix(-1 0 0 1 4968 3745)"/><path d="M0 6.50003C-7.63859e-16 2.91016 2.68622 -8.27541e-16 5.99984-1.65508e-15 9.31345-3.31016e-15 11.9997 2.91016 11.9997 6.50003 11.9997 10.0899 9.31345 13.0001 5.99984 13.0001 2.68622 13.0001-3.8193e-15 10.0899 0 6.50003Z" fill="#3B7D23" fill-rule="evenodd" transform="matrix(-1 0 0 1 4934 3752)"/><path d="M0 5.99984C-7.63882e-16 2.68622 2.6863 -7.63859e-16 6.00002-1.52772e-15 9.31373-3.05544e-15 12 2.68622 12 5.99984 12 9.31345 9.31373 11.9997 6.00002 11.9997 2.6863 11.9997-3.81941e-15 9.31345 0 5.99984Z" fill="#3B7D23" fill-rule="evenodd" transform="matrix(-1 0 0 1 4903 3745)"/><path d="M0 6.50003C-7.63882e-16 2.91016 2.6863 -8.27541e-16 6.00002-1.65508e-15 9.31373-3.31016e-15 12 2.91016 12 6.50003 12 10.0899 9.31373 13.0001 6.00002 13.0001 2.6863 13.0001-3.81941e-15 10.0899 0 6.50003Z" fill="#3B7D23" fill-rule="evenodd" transform="matrix(-1 0 0 1 4871 3753)"/><path d="M0 6.50003C-7.63882e-16 2.91016 2.6863 -8.27541e-16 6.00002-1.65508e-15 9.31373-3.31016e-15 12 2.91016 12 6.50003 12 10.0899 9.31373 13.0001 6.00002 13.0001 2.6863 13.0001-3.81941e-15 10.0899 0 6.50003Z" fill="#3B7D23" fill-rule="evenodd" transform="matrix(-1 0 0 1 4840 3771)"/><path d="M0 6.00002C-7.63882e-16 2.6863 2.6863 -7.63882e-16 6.00002-1.52776e-15 9.31373-3.05553e-15 12 2.6863 12 6.00002 12 9.31373 9.31373 12 6.00002 12 2.6863 12-3.81941e-15 9.31373 0 6.00002Z" fill="#3B7D23" fill-rule="evenodd" transform="matrix(-1 0 0 1 4809 3774)"/><path d="M0 6.00002C-7.63882e-16 2.6863 2.6863 -7.63882e-16 6.00002-1.52776e-15 9.31373-3.05553e-15 12 2.6863 12 6.00002 12 9.31373 9.31373 12 6.00002 12 2.6863 12-3.81941e-15 9.31373 0 6.00002Z" fill="#3B7D23" fill-rule="evenodd" transform="matrix(-1 0 0 1 4777 3799)"/><path d="M0 6.50003C-7.63882e-16 2.91016 2.6863 -8.27541e-16 6.00002-1.65508e-15 9.31373-3.31016e-15 12 2.91016 12 6.50003 12 10.0899 9.31373 13.0001 6.00002 13.0001 2.6863 13.0001-3.81941e-15 10.0899 0 6.50003Z" fill="#3B7D23" fill-rule="evenodd" transform="matrix(-1 0 0 1 4746 3803)"/><path d="M0 6.00002C-8.27518e-16 2.6863 2.91008 -7.63882e-16 6.49985-1.52776e-15 10.0896-3.05553e-15 12.9997 2.6863 12.9997 6.00002 12.9997 9.31373 10.0896 12 6.49985 12 2.91008 12-4.13759e-15 9.31373 0 6.00002Z" fill="#3B7D23" fill-rule="evenodd" transform="matrix(-1 0 0 1 4715 3799)"/><path d="M0 6.00002C-7.63882e-16 2.6863 2.6863 -7.63882e-16 6.00002-1.52776e-15 9.31373-3.05553e-15 12 2.6863 12 6.00002 12 9.31373 9.31373 12 6.00002 12 2.6863 12-3.81941e-15 9.31373 0 6.00002Z" fill="#3B7D23" fill-rule="evenodd" transform="matrix(-1 0 0 1 4683 3806)"/><path d="M0 6.00002C-7.63882e-16 2.6863 2.6863 -7.63882e-16 6.00002-1.52776e-15 9.31373-3.05553e-15 12 2.6863 12 6.00002 12 9.31373 9.31373 12 6.00002 12 2.6863 12-3.81941e-15 9.31373 0 6.00002Z" fill="#3B7D23" fill-rule="evenodd" transform="matrix(-1 0 0 1 4652 3818)"/><path d="M0 6.00002C-8.27541e-16 2.6863 2.91016 -7.63882e-16 6.50003-1.52776e-15 10.0899-3.05553e-15 13.0001 2.6863 13.0001 6.00002 13.0001 9.31373 10.0899 12 6.50003 12 2.91016 12-4.1377e-15 9.31373 0 6.00002Z" fill="#3B7D23" fill-rule="evenodd" transform="matrix(-1 0 0 1 4621 3814)"/><path d="M0 6.00002C-7.63882e-16 2.6863 2.6863 -7.63882e-16 6.00002-1.52776e-15 9.31373-3.05553e-15 12 2.6863 12 6.00002 12 9.31373 9.31373 12 6.00002 12 2.6863 12-3.81941e-15 9.31373 0 6.00002Z" fill="#3B7D23" fill-rule="evenodd" transform="matrix(-1 0 0 1 4589 3821)"/><path d="M0 6.00002C-7.63882e-16 2.6863 2.6863 -7.63882e-16 6.00002-1.52776e-15 9.31373-3.05553e-15 12 2.6863 12 6.00002 12 9.31373 9.31373 12 6.00002 12 2.6863 12-3.81941e-15 9.31373 0 6.00002Z" fill="#3B7D23" fill-rule="evenodd" transform="matrix(-1 0 0 1 4558 3829)"/><path d="M0 6.50003C-8.27518e-16 2.91016 2.91008 -8.27541e-16 6.49985-1.65508e-15 10.0896-3.31016e-15 12.9997 2.91016 12.9997 6.50003 12.9997 10.0899 10.0896 13.0001 6.49985 13.0001 2.91008 13.0001-4.13759e-15 10.0899 0 6.50003Z" fill="#3B7D23" fill-rule="evenodd" transform="matrix(-1 0 0 1 4527 3841)"/><path d="M0 6.00002C-7.63882e-16 2.6863 2.6863 -7.63882e-16 6.00002-1.52776e-15 9.31373-3.05553e-15 12 2.6863 12 6.00002 12 9.31373 9.31373 12 6.00002 12 2.6863 12-3.81941e-15 9.31373 0 6.00002Z" fill="#3B7D23" fill-rule="evenodd" transform="matrix(-1 0 0 1 4495 3839)"/><path d="M0 6.00002C-7.63882e-16 2.6863 2.6863 -7.63882e-16 6.00002-1.52776e-15 9.31373-3.05553e-15 12 2.6863 12 6.00002 12 9.31373 9.31373 12 6.00002 12 2.6863 12-3.81941e-15 9.31373 0 6.00002Z" fill="#3B7D23" fill-rule="evenodd" transform="matrix(-1 0 0 1 4464 3858)"/><path d="M0 6.00002C-8.27541e-16 2.6863 2.91016 -7.63882e-16 6.50003-1.52776e-15 10.0899-3.05553e-15 13.0001 2.6863 13.0001 6.00002 13.0001 9.31373 10.0899 12 6.50003 12 2.91016 12-4.1377e-15 9.31373 0 6.00002Z" fill="#3B7D23" fill-rule="evenodd" transform="matrix(-1 0 0 1 4433 3865)"/><path d="M0 6.00002C-7.63882e-16 2.6863 2.6863 -7.63882e-16 6.00002-1.52776e-15 9.31373-3.05553e-15 12 2.6863 12 6.00002 12 9.31373 9.31373 12 6.00002 12 2.6863 12-3.81941e-15 9.31373 0 6.00002Z" fill="#3B7D23" fill-rule="evenodd" transform="matrix(-1 0 0 1 4401 3886)"/><path d="M0 6.00002C-7.63882e-16 2.6863 2.6863 -7.63882e-16 6.00002-1.52776e-15 9.31373-3.05553e-15 12 2.6863 12 6.00002 12 9.31373 9.31373 12 6.00002 12 2.6863 12-3.81941e-15 9.31373 0 6.00002Z" fill="#3B7D23" fill-rule="evenodd" transform="matrix(-1 0 0 1 4370 3897)"/><path d="M0 6.00002C-7.63882e-16 2.6863 2.6863 -7.63882e-16 6.00002-1.52776e-15 9.31373-3.05553e-15 12 2.6863 12 6.00002 12 9.31373 9.31373 12 6.00002 12 2.6863 12-3.81941e-15 9.31373 0 6.00002Z" fill="#3B7D23" fill-rule="evenodd" transform="matrix(-1 0 0 1 4339 3886)"/><path d="M0 6.00002C-8.27518e-16 2.6863 2.91008 -7.63882e-16 6.49985-1.52776e-15 10.0896-3.05553e-15 12.9997 2.6863 12.9997 6.00002 12.9997 9.31373 10.0896 12 6.49985 12 2.91008 12-4.13759e-15 9.31373 0 6.00002Z" fill="#3B7D23" fill-rule="evenodd" transform="matrix(-1 0 0 1 4308 3892)"/><path d="M0 6.00002C-7.63882e-16 2.6863 2.6863 -7.63882e-16 6.00002-1.52776e-15 9.31373-3.05553e-15 12 2.6863 12 6.00002 12 9.31373 9.31373 12 6.00002 12 2.6863 12-3.81941e-15 9.31373 0 6.00002Z" fill="#3B7D23" fill-rule="evenodd" transform="matrix(-1 0 0 1 4276 3886)"/><path d="M0 6.00002C-7.63882e-16 2.6863 2.6863 -7.63882e-16 6.00002-1.52776e-15 9.31373-3.05553e-15 12 2.6863 12 6.00002 12 9.31373 9.31373 12 6.00002 12 2.6863 12-3.81941e-15 9.31373 0 6.00002Z" fill="#3B7D23" fill-rule="evenodd" transform="matrix(-1 0 0 1 4997 3768)"/><path d="M0 6.49985C-7.63882e-16 2.91008 2.6863 -8.27518e-16 6.00002-1.65504e-15 9.31373-3.31007e-15 12 2.91008 12 6.49985 12 10.0896 9.31373 12.9997 6.00002 12.9997 2.6863 12.9997-3.81941e-15 10.0896 0 6.49985Z" fill="#3B7D23" fill-rule="evenodd" transform="matrix(-1 0 0 1 4968 3777)"/><path d="M0 6.00002C-7.63859e-16 2.6863 2.68622 -7.63882e-16 5.99984-1.52776e-15 9.31345-3.05553e-15 11.9997 2.6863 11.9997 6.00002 11.9997 9.31373 9.31345 12 5.99984 12 2.68622 12-3.8193e-15 9.31373 0 6.00002Z" fill="#3B7D23" fill-rule="evenodd" transform="matrix(-1 0 0 1 4934 3790)"/><path d="M0 6.00002C-7.63882e-16 2.6863 2.6863 -7.63882e-16 6.00002-1.52776e-15 9.31373-3.05553e-15 12 2.6863 12 6.00002 12 9.31373 9.31373 12 6.00002 12 2.6863 12-3.81941e-15 9.31373 0 6.00002Z" fill="#3B7D23" fill-rule="evenodd" transform="matrix(-1 0 0 1 4903 3783)"/><path d="M0 6.00002C-7.63882e-16 2.6863 2.6863 -7.63882e-16 6.00002-1.52776e-15 9.31373-3.05553e-15 12 2.6863 12 6.00002 12 9.31373 9.31373 12 6.00002 12 2.6863 12-3.81941e-15 9.31373 0 6.00002Z" fill="#3B7D23" fill-rule="evenodd" transform="matrix(-1 0 0 1 4871 3791)"/><path d="M0 6.50003C-7.63882e-16 2.91016 2.6863 -8.27541e-16 6.00002-1.65508e-15 9.31373-3.31016e-15 12 2.91016 12 6.50003 12 10.0899 9.31373 13.0001 6.00002 13.0001 2.6863 13.0001-3.81941e-15 10.0899 0 6.50003Z" fill="#3B7D23" fill-rule="evenodd" transform="matrix(-1 0 0 1 4840 3809)"/><path d="M0 6.00002C-7.63882e-16 2.6863 2.6863 -7.63882e-16 6.00002-1.52776e-15 9.31373-3.05553e-15 12 2.6863 12 6.00002 12 9.31373 9.31373 12 6.00002 12 2.6863 12-3.81941e-15 9.31373 0 6.00002Z" fill="#3B7D23" fill-rule="evenodd" transform="matrix(-1 0 0 1 4809 3812)"/><path d="M0 6.00002C-7.63882e-16 2.6863 2.6863 -7.63882e-16 6.00002-1.52776e-15 9.31373-3.05553e-15 12 2.6863 12 6.00002 12 9.31373 9.31373 12 6.00002 12 2.6863 12-3.81941e-15 9.31373 0 6.00002Z" fill="#3B7D23" fill-rule="evenodd" transform="matrix(-1 0 0 1 4777 3837)"/><path d="M0 6.50003C-7.63882e-16 2.91016 2.6863 -8.27541e-16 6.00002-1.65508e-15 9.31373-3.31016e-15 12 2.91016 12 6.50003 12 10.0899 9.31373 13.0001 6.00002 13.0001 2.6863 13.0001-3.81941e-15 10.0899 0 6.50003Z" fill="#3B7D23" fill-rule="evenodd" transform="matrix(-1 0 0 1 4746 3841)"/><path d="M0 6.00002C-8.27518e-16 2.6863 2.91008 -7.63882e-16 6.49985-1.52776e-15 10.0896-3.05553e-15 12.9997 2.6863 12.9997 6.00002 12.9997 9.31373 10.0896 12 6.49985 12 2.91008 12-4.13759e-15 9.31373 0 6.00002Z" fill="#3B7D23" fill-rule="evenodd" transform="matrix(-1 0 0 1 4715 3837)"/><path d="M0 5.99984C-7.63882e-16 2.68622 2.6863 -7.63859e-16 6.00002-1.52772e-15 9.31373-3.05544e-15 12 2.68622 12 5.99984 12 9.31345 9.31373 11.9997 6.00002 11.9997 2.6863 11.9997-3.81941e-15 9.31345 0 5.99984Z" fill="#3B7D23" fill-rule="evenodd" transform="matrix(-1 0 0 1 4683 3844)"/><path d="M0 6.00002C-7.63882e-16 2.6863 2.6863 -7.63882e-16 6.00002-1.52776e-15 9.31373-3.05553e-15 12 2.6863 12 6.00002 12 9.31373 9.31373 12 6.00002 12 2.6863 12-3.81941e-15 9.31373 0 6.00002Z" fill="#3B7D23" fill-rule="evenodd" transform="matrix(-1 0 0 1 4652 3856)"/><path d="M0 6.00002C-8.27541e-16 2.6863 2.91016 -7.63882e-16 6.50003-1.52776e-15 10.0899-3.05553e-15 13.0001 2.6863 13.0001 6.00002 13.0001 9.31373 10.0899 12 6.50003 12 2.91016 12-4.1377e-15 9.31373 0 6.00002Z" fill="#3B7D23" fill-rule="evenodd" transform="matrix(-1 0 0 1 4621 3852)"/><path d="M0 6.00002C-7.63882e-16 2.6863 2.6863 -7.63882e-16 6.00002-1.52776e-15 9.31373-3.05553e-15 12 2.6863 12 6.00002 12 9.31373 9.31373 12 6.00002 12 2.6863 12-3.81941e-15 9.31373 0 6.00002Z" fill="#3B7D23" fill-rule="evenodd" transform="matrix(-1 0 0 1 4589 3859)"/><path d="M0 6.00002C-7.63882e-16 2.6863 2.6863 -7.63882e-16 6.00002-1.52776e-15 9.31373-3.05553e-15 12 2.6863 12 6.00002 12 9.31373 9.31373 12 6.00002 12 2.6863 12-3.81941e-15 9.31373 0 6.00002Z" fill="#3B7D23" fill-rule="evenodd" transform="matrix(-1 0 0 1 4558 3867)"/><path d="M0 6.50003C-8.27518e-16 2.91016 2.91008 -8.27541e-16 6.49985-1.65508e-15 10.0896-3.31016e-15 12.9997 2.91016 12.9997 6.50003 12.9997 10.0899 10.0896 13.0001 6.49985 13.0001 2.91008 13.0001-4.13759e-15 10.0899 0 6.50003Z" fill="#3B7D23" fill-rule="evenodd" transform="matrix(-1 0 0 1 4527 3879)"/><path d="M0 5.99984C-7.63882e-16 2.68622 2.6863 -7.63859e-16 6.00002-1.52772e-15 9.31373-3.05544e-15 12 2.68622 12 5.99984 12 9.31345 9.31373 11.9997 6.00002 11.9997 2.6863 11.9997-3.81941e-15 9.31345 0 5.99984Z" fill="#3B7D23" fill-rule="evenodd" transform="matrix(-1 0 0 1 4495 3877)"/><path d="M0 6.00002C-7.63882e-16 2.6863 2.6863 -7.63882e-16 6.00002-1.52776e-15 9.31373-3.05553e-15 12 2.6863 12 6.00002 12 9.31373 9.31373 12 6.00002 12 2.6863 12-3.81941e-15 9.31373 0 6.00002Z" fill="#3B7D23" fill-rule="evenodd" transform="matrix(-1 0 0 1 4464 3896)"/><path d="M0 6.00002C-8.27541e-16 2.6863 2.91016 -7.63882e-16 6.50003-1.52776e-15 10.0899-3.05553e-15 13.0001 2.6863 13.0001 6.00002 13.0001 9.31373 10.0899 12 6.50003 12 2.91016 12-4.1377e-15 9.31373 0 6.00002Z" fill="#3B7D23" fill-rule="evenodd" transform="matrix(-1 0 0 1 4433 3903)"/><path d="M0 6.00002C-7.63882e-16 2.6863 2.6863 -7.63882e-16 6.00002-1.52776e-15 9.31373-3.05553e-15 12 2.6863 12 6.00002 12 9.31373 9.31373 12 6.00002 12 2.6863 12-3.81941e-15 9.31373 0 6.00002Z" fill="#3B7D23" fill-rule="evenodd" transform="matrix(-1 0 0 1 4401 3924)"/><path d="M0 6.00002C-7.63882e-16 2.6863 2.6863 -7.63882e-16 6.00002-1.52776e-15 9.31373-3.05553e-15 12 2.6863 12 6.00002 12 9.31373 9.31373 12 6.00002 12 2.6863 12-3.81941e-15 9.31373 0 6.00002Z" fill="#3B7D23" fill-rule="evenodd" transform="matrix(-1 0 0 1 4370 3935)"/><path d="M0 6.00002C-7.63882e-16 2.6863 2.6863 -7.63882e-16 6.00002-1.52776e-15 9.31373-3.05553e-15 12 2.6863 12 6.00002 12 9.31373 9.31373 12 6.00002 12 2.6863 12-3.81941e-15 9.31373 0 6.00002Z" fill="#3B7D23" fill-rule="evenodd" transform="matrix(-1 0 0 1 4339 3924)"/><path d="M0 6.00002C-8.27518e-16 2.6863 2.91008 -7.63882e-16 6.49985-1.52776e-15 10.0896-3.05553e-15 12.9997 2.6863 12.9997 6.00002 12.9997 9.31373 10.0896 12 6.49985 12 2.91008 12-4.13759e-15 9.31373 0 6.00002Z" fill="#3B7D23" fill-rule="evenodd" transform="matrix(-1 0 0 1 4308 3930)"/><path d="M0 6.00002C-7.63882e-16 2.6863 2.6863 -7.63882e-16 6.00002-1.52776e-15 9.31373-3.05553e-15 12 2.6863 12 6.00002 12 9.31373 9.31373 12 6.00002 12 2.6863 12-3.81941e-15 9.31373 0 6.00002Z" fill="#3B7D23" fill-rule="evenodd" transform="matrix(-1 0 0 1 4276 3924)"/><path d="M0 6.00002C-7.63882e-16 2.6863 2.6863 -7.63882e-16 6.00002-1.52776e-15 9.31373-3.05553e-15 12 2.6863 12 6.00002 12 9.31373 9.31373 12 6.00002 12 2.6863 12-3.81941e-15 9.31373 0 6.00002Z" fill="#3B7D23" fill-rule="evenodd" transform="matrix(-1 0 0 1 4996 3809)"/><path d="M0 6.00002C-7.63882e-16 2.6863 2.6863 -7.63882e-16 6.00002-1.52776e-15 9.31373-3.05553e-15 12 2.6863 12 6.00002 12 9.31373 9.31373 12 6.00002 12 2.6863 12-3.81941e-15 9.31373 0 6.00002Z" fill="#3B7D23" fill-rule="evenodd" transform="matrix(-1 0 0 1 4968 3821)"/><path d="M0 6.50003C-7.63859e-16 2.91016 2.68622 -8.27541e-16 5.99984-1.65508e-15 9.31345-3.31016e-15 11.9997 2.91016 11.9997 6.50003 11.9997 10.0899 9.31345 13.0001 5.99984 13.0001 2.68622 13.0001-3.8193e-15 10.0899 0 6.50003Z" fill="#3B7D23" fill-rule="evenodd" transform="matrix(-1 0 0 1 4934 3828)"/><path d="M0 6.00002C-7.63882e-16 2.6863 2.6863 -7.63882e-16 6.00002-1.52776e-15 9.31373-3.05553e-15 12 2.6863 12 6.00002 12 9.31373 9.31373 12 6.00002 12 2.6863 12-3.81941e-15 9.31373 0 6.00002Z" fill="#3B7D23" fill-rule="evenodd" transform="matrix(-1 0 0 1 4903 3821)"/><path d="M0 6.00002C-7.63882e-16 2.6863 2.6863 -7.63882e-16 6.00002-1.52776e-15 9.31373-3.05553e-15 12 2.6863 12 6.00002 12 9.31373 9.31373 12 6.00002 12 2.6863 12-3.81941e-15 9.31373 0 6.00002Z" fill="#3B7D23" fill-rule="evenodd" transform="matrix(-1 0 0 1 4871 3829)"/><path d="M0 6.50003C-7.63882e-16 2.91016 2.6863 -8.27541e-16 6.00002-1.65508e-15 9.31373-3.31016e-15 12 2.91016 12 6.50003 12 10.0899 9.31373 13.0001 6.00002 13.0001 2.6863 13.0001-3.81941e-15 10.0899 0 6.50003Z" fill="#3B7D23" fill-rule="evenodd" transform="matrix(-1 0 0 1 4840 3847)"/><path d="M0 6.00002C-7.63882e-16 2.6863 2.6863 -7.63882e-16 6.00002-1.52776e-15 9.31373-3.05553e-15 12 2.6863 12 6.00002 12 9.31373 9.31373 12 6.00002 12 2.6863 12-3.81941e-15 9.31373 0 6.00002Z" fill="#3B7D23" fill-rule="evenodd" transform="matrix(-1 0 0 1 4809 3850)"/><path d="M0 6.00002C-7.63882e-16 2.6863 2.6863 -7.63882e-16 6.00002-1.52776e-15 9.31373-3.05553e-15 12 2.6863 12 6.00002 12 9.31373 9.31373 12 6.00002 12 2.6863 12-3.81941e-15 9.31373 0 6.00002Z" fill="#3B7D23" fill-rule="evenodd" transform="matrix(-1 0 0 1 4777 3875)"/><path d="M0 6.50003C-7.63882e-16 2.91016 2.6863 -8.27541e-16 6.00002-1.65508e-15 9.31373-3.31016e-15 12 2.91016 12 6.50003 12 10.0899 9.31373 13.0001 6.00002 13.0001 2.6863 13.0001-3.81941e-15 10.0899 0 6.50003Z" fill="#3B7D23" fill-rule="evenodd" transform="matrix(-1 0 0 1 4746 3879)"/><path d="M0 6.00002C-8.27518e-16 2.6863 2.91008 -7.63882e-16 6.49985-1.52776e-15 10.0896-3.05553e-15 12.9997 2.6863 12.9997 6.00002 12.9997 9.31373 10.0896 12 6.49985 12 2.91008 12-4.13759e-15 9.31373 0 6.00002Z" fill="#3B7D23" fill-rule="evenodd" transform="matrix(-1 0 0 1 4715 3875)"/><path d="M0 6.00002C-7.63882e-16 2.6863 2.6863 -7.63882e-16 6.00002-1.52776e-15 9.31373-3.05553e-15 12 2.6863 12 6.00002 12 9.31373 9.31373 12 6.00002 12 2.6863 12-3.81941e-15 9.31373 0 6.00002Z" fill="#3B7D23" fill-rule="evenodd" transform="matrix(-1 0 0 1 4683 3882)"/><path d="M0 6.00002C-7.63882e-16 2.6863 2.6863 -7.63882e-16 6.00002-1.52776e-15 9.31373-3.05553e-15 12 2.6863 12 6.00002 12 9.31373 9.31373 12 6.00002 12 2.6863 12-3.81941e-15 9.31373 0 6.00002Z" fill="#3B7D23" fill-rule="evenodd" transform="matrix(-1 0 0 1 4652 3894)"/><path d="M0 6.00002C-8.27541e-16 2.6863 2.91016 -7.63882e-16 6.50003-1.52776e-15 10.0899-3.05553e-15 13.0001 2.6863 13.0001 6.00002 13.0001 9.31373 10.0899 12 6.50003 12 2.91016 12-4.1377e-15 9.31373 0 6.00002Z" fill="#3B7D23" fill-rule="evenodd" transform="matrix(-1 0 0 1 4621 3890)"/><path d="M0 6.00002C-7.63882e-16 2.6863 2.6863 -7.63882e-16 6.00002-1.52776e-15 9.31373-3.05553e-15 12 2.6863 12 6.00002 12 9.31373 9.31373 12 6.00002 12 2.6863 12-3.81941e-15 9.31373 0 6.00002Z" fill="#3B7D23" fill-rule="evenodd" transform="matrix(-1 0 0 1 4589 3897)"/><path d="M0 6.00002C-7.63882e-16 2.6863 2.6863 -7.63882e-16 6.00002-1.52776e-15 9.31373-3.05553e-15 12 2.6863 12 6.00002 12 9.31373 9.31373 12 6.00002 12 2.6863 12-3.81941e-15 9.31373 0 6.00002Z" fill="#3B7D23" fill-rule="evenodd" transform="matrix(-1 0 0 1 4558 3905)"/><path d="M0 6.00002C-8.27518e-16 2.6863 2.91008 -7.63882e-16 6.49985-1.52776e-15 10.0896-3.05553e-15 12.9997 2.6863 12.9997 6.00002 12.9997 9.31373 10.0896 12 6.49985 12 2.91008 12-4.13759e-15 9.31373 0 6.00002Z" fill="#3B7D23" fill-rule="evenodd" transform="matrix(-1 0 0 1 4527 3917)"/><path d="M0 6.00002C-7.63882e-16 2.6863 2.6863 -7.63882e-16 6.00002-1.52776e-15 9.31373-3.05553e-15 12 2.6863 12 6.00002 12 9.31373 9.31373 12 6.00002 12 2.6863 12-3.81941e-15 9.31373 0 6.00002Z" fill="#3B7D23" fill-rule="evenodd" transform="matrix(-1 0 0 1 4495 3915)"/><path d="M0 6.00002C-7.63882e-16 2.6863 2.6863 -7.63882e-16 6.00002-1.52776e-15 9.31373-3.05553e-15 12 2.6863 12 6.00002 12 9.31373 9.31373 12 6.00002 12 2.6863 12-3.81941e-15 9.31373 0 6.00002Z" fill="#3B7D23" fill-rule="evenodd" transform="matrix(-1 0 0 1 4464 3934)"/><path d="M0 6.00002C-8.27541e-16 2.6863 2.91016 -7.63882e-16 6.50003-1.52776e-15 10.0899-3.05553e-15 13.0001 2.6863 13.0001 6.00002 13.0001 9.31373 10.0899 12 6.50003 12 2.91016 12-4.1377e-15 9.31373 0 6.00002Z" fill="#3B7D23" fill-rule="evenodd" transform="matrix(-1 0 0 1 4433 3941)"/><path d="M0 6.00002C-7.63882e-16 2.6863 2.6863 -7.63882e-16 6.00002-1.52776e-15 9.31373-3.05553e-15 12 2.6863 12 6.00002 12 9.31373 9.31373 12 6.00002 12 2.6863 12-3.81941e-15 9.31373 0 6.00002Z" fill="#3B7D23" fill-rule="evenodd" transform="matrix(-1 0 0 1 4401 3962)"/><path d="M0 6.50003C-7.63882e-16 2.91016 2.6863 -8.27541e-16 6.00002-1.65508e-15 9.31373-3.31016e-15 12 2.91016 12 6.50003 12 10.0899 9.31373 13.0001 6.00002 13.0001 2.6863 13.0001-3.81941e-15 10.0899 0 6.50003Z" fill="#3B7D23" fill-rule="evenodd" transform="matrix(-1 0 0 1 4370 3972)"/><path d="M0 6.00002C-7.63882e-16 2.6863 2.6863 -7.63882e-16 6.00002-1.52776e-15 9.31373-3.05553e-15 12 2.6863 12 6.00002 12 9.31373 9.31373 12 6.00002 12 2.6863 12-3.81941e-15 9.31373 0 6.00002Z" fill="#3B7D23" fill-rule="evenodd" transform="matrix(-1 0 0 1 4339 3962)"/><path d="M0 6.00002C-8.27518e-16 2.6863 2.91008 -7.63882e-16 6.49985-1.52776e-15 10.0896-3.05553e-15 12.9997 2.6863 12.9997 6.00002 12.9997 9.31373 10.0896 12 6.49985 12 2.91008 12-4.13759e-15 9.31373 0 6.00002Z" fill="#3B7D23" fill-rule="evenodd" transform="matrix(-1 0 0 1 4308 3968)"/><path d="M0 6.00002C-7.63882e-16 2.6863 2.6863 -7.63882e-16 6.00002-1.52776e-15 9.31373-3.05553e-15 12 2.6863 12 6.00002 12 9.31373 9.31373 12 6.00002 12 2.6863 12-3.81941e-15 9.31373 0 6.00002Z" fill="#3B7D23" fill-rule="evenodd" transform="matrix(-1 0 0 1 4276 3962)"/><path d="M0 6.50003C-7.63882e-16 2.91016 2.6863 -8.27541e-16 6.00002-1.65508e-15 9.31373-3.31016e-15 12 2.91016 12 6.50003 12 10.0899 9.31373 13.0001 6.00002 13.0001 2.6863 13.0001-3.81941e-15 10.0899 0 6.50003Z" fill="#0041D8" fill-rule="evenodd" transform="matrix(-1 0 0 1 4997 4059)"/><path d="M0 6.50003C-7.63882e-16 2.91016 2.6863 -8.27541e-16 6.00002-1.65508e-15 9.31373-3.31016e-15 12 2.91016 12 6.50003 12 10.0899 9.31373 13.0001 6.00002 13.0001 2.6863 13.0001-3.81941e-15 10.0899 0 6.50003Z" fill="#0041D8" fill-rule="evenodd" transform="matrix(-1 0 0 1 4968 4059)"/><path d="M0 6.00002C-7.63859e-16 2.6863 2.68622 -7.63882e-16 5.99984-1.52776e-15 9.31345-3.05553e-15 11.9997 2.6863 11.9997 6.00002 11.9997 9.31373 9.31345 12 5.99984 12 2.68622 12-3.8193e-15 9.31373 0 6.00002Z" fill="#0041D8" fill-rule="evenodd" transform="matrix(-1 0 0 1 4934 4069)"/><path d="M0 6.50003C-7.63882e-16 2.91016 2.6863 -8.27541e-16 6.00002-1.65508e-15 9.31373-3.31016e-15 12 2.91016 12 6.50003 12 10.0899 9.31373 13.0001 6.00002 13.0001 2.6863 13.0001-3.81941e-15 10.0899 0 6.50003Z" fill="#0041D8" fill-rule="evenodd" transform="matrix(-1 0 0 1 4903 4059)"/><path d="M0 6.00002C-7.63882e-16 2.6863 2.6863 -7.63882e-16 6.00002-1.52776e-15 9.31373-3.05553e-15 12 2.6863 12 6.00002 12 9.31373 9.31373 12 6.00002 12 2.6863 12-3.81941e-15 9.31373 0 6.00002Z" fill="#0041D8" fill-rule="evenodd" transform="matrix(-1 0 0 1 4871 4067)"/><path d="M0 6.50003C-7.63882e-16 2.91016 2.6863 -8.27541e-16 6.00002-1.65508e-15 9.31373-3.31016e-15 12 2.91016 12 6.50003 12 10.0899 9.31373 13.0001 6.00002 13.0001 2.6863 13.0001-3.81941e-15 10.0899 0 6.50003Z" fill="#0041D8" fill-rule="evenodd" transform="matrix(-1 0 0 1 4840 4059)"/><path d="M0 6.00002C-7.63882e-16 2.6863 2.6863 -7.63882e-16 6.00002-1.52776e-15 9.31373-3.05553e-15 12 2.6863 12 6.00002 12 9.31373 9.31373 12 6.00002 12 2.6863 12-3.81941e-15 9.31373 0 6.00002Z" fill="#0041D8" fill-rule="evenodd" transform="matrix(-1 0 0 1 4809 4068)"/><path d="M0 6.00002C-7.63882e-16 2.6863 2.6863 -7.63882e-16 6.00002-1.52776e-15 9.31373-3.05553e-15 12 2.6863 12 6.00002 12 9.31373 9.31373 12 6.00002 12 2.6863 12-3.81941e-15 9.31373 0 6.00002Z" fill="#0041D8" fill-rule="evenodd" transform="matrix(-1 0 0 1 4777 4036)"/><path d="M0 6.50003C-7.63882e-16 2.91016 2.6863 -8.27541e-16 6.00002-1.65508e-15 9.31373-3.31016e-15 12 2.91016 12 6.50003 12 10.0899 9.31373 13.0001 6.00002 13.0001 2.6863 13.0001-3.81941e-15 10.0899 0 6.50003Z" fill="#0041D8" fill-rule="evenodd" transform="matrix(-1 0 0 1 4746 4047)"/><path d="M0 6.00002C-8.27518e-16 2.6863 2.91008 -7.63882e-16 6.49985-1.52776e-15 10.0896-3.05553e-15 12.9997 2.6863 12.9997 6.00002 12.9997 9.31373 10.0896 12 6.49985 12 2.91008 12-4.13759e-15 9.31373 0 6.00002Z" fill="#0041D8" fill-rule="evenodd" transform="matrix(-1 0 0 1 4715 4036)"/><path d="M0 6.00002C-7.63882e-16 2.6863 2.6863 -7.63882e-16 6.00002-1.52776e-15 9.31373-3.05553e-15 12 2.6863 12 6.00002 12 9.31373 9.31373 12 6.00002 12 2.6863 12-3.81941e-15 9.31373 0 6.00002Z" fill="#0041D8" fill-rule="evenodd" transform="matrix(-1 0 0 1 4683 4056)"/><path d="M0 6.00002C-7.63882e-16 2.6863 2.6863 -7.63882e-16 6.00002-1.52776e-15 9.31373-3.05553e-15 12 2.6863 12 6.00002 12 9.31373 9.31373 12 6.00002 12 2.6863 12-3.81941e-15 9.31373 0 6.00002Z" fill="#0041D8" fill-rule="evenodd" transform="matrix(-1 0 0 1 4652 4036)"/><path d="M0 6.00002C-8.27541e-16 2.6863 2.91016 -7.63882e-16 6.50003-1.52776e-15 10.0899-3.05553e-15 13.0001 2.6863 13.0001 6.00002 13.0001 9.31373 10.0899 12 6.50003 12 2.91016 12-4.1377e-15 9.31373 0 6.00002Z" fill="#0041D8" fill-rule="evenodd" transform="matrix(-1 0 0 1 4621 4052)"/><path d="M0 5.99984C-7.63882e-16 2.68622 2.6863 -7.63859e-16 6.00002-1.52772e-15 9.31373-3.05544e-15 12 2.68622 12 5.99984 12 9.31345 9.31373 11.9997 6.00002 11.9997 2.6863 11.9997-3.81941e-15 9.31345 0 5.99984Z" fill="#0041D8" fill-rule="evenodd" transform="matrix(-1 0 0 1 4589 4031)"/><path d="M0 6.00002C-7.63882e-16 2.6863 2.6863 -7.63882e-16 6.00002-1.52776e-15 9.31373-3.05553e-15 12 2.6863 12 6.00002 12 9.31373 9.31373 12 6.00002 12 2.6863 12-3.81941e-15 9.31373 0 6.00002Z" fill="#0041D8" fill-rule="evenodd" transform="matrix(-1 0 0 1 4558 4036)"/><path d="M0 6.00002C-8.27518e-16 2.6863 2.91008 -7.63882e-16 6.49985-1.52776e-15 10.0896-3.05553e-15 12.9997 2.6863 12.9997 6.00002 12.9997 9.31373 10.0896 12 6.49985 12 2.91008 12-4.13759e-15 9.31373 0 6.00002Z" fill="#0041D8" fill-rule="evenodd" transform="matrix(-1 0 0 1 4527 4018)"/><path d="M0 6.00002C-7.63882e-16 2.6863 2.6863 -7.63882e-16 6.00002-1.52776e-15 9.31373-3.05553e-15 12 2.6863 12 6.00002 12 9.31373 9.31373 12 6.00002 12 2.6863 12-3.81941e-15 9.31373 0 6.00002Z" fill="#0041D8" fill-rule="evenodd" transform="matrix(-1 0 0 1 4495 4004)"/><path d="M0 6.00002C-7.63882e-16 2.6863 2.6863 -7.63882e-16 6.00002-1.52776e-15 9.31373-3.05553e-15 12 2.6863 12 6.00002 12 9.31373 9.31373 12 6.00002 12 2.6863 12-3.81941e-15 9.31373 0 6.00002Z" fill="#0041D8" fill-rule="evenodd" transform="matrix(-1 0 0 1 4464 4004)"/><path d="M0 6.49985C-8.27541e-16 2.91008 2.91016 -8.27518e-16 6.50003-1.65504e-15 10.0899-3.31007e-15 13.0001 2.91008 13.0001 6.49985 13.0001 10.0896 10.0899 12.9997 6.50003 12.9997 2.91016 12.9997-4.1377e-15 10.0896 0 6.49985Z" fill="#0041D8" fill-rule="evenodd" transform="matrix(-1 0 0 1 4433 4009)"/><path d="M0 6.49985C-7.63882e-16 2.91008 2.6863 -8.27518e-16 6.00002-1.65504e-15 9.31373-3.31007e-15 12 2.91008 12 6.49985 12 10.0896 9.31373 12.9997 6.00002 12.9997 2.6863 12.9997-3.81941e-15 10.0896 0 6.49985Z" fill="#0041D8" fill-rule="evenodd" transform="matrix(-1 0 0 1 4401 4009)"/><path d="M0 6.00002C-7.63882e-16 2.6863 2.6863 -7.63882e-16 6.00002-1.52776e-15 9.31373-3.05553e-15 12 2.6863 12 6.00002 12 9.31373 9.31373 12 6.00002 12 2.6863 12-3.81941e-15 9.31373 0 6.00002Z" fill="#0041D8" fill-rule="evenodd" transform="matrix(-1 0 0 1 4370 4001)"/><path d="M0 6.49985C-7.63882e-16 2.91008 2.6863 -8.27518e-16 6.00002-1.65504e-15 9.31373-3.31007e-15 12 2.91008 12 6.49985 12 10.0896 9.31373 12.9997 6.00002 12.9997 2.6863 12.9997-3.81941e-15 10.0896 0 6.49985Z" fill="#0041D8" fill-rule="evenodd" transform="matrix(-1 0 0 1 4339 4009)"/><path d="M0 6.00002C-8.27518e-16 2.6863 2.91008 -7.63882e-16 6.49985-1.52776e-15 10.0896-3.05553e-15 12.9997 2.6863 12.9997 6.00002 12.9997 9.31373 10.0896 12 6.49985 12 2.91008 12-4.13759e-15 9.31373 0 6.00002Z" fill="#0041D8" fill-rule="evenodd" transform="matrix(-1 0 0 1 4308 4004)"/><path d="M0 6.00002C-7.63882e-16 2.6863 2.6863 -7.63882e-16 6.00002-1.52776e-15 9.31373-3.05553e-15 12 2.6863 12 6.00002 12 9.31373 9.31373 12 6.00002 12 2.6863 12-3.81941e-15 9.31373 0 6.00002Z" fill="#0041D8" fill-rule="evenodd" transform="matrix(-1 0 0 1 4276 4004)"/><path d="M0 6.49985C-7.63882e-16 2.91008 2.6863 -8.27518e-16 6.00002-1.65504e-15 9.31373-3.31007e-15 12 2.91008 12 6.49985 12 10.0896 9.31373 12.9997 6.00002 12.9997 2.6863 12.9997-3.81941e-15 10.0896 0 6.49985Z" fill="#0041D8" fill-rule="evenodd" transform="matrix(-1 0 0 1 4997 4108)"/><path d="M0 6.49985C-7.63882e-16 2.91008 2.6863 -8.27518e-16 6.00002-1.65504e-15 9.31373-3.31007e-15 12 2.91008 12 6.49985 12 10.0896 9.31373 12.9997 6.00002 12.9997 2.6863 12.9997-3.81941e-15 10.0896 0 6.49985Z" fill="#0041D8" fill-rule="evenodd" transform="matrix(-1 0 0 1 4968 4108)"/><path d="M0 6.00002C-7.63859e-16 2.6863 2.68622 -7.63882e-16 5.99984-1.52776e-15 9.31345-3.05553e-15 11.9997 2.6863 11.9997 6.00002 11.9997 9.31373 9.31345 12 5.99984 12 2.68622 12-3.8193e-15 9.31373 0 6.00002Z" fill="#0041D8" fill-rule="evenodd" transform="matrix(-1 0 0 1 4934 4118)"/><path d="M0 6.49985C-7.63882e-16 2.91008 2.6863 -8.27518e-16 6.00002-1.65504e-15 9.31373-3.31007e-15 12 2.91008 12 6.49985 12 10.0896 9.31373 12.9997 6.00002 12.9997 2.6863 12.9997-3.81941e-15 10.0896 0 6.49985Z" fill="#0041D8" fill-rule="evenodd" transform="matrix(-1 0 0 1 4903 4108)"/><path d="M0 6.00002C-7.63882e-16 2.6863 2.6863 -7.63882e-16 6.00002-1.52776e-15 9.31373-3.05553e-15 12 2.6863 12 6.00002 12 9.31373 9.31373 12 6.00002 12 2.6863 12-3.81941e-15 9.31373 0 6.00002Z" fill="#0041D8" fill-rule="evenodd" transform="matrix(-1 0 0 1 4871 4116)"/><path d="M0 6.49985C-7.63882e-16 2.91008 2.6863 -8.27518e-16 6.00002-1.65504e-15 9.31373-3.31007e-15 12 2.91008 12 6.49985 12 10.0896 9.31373 12.9997 6.00002 12.9997 2.6863 12.9997-3.81941e-15 10.0896 0 6.49985Z" fill="#0041D8" fill-rule="evenodd" transform="matrix(-1 0 0 1 4840 4108)"/><path d="M0 6.00002C-7.63882e-16 2.6863 2.6863 -7.63882e-16 6.00002-1.52776e-15 9.31373-3.05553e-15 12 2.6863 12 6.00002 12 9.31373 9.31373 12 6.00002 12 2.6863 12-3.81941e-15 9.31373 0 6.00002Z" fill="#0041D8" fill-rule="evenodd" transform="matrix(-1 0 0 1 4809 4117)"/><path d="M0 6.00002C-7.63882e-16 2.6863 2.6863 -7.63882e-16 6.00002-1.52776e-15 9.31373-3.05553e-15 12 2.6863 12 6.00002 12 9.31373 9.31373 12 6.00002 12 2.6863 12-3.81941e-15 9.31373 0 6.00002Z" fill="#0041D8" fill-rule="evenodd" transform="matrix(-1 0 0 1 4777 4085)"/><path d="M0 6.49985C-7.63882e-16 2.91008 2.6863 -8.27518e-16 6.00002-1.65504e-15 9.31373-3.31007e-15 12 2.91008 12 6.49985 12 10.0896 9.31373 12.9997 6.00002 12.9997 2.6863 12.9997-3.81941e-15 10.0896 0 6.49985Z" fill="#0041D8" fill-rule="evenodd" transform="matrix(-1 0 0 1 4746 4096)"/><path d="M0 6.00002C-8.27518e-16 2.6863 2.91008 -7.63882e-16 6.49985-1.52776e-15 10.0896-3.05553e-15 12.9997 2.6863 12.9997 6.00002 12.9997 9.31373 10.0896 12 6.49985 12 2.91008 12-4.13759e-15 9.31373 0 6.00002Z" fill="#0041D8" fill-rule="evenodd" transform="matrix(-1 0 0 1 4715 4085)"/><path d="M0 6.00002C-7.63882e-16 2.6863 2.6863 -7.63882e-16 6.00002-1.52776e-15 9.31373-3.05553e-15 12 2.6863 12 6.00002 12 9.31373 9.31373 12 6.00002 12 2.6863 12-3.81941e-15 9.31373 0 6.00002Z" fill="#0041D8" fill-rule="evenodd" transform="matrix(-1 0 0 1 4683 4105)"/><path d="M0 6.00002C-7.63882e-16 2.6863 2.6863 -7.63882e-16 6.00002-1.52776e-15 9.31373-3.05553e-15 12 2.6863 12 6.00002 12 9.31373 9.31373 12 6.00002 12 2.6863 12-3.81941e-15 9.31373 0 6.00002Z" fill="#0041D8" fill-rule="evenodd" transform="matrix(-1 0 0 1 4652 4085)"/><path d="M0 6.00002C-8.27541e-16 2.6863 2.91016 -7.63882e-16 6.50003-1.52776e-15 10.0899-3.05553e-15 13.0001 2.6863 13.0001 6.00002 13.0001 9.31373 10.0899 12 6.50003 12 2.91016 12-4.1377e-15 9.31373 0 6.00002Z" fill="#0041D8" fill-rule="evenodd" transform="matrix(-1 0 0 1 4621 4101)"/><path d="M0 6.00002C-7.63882e-16 2.6863 2.6863 -7.63882e-16 6.00002-1.52776e-15 9.31373-3.05553e-15 12 2.6863 12 6.00002 12 9.31373 9.31373 12 6.00002 12 2.6863 12-3.81941e-15 9.31373 0 6.00002Z" fill="#0041D8" fill-rule="evenodd" transform="matrix(-1 0 0 1 4589 4080)"/><path d="M0 6.00002C-7.63882e-16 2.6863 2.6863 -7.63882e-16 6.00002-1.52776e-15 9.31373-3.05553e-15 12 2.6863 12 6.00002 12 9.31373 9.31373 12 6.00002 12 2.6863 12-3.81941e-15 9.31373 0 6.00002Z" fill="#0041D8" fill-rule="evenodd" transform="matrix(-1 0 0 1 4558 4085)"/><path d="M0 6.00002C-8.27518e-16 2.6863 2.91008 -7.63882e-16 6.49985-1.52776e-15 10.0896-3.05553e-15 12.9997 2.6863 12.9997 6.00002 12.9997 9.31373 10.0896 12 6.49985 12 2.91008 12-4.13759e-15 9.31373 0 6.00002Z" fill="#0041D8" fill-rule="evenodd" transform="matrix(-1 0 0 1 4527 4067)"/><path d="M0 5.99984C-7.63882e-16 2.68622 2.6863 -7.63859e-16 6.00002-1.52772e-15 9.31373-3.05544e-15 12 2.68622 12 5.99984 12 9.31345 9.31373 11.9997 6.00002 11.9997 2.6863 11.9997-3.81941e-15 9.31345 0 5.99984Z" fill="#0041D8" fill-rule="evenodd" transform="matrix(-1 0 0 1 4495 4053)"/><path d="M0 5.99984C-7.63882e-16 2.68622 2.6863 -7.63859e-16 6.00002-1.52772e-15 9.31373-3.05544e-15 12 2.68622 12 5.99984 12 9.31345 9.31373 11.9997 6.00002 11.9997 2.6863 11.9997-3.81941e-15 9.31345 0 5.99984Z" fill="#0041D8" fill-rule="evenodd" transform="matrix(-1 0 0 1 4464 4053)"/><path d="M0 6.50003C-8.27541e-16 2.91016 2.91016 -8.27541e-16 6.50003-1.65508e-15 10.0899-3.31016e-15 13.0001 2.91016 13.0001 6.50003 13.0001 10.0899 10.0899 13.0001 6.50003 13.0001 2.91016 13.0001-4.1377e-15 10.0899 0 6.50003Z" fill="#0041D8" fill-rule="evenodd" transform="matrix(-1 0 0 1 4433 4058)"/><path d="M0 6.50003C-7.63882e-16 2.91016 2.6863 -8.27541e-16 6.00002-1.65508e-15 9.31373-3.31016e-15 12 2.91016 12 6.50003 12 10.0899 9.31373 13.0001 6.00002 13.0001 2.6863 13.0001-3.81941e-15 10.0899 0 6.50003Z" fill="#0041D8" fill-rule="evenodd" transform="matrix(-1 0 0 1 4401 4058)"/><path d="M0 6.00002C-7.63882e-16 2.6863 2.6863 -7.63882e-16 6.00002-1.52776e-15 9.31373-3.05553e-15 12 2.6863 12 6.00002 12 9.31373 9.31373 12 6.00002 12 2.6863 12-3.81941e-15 9.31373 0 6.00002Z" fill="#0041D8" fill-rule="evenodd" transform="matrix(-1 0 0 1 4370 4050)"/><path d="M0 6.50003C-7.63882e-16 2.91016 2.6863 -8.27541e-16 6.00002-1.65508e-15 9.31373-3.31016e-15 12 2.91016 12 6.50003 12 10.0899 9.31373 13.0001 6.00002 13.0001 2.6863 13.0001-3.81941e-15 10.0899 0 6.50003Z" fill="#0041D8" fill-rule="evenodd" transform="matrix(-1 0 0 1 4339 4058)"/><path d="M0 5.99984C-8.27518e-16 2.68622 2.91008 -7.63859e-16 6.49985-1.52772e-15 10.0896-3.05544e-15 12.9997 2.68622 12.9997 5.99984 12.9997 9.31345 10.0896 11.9997 6.49985 11.9997 2.91008 11.9997-4.13759e-15 9.31345 0 5.99984Z" fill="#0041D8" fill-rule="evenodd" transform="matrix(-1 0 0 1 4308 4053)"/><path d="M0 5.99984C-7.63882e-16 2.68622 2.6863 -7.63859e-16 6.00002-1.52772e-15 9.31373-3.05544e-15 12 2.68622 12 5.99984 12 9.31345 9.31373 11.9997 6.00002 11.9997 2.6863 11.9997-3.81941e-15 9.31345 0 5.99984Z" fill="#0041D8" fill-rule="evenodd" transform="matrix(-1 0 0 1 4276 4053)"/><path d="M0 5.99984C-7.63882e-16 2.68622 2.6863 -7.63859e-16 6.00002-1.52772e-15 9.31373-3.05544e-15 12 2.68622 12 5.99984 12 9.31345 9.31373 11.9997 6.00002 11.9997 2.6863 11.9997-3.81941e-15 9.31345 0 5.99984Z" fill="#0041D8" fill-rule="evenodd" transform="matrix(-1 0 0 1 4997 4141)"/><path d="M0 5.99984C-7.63882e-16 2.68622 2.6863 -7.63859e-16 6.00002-1.52772e-15 9.31373-3.05544e-15 12 2.68622 12 5.99984 12 9.31345 9.31373 11.9997 6.00002 11.9997 2.6863 11.9997-3.81941e-15 9.31345 0 5.99984Z" fill="#0041D8" fill-rule="evenodd" transform="matrix(-1 0 0 1 4968 4141)"/><path d="M0 6.00002C-7.63859e-16 2.6863 2.68622 -7.63882e-16 5.99984-1.52776e-15 9.31345-3.05553e-15 11.9997 2.6863 11.9997 6.00002 11.9997 9.31373 9.31345 12 5.99984 12 2.68622 12-3.8193e-15 9.31373 0 6.00002Z" fill="#0041D8" fill-rule="evenodd" transform="matrix(-1 0 0 1 4934 4151)"/><path d="M0 5.99984C-7.63882e-16 2.68622 2.6863 -7.63859e-16 6.00002-1.52772e-15 9.31373-3.05544e-15 12 2.68622 12 5.99984 12 9.31345 9.31373 11.9997 6.00002 11.9997 2.6863 11.9997-3.81941e-15 9.31345 0 5.99984Z" fill="#0041D8" fill-rule="evenodd" transform="matrix(-1 0 0 1 4903 4141)"/><path d="M0 6.00002C-7.63882e-16 2.6863 2.6863 -7.63882e-16 6.00002-1.52776e-15 9.31373-3.05553e-15 12 2.6863 12 6.00002 12 9.31373 9.31373 12 6.00002 12 2.6863 12-3.81941e-15 9.31373 0 6.00002Z" fill="#0041D8" fill-rule="evenodd" transform="matrix(-1 0 0 1 4871 4149)"/><path d="M0 5.99984C-7.63882e-16 2.68622 2.6863 -7.63859e-16 6.00002-1.52772e-15 9.31373-3.05544e-15 12 2.68622 12 5.99984 12 9.31345 9.31373 11.9997 6.00002 11.9997 2.6863 11.9997-3.81941e-15 9.31345 0 5.99984Z" fill="#0041D8" fill-rule="evenodd" transform="matrix(-1 0 0 1 4840 4141)"/><path d="M0 6.00002C-7.63882e-16 2.6863 2.6863 -7.63882e-16 6.00002-1.52776e-15 9.31373-3.05553e-15 12 2.6863 12 6.00002 12 9.31373 9.31373 12 6.00002 12 2.6863 12-3.81941e-15 9.31373 0 6.00002Z" fill="#0041D8" fill-rule="evenodd" transform="matrix(-1 0 0 1 4809 4150)"/><path d="M0 6.00002C-7.63882e-16 2.6863 2.6863 -7.63882e-16 6.00002-1.52776e-15 9.31373-3.05553e-15 12 2.6863 12 6.00002 12 9.31373 9.31373 12 6.00002 12 2.6863 12-3.81941e-15 9.31373 0 6.00002Z" fill="#0041D8" fill-rule="evenodd" transform="matrix(-1 0 0 1 4777 4118)"/><path d="M0 6.00002C-7.63882e-16 2.6863 2.6863 -7.63882e-16 6.00002-1.52776e-15 9.31373-3.05553e-15 12 2.6863 12 6.00002 12 9.31373 9.31373 12 6.00002 12 2.6863 12-3.81941e-15 9.31373 0 6.00002Z" fill="#0041D8" fill-rule="evenodd" transform="matrix(-1 0 0 1 4746 4129)"/><path d="M0 6.00002C-8.27518e-16 2.6863 2.91008 -7.63882e-16 6.49985-1.52776e-15 10.0896-3.05553e-15 12.9997 2.6863 12.9997 6.00002 12.9997 9.31373 10.0896 12 6.49985 12 2.91008 12-4.13759e-15 9.31373 0 6.00002Z" fill="#0041D8" fill-rule="evenodd" transform="matrix(-1 0 0 1 4715 4118)"/><path d="M0 6.00002C-7.63882e-16 2.6863 2.6863 -7.63882e-16 6.00002-1.52776e-15 9.31373-3.05553e-15 12 2.6863 12 6.00002 12 9.31373 9.31373 12 6.00002 12 2.6863 12-3.81941e-15 9.31373 0 6.00002Z" fill="#0041D8" fill-rule="evenodd" transform="matrix(-1 0 0 1 4683 4138)"/><path d="M0 6.00002C-7.63882e-16 2.6863 2.6863 -7.63882e-16 6.00002-1.52776e-15 9.31373-3.05553e-15 12 2.6863 12 6.00002 12 9.31373 9.31373 12 6.00002 12 2.6863 12-3.81941e-15 9.31373 0 6.00002Z" fill="#0041D8" fill-rule="evenodd" transform="matrix(-1 0 0 1 4652 4118)"/><path d="M0 6.50003C-8.27541e-16 2.91016 2.91016 -8.27541e-16 6.50003-1.65508e-15 10.0899-3.31016e-15 13.0001 2.91016 13.0001 6.50003 13.0001 10.0899 10.0899 13.0001 6.50003 13.0001 2.91016 13.0001-4.1377e-15 10.0899 0 6.50003Z" fill="#0041D8" fill-rule="evenodd" transform="matrix(-1 0 0 1 4621 4133)"/><path d="M0 6.00002C-7.63882e-16 2.6863 2.6863 -7.63882e-16 6.00002-1.52776e-15 9.31373-3.05553e-15 12 2.6863 12 6.00002 12 9.31373 9.31373 12 6.00002 12 2.6863 12-3.81941e-15 9.31373 0 6.00002Z" fill="#0041D8" fill-rule="evenodd" transform="matrix(-1 0 0 1 4589 4113)"/><path d="M0 6.00002C-7.63882e-16 2.6863 2.6863 -7.63882e-16 6.00002-1.52776e-15 9.31373-3.05553e-15 12 2.6863 12 6.00002 12 9.31373 9.31373 12 6.00002 12 2.6863 12-3.81941e-15 9.31373 0 6.00002Z" fill="#0041D8" fill-rule="evenodd" transform="matrix(-1 0 0 1 4558 4118)"/><path d="M0 6.00002C-8.27518e-16 2.6863 2.91008 -7.63882e-16 6.49985-1.52776e-15 10.0896-3.05553e-15 12.9997 2.6863 12.9997 6.00002 12.9997 9.31373 10.0896 12 6.49985 12 2.91008 12-4.13759e-15 9.31373 0 6.00002Z" fill="#0041D8" fill-rule="evenodd" transform="matrix(-1 0 0 1 4527 4100)"/><path d="M0 5.99984C-7.63882e-16 2.68622 2.6863 -7.63859e-16 6.00002-1.52772e-15 9.31373-3.05544e-15 12 2.68622 12 5.99984 12 9.31345 9.31373 11.9997 6.00002 11.9997 2.6863 11.9997-3.81941e-15 9.31345 0 5.99984Z" fill="#0041D8" fill-rule="evenodd" transform="matrix(-1 0 0 1 4495 4086)"/><path d="M0 5.99984C-7.63882e-16 2.68622 2.6863 -7.63859e-16 6.00002-1.52772e-15 9.31373-3.05544e-15 12 2.68622 12 5.99984 12 9.31345 9.31373 11.9997 6.00002 11.9997 2.6863 11.9997-3.81941e-15 9.31345 0 5.99984Z" fill="#0041D8" fill-rule="evenodd" transform="matrix(-1 0 0 1 4464 4086)"/><path d="M0 6.00002C-8.27541e-16 2.6863 2.91016 -7.63882e-16 6.50003-1.52776e-15 10.0899-3.05553e-15 13.0001 2.6863 13.0001 6.00002 13.0001 9.31373 10.0899 12 6.50003 12 2.91016 12-4.1377e-15 9.31373 0 6.00002Z" fill="#0041D8" fill-rule="evenodd" transform="matrix(-1 0 0 1 4433 4091)"/><path d="M0 6.00002C-7.63882e-16 2.6863 2.6863 -7.63882e-16 6.00002-1.52776e-15 9.31373-3.05553e-15 12 2.6863 12 6.00002 12 9.31373 9.31373 12 6.00002 12 2.6863 12-3.81941e-15 9.31373 0 6.00002Z" fill="#0041D8" fill-rule="evenodd" transform="matrix(-1 0 0 1 4401 4091)"/><path d="M0 6.00002C-7.63882e-16 2.6863 2.6863 -7.63882e-16 6.00002-1.52776e-15 9.31373-3.05553e-15 12 2.6863 12 6.00002 12 9.31373 9.31373 12 6.00002 12 2.6863 12-3.81941e-15 9.31373 0 6.00002Z" fill="#0041D8" fill-rule="evenodd" transform="matrix(-1 0 0 1 4370 4083)"/><path d="M0 6.00002C-7.63882e-16 2.6863 2.6863 -7.63882e-16 6.00002-1.52776e-15 9.31373-3.05553e-15 12 2.6863 12 6.00002 12 9.31373 9.31373 12 6.00002 12 2.6863 12-3.81941e-15 9.31373 0 6.00002Z" fill="#0041D8" fill-rule="evenodd" transform="matrix(-1 0 0 1 4339 4091)"/><path d="M0 5.99984C-8.27518e-16 2.68622 2.91008 -7.63859e-16 6.49985-1.52772e-15 10.0896-3.05544e-15 12.9997 2.68622 12.9997 5.99984 12.9997 9.31345 10.0896 11.9997 6.49985 11.9997 2.91008 11.9997-4.13759e-15 9.31345 0 5.99984Z" fill="#0041D8" fill-rule="evenodd" transform="matrix(-1 0 0 1 4308 4086)"/><path d="M0 5.99984C-7.63882e-16 2.68622 2.6863 -7.63859e-16 6.00002-1.52772e-15 9.31373-3.05544e-15 12 2.68622 12 5.99984 12 9.31345 9.31373 11.9997 6.00002 11.9997 2.6863 11.9997-3.81941e-15 9.31345 0 5.99984Z" fill="#0041D8" fill-rule="evenodd" transform="matrix(-1 0 0 1 4276 4086)"/><path d="M4185.5 3713C4185.5 3706.1 4191.1 3700.5 4198 3700.5L4198 3700.5C4204.9 3700.5 4210.5 3706.1 4210.5 3713L4210.5 4248C4210.5 4254.9 4204.9 4260.5 4198 4260.5L4198 4260.5C4191.1 4260.5 4185.5 4254.9 4185.5 4248Z" stroke="#0F1B37" stroke-width="4.58333" stroke-linejoin="round" stroke-miterlimit="10" fill="url(#fill1)" fill-rule="evenodd"/><path d="M4231.5 4260.5 5009.38 4260.5" stroke="#000000" stroke-width="6.875" stroke-linejoin="round" stroke-miterlimit="10" fill="none" fill-rule="evenodd"/><path d="M0 0 0.000360892 23.7716" stroke="#000000" stroke-width="6.875" stroke-linejoin="round" stroke-miterlimit="10" fill="none" fill-rule="evenodd" transform="matrix(1 0 0 -1 4248.5 4272.27)"/><path d="M0 0 0.000360892 23.7716" stroke="#000000" stroke-width="6.875" stroke-linejoin="round" stroke-miterlimit="10" fill="none" fill-rule="evenodd" transform="matrix(1 0 0 -1 4302.5 4272.27)"/><path d="M0 0 0.000360892 23.7716" stroke="#000000" stroke-width="6.875" stroke-linejoin="round" stroke-miterlimit="10" fill="none" fill-rule="evenodd" transform="matrix(1 0 0 -1 4356.5 4272.27)"/><path d="M0 0 0.000360892 23.7716" stroke="#000000" stroke-width="6.875" stroke-linejoin="round" stroke-miterlimit="10" fill="none" fill-rule="evenodd" transform="matrix(1 0 0 -1 4411.5 4272.27)"/><path d="M0 0 0.000360892 23.7716" stroke="#000000" stroke-width="6.875" stroke-linejoin="round" stroke-miterlimit="10" fill="none" fill-rule="evenodd" transform="matrix(1 0 0 -1 4465.5 4272.27)"/><path d="M0 0 0.000360892 23.7716" stroke="#000000" stroke-width="6.875" stroke-linejoin="round" stroke-miterlimit="10" fill="none" fill-rule="evenodd" transform="matrix(1 0 0 -1 4519.5 4272.27)"/><path d="M0 0 0.000360892 23.7716" stroke="#000000" stroke-width="6.875" stroke-linejoin="round" stroke-miterlimit="10" fill="none" fill-rule="evenodd" transform="matrix(1 0 0 -1 4573.5 4272.27)"/><path d="M0 0 0.000360892 23.7716" stroke="#000000" stroke-width="6.875" stroke-linejoin="round" stroke-miterlimit="10" fill="none" fill-rule="evenodd" transform="matrix(1 0 0 -1 4627.5 4272.27)"/><path d="M0 0 0.000360892 23.7716" stroke="#000000" stroke-width="6.875" stroke-linejoin="round" stroke-miterlimit="10" fill="none" fill-rule="evenodd" transform="matrix(1 0 0 -1 4681.5 4272.27)"/><path d="M0 0 0.000360892 23.7716" stroke="#000000" stroke-width="6.875" stroke-linejoin="round" stroke-miterlimit="10" fill="none" fill-rule="evenodd" transform="matrix(1 0 0 -1 4736.5 4272.27)"/><path d="M0 0 0.000360892 23.7716" stroke="#000000" stroke-width="6.875" stroke-linejoin="round" stroke-miterlimit="10" fill="none" fill-rule="evenodd" transform="matrix(1 0 0 -1 4790.5 4272.27)"/><path d="M0 0 0.000360892 23.7716" stroke="#000000" stroke-width="6.875" stroke-linejoin="round" stroke-miterlimit="10" fill="none" fill-rule="evenodd" transform="matrix(1 0 0 -1 4844.5 4272.27)"/><path d="M0 0 0.000360892 23.7716" stroke="#000000" stroke-width="6.875" stroke-linejoin="round" stroke-miterlimit="10" fill="none" fill-rule="evenodd" transform="matrix(1 0 0 -1 4898.5 4272.27)"/><path d="M0 0 0.000360892 23.7716" stroke="#000000" stroke-width="6.875" stroke-linejoin="round" stroke-miterlimit="10" fill="none" fill-rule="evenodd" transform="matrix(1 0 0 -1 4952.5 4272.27)"/><path d="M0 0 0.000360892 23.7716" stroke="#000000" stroke-width="6.875" stroke-linejoin="round" stroke-miterlimit="10" fill="none" fill-rule="evenodd" transform="matrix(1 0 0 -1 5006.5 4272.27)"/></g></svg>