<svg width="831" height="575" xmlns="http://www.w3.org/2000/svg" xmlns:xlink="http://www.w3.org/1999/xlink" xml:space="preserve" overflow="hidden"><defs><linearGradient x1="3283" y1="4266.5" x2="3283" y2="4826.5" gradientUnits="userSpaceOnUse" spreadMethod="reflect" id="fill0"><stop offset="0" stop-color="#00B050"/><stop offset="0.5" stop-color="#FFFF00"/><stop offset="1" stop-color="#FF0000"/></linearGradient><linearGradient x1="3284.02" y1="4267.5" x2="3284.02" y2="4826.5" gradientUnits="userSpaceOnUse" spreadMethod="reflect" id="fill1"><stop offset="0" stop-color="#00B050"/><stop offset="0.5" stop-color="#FFFF00"/><stop offset="1" stop-color="#FF0000"/></linearGradient></defs><g transform="translate(-3268 -4264)"><path d="M3270.5 4279C3270.5 4272.1 3276.1 4266.5 3283 4266.5L3283 4266.5C3289.9 4266.5 3295.5 4272.1 3295.5 4279L3295.5 4814C3295.5 4820.9 3289.9 4826.5 3283 4826.5L3283 4826.5C3276.1 4826.5 3270.5 4820.9 3270.5 4814Z" stroke="#0F1B37" stroke-width="4.58333" stroke-linejoin="round" stroke-miterlimit="10" fill="url(#fill0)" fill-rule="evenodd"/><path d="M0 6.00002C-7.63882e-16 2.6863 2.6863 -7.63882e-16 6.00002-1.52776e-15 9.31373-3.05553e-15 12 2.6863 12 6.00002 12 9.31373 9.31373 12 6.00002 12 2.6863 12-3.81941e-15 9.31373 0 6.00002Z" fill="#3B7D23" fill-rule="evenodd" transform="matrix(-1 0 0 1 4083 4311)"/><path d="M0 6.00002C-7.63859e-16 2.6863 2.68622 -7.63882e-16 5.99984-1.52776e-15 9.31345-3.05553e-15 11.9997 2.6863 11.9997 6.00002 11.9997 9.31373 9.31345 12 5.99984 12 2.68622 12-3.8193e-15 9.31373 0 6.00002Z" fill="#3B7D23" fill-rule="evenodd" transform="matrix(-1 0 0 1 4054 4311)"/><path d="M0 6.00002C-7.63882e-16 2.6863 2.6863 -7.63882e-16 6.00002-1.52776e-15 9.31373-3.05553e-15 12 2.6863 12 6.00002 12 9.31373 9.31373 12 6.00002 12 2.6863 12-3.81941e-15 9.31373 0 6.00002Z" fill="#3B7D23" fill-rule="evenodd" transform="matrix(-1 0 0 1 4020 4319)"/><path d="M0 6.00002C-7.63882e-16 2.6863 2.6863 -7.63882e-16 6.00002-1.52776e-15 9.31373-3.05553e-15 12 2.6863 12 6.00002 12 9.31373 9.31373 12 6.00002 12 2.6863 12-3.81941e-15 9.31373 0 6.00002Z" fill="#3B7D23" fill-rule="evenodd" transform="matrix(-1 0 0 1 3989 4311)"/><path d="M0 6.00002C-8.27541e-16 2.6863 2.91016 -7.63882e-16 6.50003-1.52776e-15 10.0899-3.05553e-15 13.0001 2.6863 13.0001 6.00002 13.0001 9.31373 10.0899 12 6.50003 12 2.91016 12-4.1377e-15 9.31373 0 6.00002Z" fill="#3B7D23" fill-rule="evenodd" transform="matrix(-1 0 0 1 3958 4320)"/><path d="M0 6.00002C-7.63882e-16 2.6863 2.6863 -7.63882e-16 6.00002-1.52776e-15 9.31373-3.05553e-15 12 2.6863 12 6.00002 12 9.31373 9.31373 12 6.00002 12 2.6863 12-3.81941e-15 9.31373 0 6.00002Z" fill="#3B7D23" fill-rule="evenodd" transform="matrix(-1 0 0 1 3926 4338)"/><path d="M0 6.00002C-7.63882e-16 2.6863 2.6863 -7.63882e-16 6.00002-1.52776e-15 9.31373-3.05553e-15 12 2.6863 12 6.00002 12 9.31373 9.31373 12 6.00002 12 2.6863 12-3.81941e-15 9.31373 0 6.00002Z" fill="#3B7D23" fill-rule="evenodd" transform="matrix(-1 0 0 1 3895 4340)"/><path d="M0 6.50003C-8.27541e-16 2.91016 2.91016 -8.27541e-16 6.50003-1.65508e-15 10.0899-3.31016e-15 13.0001 2.91016 13.0001 6.50003 13.0001 10.0899 10.0899 13.0001 6.50003 13.0001 2.91016 13.0001-4.1377e-15 10.0899 0 6.50003Z" fill="#3B7D23" fill-rule="evenodd" transform="matrix(-1 0 0 1 3864 4365)"/><path d="M0 6.00002C-7.63882e-16 2.6863 2.6863 -7.63882e-16 6.00002-1.52776e-15 9.31373-3.05553e-15 12 2.6863 12 6.00002 12 9.31373 9.31373 12 6.00002 12 2.6863 12-3.81941e-15 9.31373 0 6.00002Z" fill="#3B7D23" fill-rule="evenodd" transform="matrix(-1 0 0 1 3832 4370)"/><path d="M0 6.50003C-7.63859e-16 2.91016 2.68622 -8.27541e-16 5.99984-1.65508e-15 9.31345-3.31016e-15 11.9997 2.91016 11.9997 6.50003 11.9997 10.0899 9.31345 13.0001 5.99984 13.0001 2.68622 13.0001-3.8193e-15 10.0899 0 6.50003Z" fill="#3B7D23" fill-rule="evenodd" transform="matrix(-1 0 0 1 3801 4365)"/><path d="M0 5.99984C-8.27541e-16 2.68622 2.91016 -7.63859e-16 6.50003-1.52772e-15 10.0899-3.05544e-15 13.0001 2.68622 13.0001 5.99984 13.0001 9.31345 10.0899 11.9997 6.50003 11.9997 2.91016 11.9997-4.1377e-15 9.31345 0 5.99984Z" fill="#3B7D23" fill-rule="evenodd" transform="matrix(-1 0 0 1 3770 4372)"/><path d="M0 6.50003C-7.63882e-16 2.91016 2.6863 -8.27541e-16 6.00002-1.65508e-15 9.31373-3.31016e-15 12 2.91016 12 6.50003 12 10.0899 9.31373 13.0001 6.00002 13.0001 2.6863 13.0001-3.81941e-15 10.0899 0 6.50003Z" fill="#3B7D23" fill-rule="evenodd" transform="matrix(-1 0 0 1 3738 4384)"/><path d="M0 6.00002C-7.63882e-16 2.6863 2.6863 -7.63882e-16 6.00002-1.52776e-15 9.31373-3.05553e-15 12 2.6863 12 6.00002 12 9.31373 9.31373 12 6.00002 12 2.6863 12-3.81941e-15 9.31373 0 6.00002Z" fill="#3B7D23" fill-rule="evenodd" transform="matrix(-1 0 0 1 3707 4380)"/><path d="M0 6.00002C-8.27541e-16 2.6863 2.91016 -7.63882e-16 6.50003-1.52776e-15 10.0899-3.05553e-15 13.0001 2.6863 13.0001 6.00002 13.0001 9.31373 10.0899 12 6.50003 12 2.91016 12-4.1377e-15 9.31373 0 6.00002Z" fill="#3B7D23" fill-rule="evenodd" transform="matrix(-1 0 0 1 3676 4387)"/><path d="M0 6.50003C-7.63882e-16 2.91016 2.6863 -8.27541e-16 6.00002-1.65508e-15 9.31373-3.31016e-15 12 2.91016 12 6.50003 12 10.0899 9.31373 13.0001 6.00002 13.0001 2.6863 13.0001-3.81941e-15 10.0899 0 6.50003Z" fill="#3B7D23" fill-rule="evenodd" transform="matrix(-1 0 0 1 3644 4395)"/><path d="M0 6.00002C-7.63882e-16 2.6863 2.6863 -7.63882e-16 6.00002-1.52776e-15 9.31373-3.05553e-15 12 2.6863 12 6.00002 12 9.31373 9.31373 12 6.00002 12 2.6863 12-3.81941e-15 9.31373 0 6.00002Z" fill="#3B7D23" fill-rule="evenodd" transform="matrix(-1 0 0 1 3613 4408)"/><path d="M0 5.99984C-7.63859e-16 2.68622 2.68622 -7.63859e-16 5.99984-1.52772e-15 9.31345-3.05544e-15 11.9997 2.68622 11.9997 5.99984 11.9997 9.31345 9.31345 11.9997 5.99984 11.9997 2.68622 11.9997-3.8193e-15 9.31345 0 5.99984Z" fill="#3B7D23" fill-rule="evenodd" transform="matrix(-1 0 0 1 3581 4405)"/><path d="M0 6.00002C-7.63882e-16 2.6863 2.6863 -7.63882e-16 6.00002-1.52776e-15 9.31373-3.05553e-15 12 2.6863 12 6.00002 12 9.31373 9.31373 12 6.00002 12 2.6863 12-3.81941e-15 9.31373 0 6.00002Z" fill="#3B7D23" fill-rule="evenodd" transform="matrix(-1 0 0 1 3550 4424)"/><path d="M0 6.00002C-7.63882e-16 2.6863 2.6863 -7.63882e-16 6.00002-1.52776e-15 9.31373-3.05553e-15 12 2.6863 12 6.00002 12 9.31373 9.31373 12 6.00002 12 2.6863 12-3.81941e-15 9.31373 0 6.00002Z" fill="#3B7D23" fill-rule="evenodd" transform="matrix(-1 0 0 1 3519 4431)"/><path d="M0 6.50003C-7.63882e-16 2.91016 2.6863 -8.27541e-16 6.00002-1.65508e-15 9.31373-3.31016e-15 12 2.91016 12 6.50003 12 10.0899 9.31373 13.0001 6.00002 13.0001 2.6863 13.0001-3.81941e-15 10.0899 0 6.50003Z" fill="#3B7D23" fill-rule="evenodd" transform="matrix(-1 0 0 1 3487 4452)"/><path d="M0 6.00002C-8.27541e-16 2.6863 2.91016 -7.63882e-16 6.50003-1.52776e-15 10.0899-3.05553e-15 13.0001 2.6863 13.0001 6.00002 13.0001 9.31373 10.0899 12 6.50003 12 2.91016 12-4.1377e-15 9.31373 0 6.00002Z" fill="#3B7D23" fill-rule="evenodd" transform="matrix(-1 0 0 1 3457 4463)"/><path d="M0 6.50003C-7.63882e-16 2.91016 2.6863 -8.27541e-16 6.00002-1.65508e-15 9.31373-3.31016e-15 12 2.91016 12 6.50003 12 10.0899 9.31373 13.0001 6.00002 13.0001 2.6863 13.0001-3.81941e-15 10.0899 0 6.50003Z" fill="#3B7D23" fill-rule="evenodd" transform="matrix(-1 0 0 1 3425 4452)"/><path d="M0 6.50003C-7.63859e-16 2.91016 2.68622 -8.27541e-16 5.99984-1.65508e-15 9.31345-3.31016e-15 11.9997 2.91016 11.9997 6.50003 11.9997 10.0899 9.31345 13.0001 5.99984 13.0001 2.68622 13.0001-3.8193e-15 10.0899 0 6.50003Z" fill="#3B7D23" fill-rule="evenodd" transform="matrix(-1 0 0 1 3394 4458)"/><path d="M0 6.50003C-8.27541e-16 2.91016 2.91016 -8.27541e-16 6.50003-1.65508e-15 10.0899-3.31016e-15 13.0001 2.91016 13.0001 6.50003 13.0001 10.0899 10.0899 13.0001 6.50003 13.0001 2.91016 13.0001-4.1377e-15 10.0899 0 6.50003Z" fill="#3B7D23" fill-rule="evenodd" transform="matrix(-1 0 0 1 3363 4452)"/><path d="M0 6.00002C-7.63882e-16 2.6863 2.6863 -7.63882e-16 6.00002-1.52776e-15 9.31373-3.05553e-15 12 2.6863 12 6.00002 12 9.31373 9.31373 12 6.00002 12 2.6863 12-3.81941e-15 9.31373 0 6.00002Z" fill="#3B7D23" fill-rule="evenodd" transform="matrix(-1 0 0 1 4083 4334)"/><path d="M0 6.00002C-7.63859e-16 2.6863 2.68622 -7.63882e-16 5.99984-1.52776e-15 9.31345-3.05553e-15 11.9997 2.6863 11.9997 6.00002 11.9997 9.31373 9.31345 12 5.99984 12 2.68622 12-3.8193e-15 9.31373 0 6.00002Z" fill="#3B7D23" fill-rule="evenodd" transform="matrix(-1 0 0 1 4054 4344)"/><path d="M0 6.00002C-7.63882e-16 2.6863 2.6863 -7.63882e-16 6.00002-1.52776e-15 9.31373-3.05553e-15 12 2.6863 12 6.00002 12 9.31373 9.31373 12 6.00002 12 2.6863 12-3.81941e-15 9.31373 0 6.00002Z" fill="#3B7D23" fill-rule="evenodd" transform="matrix(-1 0 0 1 4020 4356)"/><path d="M0 6.00002C-7.63882e-16 2.6863 2.6863 -7.63882e-16 6.00002-1.52776e-15 9.31373-3.05553e-15 12 2.6863 12 6.00002 12 9.31373 9.31373 12 6.00002 12 2.6863 12-3.81941e-15 9.31373 0 6.00002Z" fill="#3B7D23" fill-rule="evenodd" transform="matrix(-1 0 0 1 3989 4349)"/><path d="M0 6.00002C-8.27541e-16 2.6863 2.91016 -7.63882e-16 6.50003-1.52776e-15 10.0899-3.05553e-15 13.0001 2.6863 13.0001 6.00002 13.0001 9.31373 10.0899 12 6.50003 12 2.91016 12-4.1377e-15 9.31373 0 6.00002Z" fill="#3B7D23" fill-rule="evenodd" transform="matrix(-1 0 0 1 3958 4358)"/><path d="M0 6.00002C-7.63882e-16 2.6863 2.6863 -7.63882e-16 6.00002-1.52776e-15 9.31373-3.05553e-15 12 2.6863 12 6.00002 12 9.31373 9.31373 12 6.00002 12 2.6863 12-3.81941e-15 9.31373 0 6.00002Z" fill="#3B7D23" fill-rule="evenodd" transform="matrix(-1 0 0 1 3926 4376)"/><path d="M0 6.00002C-7.63882e-16 2.6863 2.6863 -7.63882e-16 6.00002-1.52776e-15 9.31373-3.05553e-15 12 2.6863 12 6.00002 12 9.31373 9.31373 12 6.00002 12 2.6863 12-3.81941e-15 9.31373 0 6.00002Z" fill="#3B7D23" fill-rule="evenodd" transform="matrix(-1 0 0 1 3895 4378)"/><path d="M0 6.00002C-8.27541e-16 2.6863 2.91016 -7.63882e-16 6.50003-1.52776e-15 10.0899-3.05553e-15 13.0001 2.6863 13.0001 6.00002 13.0001 9.31373 10.0899 12 6.50003 12 2.91016 12-4.1377e-15 9.31373 0 6.00002Z" fill="#3B7D23" fill-rule="evenodd" transform="matrix(-1 0 0 1 3864 4403)"/><path d="M0 6.00002C-7.63882e-16 2.6863 2.6863 -7.63882e-16 6.00002-1.52776e-15 9.31373-3.05553e-15 12 2.6863 12 6.00002 12 9.31373 9.31373 12 6.00002 12 2.6863 12-3.81941e-15 9.31373 0 6.00002Z" fill="#3B7D23" fill-rule="evenodd" transform="matrix(-1 0 0 1 3832 4408)"/><path d="M0 6.00002C-7.63859e-16 2.6863 2.68622 -7.63882e-16 5.99984-1.52776e-15 9.31345-3.05553e-15 11.9997 2.6863 11.9997 6.00002 11.9997 9.31373 9.31345 12 5.99984 12 2.68622 12-3.8193e-15 9.31373 0 6.00002Z" fill="#3B7D23" fill-rule="evenodd" transform="matrix(-1 0 0 1 3801 4403)"/><path d="M0 6.00002C-8.27541e-16 2.6863 2.91016 -7.63882e-16 6.50003-1.52776e-15 10.0899-3.05553e-15 13.0001 2.6863 13.0001 6.00002 13.0001 9.31373 10.0899 12 6.50003 12 2.91016 12-4.1377e-15 9.31373 0 6.00002Z" fill="#3B7D23" fill-rule="evenodd" transform="matrix(-1 0 0 1 3770 4410)"/><path d="M0 6.00002C-7.63882e-16 2.6863 2.6863 -7.63882e-16 6.00002-1.52776e-15 9.31373-3.05553e-15 12 2.6863 12 6.00002 12 9.31373 9.31373 12 6.00002 12 2.6863 12-3.81941e-15 9.31373 0 6.00002Z" fill="#3B7D23" fill-rule="evenodd" transform="matrix(-1 0 0 1 3738 4422)"/><path d="M0 6.00002C-7.63882e-16 2.6863 2.6863 -7.63882e-16 6.00002-1.52776e-15 9.31373-3.05553e-15 12 2.6863 12 6.00002 12 9.31373 9.31373 12 6.00002 12 2.6863 12-3.81941e-15 9.31373 0 6.00002Z" fill="#3B7D23" fill-rule="evenodd" transform="matrix(-1 0 0 1 3707 4418)"/><path d="M0 6.00002C-8.27541e-16 2.6863 2.91016 -7.63882e-16 6.50003-1.52776e-15 10.0899-3.05553e-15 13.0001 2.6863 13.0001 6.00002 13.0001 9.31373 10.0899 12 6.50003 12 2.91016 12-4.1377e-15 9.31373 0 6.00002Z" fill="#3B7D23" fill-rule="evenodd" transform="matrix(-1 0 0 1 3676 4425)"/><path d="M0 6.50003C-7.63882e-16 2.91016 2.6863 -8.27541e-16 6.00002-1.65508e-15 9.31373-3.31016e-15 12 2.91016 12 6.50003 12 10.0899 9.31373 13.0001 6.00002 13.0001 2.6863 13.0001-3.81941e-15 10.0899 0 6.50003Z" fill="#3B7D23" fill-rule="evenodd" transform="matrix(-1 0 0 1 3644 4433)"/><path d="M0 6.00002C-7.63882e-16 2.6863 2.6863 -7.63882e-16 6.00002-1.52776e-15 9.31373-3.05553e-15 12 2.6863 12 6.00002 12 9.31373 9.31373 12 6.00002 12 2.6863 12-3.81941e-15 9.31373 0 6.00002Z" fill="#3B7D23" fill-rule="evenodd" transform="matrix(-1 0 0 1 3613 4446)"/><path d="M0 6.00002C-7.63859e-16 2.6863 2.68622 -7.63882e-16 5.99984-1.52776e-15 9.31345-3.05553e-15 11.9997 2.6863 11.9997 6.00002 11.9997 9.31373 9.31345 12 5.99984 12 2.68622 12-3.8193e-15 9.31373 0 6.00002Z" fill="#3B7D23" fill-rule="evenodd" transform="matrix(-1 0 0 1 3581 4443)"/><path d="M0 6.00002C-7.63882e-16 2.6863 2.6863 -7.63882e-16 6.00002-1.52776e-15 9.31373-3.05553e-15 12 2.6863 12 6.00002 12 9.31373 9.31373 12 6.00002 12 2.6863 12-3.81941e-15 9.31373 0 6.00002Z" fill="#3B7D23" fill-rule="evenodd" transform="matrix(-1 0 0 1 3550 4462)"/><path d="M0 6.00002C-7.63882e-16 2.6863 2.6863 -7.63882e-16 6.00002-1.52776e-15 9.31373-3.05553e-15 12 2.6863 12 6.00002 12 9.31373 9.31373 12 6.00002 12 2.6863 12-3.81941e-15 9.31373 0 6.00002Z" fill="#3B7D23" fill-rule="evenodd" transform="matrix(-1 0 0 1 3519 4469)"/><path d="M0 6.50003C-7.63882e-16 2.91016 2.6863 -8.27541e-16 6.00002-1.65508e-15 9.31373-3.31016e-15 12 2.91016 12 6.50003 12 10.0899 9.31373 13.0001 6.00002 13.0001 2.6863 13.0001-3.81941e-15 10.0899 0 6.50003Z" fill="#3B7D23" fill-rule="evenodd" transform="matrix(-1 0 0 1 3487 4490)"/><path d="M0 6.00002C-8.27541e-16 2.6863 2.91016 -7.63882e-16 6.50003-1.52776e-15 10.0899-3.05553e-15 13.0001 2.6863 13.0001 6.00002 13.0001 9.31373 10.0899 12 6.50003 12 2.91016 12-4.1377e-15 9.31373 0 6.00002Z" fill="#3B7D23" fill-rule="evenodd" transform="matrix(-1 0 0 1 3457 4501)"/><path d="M0 6.50003C-7.63882e-16 2.91016 2.6863 -8.27541e-16 6.00002-1.65508e-15 9.31373-3.31016e-15 12 2.91016 12 6.50003 12 10.0899 9.31373 13.0001 6.00002 13.0001 2.6863 13.0001-3.81941e-15 10.0899 0 6.50003Z" fill="#3B7D23" fill-rule="evenodd" transform="matrix(-1 0 0 1 3425 4490)"/><path d="M0 6.50003C-7.63859e-16 2.91016 2.68622 -8.27541e-16 5.99984-1.65508e-15 9.31345-3.31016e-15 11.9997 2.91016 11.9997 6.50003 11.9997 10.0899 9.31345 13.0001 5.99984 13.0001 2.68622 13.0001-3.8193e-15 10.0899 0 6.50003Z" fill="#3B7D23" fill-rule="evenodd" transform="matrix(-1 0 0 1 3394 4496)"/><path d="M0 6.50003C-8.27541e-16 2.91016 2.91016 -8.27541e-16 6.50003-1.65508e-15 10.0899-3.31016e-15 13.0001 2.91016 13.0001 6.50003 13.0001 10.0899 10.0899 13.0001 6.50003 13.0001 2.91016 13.0001-4.1377e-15 10.0899 0 6.50003Z" fill="#3B7D23" fill-rule="evenodd" transform="matrix(-1 0 0 1 3363 4490)"/><path d="M0 6.00002C-7.63882e-16 2.6863 2.6863 -7.63882e-16 6.00002-1.52776e-15 9.31373-3.05553e-15 12 2.6863 12 6.00002 12 9.31373 9.31373 12 6.00002 12 2.6863 12-3.81941e-15 9.31373 0 6.00002Z" fill="#3B7D23" fill-rule="evenodd" transform="matrix(-1 0 0 1 4082 4375)"/><path d="M0 6.00002C-7.63859e-16 2.6863 2.68622 -7.63882e-16 5.99984-1.52776e-15 9.31345-3.05553e-15 11.9997 2.6863 11.9997 6.00002 11.9997 9.31373 9.31345 12 5.99984 12 2.68622 12-3.8193e-15 9.31373 0 6.00002Z" fill="#3B7D23" fill-rule="evenodd" transform="matrix(-1 0 0 1 4054 4387)"/><path d="M0 6.00002C-7.63882e-16 2.6863 2.6863 -7.63882e-16 6.00002-1.52776e-15 9.31373-3.05553e-15 12 2.6863 12 6.00002 12 9.31373 9.31373 12 6.00002 12 2.6863 12-3.81941e-15 9.31373 0 6.00002Z" fill="#3B7D23" fill-rule="evenodd" transform="matrix(-1 0 0 1 4020 4395)"/><path d="M0 6.00002C-7.63882e-16 2.6863 2.6863 -7.63882e-16 6.00002-1.52776e-15 9.31373-3.05553e-15 12 2.6863 12 6.00002 12 9.31373 9.31373 12 6.00002 12 2.6863 12-3.81941e-15 9.31373 0 6.00002Z" fill="#3B7D23" fill-rule="evenodd" transform="matrix(-1 0 0 1 3989 4387)"/><path d="M0 6.50003C-8.27541e-16 2.91016 2.91016 -8.27541e-16 6.50003-1.65508e-15 10.0899-3.31016e-15 13.0001 2.91016 13.0001 6.50003 13.0001 10.0899 10.0899 13.0001 6.50003 13.0001 2.91016 13.0001-4.1377e-15 10.0899 0 6.50003Z" fill="#3B7D23" fill-rule="evenodd" transform="matrix(-1 0 0 1 3958 4395)"/><path d="M0 6.00002C-7.63882e-16 2.6863 2.6863 -7.63882e-16 6.00002-1.52776e-15 9.31373-3.05553e-15 12 2.6863 12 6.00002 12 9.31373 9.31373 12 6.00002 12 2.6863 12-3.81941e-15 9.31373 0 6.00002Z" fill="#3B7D23" fill-rule="evenodd" transform="matrix(-1 0 0 1 3926 4414)"/><path d="M0 5.99984C-7.63882e-16 2.68622 2.6863 -7.63859e-16 6.00002-1.52772e-15 9.31373-3.05544e-15 12 2.68622 12 5.99984 12 9.31345 9.31373 11.9997 6.00002 11.9997 2.6863 11.9997-3.81941e-15 9.31345 0 5.99984Z" fill="#3B7D23" fill-rule="evenodd" transform="matrix(-1 0 0 1 3895 4416)"/><path d="M0 6.00002C-8.27541e-16 2.6863 2.91016 -7.63882e-16 6.50003-1.52776e-15 10.0899-3.05553e-15 13.0001 2.6863 13.0001 6.00002 13.0001 9.31373 10.0899 12 6.50003 12 2.91016 12-4.1377e-15 9.31373 0 6.00002Z" fill="#3B7D23" fill-rule="evenodd" transform="matrix(-1 0 0 1 3864 4441)"/><path d="M0 6.00002C-7.63882e-16 2.6863 2.6863 -7.63882e-16 6.00002-1.52776e-15 9.31373-3.05553e-15 12 2.6863 12 6.00002 12 9.31373 9.31373 12 6.00002 12 2.6863 12-3.81941e-15 9.31373 0 6.00002Z" fill="#3B7D23" fill-rule="evenodd" transform="matrix(-1 0 0 1 3832 4446)"/><path d="M0 6.00002C-7.63859e-16 2.6863 2.68622 -7.63882e-16 5.99984-1.52776e-15 9.31345-3.05553e-15 11.9997 2.6863 11.9997 6.00002 11.9997 9.31373 9.31345 12 5.99984 12 2.68622 12-3.8193e-15 9.31373 0 6.00002Z" fill="#3B7D23" fill-rule="evenodd" transform="matrix(-1 0 0 1 3801 4441)"/><path d="M0 6.00002C-8.27541e-16 2.6863 2.91016 -7.63882e-16 6.50003-1.52776e-15 10.0899-3.05553e-15 13.0001 2.6863 13.0001 6.00002 13.0001 9.31373 10.0899 12 6.50003 12 2.91016 12-4.1377e-15 9.31373 0 6.00002Z" fill="#3B7D23" fill-rule="evenodd" transform="matrix(-1 0 0 1 3770 4448)"/><path d="M0 5.99984C-7.63882e-16 2.68622 2.6863 -7.63859e-16 6.00002-1.52772e-15 9.31373-3.05544e-15 12 2.68622 12 5.99984 12 9.31345 9.31373 11.9997 6.00002 11.9997 2.6863 11.9997-3.81941e-15 9.31345 0 5.99984Z" fill="#3B7D23" fill-rule="evenodd" transform="matrix(-1 0 0 1 3738 4460)"/><path d="M0 6.00002C-7.63882e-16 2.6863 2.6863 -7.63882e-16 6.00002-1.52776e-15 9.31373-3.05553e-15 12 2.6863 12 6.00002 12 9.31373 9.31373 12 6.00002 12 2.6863 12-3.81941e-15 9.31373 0 6.00002Z" fill="#3B7D23" fill-rule="evenodd" transform="matrix(-1 0 0 1 3707 4456)"/><path d="M0 6.00002C-8.27541e-16 2.6863 2.91016 -7.63882e-16 6.50003-1.52776e-15 10.0899-3.05553e-15 13.0001 2.6863 13.0001 6.00002 13.0001 9.31373 10.0899 12 6.50003 12 2.91016 12-4.1377e-15 9.31373 0 6.00002Z" fill="#3B7D23" fill-rule="evenodd" transform="matrix(-1 0 0 1 3676 4463)"/><path d="M0 6.49985C-7.63882e-16 2.91008 2.6863 -8.27518e-16 6.00002-1.65504e-15 9.31373-3.31007e-15 12 2.91008 12 6.49985 12 10.0896 9.31373 12.9997 6.00002 12.9997 2.6863 12.9997-3.81941e-15 10.0896 0 6.49985Z" fill="#3B7D23" fill-rule="evenodd" transform="matrix(-1 0 0 1 3644 4471)"/><path d="M0 6.00002C-7.63882e-16 2.6863 2.6863 -7.63882e-16 6.00002-1.52776e-15 9.31373-3.05553e-15 12 2.6863 12 6.00002 12 9.31373 9.31373 12 6.00002 12 2.6863 12-3.81941e-15 9.31373 0 6.00002Z" fill="#3B7D23" fill-rule="evenodd" transform="matrix(-1 0 0 1 3613 4484)"/><path d="M0 6.00002C-7.63859e-16 2.6863 2.68622 -7.63882e-16 5.99984-1.52776e-15 9.31345-3.05553e-15 11.9997 2.6863 11.9997 6.00002 11.9997 9.31373 9.31345 12 5.99984 12 2.68622 12-3.8193e-15 9.31373 0 6.00002Z" fill="#3B7D23" fill-rule="evenodd" transform="matrix(-1 0 0 1 3581 4481)"/><path d="M0 6.00002C-7.63882e-16 2.6863 2.6863 -7.63882e-16 6.00002-1.52776e-15 9.31373-3.05553e-15 12 2.6863 12 6.00002 12 9.31373 9.31373 12 6.00002 12 2.6863 12-3.81941e-15 9.31373 0 6.00002Z" fill="#3B7D23" fill-rule="evenodd" transform="matrix(-1 0 0 1 3550 4500)"/><path d="M0 6.00002C-7.63882e-16 2.6863 2.6863 -7.63882e-16 6.00002-1.52776e-15 9.31373-3.05553e-15 12 2.6863 12 6.00002 12 9.31373 9.31373 12 6.00002 12 2.6863 12-3.81941e-15 9.31373 0 6.00002Z" fill="#3B7D23" fill-rule="evenodd" transform="matrix(-1 0 0 1 3519 4507)"/><path d="M0 6.50003C-7.63882e-16 2.91016 2.6863 -8.27541e-16 6.00002-1.65508e-15 9.31373-3.31016e-15 12 2.91016 12 6.50003 12 10.0899 9.31373 13.0001 6.00002 13.0001 2.6863 13.0001-3.81941e-15 10.0899 0 6.50003Z" fill="#3B7D23" fill-rule="evenodd" transform="matrix(-1 0 0 1 3487 4528)"/><path d="M0 6.00002C-8.27541e-16 2.6863 2.91016 -7.63882e-16 6.50003-1.52776e-15 10.0899-3.05553e-15 13.0001 2.6863 13.0001 6.00002 13.0001 9.31373 10.0899 12 6.50003 12 2.91016 12-4.1377e-15 9.31373 0 6.00002Z" fill="#3B7D23" fill-rule="evenodd" transform="matrix(-1 0 0 1 3457 4539)"/><path d="M0 6.50003C-7.63882e-16 2.91016 2.6863 -8.27541e-16 6.00002-1.65508e-15 9.31373-3.31016e-15 12 2.91016 12 6.50003 12 10.0899 9.31373 13.0001 6.00002 13.0001 2.6863 13.0001-3.81941e-15 10.0899 0 6.50003Z" fill="#3B7D23" fill-rule="evenodd" transform="matrix(-1 0 0 1 3425 4528)"/><path d="M0 6.50003C-7.63859e-16 2.91016 2.68622 -8.27541e-16 5.99984-1.65508e-15 9.31345-3.31016e-15 11.9997 2.91016 11.9997 6.50003 11.9997 10.0899 9.31345 13.0001 5.99984 13.0001 2.68622 13.0001-3.8193e-15 10.0899 0 6.50003Z" fill="#3B7D23" fill-rule="evenodd" transform="matrix(-1 0 0 1 3394 4534)"/><path d="M0 6.50003C-8.27541e-16 2.91016 2.91016 -8.27541e-16 6.50003-1.65508e-15 10.0899-3.31016e-15 13.0001 2.91016 13.0001 6.50003 13.0001 10.0899 10.0899 13.0001 6.50003 13.0001 2.91016 13.0001-4.1377e-15 10.0899 0 6.50003Z" fill="#3B7D23" fill-rule="evenodd" transform="matrix(-1 0 0 1 3363 4528)"/><path d="M3350 4648C3350 4644.69 3352.91 4642 3356.5 4642 3360.09 4642 3363 4644.69 3363 4648 3363 4651.31 3360.09 4654 3356.5 4654 3352.91 4654 3350 4651.31 3350 4648Z" fill="#0041D8" fill-rule="evenodd"/><path d="M3379 4648C3379 4644.69 3381.69 4642 3385 4642 3388.31 4642 3391 4644.69 3391 4648 3391 4651.31 3388.31 4654 3385 4654 3381.69 4654 3379 4651.31 3379 4648Z" fill="#0041D8" fill-rule="evenodd"/><path d="M3413 4658C3413 4654.69 3415.69 4652 3419 4652 3422.31 4652 3425 4654.69 3425 4658 3425 4661.31 3422.31 4664 3419 4664 3415.69 4664 3413 4661.31 3413 4658Z" fill="#0041D8" fill-rule="evenodd"/><path d="M3444 4648C3444 4644.69 3446.91 4642 3450.5 4642 3454.09 4642 3457 4644.69 3457 4648 3457 4651.31 3454.09 4654 3450.5 4654 3446.91 4654 3444 4651.31 3444 4648Z" fill="#0041D8" fill-rule="evenodd"/><path d="M3476 4656C3476 4652.69 3478.69 4650 3482 4650 3485.31 4650 3488 4652.69 3488 4656 3488 4659.31 3485.31 4662 3482 4662 3478.69 4662 3476 4659.31 3476 4656Z" fill="#0041D8" fill-rule="evenodd"/><path d="M3507 4632C3507 4628.69 3509.69 4626 3513 4626 3516.31 4626 3519 4628.69 3519 4632 3519 4635.31 3516.31 4638 3513 4638 3509.69 4638 3507 4635.31 3507 4632Z" fill="#0041D8" fill-rule="evenodd"/><path d="M3538 4640.5C3538 4636.91 3540.91 4634 3544.5 4634 3548.09 4634 3551 4636.91 3551 4640.5 3551 4644.09 3548.09 4647 3544.5 4647 3540.91 4647 3538 4644.09 3538 4640.5Z" fill="#0041D8" fill-rule="evenodd"/><path d="M3570 4608.5C3570 4604.91 3572.69 4602 3576 4602 3579.31 4602 3582 4604.91 3582 4608.5 3582 4612.09 3579.31 4615 3576 4615 3572.69 4615 3570 4612.09 3570 4608.5Z" fill="#0041D8" fill-rule="evenodd"/><path d="M3601 4620C3601 4616.69 3603.69 4614 3607 4614 3610.31 4614 3613 4616.69 3613 4620 3613 4623.31 3610.31 4626 3607 4626 3603.69 4626 3601 4623.31 3601 4620Z" fill="#0041D8" fill-rule="evenodd"/><path d="M3632 4608.5C3632 4604.91 3634.91 4602 3638.5 4602 3642.09 4602 3645 4604.91 3645 4608.5 3645 4612.09 3642.09 4615 3638.5 4615 3634.91 4615 3632 4612.09 3632 4608.5Z" fill="#0041D8" fill-rule="evenodd"/><path d="M3664 4596C3664 4592.69 3666.69 4590 3670 4590 3673.31 4590 3676 4592.69 3676 4596 3676 4599.31 3673.31 4602 3670 4602 3666.69 4602 3664 4599.31 3664 4596Z" fill="#0041D8" fill-rule="evenodd"/><path d="M3695 4576.5C3695 4572.91 3697.69 4570 3701 4570 3704.31 4570 3707 4572.91 3707 4576.5 3707 4580.09 3704.31 4583 3701 4583 3697.69 4583 3695 4580.09 3695 4576.5Z" fill="#0041D8" fill-rule="evenodd"/><path d="M3726 4592C3726 4588.69 3728.91 4586 3732.5 4586 3736.09 4586 3739 4588.69 3739 4592 3739 4595.31 3736.09 4598 3732.5 4598 3728.91 4598 3726 4595.31 3726 4592Z" fill="#0041D8" fill-rule="evenodd"/><path d="M3758 4571C3758 4567.69 3760.69 4565 3764 4565 3767.31 4565 3770 4567.69 3770 4571 3770 4574.31 3767.31 4577 3764 4577 3760.69 4577 3758 4574.31 3758 4571Z" fill="#0041D8" fill-rule="evenodd"/><path d="M3789 4576.5C3789 4572.91 3791.69 4570 3795 4570 3798.31 4570 3801 4572.91 3801 4576.5 3801 4580.09 3798.31 4583 3795 4583 3791.69 4583 3789 4580.09 3789 4576.5Z" fill="#0041D8" fill-rule="evenodd"/><path d="M3820 4590C3820 4586.69 3822.91 4584 3826.5 4584 3830.09 4584 3833 4586.69 3833 4590 3833 4593.31 3830.09 4596 3826.5 4596 3822.91 4596 3820 4593.31 3820 4590Z" fill="#0041D8" fill-rule="evenodd"/><path d="M3852 4576.5C3852 4572.91 3854.69 4570 3858 4570 3861.31 4570 3864 4572.91 3864 4576.5 3864 4580.09 3861.31 4583 3858 4583 3854.69 4583 3852 4580.09 3852 4576.5Z" fill="#0041D8" fill-rule="evenodd"/><path d="M3883 4576.5C3883 4572.91 3885.69 4570 3889 4570 3892.31 4570 3895 4572.91 3895 4576.5 3895 4580.09 3892.31 4583 3889 4583 3885.69 4583 3883 4580.09 3883 4576.5Z" fill="#0041D8" fill-rule="evenodd"/><path d="M3914 4531C3914 4527.69 3916.91 4525 3920.5 4525 3924.09 4525 3927 4527.69 3927 4531 3927 4534.31 3924.09 4537 3920.5 4537 3916.91 4537 3914 4534.31 3914 4531Z" fill="#0041D8" fill-rule="evenodd"/><path d="M3946 4531C3946 4527.69 3948.69 4525 3952 4525 3955.31 4525 3958 4527.69 3958 4531 3958 4534.31 3955.31 4537 3952 4537 3948.69 4537 3946 4534.31 3946 4531Z" fill="#0041D8" fill-rule="evenodd"/><path d="M3977 4522.5C3977 4518.91 3979.69 4516 3983 4516 3986.31 4516 3989 4518.91 3989 4522.5 3989 4526.09 3986.31 4529 3983 4529 3979.69 4529 3977 4526.09 3977 4522.5Z" fill="#0041D8" fill-rule="evenodd"/><path d="M4008 4531C4008 4527.69 4010.69 4525 4014 4525 4017.31 4525 4020 4527.69 4020 4531 4020 4534.31 4017.31 4537 4014 4537 4010.69 4537 4008 4534.31 4008 4531Z" fill="#0041D8" fill-rule="evenodd"/><path d="M4039 4505C4039 4501.69 4041.91 4499 4045.5 4499 4049.09 4499 4052 4501.69 4052 4505 4052 4508.31 4049.09 4511 4045.5 4511 4041.91 4511 4039 4508.31 4039 4505Z" fill="#0041D8" fill-rule="evenodd"/><path d="M4071 4505C4071 4501.69 4073.69 4499 4077 4499 4080.31 4499 4083 4501.69 4083 4505 4083 4508.31 4080.31 4511 4077 4511 4073.69 4511 4071 4508.31 4071 4505Z" fill="#0041D8" fill-rule="evenodd"/><path d="M3350 4697C3350 4693.69 3352.91 4691 3356.5 4691 3360.09 4691 3363 4693.69 3363 4697 3363 4700.31 3360.09 4703 3356.5 4703 3352.91 4703 3350 4700.31 3350 4697Z" fill="#0041D8" fill-rule="evenodd"/><path d="M3379 4697C3379 4693.69 3381.69 4691 3385 4691 3388.31 4691 3391 4693.69 3391 4697 3391 4700.31 3388.31 4703 3385 4703 3381.69 4703 3379 4700.31 3379 4697Z" fill="#0041D8" fill-rule="evenodd"/><path d="M3413 4707C3413 4703.69 3415.69 4701 3419 4701 3422.31 4701 3425 4703.69 3425 4707 3425 4710.31 3422.31 4713 3419 4713 3415.69 4713 3413 4710.31 3413 4707Z" fill="#0041D8" fill-rule="evenodd"/><path d="M3444 4697C3444 4693.69 3446.91 4691 3450.5 4691 3454.09 4691 3457 4693.69 3457 4697 3457 4700.31 3454.09 4703 3450.5 4703 3446.91 4703 3444 4700.31 3444 4697Z" fill="#0041D8" fill-rule="evenodd"/><path d="M3476 4705C3476 4701.69 3478.69 4699 3482 4699 3485.31 4699 3488 4701.69 3488 4705 3488 4708.31 3485.31 4711 3482 4711 3478.69 4711 3476 4708.31 3476 4705Z" fill="#0041D8" fill-rule="evenodd"/><path d="M3507 4681C3507 4677.69 3509.69 4675 3513 4675 3516.31 4675 3519 4677.69 3519 4681 3519 4684.31 3516.31 4687 3513 4687 3509.69 4687 3507 4684.31 3507 4681Z" fill="#0041D8" fill-rule="evenodd"/><path d="M3538 4689.5C3538 4685.91 3540.91 4683 3544.5 4683 3548.09 4683 3551 4685.91 3551 4689.5 3551 4693.09 3548.09 4696 3544.5 4696 3540.91 4696 3538 4693.09 3538 4689.5Z" fill="#0041D8" fill-rule="evenodd"/><path d="M3570 4657.5C3570 4653.91 3572.69 4651 3576 4651 3579.31 4651 3582 4653.91 3582 4657.5 3582 4661.09 3579.31 4664 3576 4664 3572.69 4664 3570 4661.09 3570 4657.5Z" fill="#0041D8" fill-rule="evenodd"/><path d="M3601 4669C3601 4665.69 3603.69 4663 3607 4663 3610.31 4663 3613 4665.69 3613 4669 3613 4672.31 3610.31 4675 3607 4675 3603.69 4675 3601 4672.31 3601 4669Z" fill="#0041D8" fill-rule="evenodd"/><path d="M3632 4657.5C3632 4653.91 3634.91 4651 3638.5 4651 3642.09 4651 3645 4653.91 3645 4657.5 3645 4661.09 3642.09 4664 3638.5 4664 3634.91 4664 3632 4661.09 3632 4657.5Z" fill="#0041D8" fill-rule="evenodd"/><path d="M3664 4645.5C3664 4641.91 3666.69 4639 3670 4639 3673.31 4639 3676 4641.91 3676 4645.5 3676 4649.09 3673.31 4652 3670 4652 3666.69 4652 3664 4649.09 3664 4645.5Z" fill="#0041D8" fill-rule="evenodd"/><path d="M3695 4625.5C3695 4621.91 3697.69 4619 3701 4619 3704.31 4619 3707 4621.91 3707 4625.5 3707 4629.09 3704.31 4632 3701 4632 3697.69 4632 3695 4629.09 3695 4625.5Z" fill="#0041D8" fill-rule="evenodd"/><path d="M3726 4641C3726 4637.69 3728.91 4635 3732.5 4635 3736.09 4635 3739 4637.69 3739 4641 3739 4644.31 3736.09 4647 3732.5 4647 3728.91 4647 3726 4644.31 3726 4641Z" fill="#0041D8" fill-rule="evenodd"/><path d="M3758 4620C3758 4616.69 3760.69 4614 3764 4614 3767.31 4614 3770 4616.69 3770 4620 3770 4623.31 3767.31 4626 3764 4626 3760.69 4626 3758 4623.31 3758 4620Z" fill="#0041D8" fill-rule="evenodd"/><path d="M3789 4625.5C3789 4621.91 3791.69 4619 3795 4619 3798.31 4619 3801 4621.91 3801 4625.5 3801 4629.09 3798.31 4632 3795 4632 3791.69 4632 3789 4629.09 3789 4625.5Z" fill="#0041D8" fill-rule="evenodd"/><path d="M3820 4639C3820 4635.69 3822.91 4633 3826.5 4633 3830.09 4633 3833 4635.69 3833 4639 3833 4642.31 3830.09 4645 3826.5 4645 3822.91 4645 3820 4642.31 3820 4639Z" fill="#0041D8" fill-rule="evenodd"/><path d="M3852 4625.5C3852 4621.91 3854.69 4619 3858 4619 3861.31 4619 3864 4621.91 3864 4625.5 3864 4629.09 3861.31 4632 3858 4632 3854.69 4632 3852 4629.09 3852 4625.5Z" fill="#0041D8" fill-rule="evenodd"/><path d="M3883 4625.5C3883 4621.91 3885.69 4619 3889 4619 3892.31 4619 3895 4621.91 3895 4625.5 3895 4629.09 3892.31 4632 3889 4632 3885.69 4632 3883 4629.09 3883 4625.5Z" fill="#0041D8" fill-rule="evenodd"/><path d="M3914 4580C3914 4576.69 3916.91 4574 3920.5 4574 3924.09 4574 3927 4576.69 3927 4580 3927 4583.31 3924.09 4586 3920.5 4586 3916.91 4586 3914 4583.31 3914 4580Z" fill="#0041D8" fill-rule="evenodd"/><path d="M3946 4580C3946 4576.69 3948.69 4574 3952 4574 3955.31 4574 3958 4576.69 3958 4580 3958 4583.31 3955.31 4586 3952 4586 3948.69 4586 3946 4583.31 3946 4580Z" fill="#0041D8" fill-rule="evenodd"/><path d="M3977 4571.5C3977 4567.91 3979.69 4565 3983 4565 3986.31 4565 3989 4567.91 3989 4571.5 3989 4575.09 3986.31 4578 3983 4578 3979.69 4578 3977 4575.09 3977 4571.5Z" fill="#0041D8" fill-rule="evenodd"/><path d="M4008 4580C4008 4576.69 4010.69 4574 4014 4574 4017.31 4574 4020 4576.69 4020 4580 4020 4583.31 4017.31 4586 4014 4586 4010.69 4586 4008 4583.31 4008 4580Z" fill="#0041D8" fill-rule="evenodd"/><path d="M4039 4554C4039 4550.69 4041.91 4548 4045.5 4548 4049.09 4548 4052 4550.69 4052 4554 4052 4557.31 4049.09 4560 4045.5 4560 4041.91 4560 4039 4557.31 4039 4554Z" fill="#0041D8" fill-rule="evenodd"/><path d="M4071 4554C4071 4550.69 4073.69 4548 4077 4548 4080.31 4548 4083 4550.69 4083 4554 4083 4557.31 4080.31 4560 4077 4560 4073.69 4560 4071 4557.31 4071 4554Z" fill="#0041D8" fill-rule="evenodd"/><path d="M3350 4730C3350 4726.69 3352.91 4724 3356.5 4724 3360.09 4724 3363 4726.69 3363 4730 3363 4733.31 3360.09 4736 3356.5 4736 3352.91 4736 3350 4733.31 3350 4730Z" fill="#0041D8" fill-rule="evenodd"/><path d="M3379 4730C3379 4726.69 3381.69 4724 3385 4724 3388.31 4724 3391 4726.69 3391 4730 3391 4733.31 3388.31 4736 3385 4736 3381.69 4736 3379 4733.31 3379 4730Z" fill="#0041D8" fill-rule="evenodd"/><path d="M3413 4740C3413 4736.69 3415.69 4734 3419 4734 3422.31 4734 3425 4736.69 3425 4740 3425 4743.31 3422.31 4746 3419 4746 3415.69 4746 3413 4743.31 3413 4740Z" fill="#0041D8" fill-rule="evenodd"/><path d="M3444 4730C3444 4726.69 3446.91 4724 3450.5 4724 3454.09 4724 3457 4726.69 3457 4730 3457 4733.31 3454.09 4736 3450.5 4736 3446.91 4736 3444 4733.31 3444 4730Z" fill="#0041D8" fill-rule="evenodd"/><path d="M3476 4738C3476 4734.69 3478.69 4732 3482 4732 3485.31 4732 3488 4734.69 3488 4738 3488 4741.31 3485.31 4744 3482 4744 3478.69 4744 3476 4741.31 3476 4738Z" fill="#0041D8" fill-rule="evenodd"/><path d="M3507 4713.5C3507 4709.91 3509.69 4707 3513 4707 3516.31 4707 3519 4709.91 3519 4713.5 3519 4717.09 3516.31 4720 3513 4720 3509.69 4720 3507 4717.09 3507 4713.5Z" fill="#0041D8" fill-rule="evenodd"/><path d="M3538 4722C3538 4718.69 3540.91 4716 3544.5 4716 3548.09 4716 3551 4718.69 3551 4722 3551 4725.31 3548.09 4728 3544.5 4728 3540.91 4728 3538 4725.31 3538 4722Z" fill="#0041D8" fill-rule="evenodd"/><path d="M3570 4690C3570 4686.69 3572.69 4684 3576 4684 3579.31 4684 3582 4686.69 3582 4690 3582 4693.31 3579.31 4696 3576 4696 3572.69 4696 3570 4693.31 3570 4690Z" fill="#0041D8" fill-rule="evenodd"/><path d="M3601 4701.5C3601 4697.91 3603.69 4695 3607 4695 3610.31 4695 3613 4697.91 3613 4701.5 3613 4705.09 3610.31 4708 3607 4708 3603.69 4708 3601 4705.09 3601 4701.5Z" fill="#0041D8" fill-rule="evenodd"/><path d="M3632 4690C3632 4686.69 3634.91 4684 3638.5 4684 3642.09 4684 3645 4686.69 3645 4690 3645 4693.31 3642.09 4696 3638.5 4696 3634.91 4696 3632 4693.31 3632 4690Z" fill="#0041D8" fill-rule="evenodd"/><path d="M3664 4678C3664 4674.69 3666.69 4672 3670 4672 3673.31 4672 3676 4674.69 3676 4678 3676 4681.31 3673.31 4684 3670 4684 3666.69 4684 3664 4681.31 3664 4678Z" fill="#0041D8" fill-rule="evenodd"/><path d="M3695 4658C3695 4654.69 3697.69 4652 3701 4652 3704.31 4652 3707 4654.69 3707 4658 3707 4661.31 3704.31 4664 3701 4664 3697.69 4664 3695 4661.31 3695 4658Z" fill="#0041D8" fill-rule="evenodd"/><path d="M3726 4674C3726 4670.69 3728.91 4668 3732.5 4668 3736.09 4668 3739 4670.69 3739 4674 3739 4677.31 3736.09 4680 3732.5 4680 3728.91 4680 3726 4677.31 3726 4674Z" fill="#0041D8" fill-rule="evenodd"/><path d="M3758 4653C3758 4649.69 3760.69 4647 3764 4647 3767.31 4647 3770 4649.69 3770 4653 3770 4656.31 3767.31 4659 3764 4659 3760.69 4659 3758 4656.31 3758 4653Z" fill="#0041D8" fill-rule="evenodd"/><path d="M3789 4658C3789 4654.69 3791.69 4652 3795 4652 3798.31 4652 3801 4654.69 3801 4658 3801 4661.31 3798.31 4664 3795 4664 3791.69 4664 3789 4661.31 3789 4658Z" fill="#0041D8" fill-rule="evenodd"/><path d="M3820 4672C3820 4668.69 3822.91 4666 3826.5 4666 3830.09 4666 3833 4668.69 3833 4672 3833 4675.31 3830.09 4678 3826.5 4678 3822.91 4678 3820 4675.31 3820 4672Z" fill="#0041D8" fill-rule="evenodd"/><path d="M3852 4658C3852 4654.69 3854.69 4652 3858 4652 3861.31 4652 3864 4654.69 3864 4658 3864 4661.31 3861.31 4664 3858 4664 3854.69 4664 3852 4661.31 3852 4658Z" fill="#0041D8" fill-rule="evenodd"/><path d="M3883 4658C3883 4654.69 3885.69 4652 3889 4652 3892.31 4652 3895 4654.69 3895 4658 3895 4661.31 3892.31 4664 3889 4664 3885.69 4664 3883 4661.31 3883 4658Z" fill="#0041D8" fill-rule="evenodd"/><path d="M3914 4613C3914 4609.69 3916.91 4607 3920.5 4607 3924.09 4607 3927 4609.69 3927 4613 3927 4616.31 3924.09 4619 3920.5 4619 3916.91 4619 3914 4616.31 3914 4613Z" fill="#0041D8" fill-rule="evenodd"/><path d="M3946 4613C3946 4609.69 3948.69 4607 3952 4607 3955.31 4607 3958 4609.69 3958 4613 3958 4616.31 3955.31 4619 3952 4619 3948.69 4619 3946 4616.31 3946 4613Z" fill="#0041D8" fill-rule="evenodd"/><path d="M3977 4604C3977 4600.69 3979.69 4598 3983 4598 3986.31 4598 3989 4600.69 3989 4604 3989 4607.31 3986.31 4610 3983 4610 3979.69 4610 3977 4607.31 3977 4604Z" fill="#0041D8" fill-rule="evenodd"/><path d="M4008 4613C4008 4609.69 4010.69 4607 4014 4607 4017.31 4607 4020 4609.69 4020 4613 4020 4616.31 4017.31 4619 4014 4619 4010.69 4619 4008 4616.31 4008 4613Z" fill="#0041D8" fill-rule="evenodd"/><path d="M4039 4587C4039 4583.69 4041.91 4581 4045.5 4581 4049.09 4581 4052 4583.69 4052 4587 4052 4590.31 4049.09 4593 4045.5 4593 4041.91 4593 4039 4590.31 4039 4587Z" fill="#0041D8" fill-rule="evenodd"/><path d="M4071 4587C4071 4583.69 4073.69 4581 4077 4581 4080.31 4581 4083 4583.69 4083 4587 4083 4590.31 4080.31 4593 4077 4593 4073.69 4593 4071 4590.31 4071 4587Z" fill="#0041D8" fill-rule="evenodd"/><path d="M3271.5 4280.02C3271.5 4273.1 3277.1 4267.5 3284.02 4267.5L3284.02 4267.5C3290.93 4267.5 3296.53 4273.1 3296.53 4280.02L3296.53 4813.99C3296.53 4820.9 3290.93 4826.5 3284.01 4826.5L3284.02 4826.5C3277.1 4826.5 3271.5 4820.9 3271.5 4813.98Z" stroke="#0F1B37" stroke-width="4.58333" stroke-linejoin="round" stroke-miterlimit="10" fill="url(#fill1)" fill-rule="evenodd"/><path d="M3317.5 4826.5 4095.38 4826.5" stroke="#000000" stroke-width="6.875" stroke-linejoin="round" stroke-miterlimit="10" fill="none" fill-rule="evenodd"/><path d="M0 0 0.000360892 23.7716" stroke="#000000" stroke-width="6.875" stroke-linejoin="round" stroke-miterlimit="10" fill="none" fill-rule="evenodd" transform="matrix(1 0 0 -1 3334.5 4838.27)"/><path d="M0 0 0.000360892 23.7716" stroke="#000000" stroke-width="6.875" stroke-linejoin="round" stroke-miterlimit="10" fill="none" fill-rule="evenodd" transform="matrix(1 0 0 -1 3388.5 4838.27)"/><path d="M0 0 0.000360892 23.7716" stroke="#000000" stroke-width="6.875" stroke-linejoin="round" stroke-miterlimit="10" fill="none" fill-rule="evenodd" transform="matrix(1 0 0 -1 3443.5 4838.27)"/><path d="M0 0 0.000360892 23.7716" stroke="#000000" stroke-width="6.875" stroke-linejoin="round" stroke-miterlimit="10" fill="none" fill-rule="evenodd" transform="matrix(1 0 0 -1 3497.5 4838.27)"/><path d="M0 0 0.000360892 23.7716" stroke="#000000" stroke-width="6.875" stroke-linejoin="round" stroke-miterlimit="10" fill="none" fill-rule="evenodd" transform="matrix(1 0 0 -1 3551.5 4838.27)"/><path d="M0 0 0.000360892 23.7716" stroke="#000000" stroke-width="6.875" stroke-linejoin="round" stroke-miterlimit="10" fill="none" fill-rule="evenodd" transform="matrix(1 0 0 -1 3605.5 4838.27)"/><path d="M0 0 0.000360892 23.7716" stroke="#000000" stroke-width="6.875" stroke-linejoin="round" stroke-miterlimit="10" fill="none" fill-rule="evenodd" transform="matrix(1 0 0 -1 3659.5 4838.27)"/><path d="M0 0 0.000360892 23.7716" stroke="#000000" stroke-width="6.875" stroke-linejoin="round" stroke-miterlimit="10" fill="none" fill-rule="evenodd" transform="matrix(1 0 0 -1 3713.5 4838.27)"/><path d="M0 0 0.000360892 23.7716" stroke="#000000" stroke-width="6.875" stroke-linejoin="round" stroke-miterlimit="10" fill="none" fill-rule="evenodd" transform="matrix(1 0 0 -1 3768.5 4838.27)"/><path d="M0 0 0.000360892 23.7716" stroke="#000000" stroke-width="6.875" stroke-linejoin="round" stroke-miterlimit="10" fill="none" fill-rule="evenodd" transform="matrix(1 0 0 -1 3822.5 4838.27)"/><path d="M0 0 0.000360892 23.7716" stroke="#000000" stroke-width="6.875" stroke-linejoin="round" stroke-miterlimit="10" fill="none" fill-rule="evenodd" transform="matrix(1 0 0 -1 3876.5 4838.27)"/><path d="M0 0 0.000360892 23.7716" stroke="#000000" stroke-width="6.875" stroke-linejoin="round" stroke-miterlimit="10" fill="none" fill-rule="evenodd" transform="matrix(1 0 0 -1 3930.5 4838.27)"/><path d="M0 0 0.000360892 23.7716" stroke="#000000" stroke-width="6.875" stroke-linejoin="round" stroke-miterlimit="10" fill="none" fill-rule="evenodd" transform="matrix(1 0 0 -1 3984.5 4838.27)"/><path d="M0 0 0.000360892 23.7716" stroke="#000000" stroke-width="6.875" stroke-linejoin="round" stroke-miterlimit="10" fill="none" fill-rule="evenodd" transform="matrix(1 0 0 -1 4038.5 4838.27)"/><path d="M0 0 0.000360892 23.7716" stroke="#000000" stroke-width="6.875" stroke-linejoin="round" stroke-miterlimit="10" fill="none" fill-rule="evenodd" transform="matrix(1 0 0 -1 4093.5 4838.27)"/></g></svg>