<?xml version="1.0" encoding="UTF-8" standalone="no"?>
<svg
   width="830.71405"
   height="578.94055"
   xml:space="preserve"
   overflow="hidden"
   version="1.1"
   id="svg167"
   sodipodi:docname="24.svg"
   inkscape:version="1.3.2 (091e20e, 2023-11-25, custom)"
   xmlns:inkscape="http://www.inkscape.org/namespaces/inkscape"
   xmlns:sodipodi="http://sodipodi.sourceforge.net/DTD/sodipodi-0.dtd"
   xmlns="http://www.w3.org/2000/svg"
   xmlns:svg="http://www.w3.org/2000/svg"><sodipodi:namedview
     id="namedview167"
     pagecolor="#ffffff"
     bordercolor="#666666"
     borderopacity="1.0"
     inkscape:showpageshadow="2"
     inkscape:pageopacity="0.0"
     inkscape:pagecheckerboard="0"
     inkscape:deskcolor="#d1d1d1"
     inkscape:zoom="14.431445"
     inkscape:cx="794.51502"
     inkscape:cy="546.20309"
     inkscape:window-width="1920"
     inkscape:window-height="1051"
     inkscape:window-x="-9"
     inkscape:window-y="-9"
     inkscape:window-maximized="1"
     inkscape:current-layer="svg167" /><defs
     id="defs6"><linearGradient
       x1="4239"
       y1="4415.5"
       x2="4239"
       y2="4975.5"
       gradientUnits="userSpaceOnUse"
       spreadMethod="reflect"
       id="fill0"
       gradientTransform="translate(-4224.2083,-4413.2083)"><stop
         offset="0"
         stop-color="#00B050"
         id="stop1" /><stop
         offset="0.5"
         stop-color="#FFFF00"
         id="stop2" /><stop
         offset="1"
         stop-color="#FF0000"
         id="stop3" /></linearGradient><linearGradient
       x1="4240"
       y1="4415.5"
       x2="4240"
       y2="4975.5"
       gradientUnits="userSpaceOnUse"
       spreadMethod="reflect"
       id="fill1"
       gradientTransform="translate(-4224.2083,-4413.2083)"><stop
         offset="0"
         stop-color="#00B050"
         id="stop4" /><stop
         offset="0.5"
         stop-color="#FFFF00"
         id="stop5" /><stop
         offset="1"
         stop-color="#FF0000"
         id="stop6" /></linearGradient></defs><path
     d="m 2.2916651,14.791665 c 0,-6.8999999 5.6,-12.4999999 12.4999999,-12.4999999 v 0 c 6.9,0 12.5,5.6 12.5,12.4999999 V 549.79167 c 0,6.9 -5.6,12.5 -12.5,12.5 v 0 c -6.8999999,0 -12.4999999,-5.6 -12.4999999,-12.5 z"
     stroke="#0f1b37"
     stroke-width="4.58333"
     stroke-linejoin="round"
     stroke-miterlimit="10"
     fill="url(#fill0)"
     fill-rule="evenodd"
     id="path6"
     style="fill:url(#fill0)" /><path
     d="m 814.79167,52.291515 c 0,-3.58977 -2.6863,-6.49985 -6.00002,-6.49985 -3.31371,0 -5.99998,2.91008 -5.99998,6.49985 0,3.58975 2.68627,6.49985 5.99998,6.49985 3.31372,0 6.00002,-2.9101 6.00002,-6.49985 z"
     fill="#3b7d23"
     fill-rule="evenodd"
     id="path7" /><path
     d="m 785.79167,52.291515 c 0,-3.58977 -2.6863,-6.49985 -6.00002,-6.49985 -3.31371,0 -5.99998,2.91008 -5.99998,6.49985 0,3.58975 2.68627,6.49985 5.99998,6.49985 3.31372,0 6.00002,-2.9101 6.00002,-6.49985 z"
     fill="#3b7d23"
     fill-rule="evenodd"
     id="path8" /><path
     d="m 751.79167,59.791685 c 0,-3.31372 -2.6863,-6.00002 -6.00002,-6.00002 -3.31371,0 -5.99998,2.6863 -5.99998,6.00002 0,3.31371 2.68627,5.99998 5.99998,5.99998 3.31372,0 6.00002,-2.68627 6.00002,-5.99998 z"
     fill="#3b7d23"
     fill-rule="evenodd"
     id="path9" /><path
     d="m 720.79167,52.291515 c 0,-3.58977 -2.68622,-6.49985 -5.99984,-6.49985 -3.31361,0 -5.99986,2.91008 -5.99986,6.49985 0,3.58975 2.68625,6.49985 5.99986,6.49985 3.31362,0 5.99984,-2.9101 5.99984,-6.49985 z"
     fill="#3b7d23"
     fill-rule="evenodd"
     id="path10" /><path
     d="m 689.79167,60.791685 c 0,-3.31372 -2.91016,-6.00002 -6.50003,-6.00002 -3.58987,0 -6.50007,2.6863 -6.50007,6.00002 0,3.31371 2.9102,5.99998 6.50007,5.99998 3.58987,0 6.50003,-2.68627 6.50003,-5.99998 z"
     fill="#3b7d23"
     fill-rule="evenodd"
     id="path11" /><path
     d="m 657.79167,78.791685 c 0,-3.31372 -2.6863,-6.00002 -6.00002,-6.00002 -3.31371,0 -5.99998,2.6863 -5.99998,6.00002 0,3.31371 2.68627,5.99998 5.99998,5.99998 3.31372,0 6.00002,-2.68627 6.00002,-5.99998 z"
     fill="#3b7d23"
     fill-rule="evenodd"
     id="path12" /><path
     d="m 626.79167,81.791685 c 0,-3.31372 -2.6863,-6.00002 -6.00002,-6.00002 -3.31371,0 -5.99998,2.6863 -5.99998,6.00002 0,3.31371 2.68627,5.99998 5.99998,5.99998 3.31372,0 6.00002,-2.68627 6.00002,-5.99998 z"
     fill="#3b7d23"
     fill-rule="evenodd"
     id="path13" /><path
     d="m 595.79167,106.79169 c 0,-3.31372 -2.91016,-6.00002 -6.50003,-6.00002 -3.58987,0 -6.50007,2.6863 -6.50007,6.00002 0,3.31371 2.9102,5.99998 6.50007,5.99998 3.58987,0 6.50003,-2.68627 6.50003,-5.99998 z"
     fill="#3b7d23"
     fill-rule="evenodd"
     id="path14" /><path
     d="m 563.79167,110.79169 c 0,-3.31372 -2.6863,-6.00002 -6.00002,-6.00002 -3.31371,0 -5.99998,2.6863 -5.99998,6.00002 0,3.31371 2.68627,5.99998 5.99998,5.99998 3.31372,0 6.00002,-2.68627 6.00002,-5.99998 z"
     fill="#3b7d23"
     fill-rule="evenodd"
     id="path15" /><path
     d="m 532.79167,106.79169 c 0,-3.31372 -2.6863,-6.00002 -6.00002,-6.00002 -3.31371,0 -5.99998,2.6863 -5.99998,6.00002 0,3.31371 2.68627,5.99998 5.99998,5.99998 3.31372,0 6.00002,-2.68627 6.00002,-5.99998 z"
     fill="#3b7d23"
     fill-rule="evenodd"
     id="path16" /><path
     d="m 501.79167,113.79169 c 0,-3.31372 -2.91008,-6.00002 -6.49985,-6.00002 -3.58975,0 -6.49985,2.6863 -6.49985,6.00002 0,3.31371 2.9101,5.99998 6.49985,5.99998 3.58977,0 6.49985,-2.68627 6.49985,-5.99998 z"
     fill="#3b7d23"
     fill-rule="evenodd"
     id="path17" /><path
     d="m 469.79167,125.79169 c 0,-3.31372 -2.6863,-6.00002 -6.00002,-6.00002 -3.31371,0 -5.99998,2.6863 -5.99998,6.00002 0,3.31371 2.68627,5.99998 5.99998,5.99998 3.31372,0 6.00002,-2.68627 6.00002,-5.99998 z"
     fill="#3b7d23"
     fill-rule="evenodd"
     id="path18" /><path
     d="m 438.79167,121.79169 c 0,-3.31372 -2.6863,-6.00002 -6.00002,-6.00002 -3.31371,0 -5.99998,2.6863 -5.99998,6.00002 0,3.31371 2.68627,5.99998 5.99998,5.99998 3.31372,0 6.00002,-2.68627 6.00002,-5.99998 z"
     fill="#3b7d23"
     fill-rule="evenodd"
     id="path19" /><path
     d="m 407.79167,128.2917 c 0,-3.58987 -2.91016,-6.50003 -6.50003,-6.50003 -3.58987,0 -6.50007,2.91016 -6.50007,6.50003 0,3.58987 2.9102,6.50007 6.50007,6.50007 3.58987,0 6.50003,-2.9102 6.50003,-6.50007 z"
     fill="#3b7d23"
     fill-rule="evenodd"
     id="path20" /><path
     d="m 375.79167,136.79169 c 0,-3.31372 -2.6863,-6.00002 -6.00002,-6.00002 -3.31371,0 -5.99998,2.6863 -5.99998,6.00002 0,3.31371 2.68627,5.99998 5.99998,5.99998 3.31372,0 6.00002,-2.68627 6.00002,-5.99998 z"
     fill="#3b7d23"
     fill-rule="evenodd"
     id="path21" /><path
     d="m 344.79167,122.79169 c 0,-3.31372 -2.6863,-6.00002 -6.00002,-6.00002 -3.31371,0 -5.99998,2.6863 -5.99998,6.00002 0,3.31371 2.68627,5.99998 5.99998,5.99998 3.31372,0 6.00002,-2.68627 6.00002,-5.99998 z"
     fill="#3b7d23"
     fill-rule="evenodd"
     id="path22" /><path
     d="m 313.79167,119.79169 c 0,-3.31372 -2.91008,-6.00002 -6.49985,-6.00002 -3.58975,0 -6.49985,2.6863 -6.49985,6.00002 0,3.31371 2.9101,5.99998 6.49985,5.99998 3.58977,0 6.49985,-2.68627 6.49985,-5.99998 z"
     fill="#3b7d23"
     fill-rule="evenodd"
     id="path23" /><path
     d="m 281.79167,131.2917 c 0,-3.58987 -2.6863,-6.50003 -6.00002,-6.50003 -3.31371,0 -5.99998,2.91016 -5.99998,6.50003 0,3.58987 2.68627,6.50007 5.99998,6.50007 3.31372,0 6.00002,-2.9102 6.00002,-6.50007 z"
     fill="#3b7d23"
     fill-rule="evenodd"
     id="path24" /><path
     d="m 250.79167,120.79169 c 0,-3.31372 -2.6863,-6.00002 -6.00002,-6.00002 -3.31371,0 -5.99998,2.6863 -5.99998,6.00002 0,3.31371 2.68627,5.99998 5.99998,5.99998 3.31372,0 6.00002,-2.68627 6.00002,-5.99998 z"
     fill="#3b7d23"
     fill-rule="evenodd"
     id="path25" /><path
     d="m 219.79167,141.79169 c 0,-3.31372 -2.91016,-6.00002 -6.50003,-6.00002 -3.58987,0 -6.50007,2.6863 -6.50007,6.00002 0,3.31371 2.9102,5.99998 6.50007,5.99998 3.58987,0 6.50003,-2.68627 6.50003,-5.99998 z"
     fill="#3b7d23"
     fill-rule="evenodd"
     id="path26" /><path
     d="m 188.79167,131.79169 c 0,-3.31372 -2.91016,-6.00002 -6.50003,-6.00002 -3.58987,0 -6.50007,2.6863 -6.50007,6.00002 0,3.31371 2.9102,5.99998 6.50007,5.99998 3.58987,0 6.50003,-2.68627 6.50003,-5.99998 z"
     fill="#3b7d23"
     fill-rule="evenodd"
     id="path27" /><path
     d="m 156.79167,121.2917 c 0,-3.58987 -2.6863,-6.50003 -6.00002,-6.50003 -3.31371,0 -5.99998,2.91016 -5.99998,6.50003 0,3.58987 2.68627,6.50007 5.99998,6.50007 3.31372,0 6.00002,-2.9102 6.00002,-6.50007 z"
     fill="#3b7d23"
     fill-rule="evenodd"
     id="path28" /><path
     d="m 125.79167,127.2917 c 0,-3.58987 -2.6863,-6.50003 -6.00002,-6.50003 -3.31371,0 -5.99998,2.91016 -5.99998,6.50003 0,3.58987 2.68627,6.50007 5.99998,6.50007 3.31372,0 6.00002,-2.9102 6.00002,-6.50007 z"
     fill="#3b7d23"
     fill-rule="evenodd"
     id="path29" /><path
     d="m 94.791665,121.2917 c 0,-3.58987 -2.91008,-6.50003 -6.49985,-6.50003 -3.58975,0 -6.49985,2.91016 -6.49985,6.50003 0,3.58987 2.9101,6.50007 6.49985,6.50007 3.58977,0 6.49985,-2.9102 6.49985,-6.50007 z"
     fill="#3b7d23"
     fill-rule="evenodd"
     id="path30" /><path
     d="m 814.79167,138.79169 c 0,-3.31372 -2.6863,-6.00002 -6.00002,-6.00002 -3.31371,0 -5.99998,2.6863 -5.99998,6.00002 0,3.31371 2.68627,5.99998 5.99998,5.99998 3.31372,0 6.00002,-2.68627 6.00002,-5.99998 z"
     fill="#3b7d23"
     fill-rule="evenodd"
     id="path31" /><path
     d="m 785.79167,147.79169 c 0,-3.31372 -2.6863,-6.00002 -6.00002,-6.00002 -3.31371,0 -5.99998,2.6863 -5.99998,6.00002 0,3.31371 2.68627,5.99998 5.99998,5.99998 3.31372,0 6.00002,-2.68627 6.00002,-5.99998 z"
     fill="#3b7d23"
     fill-rule="evenodd"
     id="path32" /><path
     d="m 751.79167,140.29152 c 0,-3.58977 -2.6863,-6.49985 -6.00002,-6.49985 -3.31371,0 -5.99998,2.91008 -5.99998,6.49985 0,3.58975 2.68627,6.49985 5.99998,6.49985 3.31372,0 6.00002,-2.9101 6.00002,-6.49985 z"
     fill="#3b7d23"
     fill-rule="evenodd"
     id="path33" /><path
     d="m 720.79167,133.2917 c 0,-3.58987 -2.68622,-6.50003 -5.99984,-6.50003 -3.31361,0 -5.99986,2.91016 -5.99986,6.50003 0,3.58987 2.68625,6.50007 5.99986,6.50007 3.31362,0 5.99984,-2.9102 5.99984,-6.50007 z"
     fill="#3b7d23"
     fill-rule="evenodd"
     id="path34" /><path
     d="m 689.79167,129.79151 c 0,-3.31362 -2.91016,-5.99984 -6.50003,-5.99984 -3.58987,0 -6.50007,2.68622 -6.50007,5.99984 0,3.31361 2.9102,5.99986 6.50007,5.99986 3.58987,0 6.50003,-2.68625 6.50003,-5.99986 z"
     fill="#3b7d23"
     fill-rule="evenodd"
     id="path35" /><path
     d="m 657.79167,141.29152 c 0,-3.58977 -2.6863,-6.49985 -6.00002,-6.49985 -3.31371,0 -5.99998,2.91008 -5.99998,6.49985 0,3.58975 2.68627,6.49985 5.99998,6.49985 3.31372,0 6.00002,-2.9101 6.00002,-6.49985 z"
     fill="#3b7d23"
     fill-rule="evenodd"
     id="path36" /><path
     d="m 626.79167,143.79169 c 0,-3.31372 -2.6863,-6.00002 -6.00002,-6.00002 -3.31371,0 -5.99998,2.6863 -5.99998,6.00002 0,3.31371 2.68627,5.99998 5.99998,5.99998 3.31372,0 6.00002,-2.68627 6.00002,-5.99998 z"
     fill="#3b7d23"
     fill-rule="evenodd"
     id="path37" /><path
     d="m 595.79167,144.79169 c 0,-3.31372 -2.91016,-6.00002 -6.50003,-6.00002 -3.58987,0 -6.50007,2.6863 -6.50007,6.00002 0,3.31371 2.9102,5.99998 6.50007,5.99998 3.58987,0 6.50003,-2.68627 6.50003,-5.99998 z"
     fill="#3b7d23"
     fill-rule="evenodd"
     id="path38" /><path
     d="m 563.79167,148.79169 c 0,-3.31372 -2.6863,-6.00002 -6.00002,-6.00002 -3.31371,0 -5.99998,2.6863 -5.99998,6.00002 0,3.31371 2.68627,5.99998 5.99998,5.99998 3.31372,0 6.00002,-2.68627 6.00002,-5.99998 z"
     fill="#3b7d23"
     fill-rule="evenodd"
     id="path39" /><path
     d="m 532.79167,144.79169 c 0,-3.31372 -2.6863,-6.00002 -6.00002,-6.00002 -3.31371,0 -5.99998,2.6863 -5.99998,6.00002 0,3.31371 2.68627,5.99998 5.99998,5.99998 3.31372,0 6.00002,-2.68627 6.00002,-5.99998 z"
     fill="#3b7d23"
     fill-rule="evenodd"
     id="path40" /><path
     d="m 501.79167,176.79169 c 0,-3.31372 -2.91008,-6.00002 -6.49985,-6.00002 -3.58975,0 -6.49985,2.6863 -6.49985,6.00002 0,3.31371 2.9101,5.99998 6.49985,5.99998 3.58977,0 6.49985,-2.68627 6.49985,-5.99998 z"
     fill="#3b7d23"
     fill-rule="evenodd"
     id="path41" /><path
     d="m 469.79167,188.79169 c 0,-3.31372 -2.6863,-6.00002 -6.00002,-6.00002 -3.31371,0 -5.99998,2.6863 -5.99998,6.00002 0,3.31371 2.68627,5.99998 5.99998,5.99998 3.31372,0 6.00002,-2.68627 6.00002,-5.99998 z"
     fill="#3b7d23"
     fill-rule="evenodd"
     id="path42" /><path
     d="m 438.79167,165.79169 c 0,-3.31372 -2.6863,-6.00002 -6.00002,-6.00002 -3.31371,0 -5.99998,2.6863 -5.99998,6.00002 0,3.31371 2.68627,5.99998 5.99998,5.99998 3.31372,0 6.00002,-2.68627 6.00002,-5.99998 z"
     fill="#3b7d23"
     fill-rule="evenodd"
     id="path43" /><path
     d="m 407.79167,172.79169 c 0,-3.31372 -2.91016,-6.00002 -6.50003,-6.00002 -3.58987,0 -6.50007,2.6863 -6.50007,6.00002 0,3.31371 2.9102,5.99998 6.50007,5.99998 3.58987,0 6.50003,-2.68627 6.50003,-5.99998 z"
     fill="#3b7d23"
     fill-rule="evenodd"
     id="path44" /><path
     d="m 375.79167,181.79169 c 0,-3.31372 -2.6863,-6.00002 -6.00002,-6.00002 -3.31371,0 -5.99998,2.6863 -5.99998,6.00002 0,3.31371 2.68627,5.99998 5.99998,5.99998 3.31372,0 6.00002,-2.68627 6.00002,-5.99998 z"
     fill="#3b7d23"
     fill-rule="evenodd"
     id="path45" /><path
     d="m 344.79167,159.79169 c 0,-3.31372 -2.6863,-6.00002 -6.00002,-6.00002 -3.31371,0 -5.99998,2.6863 -5.99998,6.00002 0,3.31371 2.68627,5.99998 5.99998,5.99998 3.31372,0 6.00002,-2.68627 6.00002,-5.99998 z"
     fill="#3b7d23"
     fill-rule="evenodd"
     id="path46" /><path
     d="m 313.79167,150.2917 c 0,-3.58987 -2.91008,-6.50003 -6.49985,-6.50003 -3.58975,0 -6.49985,2.91016 -6.49985,6.50003 0,3.58987 2.9101,6.50007 6.49985,6.50007 3.58977,0 6.49985,-2.9102 6.49985,-6.50007 z"
     fill="#3b7d23"
     fill-rule="evenodd"
     id="path47" /><path
     d="m 281.79167,169.2917 c 0,-3.58987 -2.6863,-6.50003 -6.00002,-6.50003 -3.31371,0 -5.99998,2.91016 -5.99998,6.50003 0,3.58987 2.68627,6.50007 5.99998,6.50007 3.31372,0 6.00002,-2.9102 6.00002,-6.50007 z"
     fill="#3b7d23"
     fill-rule="evenodd"
     id="path48" /><path
     d="m 250.79167,158.79169 c 0,-3.31372 -2.6863,-6.00002 -6.00002,-6.00002 -3.31371,0 -5.99998,2.6863 -5.99998,6.00002 0,3.31371 2.68627,5.99998 5.99998,5.99998 3.31372,0 6.00002,-2.68627 6.00002,-5.99998 z"
     fill="#3b7d23"
     fill-rule="evenodd"
     id="path49" /><path
     d="m 219.79167,179.79169 c 0,-3.31372 -2.91016,-6.00002 -6.50003,-6.00002 -3.58987,0 -6.50007,2.6863 -6.50007,6.00002 0,3.31371 2.9102,5.99998 6.50007,5.99998 3.58987,0 6.50003,-2.68627 6.50003,-5.99998 z"
     fill="#3b7d23"
     fill-rule="evenodd"
     id="path50" /><path
     d="m 188.79167,169.79169 c 0,-3.31372 -2.91016,-6.00002 -6.50003,-6.00002 -3.58987,0 -6.50007,2.6863 -6.50007,6.00002 0,3.31371 2.9102,5.99998 6.50007,5.99998 3.58987,0 6.50003,-2.68627 6.50003,-5.99998 z"
     fill="#3b7d23"
     fill-rule="evenodd"
     id="path51" /><path
     d="m 156.79167,158.79169 c 0,-3.31372 -2.6863,-6.00002 -6.00002,-6.00002 -3.31371,0 -5.99998,2.6863 -5.99998,6.00002 0,3.31371 2.68627,5.99998 5.99998,5.99998 3.31372,0 6.00002,-2.68627 6.00002,-5.99998 z"
     fill="#3b7d23"
     fill-rule="evenodd"
     id="path52" /><path
     d="m 125.79167,165.2917 c 0,-3.58987 -2.6863,-6.50003 -6.00002,-6.50003 -3.31371,0 -5.99998,2.91016 -5.99998,6.50003 0,3.58987 2.68627,6.50007 5.99998,6.50007 3.31372,0 6.00002,-2.9102 6.00002,-6.50007 z"
     fill="#3b7d23"
     fill-rule="evenodd"
     id="path53" /><path
     d="m 94.791665,158.79169 c 0,-3.31372 -2.91008,-6.00002 -6.49985,-6.00002 -3.58975,0 -6.49985,2.6863 -6.49985,6.00002 0,3.31371 2.9101,5.99998 6.49985,5.99998 3.58977,0 6.49985,-2.68627 6.49985,-5.99998 z"
     fill="#3b7d23"
     fill-rule="evenodd"
     id="path54" /><path
     d="m 813.79167,236.79169 c 0,-3.31372 -2.6863,-6.00002 -6.00002,-6.00002 -3.31371,0 -5.99998,2.6863 -5.99998,6.00002 0,3.31371 2.68627,5.99998 5.99998,5.99998 3.31372,0 6.00002,-2.68627 6.00002,-5.99998 z"
     fill="#3b7d23"
     fill-rule="evenodd"
     id="path55" /><path
     d="m 785.79167,248.79169 c 0,-3.31372 -2.6863,-6.00002 -6.00002,-6.00002 -3.31371,0 -5.99998,2.6863 -5.99998,6.00002 0,3.31371 2.68627,5.99998 5.99998,5.99998 3.31372,0 6.00002,-2.68627 6.00002,-5.99998 z"
     fill="#3b7d23"
     fill-rule="evenodd"
     id="path56" /><path
     d="m 751.79167,238.79169 c 0,-3.31372 -2.6863,-6.00002 -6.00002,-6.00002 -3.31371,0 -5.99998,2.6863 -5.99998,6.00002 0,3.31371 2.68627,5.99998 5.99998,5.99998 3.31372,0 6.00002,-2.68627 6.00002,-5.99998 z"
     fill="#3b7d23"
     fill-rule="evenodd"
     id="path57" /><path
     d="m 720.79167,230.79169 c 0,-3.31372 -2.68622,-6.00002 -5.99984,-6.00002 -3.31361,0 -5.99986,2.6863 -5.99986,6.00002 0,3.31371 2.68625,5.99998 5.99986,5.99998 3.31362,0 5.99984,-2.68627 5.99984,-5.99998 z"
     fill="#3b7d23"
     fill-rule="evenodd"
     id="path58" /><path
     d="m 689.79167,215.2917 c 0,-3.58987 -2.91016,-6.50003 -6.50003,-6.50003 -3.58987,0 -6.50007,2.91016 -6.50007,6.50003 0,3.58987 2.9102,6.50007 6.50007,6.50007 3.58987,0 6.50003,-2.9102 6.50003,-6.50007 z"
     fill="#3b7d23"
     fill-rule="evenodd"
     id="path59" /><path
     d="m 657.79167,226.79169 c 0,-3.31372 -2.6863,-6.00002 -6.00002,-6.00002 -3.31371,0 -5.99998,2.6863 -5.99998,6.00002 0,3.31371 2.68627,5.99998 5.99998,5.99998 3.31372,0 6.00002,-2.68627 6.00002,-5.99998 z"
     fill="#3b7d23"
     fill-rule="evenodd"
     id="path60" /><path
     d="m 626.79167,229.29152 c 0,-3.58977 -2.6863,-6.49985 -6.00002,-6.49985 -3.31371,0 -5.99998,2.91008 -5.99998,6.49985 0,3.58975 2.68627,6.49985 5.99998,6.49985 3.31372,0 6.00002,-2.9101 6.00002,-6.49985 z"
     fill="#3b7d23"
     fill-rule="evenodd"
     id="path61" /><path
     d="m 595.79167,217.79151 c 0,-3.31362 -2.91016,-5.99984 -6.50003,-5.99984 -3.58987,0 -6.50007,2.68622 -6.50007,5.99984 0,3.31361 2.9102,5.99986 6.50007,5.99986 3.58987,0 6.50003,-2.68625 6.50003,-5.99986 z"
     fill="#3b7d23"
     fill-rule="evenodd"
     id="path62" /><path
     d="m 563.79167,250.79151 c 0,-3.31362 -2.6863,-5.99984 -6.00002,-5.99984 -3.31371,0 -5.99998,2.68622 -5.99998,5.99984 0,3.31361 2.68627,5.99986 5.99998,5.99986 3.31372,0 6.00002,-2.68625 6.00002,-5.99986 z"
     fill="#3b7d23"
     fill-rule="evenodd"
     id="path63" /><path
     d="m 532.79167,246.79169 c 0,-3.31372 -2.6863,-6.00002 -6.00002,-6.00002 -3.31371,0 -5.99998,2.6863 -5.99998,6.00002 0,3.31371 2.68627,5.99998 5.99998,5.99998 3.31372,0 6.00002,-2.68627 6.00002,-5.99998 z"
     fill="#3b7d23"
     fill-rule="evenodd"
     id="path64" /><path
     d="m 501.79167,253.79169 c 0,-3.31372 -2.91008,-6.00002 -6.49985,-6.00002 -3.58975,0 -6.49985,2.6863 -6.49985,6.00002 0,3.31371 2.9101,5.99998 6.49985,5.99998 3.58977,0 6.49985,-2.68627 6.49985,-5.99998 z"
     fill="#3b7d23"
     fill-rule="evenodd"
     id="path65" /><path
     d="m 469.79167,242.79169 c 0,-3.31372 -2.6863,-6.00002 -6.00002,-6.00002 -3.31371,0 -5.99998,2.6863 -5.99998,6.00002 0,3.31371 2.68627,5.99998 5.99998,5.99998 3.31372,0 6.00002,-2.68627 6.00002,-5.99998 z"
     fill="#3b7d23"
     fill-rule="evenodd"
     id="path66" /><path
     d="m 438.79167,219.2917 c 0,-3.58987 -2.6863,-6.50003 -6.00002,-6.50003 -3.31371,0 -5.99998,2.91016 -5.99998,6.50003 0,3.58987 2.68627,6.50007 5.99998,6.50007 3.31372,0 6.00002,-2.9102 6.00002,-6.50007 z"
     fill="#3b7d23"
     fill-rule="evenodd"
     id="path67" /><path
     d="m 407.79167,226.2917 c 0,-3.58987 -2.91016,-6.50003 -6.50003,-6.50003 -3.58987,0 -6.50007,2.91016 -6.50007,6.50003 0,3.58987 2.9102,6.50007 6.50007,6.50007 3.58987,0 6.50003,-2.9102 6.50003,-6.50007 z"
     fill="#3b7d23"
     fill-rule="evenodd"
     id="path68" /><path
     d="m 375.79167,234.79169 c 0,-3.31372 -2.6863,-6.00002 -6.00002,-6.00002 -3.31371,0 -5.99998,2.6863 -5.99998,6.00002 0,3.31371 2.68627,5.99998 5.99998,5.99998 3.31372,0 6.00002,-2.68627 6.00002,-5.99998 z"
     fill="#3b7d23"
     fill-rule="evenodd"
     id="path69" /><path
     d="m 344.79167,207.29152 c 0,-3.58977 -2.6863,-6.49985 -6.00002,-6.49985 -3.31371,0 -5.99998,2.91008 -5.99998,6.49985 0,3.58975 2.68627,6.49985 5.99998,6.49985 3.31372,0 6.00002,-2.9101 6.00002,-6.49985 z"
     fill="#3b7d23"
     fill-rule="evenodd"
     id="path70" /><path
     d="m 313.79167,197.79169 c 0,-3.31372 -2.91008,-6.00002 -6.49985,-6.00002 -3.58975,0 -6.49985,2.6863 -6.49985,6.00002 0,3.31371 2.9101,5.99998 6.49985,5.99998 3.58977,0 6.49985,-2.68627 6.49985,-5.99998 z"
     fill="#3b7d23"
     fill-rule="evenodd"
     id="path71" /><path
     d="m 281.79167,216.79169 c 0,-3.31372 -2.6863,-6.00002 -6.00002,-6.00002 -3.31371,0 -5.99998,2.6863 -5.99998,6.00002 0,3.31371 2.68627,5.99998 5.99998,5.99998 3.31372,0 6.00002,-2.68627 6.00002,-5.99998 z"
     fill="#3b7d23"
     fill-rule="evenodd"
     id="path72" /><path
     d="m 250.79167,196.79169 c 0,-3.31372 -2.6863,-6.00002 -6.00002,-6.00002 -3.31371,0 -5.99998,2.6863 -5.99998,6.00002 0,3.31371 2.68627,5.99998 5.99998,5.99998 3.31372,0 6.00002,-2.68627 6.00002,-5.99998 z"
     fill="#3b7d23"
     fill-rule="evenodd"
     id="path73" /><path
     d="m 219.79167,217.79151 c 0,-3.31362 -2.91016,-5.99984 -6.50003,-5.99984 -3.58987,0 -6.50007,2.68622 -6.50007,5.99984 0,3.31361 2.9102,5.99986 6.50007,5.99986 3.58987,0 6.50003,-2.68625 6.50003,-5.99986 z"
     fill="#3b7d23"
     fill-rule="evenodd"
     id="path74" /><path
     d="m 188.79167,207.79169 c 0,-3.31372 -2.91016,-6.00002 -6.50003,-6.00002 -3.58987,0 -6.50007,2.6863 -6.50007,6.00002 0,3.31371 2.9102,5.99998 6.50007,5.99998 3.58987,0 6.50003,-2.68627 6.50003,-5.99998 z"
     fill="#3b7d23"
     fill-rule="evenodd"
     id="path75" /><path
     d="m 156.79167,196.79169 c 0,-3.31372 -2.6863,-6.00002 -6.00002,-6.00002 -3.31371,0 -5.99998,2.6863 -5.99998,6.00002 0,3.31371 2.68627,5.99998 5.99998,5.99998 3.31372,0 6.00002,-2.68627 6.00002,-5.99998 z"
     fill="#3b7d23"
     fill-rule="evenodd"
     id="path76" /><path
     d="m 125.79167,203.2917 c 0,-3.58987 -2.6863,-6.50003 -6.00002,-6.50003 -3.31371,0 -5.99998,2.91016 -5.99998,6.50003 0,3.58987 2.68627,6.50007 5.99998,6.50007 3.31372,0 6.00002,-2.9102 6.00002,-6.50007 z"
     fill="#3b7d23"
     fill-rule="evenodd"
     id="path77" /><path
     d="m 94.791665,196.79169 c 0,-3.31372 -2.91008,-6.00002 -6.49985,-6.00002 -3.58975,0 -6.49985,2.6863 -6.49985,6.00002 0,3.31371 2.9101,5.99998 6.49985,5.99998 3.58977,0 6.49985,-2.68627 6.49985,-5.99998 z"
     fill="#3b7d23"
     fill-rule="evenodd"
     id="path78" /><path
     d="m 814.79167,305.79151 c 0,-3.31362 -2.6863,-5.99984 -6.00002,-5.99984 -3.31371,0 -5.99998,2.68622 -5.99998,5.99984 0,3.31361 2.68627,5.99986 5.99998,5.99986 3.31372,0 6.00002,-2.68625 6.00002,-5.99986 z"
     fill="#0041d8"
     fill-rule="evenodd"
     id="path79" /><path
     d="m 785.79167,305.79151 c 0,-3.31362 -2.6863,-5.99984 -6.00002,-5.99984 -3.31371,0 -5.99998,2.68622 -5.99998,5.99984 0,3.31361 2.68627,5.99986 5.99998,5.99986 3.31372,0 6.00002,-2.68625 6.00002,-5.99986 z"
     fill="#0041d8"
     fill-rule="evenodd"
     id="path80" /><path
     d="m 751.79167,314.79169 c 0,-3.31372 -2.6863,-6.00002 -6.00002,-6.00002 -3.31371,0 -5.99998,2.6863 -5.99998,6.00002 0,3.31371 2.68627,5.99998 5.99998,5.99998 3.31372,0 6.00002,-2.68627 6.00002,-5.99998 z"
     fill="#0041d8"
     fill-rule="evenodd"
     id="path81" /><path
     d="m 720.79167,305.79151 c 0,-3.31362 -2.68622,-5.99984 -5.99984,-5.99984 -3.31361,0 -5.99986,2.68622 -5.99986,5.99984 0,3.31361 2.68625,5.99986 5.99986,5.99986 3.31362,0 5.99984,-2.68625 5.99984,-5.99986 z"
     fill="#0041d8"
     fill-rule="evenodd"
     id="path82" /><path
     d="m 689.79167,327.79151 c 0,-3.31362 -2.91016,-5.99984 -6.50003,-5.99984 -3.58987,0 -6.50007,2.68622 -6.50007,5.99984 0,3.31361 2.9102,5.99986 6.50007,5.99986 3.58987,0 6.50003,-2.68625 6.50003,-5.99986 z"
     fill="#0041d8"
     fill-rule="evenodd"
     id="path83" /><path
     d="m 657.79167,319.79169 c 0,-3.31372 -2.6863,-6.00002 -6.00002,-6.00002 -3.31371,0 -5.99998,2.6863 -5.99998,6.00002 0,3.31371 2.68627,5.99998 5.99998,5.99998 3.31372,0 6.00002,-2.68627 6.00002,-5.99998 z"
     fill="#0041d8"
     fill-rule="evenodd"
     id="path84" /><path
     d="m 626.79167,328.29152 c 0,-3.58977 -2.6863,-6.49985 -6.00002,-6.49985 -3.31371,0 -5.99998,2.91008 -5.99998,6.49985 0,3.58975 2.68627,6.49985 5.99998,6.49985 3.31372,0 6.00002,-2.9101 6.00002,-6.49985 z"
     fill="#0041d8"
     fill-rule="evenodd"
     id="path85" /><path
     d="m 595.79167,343.79169 c 0,-3.31372 -2.91016,-6.00002 -6.50003,-6.00002 -3.58987,0 -6.50007,2.6863 -6.50007,6.00002 0,3.31371 2.9102,5.99998 6.50007,5.99998 3.58987,0 6.50003,-2.68627 6.50003,-5.99998 z"
     fill="#0041d8"
     fill-rule="evenodd"
     id="path86" /><path
     d="m 563.79167,327.79151 c 0,-3.31362 -2.6863,-5.99984 -6.00002,-5.99984 -3.31371,0 -5.99998,2.68622 -5.99998,5.99984 0,3.31361 2.68627,5.99986 5.99998,5.99986 3.31372,0 6.00002,-2.68625 6.00002,-5.99986 z"
     fill="#0041d8"
     fill-rule="evenodd"
     id="path87" /><path
     d="m 532.79167,316.29152 c 0,-3.58977 -2.6863,-6.49985 -6.00002,-6.49985 -3.31371,0 -5.99998,2.91008 -5.99998,6.49985 0,3.58975 2.68627,6.49985 5.99998,6.49985 3.31372,0 6.00002,-2.9101 6.00002,-6.49985 z"
     fill="#0041d8"
     fill-rule="evenodd"
     id="path88" /><path
     d="m 501.79167,356.79169 c 0,-3.31372 -2.91008,-6.00002 -6.49985,-6.00002 -3.58975,0 -6.49985,2.6863 -6.49985,6.00002 0,3.31371 2.9101,5.99998 6.49985,5.99998 3.58977,0 6.49985,-2.68627 6.49985,-5.99998 z"
     fill="#0041d8"
     fill-rule="evenodd"
     id="path89" /><path
     d="m 469.79167,352.79169 c 0,-3.31372 -2.6863,-6.00002 -6.00002,-6.00002 -3.31371,0 -5.99998,2.6863 -5.99998,6.00002 0,3.31371 2.68627,5.99998 5.99998,5.99998 3.31372,0 6.00002,-2.68627 6.00002,-5.99998 z"
     fill="#0041d8"
     fill-rule="evenodd"
     id="path90" /><path
     d="m 438.79167,367.79169 c 0,-3.31372 -2.6863,-6.00002 -6.00002,-6.00002 -3.31371,0 -5.99998,2.6863 -5.99998,6.00002 0,3.31371 2.68627,5.99998 5.99998,5.99998 3.31372,0 6.00002,-2.68627 6.00002,-5.99998 z"
     fill="#0041d8"
     fill-rule="evenodd"
     id="path91" /><path
     d="m 407.79167,348.79169 c 0,-3.31372 -2.91016,-6.00002 -6.50003,-6.00002 -3.58987,0 -6.50007,2.6863 -6.50007,6.00002 0,3.31371 2.9102,5.99998 6.50007,5.99998 3.58987,0 6.50003,-2.68627 6.50003,-5.99998 z"
     fill="#0041d8"
     fill-rule="evenodd"
     id="path92" /><path
     d="m 375.79167,343.79169 c 0,-3.31372 -2.6863,-6.00002 -6.00002,-6.00002 -3.31371,0 -5.99998,2.6863 -5.99998,6.00002 0,3.31371 2.68627,5.99998 5.99998,5.99998 3.31372,0 6.00002,-2.68627 6.00002,-5.99998 z"
     fill="#0041d8"
     fill-rule="evenodd"
     id="path93" /><path
     d="m 344.79167,377.79169 c 0,-3.31372 -2.6863,-6.00002 -6.00002,-6.00002 -3.31371,0 -5.99998,2.6863 -5.99998,6.00002 0,3.31371 2.68627,5.99998 5.99998,5.99998 3.31372,0 6.00002,-2.68627 6.00002,-5.99998 z"
     fill="#0041d8"
     fill-rule="evenodd"
     id="path94" /><path
     d="m 313.79167,363.79169 c 0,-3.31372 -2.91008,-6.00002 -6.49985,-6.00002 -3.58975,0 -6.49985,2.6863 -6.49985,6.00002 0,3.31371 2.9101,5.99998 6.49985,5.99998 3.58977,0 6.49985,-2.68627 6.49985,-5.99998 z"
     fill="#0041d8"
     fill-rule="evenodd"
     id="path95" /><path
     d="m 281.79167,363.79169 c 0,-3.31372 -2.6863,-6.00002 -6.00002,-6.00002 -3.31371,0 -5.99998,2.6863 -5.99998,6.00002 0,3.31371 2.68627,5.99998 5.99998,5.99998 3.31372,0 6.00002,-2.68627 6.00002,-5.99998 z"
     fill="#0041d8"
     fill-rule="evenodd"
     id="path96" /><path
     d="m 250.79167,368.79169 c 0,-3.31372 -2.6863,-6.00002 -6.00002,-6.00002 -3.31371,0 -5.99998,2.6863 -5.99998,6.00002 0,3.31371 2.68627,5.99998 5.99998,5.99998 3.31372,0 6.00002,-2.68627 6.00002,-5.99998 z"
     fill="#0041d8"
     fill-rule="evenodd"
     id="path97" /><path
     d="m 219.79167,368.79169 c 0,-3.31372 -2.91016,-6.00002 -6.50003,-6.00002 -3.58987,0 -6.50007,2.6863 -6.50007,6.00002 0,3.31371 2.9102,5.99998 6.50007,5.99998 3.58987,0 6.50003,-2.68627 6.50003,-5.99998 z"
     fill="#0041d8"
     fill-rule="evenodd"
     id="path98" /><path
     d="m 188.79167,360.29152 c 0,-3.58977 -2.91016,-6.49985 -6.50003,-6.49985 -3.58987,0 -6.50007,2.91008 -6.50007,6.49985 0,3.58975 2.9102,6.49985 6.50007,6.49985 3.58987,0 6.50003,-2.9101 6.50003,-6.49985 z"
     fill="#0041d8"
     fill-rule="evenodd"
     id="path99" /><path
     d="m 156.79167,368.79169 c 0,-3.31372 -2.6863,-6.00002 -6.00002,-6.00002 -3.31371,0 -5.99998,2.6863 -5.99998,6.00002 0,3.31371 2.68627,5.99998 5.99998,5.99998 3.31372,0 6.00002,-2.68627 6.00002,-5.99998 z"
     fill="#0041d8"
     fill-rule="evenodd"
     id="path100" /><path
     d="m 125.79167,363.79169 c 0,-3.31372 -2.6863,-6.00002 -6.00002,-6.00002 -3.31371,0 -5.99998,2.6863 -5.99998,6.00002 0,3.31371 2.68627,5.99998 5.99998,5.99998 3.31372,0 6.00002,-2.68627 6.00002,-5.99998 z"
     fill="#0041d8"
     fill-rule="evenodd"
     id="path101" /><path
     d="m 94.791665,363.79169 c 0,-3.31372 -2.91008,-6.00002 -6.49985,-6.00002 -3.58975,0 -6.49985,2.6863 -6.49985,6.00002 0,3.31371 2.9101,5.99998 6.49985,5.99998 3.58977,0 6.49985,-2.68627 6.49985,-5.99998 z"
     fill="#0041d8"
     fill-rule="evenodd"
     id="path102" /><path
     d="m 814.79167,395.2917 c 0,-3.58987 -2.6863,-6.50003 -6.00002,-6.50003 -3.31371,0 -5.99998,2.91016 -5.99998,6.50003 0,3.58987 2.68627,6.50007 5.99998,6.50007 3.31372,0 6.00002,-2.9102 6.00002,-6.50007 z"
     fill="#0041d8"
     fill-rule="evenodd"
     id="path103" /><path
     d="m 785.79167,415.79151 c 0,-3.31362 -2.6863,-5.99984 -6.00002,-5.99984 -3.31371,0 -5.99998,2.68622 -5.99998,5.99984 0,3.31361 2.68627,5.99986 5.99998,5.99986 3.31372,0 6.00002,-2.68625 6.00002,-5.99986 z"
     fill="#0041d8"
     fill-rule="evenodd"
     id="path104" /><path
     d="m 751.79167,425.79169 c 0,-3.31372 -2.6863,-6.00002 -6.00002,-6.00002 -3.31371,0 -5.99998,2.6863 -5.99998,6.00002 0,3.31371 2.68627,5.99998 5.99998,5.99998 3.31372,0 6.00002,-2.68627 6.00002,-5.99998 z"
     fill="#0041d8"
     fill-rule="evenodd"
     id="path105" /><path
     d="m 720.79167,415.79151 c 0,-3.31362 -2.68622,-5.99984 -5.99984,-5.99984 -3.31361,0 -5.99986,2.68622 -5.99986,5.99984 0,3.31361 2.68625,5.99986 5.99986,5.99986 3.31362,0 5.99984,-2.68625 5.99984,-5.99986 z"
     fill="#0041d8"
     fill-rule="evenodd"
     id="path106" /><path
     d="m 689.79167,423.79169 c 0,-3.31372 -2.91016,-6.00002 -6.50003,-6.00002 -3.58987,0 -6.50007,2.6863 -6.50007,6.00002 0,3.31371 2.9102,5.99998 6.50007,5.99998 3.58987,0 6.50003,-2.68627 6.50003,-5.99998 z"
     fill="#0041d8"
     fill-rule="evenodd"
     id="path107" /><path
     d="m 657.79167,415.79151 c 0,-3.31362 -2.6863,-5.99984 -6.00002,-5.99984 -3.31371,0 -5.99998,2.68622 -5.99998,5.99984 0,3.31361 2.68627,5.99986 5.99998,5.99986 3.31372,0 6.00002,-2.68625 6.00002,-5.99986 z"
     fill="#0041d8"
     fill-rule="evenodd"
     id="path108" /><path
     d="m 626.79167,424.79169 c 0,-3.31372 -2.6863,-6.00002 -6.00002,-6.00002 -3.31371,0 -5.99998,2.6863 -5.99998,6.00002 0,3.31371 2.68627,5.99998 5.99998,5.99998 3.31372,0 6.00002,-2.68627 6.00002,-5.99998 z"
     fill="#0041d8"
     fill-rule="evenodd"
     id="path109" /><path
     d="m 595.79167,392.79169 c 0,-3.31372 -2.91016,-6.00002 -6.50003,-6.00002 -3.58987,0 -6.50007,2.6863 -6.50007,6.00002 0,3.31371 2.9102,5.99998 6.50007,5.99998 3.58987,0 6.50003,-2.68627 6.50003,-5.99998 z"
     fill="#0041d8"
     fill-rule="evenodd"
     id="path110" /><path
     d="m 563.79167,403.79169 c 0,-3.31372 -2.6863,-6.00002 -6.00002,-6.00002 -3.31371,0 -5.99998,2.6863 -5.99998,6.00002 0,3.31371 2.68627,5.99998 5.99998,5.99998 3.31372,0 6.00002,-2.68627 6.00002,-5.99998 z"
     fill="#0041d8"
     fill-rule="evenodd"
     id="path111" /><path
     d="m 532.79167,392.79169 c 0,-3.31372 -2.6863,-6.00002 -6.00002,-6.00002 -3.31371,0 -5.99998,2.6863 -5.99998,6.00002 0,3.31371 2.68627,5.99998 5.99998,5.99998 3.31372,0 6.00002,-2.68627 6.00002,-5.99998 z"
     fill="#0041d8"
     fill-rule="evenodd"
     id="path112" /><path
     d="m 501.79167,452.2917 c 0,-3.58987 -2.91008,-6.50003 -6.49985,-6.50003 -3.58975,0 -6.49985,2.91016 -6.49985,6.50003 0,3.58987 2.9101,6.50007 6.49985,6.50007 3.58977,0 6.49985,-2.9102 6.49985,-6.50007 z"
     fill="#0041d8"
     fill-rule="evenodd"
     id="path113" /><path
     d="m 469.79167,432.79169 c 0,-3.31372 -2.6863,-6.00002 -6.00002,-6.00002 -3.31371,0 -5.99998,2.6863 -5.99998,6.00002 0,3.31371 2.68627,5.99998 5.99998,5.99998 3.31372,0 6.00002,-2.68627 6.00002,-5.99998 z"
     fill="#0041d8"
     fill-rule="evenodd"
     id="path114" /><path
     d="m 438.79167,426.79151 c 0,-3.31362 -2.6863,-5.99984 -6.00002,-5.99984 -3.31371,0 -5.99998,2.68622 -5.99998,5.99984 0,3.31361 2.68627,5.99986 5.99998,5.99986 3.31372,0 6.00002,-2.68625 6.00002,-5.99986 z"
     fill="#0041d8"
     fill-rule="evenodd"
     id="path115" /><path
     d="m 407.79167,387.79169 c 0,-3.31372 -2.91016,-6.00002 -6.50003,-6.00002 -3.58987,0 -6.50007,2.6863 -6.50007,6.00002 0,3.31371 2.9102,5.99998 6.50007,5.99998 3.58987,0 6.50003,-2.68627 6.50003,-5.99998 z"
     fill="#0041d8"
     fill-rule="evenodd"
     id="path116" /><path
     d="m 375.79167,420.2917 c 0,-3.58987 -2.6863,-6.50003 -6.00002,-6.50003 -3.31371,0 -5.99998,2.91016 -5.99998,6.50003 0,3.58987 2.68627,6.50007 5.99998,6.50007 3.31372,0 6.00002,-2.9102 6.00002,-6.50007 z"
     fill="#0041d8"
     fill-rule="evenodd"
     id="path117" /><path
     d="m 344.79167,426.79151 c 0,-3.31362 -2.6863,-5.99984 -6.00002,-5.99984 -3.31371,0 -5.99998,2.68622 -5.99998,5.99984 0,3.31361 2.68627,5.99986 5.99998,5.99986 3.31372,0 6.00002,-2.68625 6.00002,-5.99986 z"
     fill="#0041d8"
     fill-rule="evenodd"
     id="path118" /><path
     d="m 313.79167,412.79169 c 0,-3.31372 -2.91008,-6.00002 -6.49985,-6.00002 -3.58975,0 -6.49985,2.6863 -6.49985,6.00002 0,3.31371 2.9101,5.99998 6.49985,5.99998 3.58977,0 6.49985,-2.68627 6.49985,-5.99998 z"
     fill="#0041d8"
     fill-rule="evenodd"
     id="path119" /><path
     d="m 281.79167,412.79169 c 0,-3.31372 -2.6863,-6.00002 -6.00002,-6.00002 -3.31371,0 -5.99998,2.6863 -5.99998,6.00002 0,3.31371 2.68627,5.99998 5.99998,5.99998 3.31372,0 6.00002,-2.68627 6.00002,-5.99998 z"
     fill="#0041d8"
     fill-rule="evenodd"
     id="path120" /><path
     d="m 250.79167,417.79169 c 0,-3.31372 -2.6863,-6.00002 -6.00002,-6.00002 -3.31371,0 -5.99998,2.6863 -5.99998,6.00002 0,3.31371 2.68627,5.99998 5.99998,5.99998 3.31372,0 6.00002,-2.68627 6.00002,-5.99998 z"
     fill="#0041d8"
     fill-rule="evenodd"
     id="path121" /><path
     d="m 219.79167,417.79169 c 0,-3.31372 -2.91016,-6.00002 -6.50003,-6.00002 -3.58987,0 -6.50007,2.6863 -6.50007,6.00002 0,3.31371 2.9102,5.99998 6.50007,5.99998 3.58987,0 6.50003,-2.68627 6.50003,-5.99998 z"
     fill="#0041d8"
     fill-rule="evenodd"
     id="path122" /><path
     d="m 188.79167,409.2917 c 0,-3.58987 -2.91016,-6.50003 -6.50003,-6.50003 -3.58987,0 -6.50007,2.91016 -6.50007,6.50003 0,3.58987 2.9102,6.50007 6.50007,6.50007 3.58987,0 6.50003,-2.9102 6.50003,-6.50007 z"
     fill="#0041d8"
     fill-rule="evenodd"
     id="path123" /><path
     d="m 156.79167,417.79169 c 0,-3.31372 -2.6863,-6.00002 -6.00002,-6.00002 -3.31371,0 -5.99998,2.6863 -5.99998,6.00002 0,3.31371 2.68627,5.99998 5.99998,5.99998 3.31372,0 6.00002,-2.68627 6.00002,-5.99998 z"
     fill="#0041d8"
     fill-rule="evenodd"
     id="path124" /><path
     d="m 125.79167,412.79169 c 0,-3.31372 -2.6863,-6.00002 -6.00002,-6.00002 -3.31371,0 -5.99998,2.6863 -5.99998,6.00002 0,3.31371 2.68627,5.99998 5.99998,5.99998 3.31372,0 6.00002,-2.68627 6.00002,-5.99998 z"
     fill="#0041d8"
     fill-rule="evenodd"
     id="path125" /><path
     d="m 94.791665,412.79169 c 0,-3.31372 -2.91008,-6.00002 -6.49985,-6.00002 -3.58975,0 -6.49985,2.6863 -6.49985,6.00002 0,3.31371 2.9101,5.99998 6.49985,5.99998 3.58977,0 6.49985,-2.68627 6.49985,-5.99998 z"
     fill="#0041d8"
     fill-rule="evenodd"
     id="path126" /><path
     d="m 814.79167,486.2917 c 0,-3.58987 -2.6863,-6.50003 -6.00002,-6.50003 -3.31371,0 -5.99998,2.91016 -5.99998,6.50003 0,3.58987 2.68627,6.50007 5.99998,6.50007 3.31372,0 6.00002,-2.9102 6.00002,-6.50007 z"
     fill="#0041d8"
     fill-rule="evenodd"
     id="path127" /><path
     d="m 785.79167,486.2917 c 0,-3.58987 -2.6863,-6.50003 -6.00002,-6.50003 -3.31371,0 -5.99998,2.91016 -5.99998,6.50003 0,3.58987 2.68627,6.50007 5.99998,6.50007 3.31372,0 6.00002,-2.9102 6.00002,-6.50007 z"
     fill="#0041d8"
     fill-rule="evenodd"
     id="path128" /><path
     d="m 751.79167,495.79169 c 0,-3.31372 -2.6863,-6.00002 -6.00002,-6.00002 -3.31371,0 -5.99998,2.6863 -5.99998,6.00002 0,3.31371 2.68627,5.99998 5.99998,5.99998 3.31372,0 6.00002,-2.68627 6.00002,-5.99998 z"
     fill="#0041d8"
     fill-rule="evenodd"
     id="path129" /><path
     d="m 720.79167,486.2917 c 0,-3.58987 -2.68622,-6.50003 -5.99984,-6.50003 -3.31361,0 -5.99986,2.91016 -5.99986,6.50003 0,3.58987 2.68625,6.50007 5.99986,6.50007 3.31362,0 5.99984,-2.9102 5.99984,-6.50007 z"
     fill="#0041d8"
     fill-rule="evenodd"
     id="path130" /><path
     d="m 689.79167,492.79151 c 0,-3.31362 -2.91016,-5.99984 -6.50003,-5.99984 -3.58987,0 -6.50007,2.68622 -6.50007,5.99984 0,3.31361 2.9102,5.99986 6.50007,5.99986 3.58987,0 6.50003,-2.68625 6.50003,-5.99986 z"
     fill="#0041d8"
     fill-rule="evenodd"
     id="path131" /><path
     d="m 657.79167,485.2917 c 0,-3.58987 -2.6863,-6.50003 -6.00002,-6.50003 -3.31371,0 -5.99998,2.91016 -5.99998,6.50003 0,3.58987 2.68627,6.50007 5.99998,6.50007 3.31372,0 6.00002,-2.9102 6.00002,-6.50007 z"
     fill="#0041d8"
     fill-rule="evenodd"
     id="path132" /><path
     d="m 626.79167,493.79169 c 0,-3.31372 -2.6863,-6.00002 -6.00002,-6.00002 -3.31371,0 -5.99998,2.6863 -5.99998,6.00002 0,3.31371 2.68627,5.99998 5.99998,5.99998 3.31372,0 6.00002,-2.68627 6.00002,-5.99998 z"
     fill="#0041d8"
     fill-rule="evenodd"
     id="path133" /><path
     d="m 595.79167,482.79169 c 0,-3.31372 -2.91016,-6.00002 -6.50003,-6.00002 -3.58987,0 -6.50007,2.6863 -6.50007,6.00002 0,3.31371 2.9102,5.99998 6.50007,5.99998 3.58987,0 6.50003,-2.68627 6.50003,-5.99998 z"
     fill="#0041d8"
     fill-rule="evenodd"
     id="path134" /><path
     d="m 563.79167,493.79169 c 0,-3.31372 -2.6863,-6.00002 -6.00002,-6.00002 -3.31371,0 -5.99998,2.6863 -5.99998,6.00002 0,3.31371 2.68627,5.99998 5.99998,5.99998 3.31372,0 6.00002,-2.68627 6.00002,-5.99998 z"
     fill="#0041d8"
     fill-rule="evenodd"
     id="path135" /><path
     d="m 532.79167,482.79169 c 0,-3.31372 -2.6863,-6.00002 -6.00002,-6.00002 -3.31371,0 -5.99998,2.6863 -5.99998,6.00002 0,3.31371 2.68627,5.99998 5.99998,5.99998 3.31372,0 6.00002,-2.68627 6.00002,-5.99998 z"
     fill="#0041d8"
     fill-rule="evenodd"
     id="path136" /><path
     d="m 501.79167,484.79169 c 0,-3.31372 -2.91008,-6.00002 -6.49985,-6.00002 -3.58975,0 -6.49985,2.6863 -6.49985,6.00002 0,3.31371 2.9101,5.99998 6.49985,5.99998 3.58977,0 6.49985,-2.68627 6.49985,-5.99998 z"
     fill="#0041d8"
     fill-rule="evenodd"
     id="path137" /><path
     d="m 469.79167,465.2917 c 0,-3.58987 -2.6863,-6.50003 -6.00002,-6.50003 -3.31371,0 -5.99998,2.91016 -5.99998,6.50003 0,3.58987 2.68627,6.50007 5.99998,6.50007 3.31372,0 6.00002,-2.9102 6.00002,-6.50007 z"
     fill="#0041d8"
     fill-rule="evenodd"
     id="path138" /><path
     d="m 438.79167,459.79151 c 0,-3.31362 -2.6863,-5.99984 -6.00002,-5.99984 -3.31371,0 -5.99998,2.68622 -5.99998,5.99984 0,3.31361 2.68627,5.99986 5.99998,5.99986 3.31372,0 6.00002,-2.68625 6.00002,-5.99986 z"
     fill="#0041d8"
     fill-rule="evenodd"
     id="path139" /><path
     d="m 407.79167,432.79169 c 0,-3.31372 -2.91016,-6.00002 -6.50003,-6.00002 -3.58987,0 -6.50007,2.6863 -6.50007,6.00002 0,3.31371 2.9102,5.99998 6.50007,5.99998 3.58987,0 6.50003,-2.68627 6.50003,-5.99998 z"
     fill="#0041d8"
     fill-rule="evenodd"
     id="path140" /><path
     d="m 375.79167,465.2917 c 0,-3.58987 -2.6863,-6.50003 -6.00002,-6.50003 -3.31371,0 -5.99998,2.91016 -5.99998,6.50003 0,3.58987 2.68627,6.50007 5.99998,6.50007 3.31372,0 6.00002,-2.9102 6.00002,-6.50007 z"
     fill="#0041d8"
     fill-rule="evenodd"
     id="path141" /><path
     d="m 344.79167,459.29152 c 0,-3.58977 -2.6863,-6.49985 -6.00002,-6.49985 -3.31371,0 -5.99998,2.91008 -5.99998,6.49985 0,3.58975 2.68627,6.49985 5.99998,6.49985 3.31372,0 6.00002,-2.9101 6.00002,-6.49985 z"
     fill="#0041d8"
     fill-rule="evenodd"
     id="path142" /><path
     d="m 313.79167,445.79169 c 0,-3.31372 -2.91008,-6.00002 -6.49985,-6.00002 -3.58975,0 -6.49985,2.6863 -6.49985,6.00002 0,3.31371 2.9101,5.99998 6.49985,5.99998 3.58977,0 6.49985,-2.68627 6.49985,-5.99998 z"
     fill="#0041d8"
     fill-rule="evenodd"
     id="path143" /><path
     d="m 281.79167,445.79169 c 0,-3.31372 -2.6863,-6.00002 -6.00002,-6.00002 -3.31371,0 -5.99998,2.6863 -5.99998,6.00002 0,3.31371 2.68627,5.99998 5.99998,5.99998 3.31372,0 6.00002,-2.68627 6.00002,-5.99998 z"
     fill="#0041d8"
     fill-rule="evenodd"
     id="path144" /><path
     d="m 250.79167,450.79169 c 0,-3.31372 -2.6863,-6.00002 -6.00002,-6.00002 -3.31371,0 -5.99998,2.6863 -5.99998,6.00002 0,3.31371 2.68627,5.99998 5.99998,5.99998 3.31372,0 6.00002,-2.68627 6.00002,-5.99998 z"
     fill="#0041d8"
     fill-rule="evenodd"
     id="path145" /><path
     d="m 219.79167,450.79169 c 0,-3.31372 -2.91016,-6.00002 -6.50003,-6.00002 -3.58987,0 -6.50007,2.6863 -6.50007,6.00002 0,3.31371 2.9102,5.99998 6.50007,5.99998 3.58987,0 6.50003,-2.68627 6.50003,-5.99998 z"
     fill="#0041d8"
     fill-rule="evenodd"
     id="path146" /><path
     d="m 188.79167,441.79169 c 0,-3.31372 -2.91016,-6.00002 -6.50003,-6.00002 -3.58987,0 -6.50007,2.6863 -6.50007,6.00002 0,3.31371 2.9102,5.99998 6.50007,5.99998 3.58987,0 6.50003,-2.68627 6.50003,-5.99998 z"
     fill="#0041d8"
     fill-rule="evenodd"
     id="path147" /><path
     d="m 156.79167,450.79169 c 0,-3.31372 -2.6863,-6.00002 -6.00002,-6.00002 -3.31371,0 -5.99998,2.6863 -5.99998,6.00002 0,3.31371 2.68627,5.99998 5.99998,5.99998 3.31372,0 6.00002,-2.68627 6.00002,-5.99998 z"
     fill="#0041d8"
     fill-rule="evenodd"
     id="path148" /><path
     d="m 125.79167,445.79169 c 0,-3.31372 -2.6863,-6.00002 -6.00002,-6.00002 -3.31371,0 -5.99998,2.6863 -5.99998,6.00002 0,3.31371 2.68627,5.99998 5.99998,5.99998 3.31372,0 6.00002,-2.68627 6.00002,-5.99998 z"
     fill="#0041d8"
     fill-rule="evenodd"
     id="path149" /><path
     d="m 94.791665,445.79169 c 0,-3.31372 -2.91008,-6.00002 -6.49985,-6.00002 -3.58975,0 -6.49985,2.6863 -6.49985,6.00002 0,3.31371 2.9101,5.99998 6.49985,5.99998 3.58977,0 6.49985,-2.68627 6.49985,-5.99998 z"
     fill="#0041d8"
     fill-rule="evenodd"
     id="path150" /><path
     d="m 3.2916651,14.791665 c 0,-6.8999999 5.6,-12.4999999 12.4999999,-12.4999999 v 0 c 6.9,0 12.5,5.6 12.5,12.4999999 V 549.79167 c 0,6.9 -5.6,12.5 -12.5,12.5 v 0 c -6.8999999,0 -12.4999999,-5.6 -12.4999999,-12.5 z"
     stroke="#0f1b37"
     stroke-width="4.58333"
     stroke-linejoin="round"
     stroke-miterlimit="10"
     fill="url(#fill1)"
     fill-rule="evenodd"
     id="path151"
     style="fill:url(#fill1)" /><path
     d="M 49.291665,562.29167 H 827.17167"
     stroke="#000000"
     stroke-width="6.875"
     stroke-linejoin="round"
     stroke-miterlimit="10"
     fill="none"
     fill-rule="evenodd"
     id="path152" /><path
     d="m 66.291665,574.06167 3.61e-4,-23.7716"
     stroke="#000000"
     stroke-width="6.875"
     stroke-linejoin="round"
     stroke-miterlimit="10"
     fill="none"
     fill-rule="evenodd"
     id="path153" /><path
     d="m 121.29167,574.06167 3.6e-4,-23.7716"
     stroke="#000000"
     stroke-width="6.875"
     stroke-linejoin="round"
     stroke-miterlimit="10"
     fill="none"
     fill-rule="evenodd"
     id="path154" /><path
     d="m 175.29167,574.06167 3.6e-4,-23.7716"
     stroke="#000000"
     stroke-width="6.875"
     stroke-linejoin="round"
     stroke-miterlimit="10"
     fill="none"
     fill-rule="evenodd"
     id="path155" /><path
     d="m 229.29167,574.06167 3.6e-4,-23.7716"
     stroke="#000000"
     stroke-width="6.875"
     stroke-linejoin="round"
     stroke-miterlimit="10"
     fill="none"
     fill-rule="evenodd"
     id="path156" /><path
     d="m 283.29167,574.06167 3.6e-4,-23.7716"
     stroke="#000000"
     stroke-width="6.875"
     stroke-linejoin="round"
     stroke-miterlimit="10"
     fill="none"
     fill-rule="evenodd"
     id="path157" /><path
     d="m 337.29167,574.06167 3.6e-4,-23.7716"
     stroke="#000000"
     stroke-width="6.875"
     stroke-linejoin="round"
     stroke-miterlimit="10"
     fill="none"
     fill-rule="evenodd"
     id="path158" /><path
     d="m 391.29167,574.06167 3.6e-4,-23.7716"
     stroke="#000000"
     stroke-width="6.875"
     stroke-linejoin="round"
     stroke-miterlimit="10"
     fill="none"
     fill-rule="evenodd"
     id="path159" /><path
     d="m 446.29167,574.06167 3.6e-4,-23.7716"
     stroke="#000000"
     stroke-width="6.875"
     stroke-linejoin="round"
     stroke-miterlimit="10"
     fill="none"
     fill-rule="evenodd"
     id="path160" /><path
     d="m 500.29167,574.06167 3.6e-4,-23.7716"
     stroke="#000000"
     stroke-width="6.875"
     stroke-linejoin="round"
     stroke-miterlimit="10"
     fill="none"
     fill-rule="evenodd"
     id="path161" /><path
     d="m 554.29167,574.06167 3.6e-4,-23.7716"
     stroke="#000000"
     stroke-width="6.875"
     stroke-linejoin="round"
     stroke-miterlimit="10"
     fill="none"
     fill-rule="evenodd"
     id="path162" /><path
     d="m 608.29167,574.06167 3.6e-4,-23.7716"
     stroke="#000000"
     stroke-width="6.875"
     stroke-linejoin="round"
     stroke-miterlimit="10"
     fill="none"
     fill-rule="evenodd"
     id="path163" /><path
     d="m 662.29167,574.06167 3.6e-4,-23.7716"
     stroke="#000000"
     stroke-width="6.875"
     stroke-linejoin="round"
     stroke-miterlimit="10"
     fill="none"
     fill-rule="evenodd"
     id="path164" /><path
     d="m 716.29167,574.06167 3.6e-4,-23.7716"
     stroke="#000000"
     stroke-width="6.875"
     stroke-linejoin="round"
     stroke-miterlimit="10"
     fill="none"
     fill-rule="evenodd"
     id="path165" /><path
     d="m 771.29167,574.06167 3.6e-4,-23.7716"
     stroke="#000000"
     stroke-width="6.875"
     stroke-linejoin="round"
     stroke-miterlimit="10"
     fill="none"
     fill-rule="evenodd"
     id="path166" /><path
     d="m 811.47412,576.50987 16.80932,-16.8088"
     stroke="#000000"
     stroke-width="6.875"
     stroke-linejoin="round"
     stroke-miterlimit="10"
     fill="none"
     fill-rule="evenodd"
     id="path19-7"
     sodipodi:nodetypes="cc" /><path
     d="m 828.28336,564.5325 -16.8088,-16.80932"
     stroke="#000000"
     stroke-width="6.875"
     stroke-linejoin="round"
     stroke-miterlimit="10"
     fill="none"
     fill-rule="evenodd"
     id="path19-6"
     sodipodi:nodetypes="cc" /></svg>
