<svg width="831" height="575" xmlns="http://www.w3.org/2000/svg" xmlns:xlink="http://www.w3.org/1999/xlink" xml:space="preserve" overflow="hidden"><defs><linearGradient x1="4239" y1="4415.5" x2="4239" y2="4975.5" gradientUnits="userSpaceOnUse" spreadMethod="reflect" id="fill0"><stop offset="0" stop-color="#00B050"/><stop offset="0.5" stop-color="#FFFF00"/><stop offset="1" stop-color="#FF0000"/></linearGradient><linearGradient x1="4240" y1="4415.5" x2="4240" y2="4975.5" gradientUnits="userSpaceOnUse" spreadMethod="reflect" id="fill1"><stop offset="0" stop-color="#00B050"/><stop offset="0.5" stop-color="#FFFF00"/><stop offset="1" stop-color="#FF0000"/></linearGradient></defs><g transform="translate(-4224 -4413)"><path d="M4226.5 4428C4226.5 4421.1 4232.1 4415.5 4239 4415.5L4239 4415.5C4245.9 4415.5 4251.5 4421.1 4251.5 4428L4251.5 4963C4251.5 4969.9 4245.9 4975.5 4239 4975.5L4239 4975.5C4232.1 4975.5 4226.5 4969.9 4226.5 4963Z" stroke="#0F1B37" stroke-width="4.58333" stroke-linejoin="round" stroke-miterlimit="10" fill="url(#fill0)" fill-rule="evenodd"/><path d="M0 6.49985C-7.63882e-16 2.91008 2.6863 -8.27518e-16 6.00002-1.65504e-15 9.31373-3.31007e-15 12 2.91008 12 6.49985 12 10.0896 9.31373 12.9997 6.00002 12.9997 2.6863 12.9997-3.81941e-15 10.0896 0 6.49985Z" fill="#3B7D23" fill-rule="evenodd" transform="matrix(-1 0 0 1 5039 4459)"/><path d="M0 6.49985C-7.63882e-16 2.91008 2.6863 -8.27518e-16 6.00002-1.65504e-15 9.31373-3.31007e-15 12 2.91008 12 6.49985 12 10.0896 9.31373 12.9997 6.00002 12.9997 2.6863 12.9997-3.81941e-15 10.0896 0 6.49985Z" fill="#3B7D23" fill-rule="evenodd" transform="matrix(-1 0 0 1 5010 4459)"/><path d="M0 6.00002C-7.63882e-16 2.6863 2.6863 -7.63882e-16 6.00002-1.52776e-15 9.31373-3.05553e-15 12 2.6863 12 6.00002 12 9.31373 9.31373 12 6.00002 12 2.6863 12-3.81941e-15 9.31373 0 6.00002Z" fill="#3B7D23" fill-rule="evenodd" transform="matrix(-1 0 0 1 4976 4467)"/><path d="M0 6.49985C-7.63859e-16 2.91008 2.68622 -8.27518e-16 5.99984-1.65504e-15 9.31345-3.31007e-15 11.9997 2.91008 11.9997 6.49985 11.9997 10.0896 9.31345 12.9997 5.99984 12.9997 2.68622 12.9997-3.8193e-15 10.0896 0 6.49985Z" fill="#3B7D23" fill-rule="evenodd" transform="matrix(-1 0 0 1 4945 4459)"/><path d="M0 6.00002C-8.27541e-16 2.6863 2.91016 -7.63882e-16 6.50003-1.52776e-15 10.0899-3.05553e-15 13.0001 2.6863 13.0001 6.00002 13.0001 9.31373 10.0899 12 6.50003 12 2.91016 12-4.1377e-15 9.31373 0 6.00002Z" fill="#3B7D23" fill-rule="evenodd" transform="matrix(-1 0 0 1 4914 4468)"/><path d="M0 6.00002C-7.63882e-16 2.6863 2.6863 -7.63882e-16 6.00002-1.52776e-15 9.31373-3.05553e-15 12 2.6863 12 6.00002 12 9.31373 9.31373 12 6.00002 12 2.6863 12-3.81941e-15 9.31373 0 6.00002Z" fill="#3B7D23" fill-rule="evenodd" transform="matrix(-1 0 0 1 4882 4486)"/><path d="M0 6.00002C-7.63882e-16 2.6863 2.6863 -7.63882e-16 6.00002-1.52776e-15 9.31373-3.05553e-15 12 2.6863 12 6.00002 12 9.31373 9.31373 12 6.00002 12 2.6863 12-3.81941e-15 9.31373 0 6.00002Z" fill="#3B7D23" fill-rule="evenodd" transform="matrix(-1 0 0 1 4851 4489)"/><path d="M0 6.00002C-8.27541e-16 2.6863 2.91016 -7.63882e-16 6.50003-1.52776e-15 10.0899-3.05553e-15 13.0001 2.6863 13.0001 6.00002 13.0001 9.31373 10.0899 12 6.50003 12 2.91016 12-4.1377e-15 9.31373 0 6.00002Z" fill="#3B7D23" fill-rule="evenodd" transform="matrix(-1 0 0 1 4820 4514)"/><path d="M0 6.00002C-7.63882e-16 2.6863 2.6863 -7.63882e-16 6.00002-1.52776e-15 9.31373-3.05553e-15 12 2.6863 12 6.00002 12 9.31373 9.31373 12 6.00002 12 2.6863 12-3.81941e-15 9.31373 0 6.00002Z" fill="#3B7D23" fill-rule="evenodd" transform="matrix(-1 0 0 1 4788 4518)"/><path d="M0 6.00002C-7.63882e-16 2.6863 2.6863 -7.63882e-16 6.00002-1.52776e-15 9.31373-3.05553e-15 12 2.6863 12 6.00002 12 9.31373 9.31373 12 6.00002 12 2.6863 12-3.81941e-15 9.31373 0 6.00002Z" fill="#3B7D23" fill-rule="evenodd" transform="matrix(-1 0 0 1 4757 4514)"/><path d="M0 6.00002C-8.27518e-16 2.6863 2.91008 -7.63882e-16 6.49985-1.52776e-15 10.0896-3.05553e-15 12.9997 2.6863 12.9997 6.00002 12.9997 9.31373 10.0896 12 6.49985 12 2.91008 12-4.13759e-15 9.31373 0 6.00002Z" fill="#3B7D23" fill-rule="evenodd" transform="matrix(-1 0 0 1 4726 4521)"/><path d="M0 6.00002C-7.63882e-16 2.6863 2.6863 -7.63882e-16 6.00002-1.52776e-15 9.31373-3.05553e-15 12 2.6863 12 6.00002 12 9.31373 9.31373 12 6.00002 12 2.6863 12-3.81941e-15 9.31373 0 6.00002Z" fill="#3B7D23" fill-rule="evenodd" transform="matrix(-1 0 0 1 4694 4533)"/><path d="M0 6.00002C-7.63882e-16 2.6863 2.6863 -7.63882e-16 6.00002-1.52776e-15 9.31373-3.05553e-15 12 2.6863 12 6.00002 12 9.31373 9.31373 12 6.00002 12 2.6863 12-3.81941e-15 9.31373 0 6.00002Z" fill="#3B7D23" fill-rule="evenodd" transform="matrix(-1 0 0 1 4663 4529)"/><path d="M0 6.50003C-8.27541e-16 2.91016 2.91016 -8.27541e-16 6.50003-1.65508e-15 10.0899-3.31016e-15 13.0001 2.91016 13.0001 6.50003 13.0001 10.0899 10.0899 13.0001 6.50003 13.0001 2.91016 13.0001-4.1377e-15 10.0899 0 6.50003Z" fill="#3B7D23" fill-rule="evenodd" transform="matrix(-1 0 0 1 4632 4535)"/><path d="M0 6.00002C-7.63882e-16 2.6863 2.6863 -7.63882e-16 6.00002-1.52776e-15 9.31373-3.05553e-15 12 2.6863 12 6.00002 12 9.31373 9.31373 12 6.00002 12 2.6863 12-3.81941e-15 9.31373 0 6.00002Z" fill="#3B7D23" fill-rule="evenodd" transform="matrix(-1 0 0 1 4600 4544)"/><path d="M0 6.00002C-7.63882e-16 2.6863 2.6863 -7.63882e-16 6.00002-1.52776e-15 9.31373-3.05553e-15 12 2.6863 12 6.00002 12 9.31373 9.31373 12 6.00002 12 2.6863 12-3.81941e-15 9.31373 0 6.00002Z" fill="#3B7D23" fill-rule="evenodd" transform="matrix(-1 0 0 1 4569 4530)"/><path d="M0 6.00002C-8.27518e-16 2.6863 2.91008 -7.63882e-16 6.49985-1.52776e-15 10.0896-3.05553e-15 12.9997 2.6863 12.9997 6.00002 12.9997 9.31373 10.0896 12 6.49985 12 2.91008 12-4.13759e-15 9.31373 0 6.00002Z" fill="#3B7D23" fill-rule="evenodd" transform="matrix(-1 0 0 1 4538 4527)"/><path d="M0 6.50003C-7.63882e-16 2.91016 2.6863 -8.27541e-16 6.00002-1.65508e-15 9.31373-3.31016e-15 12 2.91016 12 6.50003 12 10.0899 9.31373 13.0001 6.00002 13.0001 2.6863 13.0001-3.81941e-15 10.0899 0 6.50003Z" fill="#3B7D23" fill-rule="evenodd" transform="matrix(-1 0 0 1 4506 4538)"/><path d="M0 6.00002C-7.63882e-16 2.6863 2.6863 -7.63882e-16 6.00002-1.52776e-15 9.31373-3.05553e-15 12 2.6863 12 6.00002 12 9.31373 9.31373 12 6.00002 12 2.6863 12-3.81941e-15 9.31373 0 6.00002Z" fill="#3B7D23" fill-rule="evenodd" transform="matrix(-1 0 0 1 4475 4528)"/><path d="M0 6.00002C-8.27541e-16 2.6863 2.91016 -7.63882e-16 6.50003-1.52776e-15 10.0899-3.05553e-15 13.0001 2.6863 13.0001 6.00002 13.0001 9.31373 10.0899 12 6.50003 12 2.91016 12-4.1377e-15 9.31373 0 6.00002Z" fill="#3B7D23" fill-rule="evenodd" transform="matrix(-1 0 0 1 4444 4549)"/><path d="M0 6.00002C-8.27541e-16 2.6863 2.91016 -7.63882e-16 6.50003-1.52776e-15 10.0899-3.05553e-15 13.0001 2.6863 13.0001 6.00002 13.0001 9.31373 10.0899 12 6.50003 12 2.91016 12-4.1377e-15 9.31373 0 6.00002Z" fill="#3B7D23" fill-rule="evenodd" transform="matrix(-1 0 0 1 4413 4539)"/><path d="M0 6.50003C-7.63882e-16 2.91016 2.6863 -8.27541e-16 6.00002-1.65508e-15 9.31373-3.31016e-15 12 2.91016 12 6.50003 12 10.0899 9.31373 13.0001 6.00002 13.0001 2.6863 13.0001-3.81941e-15 10.0899 0 6.50003Z" fill="#3B7D23" fill-rule="evenodd" transform="matrix(-1 0 0 1 4381 4528)"/><path d="M0 6.50003C-7.63882e-16 2.91016 2.6863 -8.27541e-16 6.00002-1.65508e-15 9.31373-3.31016e-15 12 2.91016 12 6.50003 12 10.0899 9.31373 13.0001 6.00002 13.0001 2.6863 13.0001-3.81941e-15 10.0899 0 6.50003Z" fill="#3B7D23" fill-rule="evenodd" transform="matrix(-1 0 0 1 4350 4534)"/><path d="M0 6.50003C-8.27518e-16 2.91016 2.91008 -8.27541e-16 6.49985-1.65508e-15 10.0896-3.31016e-15 12.9997 2.91016 12.9997 6.50003 12.9997 10.0899 10.0896 13.0001 6.49985 13.0001 2.91008 13.0001-4.13759e-15 10.0899 0 6.50003Z" fill="#3B7D23" fill-rule="evenodd" transform="matrix(-1 0 0 1 4319 4528)"/><path d="M0 6.00002C-7.63882e-16 2.6863 2.6863 -7.63882e-16 6.00002-1.52776e-15 9.31373-3.05553e-15 12 2.6863 12 6.00002 12 9.31373 9.31373 12 6.00002 12 2.6863 12-3.81941e-15 9.31373 0 6.00002Z" fill="#3B7D23" fill-rule="evenodd" transform="matrix(-1 0 0 1 5039 4546)"/><path d="M0 6.00002C-7.63882e-16 2.6863 2.6863 -7.63882e-16 6.00002-1.52776e-15 9.31373-3.05553e-15 12 2.6863 12 6.00002 12 9.31373 9.31373 12 6.00002 12 2.6863 12-3.81941e-15 9.31373 0 6.00002Z" fill="#3B7D23" fill-rule="evenodd" transform="matrix(-1 0 0 1 5010 4555)"/><path d="M0 6.49985C-7.63882e-16 2.91008 2.6863 -8.27518e-16 6.00002-1.65504e-15 9.31373-3.31007e-15 12 2.91008 12 6.49985 12 10.0896 9.31373 12.9997 6.00002 12.9997 2.6863 12.9997-3.81941e-15 10.0896 0 6.49985Z" fill="#3B7D23" fill-rule="evenodd" transform="matrix(-1 0 0 1 4976 4547)"/><path d="M0 6.50003C-7.63859e-16 2.91016 2.68622 -8.27541e-16 5.99984-1.65508e-15 9.31345-3.31016e-15 11.9997 2.91016 11.9997 6.50003 11.9997 10.0899 9.31345 13.0001 5.99984 13.0001 2.68622 13.0001-3.8193e-15 10.0899 0 6.50003Z" fill="#3B7D23" fill-rule="evenodd" transform="matrix(-1 0 0 1 4945 4540)"/><path d="M0 5.99984C-8.27541e-16 2.68622 2.91016 -7.63859e-16 6.50003-1.52772e-15 10.0899-3.05544e-15 13.0001 2.68622 13.0001 5.99984 13.0001 9.31345 10.0899 11.9997 6.50003 11.9997 2.91016 11.9997-4.1377e-15 9.31345 0 5.99984Z" fill="#3B7D23" fill-rule="evenodd" transform="matrix(-1 0 0 1 4914 4537)"/><path d="M0 6.49985C-7.63882e-16 2.91008 2.6863 -8.27518e-16 6.00002-1.65504e-15 9.31373-3.31007e-15 12 2.91008 12 6.49985 12 10.0896 9.31373 12.9997 6.00002 12.9997 2.6863 12.9997-3.81941e-15 10.0896 0 6.49985Z" fill="#3B7D23" fill-rule="evenodd" transform="matrix(-1 0 0 1 4882 4548)"/><path d="M0 6.00002C-7.63882e-16 2.6863 2.6863 -7.63882e-16 6.00002-1.52776e-15 9.31373-3.05553e-15 12 2.6863 12 6.00002 12 9.31373 9.31373 12 6.00002 12 2.6863 12-3.81941e-15 9.31373 0 6.00002Z" fill="#3B7D23" fill-rule="evenodd" transform="matrix(-1 0 0 1 4851 4551)"/><path d="M0 6.00002C-8.27541e-16 2.6863 2.91016 -7.63882e-16 6.50003-1.52776e-15 10.0899-3.05553e-15 13.0001 2.6863 13.0001 6.00002 13.0001 9.31373 10.0899 12 6.50003 12 2.91016 12-4.1377e-15 9.31373 0 6.00002Z" fill="#3B7D23" fill-rule="evenodd" transform="matrix(-1 0 0 1 4820 4552)"/><path d="M0 6.00002C-7.63882e-16 2.6863 2.6863 -7.63882e-16 6.00002-1.52776e-15 9.31373-3.05553e-15 12 2.6863 12 6.00002 12 9.31373 9.31373 12 6.00002 12 2.6863 12-3.81941e-15 9.31373 0 6.00002Z" fill="#3B7D23" fill-rule="evenodd" transform="matrix(-1 0 0 1 4788 4556)"/><path d="M0 6.00002C-7.63882e-16 2.6863 2.6863 -7.63882e-16 6.00002-1.52776e-15 9.31373-3.05553e-15 12 2.6863 12 6.00002 12 9.31373 9.31373 12 6.00002 12 2.6863 12-3.81941e-15 9.31373 0 6.00002Z" fill="#3B7D23" fill-rule="evenodd" transform="matrix(-1 0 0 1 4757 4552)"/><path d="M0 6.00002C-8.27518e-16 2.6863 2.91008 -7.63882e-16 6.49985-1.52776e-15 10.0896-3.05553e-15 12.9997 2.6863 12.9997 6.00002 12.9997 9.31373 10.0896 12 6.49985 12 2.91008 12-4.13759e-15 9.31373 0 6.00002Z" fill="#3B7D23" fill-rule="evenodd" transform="matrix(-1 0 0 1 4726 4584)"/><path d="M0 6.00002C-7.63882e-16 2.6863 2.6863 -7.63882e-16 6.00002-1.52776e-15 9.31373-3.05553e-15 12 2.6863 12 6.00002 12 9.31373 9.31373 12 6.00002 12 2.6863 12-3.81941e-15 9.31373 0 6.00002Z" fill="#3B7D23" fill-rule="evenodd" transform="matrix(-1 0 0 1 4694 4596)"/><path d="M0 6.00002C-7.63882e-16 2.6863 2.6863 -7.63882e-16 6.00002-1.52776e-15 9.31373-3.05553e-15 12 2.6863 12 6.00002 12 9.31373 9.31373 12 6.00002 12 2.6863 12-3.81941e-15 9.31373 0 6.00002Z" fill="#3B7D23" fill-rule="evenodd" transform="matrix(-1 0 0 1 4663 4573)"/><path d="M0 6.00002C-8.27541e-16 2.6863 2.91016 -7.63882e-16 6.50003-1.52776e-15 10.0899-3.05553e-15 13.0001 2.6863 13.0001 6.00002 13.0001 9.31373 10.0899 12 6.50003 12 2.91016 12-4.1377e-15 9.31373 0 6.00002Z" fill="#3B7D23" fill-rule="evenodd" transform="matrix(-1 0 0 1 4632 4580)"/><path d="M0 6.00002C-7.63882e-16 2.6863 2.6863 -7.63882e-16 6.00002-1.52776e-15 9.31373-3.05553e-15 12 2.6863 12 6.00002 12 9.31373 9.31373 12 6.00002 12 2.6863 12-3.81941e-15 9.31373 0 6.00002Z" fill="#3B7D23" fill-rule="evenodd" transform="matrix(-1 0 0 1 4600 4589)"/><path d="M0 6.00002C-7.63882e-16 2.6863 2.6863 -7.63882e-16 6.00002-1.52776e-15 9.31373-3.05553e-15 12 2.6863 12 6.00002 12 9.31373 9.31373 12 6.00002 12 2.6863 12-3.81941e-15 9.31373 0 6.00002Z" fill="#3B7D23" fill-rule="evenodd" transform="matrix(-1 0 0 1 4569 4567)"/><path d="M0 6.50003C-8.27518e-16 2.91016 2.91008 -8.27541e-16 6.49985-1.65508e-15 10.0896-3.31016e-15 12.9997 2.91016 12.9997 6.50003 12.9997 10.0899 10.0896 13.0001 6.49985 13.0001 2.91008 13.0001-4.13759e-15 10.0899 0 6.50003Z" fill="#3B7D23" fill-rule="evenodd" transform="matrix(-1 0 0 1 4538 4557)"/><path d="M0 6.50003C-7.63882e-16 2.91016 2.6863 -8.27541e-16 6.00002-1.65508e-15 9.31373-3.31016e-15 12 2.91016 12 6.50003 12 10.0899 9.31373 13.0001 6.00002 13.0001 2.6863 13.0001-3.81941e-15 10.0899 0 6.50003Z" fill="#3B7D23" fill-rule="evenodd" transform="matrix(-1 0 0 1 4506 4576)"/><path d="M0 6.00002C-7.63882e-16 2.6863 2.6863 -7.63882e-16 6.00002-1.52776e-15 9.31373-3.05553e-15 12 2.6863 12 6.00002 12 9.31373 9.31373 12 6.00002 12 2.6863 12-3.81941e-15 9.31373 0 6.00002Z" fill="#3B7D23" fill-rule="evenodd" transform="matrix(-1 0 0 1 4475 4566)"/><path d="M0 6.00002C-8.27541e-16 2.6863 2.91016 -7.63882e-16 6.50003-1.52776e-15 10.0899-3.05553e-15 13.0001 2.6863 13.0001 6.00002 13.0001 9.31373 10.0899 12 6.50003 12 2.91016 12-4.1377e-15 9.31373 0 6.00002Z" fill="#3B7D23" fill-rule="evenodd" transform="matrix(-1 0 0 1 4444 4587)"/><path d="M0 6.00002C-8.27541e-16 2.6863 2.91016 -7.63882e-16 6.50003-1.52776e-15 10.0899-3.05553e-15 13.0001 2.6863 13.0001 6.00002 13.0001 9.31373 10.0899 12 6.50003 12 2.91016 12-4.1377e-15 9.31373 0 6.00002Z" fill="#3B7D23" fill-rule="evenodd" transform="matrix(-1 0 0 1 4413 4577)"/><path d="M0 6.00002C-7.63882e-16 2.6863 2.6863 -7.63882e-16 6.00002-1.52776e-15 9.31373-3.05553e-15 12 2.6863 12 6.00002 12 9.31373 9.31373 12 6.00002 12 2.6863 12-3.81941e-15 9.31373 0 6.00002Z" fill="#3B7D23" fill-rule="evenodd" transform="matrix(-1 0 0 1 4381 4566)"/><path d="M0 6.50003C-7.63882e-16 2.91016 2.6863 -8.27541e-16 6.00002-1.65508e-15 9.31373-3.31016e-15 12 2.91016 12 6.50003 12 10.0899 9.31373 13.0001 6.00002 13.0001 2.6863 13.0001-3.81941e-15 10.0899 0 6.50003Z" fill="#3B7D23" fill-rule="evenodd" transform="matrix(-1 0 0 1 4350 4572)"/><path d="M0 6.00002C-8.27518e-16 2.6863 2.91008 -7.63882e-16 6.49985-1.52776e-15 10.0896-3.05553e-15 12.9997 2.6863 12.9997 6.00002 12.9997 9.31373 10.0896 12 6.49985 12 2.91008 12-4.13759e-15 9.31373 0 6.00002Z" fill="#3B7D23" fill-rule="evenodd" transform="matrix(-1 0 0 1 4319 4566)"/><path d="M0 6.00002C-7.63882e-16 2.6863 2.6863 -7.63882e-16 6.00002-1.52776e-15 9.31373-3.05553e-15 12 2.6863 12 6.00002 12 9.31373 9.31373 12 6.00002 12 2.6863 12-3.81941e-15 9.31373 0 6.00002Z" fill="#3B7D23" fill-rule="evenodd" transform="matrix(-1 0 0 1 5038 4644)"/><path d="M0 6.00002C-7.63882e-16 2.6863 2.6863 -7.63882e-16 6.00002-1.52776e-15 9.31373-3.05553e-15 12 2.6863 12 6.00002 12 9.31373 9.31373 12 6.00002 12 2.6863 12-3.81941e-15 9.31373 0 6.00002Z" fill="#3B7D23" fill-rule="evenodd" transform="matrix(-1 0 0 1 5010 4656)"/><path d="M0 6.00002C-7.63882e-16 2.6863 2.6863 -7.63882e-16 6.00002-1.52776e-15 9.31373-3.05553e-15 12 2.6863 12 6.00002 12 9.31373 9.31373 12 6.00002 12 2.6863 12-3.81941e-15 9.31373 0 6.00002Z" fill="#3B7D23" fill-rule="evenodd" transform="matrix(-1 0 0 1 4976 4646)"/><path d="M0 6.00002C-7.63859e-16 2.6863 2.68622 -7.63882e-16 5.99984-1.52776e-15 9.31345-3.05553e-15 11.9997 2.6863 11.9997 6.00002 11.9997 9.31373 9.31345 12 5.99984 12 2.68622 12-3.8193e-15 9.31373 0 6.00002Z" fill="#3B7D23" fill-rule="evenodd" transform="matrix(-1 0 0 1 4945 4638)"/><path d="M0 6.50003C-8.27541e-16 2.91016 2.91016 -8.27541e-16 6.50003-1.65508e-15 10.0899-3.31016e-15 13.0001 2.91016 13.0001 6.50003 13.0001 10.0899 10.0899 13.0001 6.50003 13.0001 2.91016 13.0001-4.1377e-15 10.0899 0 6.50003Z" fill="#3B7D23" fill-rule="evenodd" transform="matrix(-1 0 0 1 4914 4622)"/><path d="M0 6.00002C-7.63882e-16 2.6863 2.6863 -7.63882e-16 6.00002-1.52776e-15 9.31373-3.05553e-15 12 2.6863 12 6.00002 12 9.31373 9.31373 12 6.00002 12 2.6863 12-3.81941e-15 9.31373 0 6.00002Z" fill="#3B7D23" fill-rule="evenodd" transform="matrix(-1 0 0 1 4882 4634)"/><path d="M0 6.49985C-7.63882e-16 2.91008 2.6863 -8.27518e-16 6.00002-1.65504e-15 9.31373-3.31007e-15 12 2.91008 12 6.49985 12 10.0896 9.31373 12.9997 6.00002 12.9997 2.6863 12.9997-3.81941e-15 10.0896 0 6.49985Z" fill="#3B7D23" fill-rule="evenodd" transform="matrix(-1 0 0 1 4851 4636)"/><path d="M0 5.99984C-8.27541e-16 2.68622 2.91016 -7.63859e-16 6.50003-1.52772e-15 10.0899-3.05544e-15 13.0001 2.68622 13.0001 5.99984 13.0001 9.31345 10.0899 11.9997 6.50003 11.9997 2.91016 11.9997-4.1377e-15 9.31345 0 5.99984Z" fill="#3B7D23" fill-rule="evenodd" transform="matrix(-1 0 0 1 4820 4625)"/><path d="M0 5.99984C-7.63882e-16 2.68622 2.6863 -7.63859e-16 6.00002-1.52772e-15 9.31373-3.05544e-15 12 2.68622 12 5.99984 12 9.31345 9.31373 11.9997 6.00002 11.9997 2.6863 11.9997-3.81941e-15 9.31345 0 5.99984Z" fill="#3B7D23" fill-rule="evenodd" transform="matrix(-1 0 0 1 4788 4658)"/><path d="M0 6.00002C-7.63882e-16 2.6863 2.6863 -7.63882e-16 6.00002-1.52776e-15 9.31373-3.05553e-15 12 2.6863 12 6.00002 12 9.31373 9.31373 12 6.00002 12 2.6863 12-3.81941e-15 9.31373 0 6.00002Z" fill="#3B7D23" fill-rule="evenodd" transform="matrix(-1 0 0 1 4757 4654)"/><path d="M0 6.00002C-8.27518e-16 2.6863 2.91008 -7.63882e-16 6.49985-1.52776e-15 10.0896-3.05553e-15 12.9997 2.6863 12.9997 6.00002 12.9997 9.31373 10.0896 12 6.49985 12 2.91008 12-4.13759e-15 9.31373 0 6.00002Z" fill="#3B7D23" fill-rule="evenodd" transform="matrix(-1 0 0 1 4726 4661)"/><path d="M0 6.00002C-7.63882e-16 2.6863 2.6863 -7.63882e-16 6.00002-1.52776e-15 9.31373-3.05553e-15 12 2.6863 12 6.00002 12 9.31373 9.31373 12 6.00002 12 2.6863 12-3.81941e-15 9.31373 0 6.00002Z" fill="#3B7D23" fill-rule="evenodd" transform="matrix(-1 0 0 1 4694 4650)"/><path d="M0 6.50003C-7.63882e-16 2.91016 2.6863 -8.27541e-16 6.00002-1.65508e-15 9.31373-3.31016e-15 12 2.91016 12 6.50003 12 10.0899 9.31373 13.0001 6.00002 13.0001 2.6863 13.0001-3.81941e-15 10.0899 0 6.50003Z" fill="#3B7D23" fill-rule="evenodd" transform="matrix(-1 0 0 1 4663 4626)"/><path d="M0 6.50003C-8.27541e-16 2.91016 2.91016 -8.27541e-16 6.50003-1.65508e-15 10.0899-3.31016e-15 13.0001 2.91016 13.0001 6.50003 13.0001 10.0899 10.0899 13.0001 6.50003 13.0001 2.91016 13.0001-4.1377e-15 10.0899 0 6.50003Z" fill="#3B7D23" fill-rule="evenodd" transform="matrix(-1 0 0 1 4632 4633)"/><path d="M0 6.00002C-7.63882e-16 2.6863 2.6863 -7.63882e-16 6.00002-1.52776e-15 9.31373-3.05553e-15 12 2.6863 12 6.00002 12 9.31373 9.31373 12 6.00002 12 2.6863 12-3.81941e-15 9.31373 0 6.00002Z" fill="#3B7D23" fill-rule="evenodd" transform="matrix(-1 0 0 1 4600 4642)"/><path d="M0 6.49985C-7.63882e-16 2.91008 2.6863 -8.27518e-16 6.00002-1.65504e-15 9.31373-3.31007e-15 12 2.91008 12 6.49985 12 10.0896 9.31373 12.9997 6.00002 12.9997 2.6863 12.9997-3.81941e-15 10.0896 0 6.49985Z" fill="#3B7D23" fill-rule="evenodd" transform="matrix(-1 0 0 1 4569 4614)"/><path d="M0 6.00002C-8.27518e-16 2.6863 2.91008 -7.63882e-16 6.49985-1.52776e-15 10.0896-3.05553e-15 12.9997 2.6863 12.9997 6.00002 12.9997 9.31373 10.0896 12 6.49985 12 2.91008 12-4.13759e-15 9.31373 0 6.00002Z" fill="#3B7D23" fill-rule="evenodd" transform="matrix(-1 0 0 1 4538 4605)"/><path d="M0 6.00002C-7.63882e-16 2.6863 2.6863 -7.63882e-16 6.00002-1.52776e-15 9.31373-3.05553e-15 12 2.6863 12 6.00002 12 9.31373 9.31373 12 6.00002 12 2.6863 12-3.81941e-15 9.31373 0 6.00002Z" fill="#3B7D23" fill-rule="evenodd" transform="matrix(-1 0 0 1 4506 4624)"/><path d="M0 6.00002C-7.63882e-16 2.6863 2.6863 -7.63882e-16 6.00002-1.52776e-15 9.31373-3.05553e-15 12 2.6863 12 6.00002 12 9.31373 9.31373 12 6.00002 12 2.6863 12-3.81941e-15 9.31373 0 6.00002Z" fill="#3B7D23" fill-rule="evenodd" transform="matrix(-1 0 0 1 4475 4604)"/><path d="M0 5.99984C-8.27541e-16 2.68622 2.91016 -7.63859e-16 6.50003-1.52772e-15 10.0899-3.05544e-15 13.0001 2.68622 13.0001 5.99984 13.0001 9.31345 10.0899 11.9997 6.50003 11.9997 2.91016 11.9997-4.1377e-15 9.31345 0 5.99984Z" fill="#3B7D23" fill-rule="evenodd" transform="matrix(-1 0 0 1 4444 4625)"/><path d="M0 6.00002C-8.27541e-16 2.6863 2.91016 -7.63882e-16 6.50003-1.52776e-15 10.0899-3.05553e-15 13.0001 2.6863 13.0001 6.00002 13.0001 9.31373 10.0899 12 6.50003 12 2.91016 12-4.1377e-15 9.31373 0 6.00002Z" fill="#3B7D23" fill-rule="evenodd" transform="matrix(-1 0 0 1 4413 4615)"/><path d="M0 6.00002C-7.63882e-16 2.6863 2.6863 -7.63882e-16 6.00002-1.52776e-15 9.31373-3.05553e-15 12 2.6863 12 6.00002 12 9.31373 9.31373 12 6.00002 12 2.6863 12-3.81941e-15 9.31373 0 6.00002Z" fill="#3B7D23" fill-rule="evenodd" transform="matrix(-1 0 0 1 4381 4604)"/><path d="M0 6.50003C-7.63882e-16 2.91016 2.6863 -8.27541e-16 6.00002-1.65508e-15 9.31373-3.31016e-15 12 2.91016 12 6.50003 12 10.0899 9.31373 13.0001 6.00002 13.0001 2.6863 13.0001-3.81941e-15 10.0899 0 6.50003Z" fill="#3B7D23" fill-rule="evenodd" transform="matrix(-1 0 0 1 4350 4610)"/><path d="M0 6.00002C-8.27518e-16 2.6863 2.91008 -7.63882e-16 6.49985-1.52776e-15 10.0896-3.05553e-15 12.9997 2.6863 12.9997 6.00002 12.9997 9.31373 10.0896 12 6.49985 12 2.91008 12-4.13759e-15 9.31373 0 6.00002Z" fill="#3B7D23" fill-rule="evenodd" transform="matrix(-1 0 0 1 4319 4604)"/><path d="M0 5.99984C-7.63882e-16 2.68622 2.6863 -7.63859e-16 6.00002-1.52772e-15 9.31373-3.05544e-15 12 2.68622 12 5.99984 12 9.31345 9.31373 11.9997 6.00002 11.9997 2.6863 11.9997-3.81941e-15 9.31345 0 5.99984Z" fill="#0041D8" fill-rule="evenodd" transform="matrix(-1 0 0 1 5039 4713)"/><path d="M0 5.99984C-7.63882e-16 2.68622 2.6863 -7.63859e-16 6.00002-1.52772e-15 9.31373-3.05544e-15 12 2.68622 12 5.99984 12 9.31345 9.31373 11.9997 6.00002 11.9997 2.6863 11.9997-3.81941e-15 9.31345 0 5.99984Z" fill="#0041D8" fill-rule="evenodd" transform="matrix(-1 0 0 1 5010 4713)"/><path d="M0 6.00002C-7.63882e-16 2.6863 2.6863 -7.63882e-16 6.00002-1.52776e-15 9.31373-3.05553e-15 12 2.6863 12 6.00002 12 9.31373 9.31373 12 6.00002 12 2.6863 12-3.81941e-15 9.31373 0 6.00002Z" fill="#0041D8" fill-rule="evenodd" transform="matrix(-1 0 0 1 4976 4722)"/><path d="M0 5.99984C-7.63859e-16 2.68622 2.68622 -7.63859e-16 5.99984-1.52772e-15 9.31345-3.05544e-15 11.9997 2.68622 11.9997 5.99984 11.9997 9.31345 9.31345 11.9997 5.99984 11.9997 2.68622 11.9997-3.8193e-15 9.31345 0 5.99984Z" fill="#0041D8" fill-rule="evenodd" transform="matrix(-1 0 0 1 4945 4713)"/><path d="M0 5.99984C-8.27541e-16 2.68622 2.91016 -7.63859e-16 6.50003-1.52772e-15 10.0899-3.05544e-15 13.0001 2.68622 13.0001 5.99984 13.0001 9.31345 10.0899 11.9997 6.50003 11.9997 2.91016 11.9997-4.1377e-15 9.31345 0 5.99984Z" fill="#0041D8" fill-rule="evenodd" transform="matrix(-1 0 0 1 4914 4735)"/><path d="M0 6.00002C-7.63882e-16 2.6863 2.6863 -7.63882e-16 6.00002-1.52776e-15 9.31373-3.05553e-15 12 2.6863 12 6.00002 12 9.31373 9.31373 12 6.00002 12 2.6863 12-3.81941e-15 9.31373 0 6.00002Z" fill="#0041D8" fill-rule="evenodd" transform="matrix(-1 0 0 1 4882 4727)"/><path d="M0 6.49985C-7.63882e-16 2.91008 2.6863 -8.27518e-16 6.00002-1.65504e-15 9.31373-3.31007e-15 12 2.91008 12 6.49985 12 10.0896 9.31373 12.9997 6.00002 12.9997 2.6863 12.9997-3.81941e-15 10.0896 0 6.49985Z" fill="#0041D8" fill-rule="evenodd" transform="matrix(-1 0 0 1 4851 4735)"/><path d="M0 6.00002C-8.27541e-16 2.6863 2.91016 -7.63882e-16 6.50003-1.52776e-15 10.0899-3.05553e-15 13.0001 2.6863 13.0001 6.00002 13.0001 9.31373 10.0899 12 6.50003 12 2.91016 12-4.1377e-15 9.31373 0 6.00002Z" fill="#0041D8" fill-rule="evenodd" transform="matrix(-1 0 0 1 4820 4751)"/><path d="M0 5.99984C-7.63882e-16 2.68622 2.6863 -7.63859e-16 6.00002-1.52772e-15 9.31373-3.05544e-15 12 2.68622 12 5.99984 12 9.31345 9.31373 11.9997 6.00002 11.9997 2.6863 11.9997-3.81941e-15 9.31345 0 5.99984Z" fill="#0041D8" fill-rule="evenodd" transform="matrix(-1 0 0 1 4788 4735)"/><path d="M0 6.49985C-7.63882e-16 2.91008 2.6863 -8.27518e-16 6.00002-1.65504e-15 9.31373-3.31007e-15 12 2.91008 12 6.49985 12 10.0896 9.31373 12.9997 6.00002 12.9997 2.6863 12.9997-3.81941e-15 10.0896 0 6.49985Z" fill="#0041D8" fill-rule="evenodd" transform="matrix(-1 0 0 1 4757 4723)"/><path d="M0 6.00002C-8.27518e-16 2.6863 2.91008 -7.63882e-16 6.49985-1.52776e-15 10.0896-3.05553e-15 12.9997 2.6863 12.9997 6.00002 12.9997 9.31373 10.0896 12 6.49985 12 2.91008 12-4.13759e-15 9.31373 0 6.00002Z" fill="#0041D8" fill-rule="evenodd" transform="matrix(-1 0 0 1 4726 4764)"/><path d="M0 6.00002C-7.63882e-16 2.6863 2.6863 -7.63882e-16 6.00002-1.52776e-15 9.31373-3.05553e-15 12 2.6863 12 6.00002 12 9.31373 9.31373 12 6.00002 12 2.6863 12-3.81941e-15 9.31373 0 6.00002Z" fill="#0041D8" fill-rule="evenodd" transform="matrix(-1 0 0 1 4694 4760)"/><path d="M0 6.00002C-7.63882e-16 2.6863 2.6863 -7.63882e-16 6.00002-1.52776e-15 9.31373-3.05553e-15 12 2.6863 12 6.00002 12 9.31373 9.31373 12 6.00002 12 2.6863 12-3.81941e-15 9.31373 0 6.00002Z" fill="#0041D8" fill-rule="evenodd" transform="matrix(-1 0 0 1 4663 4775)"/><path d="M0 6.00002C-8.27541e-16 2.6863 2.91016 -7.63882e-16 6.50003-1.52776e-15 10.0899-3.05553e-15 13.0001 2.6863 13.0001 6.00002 13.0001 9.31373 10.0899 12 6.50003 12 2.91016 12-4.1377e-15 9.31373 0 6.00002Z" fill="#0041D8" fill-rule="evenodd" transform="matrix(-1 0 0 1 4632 4756)"/><path d="M0 6.00002C-7.63882e-16 2.6863 2.6863 -7.63882e-16 6.00002-1.52776e-15 9.31373-3.05553e-15 12 2.6863 12 6.00002 12 9.31373 9.31373 12 6.00002 12 2.6863 12-3.81941e-15 9.31373 0 6.00002Z" fill="#0041D8" fill-rule="evenodd" transform="matrix(-1 0 0 1 4600 4751)"/><path d="M0 6.00002C-7.63882e-16 2.6863 2.6863 -7.63882e-16 6.00002-1.52776e-15 9.31373-3.05553e-15 12 2.6863 12 6.00002 12 9.31373 9.31373 12 6.00002 12 2.6863 12-3.81941e-15 9.31373 0 6.00002Z" fill="#0041D8" fill-rule="evenodd" transform="matrix(-1 0 0 1 4569 4785)"/><path d="M0 6.00002C-8.27518e-16 2.6863 2.91008 -7.63882e-16 6.49985-1.52776e-15 10.0896-3.05553e-15 12.9997 2.6863 12.9997 6.00002 12.9997 9.31373 10.0896 12 6.49985 12 2.91008 12-4.13759e-15 9.31373 0 6.00002Z" fill="#0041D8" fill-rule="evenodd" transform="matrix(-1 0 0 1 4538 4771)"/><path d="M0 6.00002C-7.63882e-16 2.6863 2.6863 -7.63882e-16 6.00002-1.52776e-15 9.31373-3.05553e-15 12 2.6863 12 6.00002 12 9.31373 9.31373 12 6.00002 12 2.6863 12-3.81941e-15 9.31373 0 6.00002Z" fill="#0041D8" fill-rule="evenodd" transform="matrix(-1 0 0 1 4506 4771)"/><path d="M0 6.00002C-7.63882e-16 2.6863 2.6863 -7.63882e-16 6.00002-1.52776e-15 9.31373-3.05553e-15 12 2.6863 12 6.00002 12 9.31373 9.31373 12 6.00002 12 2.6863 12-3.81941e-15 9.31373 0 6.00002Z" fill="#0041D8" fill-rule="evenodd" transform="matrix(-1 0 0 1 4475 4776)"/><path d="M0 6.00002C-8.27541e-16 2.6863 2.91016 -7.63882e-16 6.50003-1.52776e-15 10.0899-3.05553e-15 13.0001 2.6863 13.0001 6.00002 13.0001 9.31373 10.0899 12 6.50003 12 2.91016 12-4.1377e-15 9.31373 0 6.00002Z" fill="#0041D8" fill-rule="evenodd" transform="matrix(-1 0 0 1 4444 4776)"/><path d="M0 6.49985C-8.27541e-16 2.91008 2.91016 -8.27518e-16 6.50003-1.65504e-15 10.0899-3.31007e-15 13.0001 2.91008 13.0001 6.49985 13.0001 10.0896 10.0899 12.9997 6.50003 12.9997 2.91016 12.9997-4.1377e-15 10.0896 0 6.49985Z" fill="#0041D8" fill-rule="evenodd" transform="matrix(-1 0 0 1 4413 4767)"/><path d="M0 6.00002C-7.63882e-16 2.6863 2.6863 -7.63882e-16 6.00002-1.52776e-15 9.31373-3.05553e-15 12 2.6863 12 6.00002 12 9.31373 9.31373 12 6.00002 12 2.6863 12-3.81941e-15 9.31373 0 6.00002Z" fill="#0041D8" fill-rule="evenodd" transform="matrix(-1 0 0 1 4381 4776)"/><path d="M0 6.00002C-7.63882e-16 2.6863 2.6863 -7.63882e-16 6.00002-1.52776e-15 9.31373-3.05553e-15 12 2.6863 12 6.00002 12 9.31373 9.31373 12 6.00002 12 2.6863 12-3.81941e-15 9.31373 0 6.00002Z" fill="#0041D8" fill-rule="evenodd" transform="matrix(-1 0 0 1 4350 4771)"/><path d="M0 6.00002C-8.27518e-16 2.6863 2.91008 -7.63882e-16 6.49985-1.52776e-15 10.0896-3.05553e-15 12.9997 2.6863 12.9997 6.00002 12.9997 9.31373 10.0896 12 6.49985 12 2.91008 12-4.13759e-15 9.31373 0 6.00002Z" fill="#0041D8" fill-rule="evenodd" transform="matrix(-1 0 0 1 4319 4771)"/><path d="M0 6.50003C-7.63882e-16 2.91016 2.6863 -8.27541e-16 6.00002-1.65508e-15 9.31373-3.31016e-15 12 2.91016 12 6.50003 12 10.0899 9.31373 13.0001 6.00002 13.0001 2.6863 13.0001-3.81941e-15 10.0899 0 6.50003Z" fill="#0041D8" fill-rule="evenodd" transform="matrix(-1 0 0 1 5039 4802)"/><path d="M0 5.99984C-7.63882e-16 2.68622 2.6863 -7.63859e-16 6.00002-1.52772e-15 9.31373-3.05544e-15 12 2.68622 12 5.99984 12 9.31345 9.31373 11.9997 6.00002 11.9997 2.6863 11.9997-3.81941e-15 9.31345 0 5.99984Z" fill="#0041D8" fill-rule="evenodd" transform="matrix(-1 0 0 1 5010 4823)"/><path d="M0 6.00002C-7.63882e-16 2.6863 2.6863 -7.63882e-16 6.00002-1.52776e-15 9.31373-3.05553e-15 12 2.6863 12 6.00002 12 9.31373 9.31373 12 6.00002 12 2.6863 12-3.81941e-15 9.31373 0 6.00002Z" fill="#0041D8" fill-rule="evenodd" transform="matrix(-1 0 0 1 4976 4833)"/><path d="M0 5.99984C-7.63859e-16 2.68622 2.68622 -7.63859e-16 5.99984-1.52772e-15 9.31345-3.05544e-15 11.9997 2.68622 11.9997 5.99984 11.9997 9.31345 9.31345 11.9997 5.99984 11.9997 2.68622 11.9997-3.8193e-15 9.31345 0 5.99984Z" fill="#0041D8" fill-rule="evenodd" transform="matrix(-1 0 0 1 4945 4823)"/><path d="M0 6.00002C-8.27541e-16 2.6863 2.91016 -7.63882e-16 6.50003-1.52776e-15 10.0899-3.05553e-15 13.0001 2.6863 13.0001 6.00002 13.0001 9.31373 10.0899 12 6.50003 12 2.91016 12-4.1377e-15 9.31373 0 6.00002Z" fill="#0041D8" fill-rule="evenodd" transform="matrix(-1 0 0 1 4914 4831)"/><path d="M0 5.99984C-7.63882e-16 2.68622 2.6863 -7.63859e-16 6.00002-1.52772e-15 9.31373-3.05544e-15 12 2.68622 12 5.99984 12 9.31345 9.31373 11.9997 6.00002 11.9997 2.6863 11.9997-3.81941e-15 9.31345 0 5.99984Z" fill="#0041D8" fill-rule="evenodd" transform="matrix(-1 0 0 1 4882 4823)"/><path d="M0 6.00002C-7.63882e-16 2.6863 2.6863 -7.63882e-16 6.00002-1.52776e-15 9.31373-3.05553e-15 12 2.6863 12 6.00002 12 9.31373 9.31373 12 6.00002 12 2.6863 12-3.81941e-15 9.31373 0 6.00002Z" fill="#0041D8" fill-rule="evenodd" transform="matrix(-1 0 0 1 4851 4832)"/><path d="M0 6.00002C-8.27541e-16 2.6863 2.91016 -7.63882e-16 6.50003-1.52776e-15 10.0899-3.05553e-15 13.0001 2.6863 13.0001 6.00002 13.0001 9.31373 10.0899 12 6.50003 12 2.91016 12-4.1377e-15 9.31373 0 6.00002Z" fill="#0041D8" fill-rule="evenodd" transform="matrix(-1 0 0 1 4820 4800)"/><path d="M0 6.00002C-7.63882e-16 2.6863 2.6863 -7.63882e-16 6.00002-1.52776e-15 9.31373-3.05553e-15 12 2.6863 12 6.00002 12 9.31373 9.31373 12 6.00002 12 2.6863 12-3.81941e-15 9.31373 0 6.00002Z" fill="#0041D8" fill-rule="evenodd" transform="matrix(-1 0 0 1 4788 4811)"/><path d="M0 6.00002C-7.63882e-16 2.6863 2.6863 -7.63882e-16 6.00002-1.52776e-15 9.31373-3.05553e-15 12 2.6863 12 6.00002 12 9.31373 9.31373 12 6.00002 12 2.6863 12-3.81941e-15 9.31373 0 6.00002Z" fill="#0041D8" fill-rule="evenodd" transform="matrix(-1 0 0 1 4757 4800)"/><path d="M0 6.50003C-8.27518e-16 2.91016 2.91008 -8.27541e-16 6.49985-1.65508e-15 10.0896-3.31016e-15 12.9997 2.91016 12.9997 6.50003 12.9997 10.0899 10.0896 13.0001 6.49985 13.0001 2.91008 13.0001-4.13759e-15 10.0899 0 6.50003Z" fill="#0041D8" fill-rule="evenodd" transform="matrix(-1 0 0 1 4726 4859)"/><path d="M0 6.00002C-7.63882e-16 2.6863 2.6863 -7.63882e-16 6.00002-1.52776e-15 9.31373-3.05553e-15 12 2.6863 12 6.00002 12 9.31373 9.31373 12 6.00002 12 2.6863 12-3.81941e-15 9.31373 0 6.00002Z" fill="#0041D8" fill-rule="evenodd" transform="matrix(-1 0 0 1 4694 4840)"/><path d="M0 5.99984C-7.63882e-16 2.68622 2.6863 -7.63859e-16 6.00002-1.52772e-15 9.31373-3.05544e-15 12 2.68622 12 5.99984 12 9.31345 9.31373 11.9997 6.00002 11.9997 2.6863 11.9997-3.81941e-15 9.31345 0 5.99984Z" fill="#0041D8" fill-rule="evenodd" transform="matrix(-1 0 0 1 4663 4834)"/><path d="M0 6.00002C-8.27541e-16 2.6863 2.91016 -7.63882e-16 6.50003-1.52776e-15 10.0899-3.05553e-15 13.0001 2.6863 13.0001 6.00002 13.0001 9.31373 10.0899 12 6.50003 12 2.91016 12-4.1377e-15 9.31373 0 6.00002Z" fill="#0041D8" fill-rule="evenodd" transform="matrix(-1 0 0 1 4632 4795)"/><path d="M0 6.50003C-7.63882e-16 2.91016 2.6863 -8.27541e-16 6.00002-1.65508e-15 9.31373-3.31016e-15 12 2.91016 12 6.50003 12 10.0899 9.31373 13.0001 6.00002 13.0001 2.6863 13.0001-3.81941e-15 10.0899 0 6.50003Z" fill="#0041D8" fill-rule="evenodd" transform="matrix(-1 0 0 1 4600 4827)"/><path d="M0 5.99984C-7.63882e-16 2.68622 2.6863 -7.63859e-16 6.00002-1.52772e-15 9.31373-3.05544e-15 12 2.68622 12 5.99984 12 9.31345 9.31373 11.9997 6.00002 11.9997 2.6863 11.9997-3.81941e-15 9.31345 0 5.99984Z" fill="#0041D8" fill-rule="evenodd" transform="matrix(-1 0 0 1 4569 4834)"/><path d="M0 6.00002C-8.27518e-16 2.6863 2.91008 -7.63882e-16 6.49985-1.52776e-15 10.0896-3.05553e-15 12.9997 2.6863 12.9997 6.00002 12.9997 9.31373 10.0896 12 6.49985 12 2.91008 12-4.13759e-15 9.31373 0 6.00002Z" fill="#0041D8" fill-rule="evenodd" transform="matrix(-1 0 0 1 4538 4820)"/><path d="M0 6.00002C-7.63882e-16 2.6863 2.6863 -7.63882e-16 6.00002-1.52776e-15 9.31373-3.05553e-15 12 2.6863 12 6.00002 12 9.31373 9.31373 12 6.00002 12 2.6863 12-3.81941e-15 9.31373 0 6.00002Z" fill="#0041D8" fill-rule="evenodd" transform="matrix(-1 0 0 1 4506 4820)"/><path d="M0 6.00002C-7.63882e-16 2.6863 2.6863 -7.63882e-16 6.00002-1.52776e-15 9.31373-3.05553e-15 12 2.6863 12 6.00002 12 9.31373 9.31373 12 6.00002 12 2.6863 12-3.81941e-15 9.31373 0 6.00002Z" fill="#0041D8" fill-rule="evenodd" transform="matrix(-1 0 0 1 4475 4825)"/><path d="M0 6.00002C-8.27541e-16 2.6863 2.91016 -7.63882e-16 6.50003-1.52776e-15 10.0899-3.05553e-15 13.0001 2.6863 13.0001 6.00002 13.0001 9.31373 10.0899 12 6.50003 12 2.91016 12-4.1377e-15 9.31373 0 6.00002Z" fill="#0041D8" fill-rule="evenodd" transform="matrix(-1 0 0 1 4444 4825)"/><path d="M0 6.50003C-8.27541e-16 2.91016 2.91016 -8.27541e-16 6.50003-1.65508e-15 10.0899-3.31016e-15 13.0001 2.91016 13.0001 6.50003 13.0001 10.0899 10.0899 13.0001 6.50003 13.0001 2.91016 13.0001-4.1377e-15 10.0899 0 6.50003Z" fill="#0041D8" fill-rule="evenodd" transform="matrix(-1 0 0 1 4413 4816)"/><path d="M0 6.00002C-7.63882e-16 2.6863 2.6863 -7.63882e-16 6.00002-1.52776e-15 9.31373-3.05553e-15 12 2.6863 12 6.00002 12 9.31373 9.31373 12 6.00002 12 2.6863 12-3.81941e-15 9.31373 0 6.00002Z" fill="#0041D8" fill-rule="evenodd" transform="matrix(-1 0 0 1 4381 4825)"/><path d="M0 6.00002C-7.63882e-16 2.6863 2.6863 -7.63882e-16 6.00002-1.52776e-15 9.31373-3.05553e-15 12 2.6863 12 6.00002 12 9.31373 9.31373 12 6.00002 12 2.6863 12-3.81941e-15 9.31373 0 6.00002Z" fill="#0041D8" fill-rule="evenodd" transform="matrix(-1 0 0 1 4350 4820)"/><path d="M0 6.00002C-8.27518e-16 2.6863 2.91008 -7.63882e-16 6.49985-1.52776e-15 10.0896-3.05553e-15 12.9997 2.6863 12.9997 6.00002 12.9997 9.31373 10.0896 12 6.49985 12 2.91008 12-4.13759e-15 9.31373 0 6.00002Z" fill="#0041D8" fill-rule="evenodd" transform="matrix(-1 0 0 1 4319 4820)"/><path d="M0 6.50003C-7.63882e-16 2.91016 2.6863 -8.27541e-16 6.00002-1.65508e-15 9.31373-3.31016e-15 12 2.91016 12 6.50003 12 10.0899 9.31373 13.0001 6.00002 13.0001 2.6863 13.0001-3.81941e-15 10.0899 0 6.50003Z" fill="#0041D8" fill-rule="evenodd" transform="matrix(-1 0 0 1 5039 4893)"/><path d="M0 6.50003C-7.63882e-16 2.91016 2.6863 -8.27541e-16 6.00002-1.65508e-15 9.31373-3.31016e-15 12 2.91016 12 6.50003 12 10.0899 9.31373 13.0001 6.00002 13.0001 2.6863 13.0001-3.81941e-15 10.0899 0 6.50003Z" fill="#0041D8" fill-rule="evenodd" transform="matrix(-1 0 0 1 5010 4893)"/><path d="M0 6.00002C-7.63882e-16 2.6863 2.6863 -7.63882e-16 6.00002-1.52776e-15 9.31373-3.05553e-15 12 2.6863 12 6.00002 12 9.31373 9.31373 12 6.00002 12 2.6863 12-3.81941e-15 9.31373 0 6.00002Z" fill="#0041D8" fill-rule="evenodd" transform="matrix(-1 0 0 1 4976 4903)"/><path d="M0 6.50003C-7.63859e-16 2.91016 2.68622 -8.27541e-16 5.99984-1.65508e-15 9.31345-3.31016e-15 11.9997 2.91016 11.9997 6.50003 11.9997 10.0899 9.31345 13.0001 5.99984 13.0001 2.68622 13.0001-3.8193e-15 10.0899 0 6.50003Z" fill="#0041D8" fill-rule="evenodd" transform="matrix(-1 0 0 1 4945 4893)"/><path d="M0 5.99984C-8.27541e-16 2.68622 2.91016 -7.63859e-16 6.50003-1.52772e-15 10.0899-3.05544e-15 13.0001 2.68622 13.0001 5.99984 13.0001 9.31345 10.0899 11.9997 6.50003 11.9997 2.91016 11.9997-4.1377e-15 9.31345 0 5.99984Z" fill="#0041D8" fill-rule="evenodd" transform="matrix(-1 0 0 1 4914 4900)"/><path d="M0 6.50003C-7.63882e-16 2.91016 2.6863 -8.27541e-16 6.00002-1.65508e-15 9.31373-3.31016e-15 12 2.91016 12 6.50003 12 10.0899 9.31373 13.0001 6.00002 13.0001 2.6863 13.0001-3.81941e-15 10.0899 0 6.50003Z" fill="#0041D8" fill-rule="evenodd" transform="matrix(-1 0 0 1 4882 4892)"/><path d="M0 6.00002C-7.63882e-16 2.6863 2.6863 -7.63882e-16 6.00002-1.52776e-15 9.31373-3.05553e-15 12 2.6863 12 6.00002 12 9.31373 9.31373 12 6.00002 12 2.6863 12-3.81941e-15 9.31373 0 6.00002Z" fill="#0041D8" fill-rule="evenodd" transform="matrix(-1 0 0 1 4851 4901)"/><path d="M0 6.00002C-8.27541e-16 2.6863 2.91016 -7.63882e-16 6.50003-1.52776e-15 10.0899-3.05553e-15 13.0001 2.6863 13.0001 6.00002 13.0001 9.31373 10.0899 12 6.50003 12 2.91016 12-4.1377e-15 9.31373 0 6.00002Z" fill="#0041D8" fill-rule="evenodd" transform="matrix(-1 0 0 1 4820 4890)"/><path d="M0 6.00002C-7.63882e-16 2.6863 2.6863 -7.63882e-16 6.00002-1.52776e-15 9.31373-3.05553e-15 12 2.6863 12 6.00002 12 9.31373 9.31373 12 6.00002 12 2.6863 12-3.81941e-15 9.31373 0 6.00002Z" fill="#0041D8" fill-rule="evenodd" transform="matrix(-1 0 0 1 4788 4901)"/><path d="M0 6.00002C-7.63882e-16 2.6863 2.6863 -7.63882e-16 6.00002-1.52776e-15 9.31373-3.05553e-15 12 2.6863 12 6.00002 12 9.31373 9.31373 12 6.00002 12 2.6863 12-3.81941e-15 9.31373 0 6.00002Z" fill="#0041D8" fill-rule="evenodd" transform="matrix(-1 0 0 1 4757 4890)"/><path d="M0 6.00002C-8.27518e-16 2.6863 2.91008 -7.63882e-16 6.49985-1.52776e-15 10.0896-3.05553e-15 12.9997 2.6863 12.9997 6.00002 12.9997 9.31373 10.0896 12 6.49985 12 2.91008 12-4.13759e-15 9.31373 0 6.00002Z" fill="#0041D8" fill-rule="evenodd" transform="matrix(-1 0 0 1 4726 4892)"/><path d="M0 6.50003C-7.63882e-16 2.91016 2.6863 -8.27541e-16 6.00002-1.65508e-15 9.31373-3.31016e-15 12 2.91016 12 6.50003 12 10.0899 9.31373 13.0001 6.00002 13.0001 2.6863 13.0001-3.81941e-15 10.0899 0 6.50003Z" fill="#0041D8" fill-rule="evenodd" transform="matrix(-1 0 0 1 4694 4872)"/><path d="M0 5.99984C-7.63882e-16 2.68622 2.6863 -7.63859e-16 6.00002-1.52772e-15 9.31373-3.05544e-15 12 2.68622 12 5.99984 12 9.31345 9.31373 11.9997 6.00002 11.9997 2.6863 11.9997-3.81941e-15 9.31345 0 5.99984Z" fill="#0041D8" fill-rule="evenodd" transform="matrix(-1 0 0 1 4663 4867)"/><path d="M0 6.00002C-8.27541e-16 2.6863 2.91016 -7.63882e-16 6.50003-1.52776e-15 10.0899-3.05553e-15 13.0001 2.6863 13.0001 6.00002 13.0001 9.31373 10.0899 12 6.50003 12 2.91016 12-4.1377e-15 9.31373 0 6.00002Z" fill="#0041D8" fill-rule="evenodd" transform="matrix(-1 0 0 1 4632 4840)"/><path d="M0 6.50003C-7.63882e-16 2.91016 2.6863 -8.27541e-16 6.00002-1.65508e-15 9.31373-3.31016e-15 12 2.91016 12 6.50003 12 10.0899 9.31373 13.0001 6.00002 13.0001 2.6863 13.0001-3.81941e-15 10.0899 0 6.50003Z" fill="#0041D8" fill-rule="evenodd" transform="matrix(-1 0 0 1 4600 4872)"/><path d="M0 6.49985C-7.63882e-16 2.91008 2.6863 -8.27518e-16 6.00002-1.65504e-15 9.31373-3.31007e-15 12 2.91008 12 6.49985 12 10.0896 9.31373 12.9997 6.00002 12.9997 2.6863 12.9997-3.81941e-15 10.0896 0 6.49985Z" fill="#0041D8" fill-rule="evenodd" transform="matrix(-1 0 0 1 4569 4866)"/><path d="M0 6.00002C-8.27518e-16 2.6863 2.91008 -7.63882e-16 6.49985-1.52776e-15 10.0896-3.05553e-15 12.9997 2.6863 12.9997 6.00002 12.9997 9.31373 10.0896 12 6.49985 12 2.91008 12-4.13759e-15 9.31373 0 6.00002Z" fill="#0041D8" fill-rule="evenodd" transform="matrix(-1 0 0 1 4538 4853)"/><path d="M0 6.00002C-7.63882e-16 2.6863 2.6863 -7.63882e-16 6.00002-1.52776e-15 9.31373-3.05553e-15 12 2.6863 12 6.00002 12 9.31373 9.31373 12 6.00002 12 2.6863 12-3.81941e-15 9.31373 0 6.00002Z" fill="#0041D8" fill-rule="evenodd" transform="matrix(-1 0 0 1 4506 4853)"/><path d="M0 6.00002C-7.63882e-16 2.6863 2.6863 -7.63882e-16 6.00002-1.52776e-15 9.31373-3.05553e-15 12 2.6863 12 6.00002 12 9.31373 9.31373 12 6.00002 12 2.6863 12-3.81941e-15 9.31373 0 6.00002Z" fill="#0041D8" fill-rule="evenodd" transform="matrix(-1 0 0 1 4475 4858)"/><path d="M0 6.00002C-8.27541e-16 2.6863 2.91016 -7.63882e-16 6.50003-1.52776e-15 10.0899-3.05553e-15 13.0001 2.6863 13.0001 6.00002 13.0001 9.31373 10.0899 12 6.50003 12 2.91016 12-4.1377e-15 9.31373 0 6.00002Z" fill="#0041D8" fill-rule="evenodd" transform="matrix(-1 0 0 1 4444 4858)"/><path d="M0 6.00002C-8.27541e-16 2.6863 2.91016 -7.63882e-16 6.50003-1.52776e-15 10.0899-3.05553e-15 13.0001 2.6863 13.0001 6.00002 13.0001 9.31373 10.0899 12 6.50003 12 2.91016 12-4.1377e-15 9.31373 0 6.00002Z" fill="#0041D8" fill-rule="evenodd" transform="matrix(-1 0 0 1 4413 4849)"/><path d="M0 6.00002C-7.63882e-16 2.6863 2.6863 -7.63882e-16 6.00002-1.52776e-15 9.31373-3.05553e-15 12 2.6863 12 6.00002 12 9.31373 9.31373 12 6.00002 12 2.6863 12-3.81941e-15 9.31373 0 6.00002Z" fill="#0041D8" fill-rule="evenodd" transform="matrix(-1 0 0 1 4381 4858)"/><path d="M0 6.00002C-7.63882e-16 2.6863 2.6863 -7.63882e-16 6.00002-1.52776e-15 9.31373-3.05553e-15 12 2.6863 12 6.00002 12 9.31373 9.31373 12 6.00002 12 2.6863 12-3.81941e-15 9.31373 0 6.00002Z" fill="#0041D8" fill-rule="evenodd" transform="matrix(-1 0 0 1 4350 4853)"/><path d="M0 6.00002C-8.27518e-16 2.6863 2.91008 -7.63882e-16 6.49985-1.52776e-15 10.0896-3.05553e-15 12.9997 2.6863 12.9997 6.00002 12.9997 9.31373 10.0896 12 6.49985 12 2.91008 12-4.13759e-15 9.31373 0 6.00002Z" fill="#0041D8" fill-rule="evenodd" transform="matrix(-1 0 0 1 4319 4853)"/><path d="M4227.5 4428C4227.5 4421.1 4233.1 4415.5 4240 4415.5L4240 4415.5C4246.9 4415.5 4252.5 4421.1 4252.5 4428L4252.5 4963C4252.5 4969.9 4246.9 4975.5 4240 4975.5L4240 4975.5C4233.1 4975.5 4227.5 4969.9 4227.5 4963Z" stroke="#0F1B37" stroke-width="4.58333" stroke-linejoin="round" stroke-miterlimit="10" fill="url(#fill1)" fill-rule="evenodd"/><path d="M4273.5 4975.5 5051.38 4975.5" stroke="#000000" stroke-width="6.875" stroke-linejoin="round" stroke-miterlimit="10" fill="none" fill-rule="evenodd"/><path d="M0 0 0.000360892 23.7716" stroke="#000000" stroke-width="6.875" stroke-linejoin="round" stroke-miterlimit="10" fill="none" fill-rule="evenodd" transform="matrix(1 0 0 -1 4290.5 4987.27)"/><path d="M0 0 0.000360892 23.7716" stroke="#000000" stroke-width="6.875" stroke-linejoin="round" stroke-miterlimit="10" fill="none" fill-rule="evenodd" transform="matrix(1 0 0 -1 4345.5 4987.27)"/><path d="M0 0 0.000360892 23.7716" stroke="#000000" stroke-width="6.875" stroke-linejoin="round" stroke-miterlimit="10" fill="none" fill-rule="evenodd" transform="matrix(1 0 0 -1 4399.5 4987.27)"/><path d="M0 0 0.000360892 23.7716" stroke="#000000" stroke-width="6.875" stroke-linejoin="round" stroke-miterlimit="10" fill="none" fill-rule="evenodd" transform="matrix(1 0 0 -1 4453.5 4987.27)"/><path d="M0 0 0.000360892 23.7716" stroke="#000000" stroke-width="6.875" stroke-linejoin="round" stroke-miterlimit="10" fill="none" fill-rule="evenodd" transform="matrix(1 0 0 -1 4507.5 4987.27)"/><path d="M0 0 0.000360892 23.7716" stroke="#000000" stroke-width="6.875" stroke-linejoin="round" stroke-miterlimit="10" fill="none" fill-rule="evenodd" transform="matrix(1 0 0 -1 4561.5 4987.27)"/><path d="M0 0 0.000360892 23.7716" stroke="#000000" stroke-width="6.875" stroke-linejoin="round" stroke-miterlimit="10" fill="none" fill-rule="evenodd" transform="matrix(1 0 0 -1 4615.5 4987.27)"/><path d="M0 0 0.000360892 23.7716" stroke="#000000" stroke-width="6.875" stroke-linejoin="round" stroke-miterlimit="10" fill="none" fill-rule="evenodd" transform="matrix(1 0 0 -1 4670.5 4987.27)"/><path d="M0 0 0.000360892 23.7716" stroke="#000000" stroke-width="6.875" stroke-linejoin="round" stroke-miterlimit="10" fill="none" fill-rule="evenodd" transform="matrix(1 0 0 -1 4724.5 4987.27)"/><path d="M0 0 0.000360892 23.7716" stroke="#000000" stroke-width="6.875" stroke-linejoin="round" stroke-miterlimit="10" fill="none" fill-rule="evenodd" transform="matrix(1 0 0 -1 4778.5 4987.27)"/><path d="M0 0 0.000360892 23.7716" stroke="#000000" stroke-width="6.875" stroke-linejoin="round" stroke-miterlimit="10" fill="none" fill-rule="evenodd" transform="matrix(1 0 0 -1 4832.5 4987.27)"/><path d="M0 0 0.000360892 23.7716" stroke="#000000" stroke-width="6.875" stroke-linejoin="round" stroke-miterlimit="10" fill="none" fill-rule="evenodd" transform="matrix(1 0 0 -1 4886.5 4987.27)"/><path d="M0 0 0.000360892 23.7716" stroke="#000000" stroke-width="6.875" stroke-linejoin="round" stroke-miterlimit="10" fill="none" fill-rule="evenodd" transform="matrix(1 0 0 -1 4940.5 4987.27)"/><path d="M0 0 0.000360892 23.7716" stroke="#000000" stroke-width="6.875" stroke-linejoin="round" stroke-miterlimit="10" fill="none" fill-rule="evenodd" transform="matrix(1 0 0 -1 4995.5 4987.27)"/><path d="M0 0 0.000360892 23.7716" stroke="#000000" stroke-width="6.875" stroke-linejoin="round" stroke-miterlimit="10" fill="none" fill-rule="evenodd" transform="matrix(1 0 0 -1 5049.5 4987.27)"/></g></svg>