<svg width="590" height="576" xmlns="http://www.w3.org/2000/svg" xmlns:xlink="http://www.w3.org/1999/xlink" xml:space="preserve" overflow="hidden"><defs><linearGradient x1="5425.51" y1="3670.5" x2="5425.51" y2="4195.5" gradientUnits="userSpaceOnUse" spreadMethod="reflect" id="fill0"><stop offset="0" stop-color="#00B050"/><stop offset="0.5" stop-color="#FFFF00"/><stop offset="1" stop-color="#FF0000"/></linearGradient><linearGradient x1="5998.5" y1="4230" x2="5472.5" y2="4230" gradientUnits="userSpaceOnUse" spreadMethod="reflect" id="fill1"><stop offset="0" stop-color="#00B050"/><stop offset="0.5" stop-color="#FFFF00"/><stop offset="1" stop-color="#FF0000"/></linearGradient></defs><g transform="translate(-5411 -3668)"><path d="M5413.5 3682.51C5413.5 3675.88 5418.88 3670.5 5425.51 3670.5L5425.51 3670.5C5432.14 3670.5 5437.52 3675.88 5437.52 3682.51L5437.52 4183.49C5437.52 4190.12 5432.14 4195.5 5425.51 4195.5L5425.51 4195.5C5418.88 4195.5 5413.5 4190.12 5413.5 4183.49Z" stroke="#0F1B37" stroke-width="4.58333" stroke-linejoin="round" stroke-miterlimit="10" fill="url(#fill0)" fill-rule="evenodd"/><path d="M0 5.5C-7.63882e-16 2.46243 2.6863 -7.00223e-16 6.00002-1.40045e-15 9.31373-2.80089e-15 12 2.46243 12 5.5 12 8.53757 9.31373 11 6.00002 11 2.6863 11-3.81941e-15 8.53757 0 5.5Z" fill-rule="evenodd" transform="matrix(-1 0 0 1 5971 3681)"/><path d="M0 6.00002C-7.00223e-16 2.6863 2.46243 -7.63882e-16 5.5-1.52776e-15 8.53757-3.05553e-15 11 2.6863 11 6.00002 11 9.31373 8.53757 12 5.5 12 2.46243 12-3.50112e-15 9.31373 0 6.00002Z" fill-rule="evenodd" transform="matrix(-1 0 0 1 5941 3717)"/><path d="M0 5.5C-7.63882e-16 2.46243 2.6863 -7.00223e-16 6.00002-1.40045e-15 9.31373-2.80089e-15 12 2.46243 12 5.5 12 8.53757 9.31373 11 6.00002 11 2.6863 11-3.81941e-15 8.53757 0 5.5Z" fill-rule="evenodd" transform="matrix(-1 0 0 1 5912 3710)"/><path d="M0 5.5C-7.63882e-16 2.46243 2.6863 -7.00223e-16 6.00002-1.40045e-15 9.31373-2.80089e-15 12 2.46243 12 5.5 12 8.53757 9.31373 11 6.00002 11 2.6863 11-3.81941e-15 8.53757 0 5.5Z" fill-rule="evenodd" transform="matrix(-1 0 0 1 5883 3722)"/><path d="M0 6.00002C-7.00223e-16 2.6863 2.46243 -7.63882e-16 5.5-1.52776e-15 8.53757-3.05553e-15 11 2.6863 11 6.00002 11 9.31373 8.53757 12 5.5 12 2.46243 12-3.50112e-15 9.31373 0 6.00002Z" fill-rule="evenodd" transform="matrix(-1 0 0 1 5853 3742)"/><path d="M0 5.5C-7.63882e-16 2.46243 2.6863 -7.00223e-16 6.00002-1.40045e-15 9.31373-2.80089e-15 12 2.46243 12 5.5 12 8.53757 9.31373 11 6.00002 11 2.6863 11-3.81941e-15 8.53757 0 5.5Z" fill-rule="evenodd" transform="matrix(-1 0 0 1 5824 3773)"/><path d="M0 6.00002C-7.00223e-16 2.6863 2.46243 -7.63882e-16 5.5-1.52776e-15 8.53757-3.05553e-15 11 2.6863 11 6.00002 11 9.31373 8.53757 12 5.5 12 2.46243 12-3.50112e-15 9.31373 0 6.00002Z" fill-rule="evenodd" transform="matrix(-1 0 0 1 5794 3784)"/><path d="M0 6.00002C-7.63882e-16 2.6863 2.6863 -7.63882e-16 6.00002-1.52776e-15 9.31373-3.05553e-15 12 2.6863 12 6.00002 12 9.31373 9.31373 12 6.00002 12 2.6863 12-3.81941e-15 9.31373 0 6.00002Z" fill-rule="evenodd" transform="matrix(-1 0 0 1 5765 3799)"/><path d="M0 5.5C-7.00223e-16 2.46243 2.46243 -7.00223e-16 5.5-1.40045e-15 8.53757-2.80089e-15 11 2.46243 11 5.5 11 8.53757 8.53757 11 5.5 11 2.46243 11-3.50112e-15 8.53757 0 5.5Z" fill-rule="evenodd" transform="matrix(-1 0 0 1 5735 3820)"/><path d="M0 6.00002C-7.63882e-16 2.6863 2.6863 -7.63882e-16 6.00002-1.52776e-15 9.31373-3.05553e-15 12 2.6863 12 6.00002 12 9.31373 9.31373 12 6.00002 12 2.6863 12-3.81941e-15 9.31373 0 6.00002Z" fill-rule="evenodd" transform="matrix(-1 0 0 1 5706 3864)"/><path d="M0 6.00002C-7.00223e-16 2.6863 2.46243 -7.63882e-16 5.5-1.52776e-15 8.53757-3.05553e-15 11 2.6863 11 6.00002 11 9.31373 8.53757 12 5.5 12 2.46243 12-3.50112e-15 9.31373 0 6.00002Z" fill-rule="evenodd" transform="matrix(-1 0 0 1 5676 3896)"/><path d="M0 6.00002C-7.00223e-16 2.6863 2.46243 -7.63882e-16 5.5-1.52776e-15 8.53757-3.05553e-15 11 2.6863 11 6.00002 11 9.31373 8.53757 12 5.5 12 2.46243 12-3.50112e-15 9.31373 0 6.00002Z" fill-rule="evenodd" transform="matrix(-1 0 0 1 5647 3908)"/><path d="M0 5.5C-7.63882e-16 2.46243 2.6863 -7.00223e-16 6.00002-1.40045e-15 9.31373-2.80089e-15 12 2.46243 12 5.5 12 8.53757 9.31373 11 6.00002 11 2.6863 11-3.81941e-15 8.53757 0 5.5Z" fill-rule="evenodd" transform="matrix(-1 0 0 1 5618 3945)"/><path d="M0 6.00002C-7.63882e-16 2.6863 2.6863 -7.63882e-16 6.00002-1.52776e-15 9.31373-3.05553e-15 12 2.6863 12 6.00002 12 9.31373 9.31373 12 6.00002 12 2.6863 12-3.81941e-15 9.31373 0 6.00002Z" fill-rule="evenodd" transform="matrix(-1 0 0 1 5589 3962)"/><path d="M0 5.99984C-7.00223e-16 2.68622 2.46243 -7.63859e-16 5.5-1.52772e-15 8.53757-3.05544e-15 11 2.68622 11 5.99984 11 9.31345 8.53757 11.9997 5.5 11.9997 2.46243 11.9997-3.50112e-15 9.31345 0 5.99984Z" fill-rule="evenodd" transform="matrix(-1 0 0 1 5559 4009)"/><path d="M0 5.5C-7.63882e-16 2.46243 2.6863 -7.00223e-16 6.00002-1.40045e-15 9.31373-2.80089e-15 12 2.46243 12 5.5 12 8.53757 9.31373 11 6.00002 11 2.6863 11-3.81941e-15 8.53757 0 5.5Z" fill-rule="evenodd" transform="matrix(-1 0 0 1 5530 4020)"/><path d="M0 5.99984C-7.00223e-16 2.68622 2.46243 -7.63859e-16 5.5-1.52772e-15 8.53757-3.05544e-15 11 2.68622 11 5.99984 11 9.31345 8.53757 11.9997 5.5 11.9997 2.46243 11.9997-3.50112e-15 9.31345 0 5.99984Z" fill-rule="evenodd" transform="matrix(-1 0 0 1 5500 4009)"/><path d="M0 5.99984C-7.63882e-16 2.68622 2.6863 -7.63859e-16 6.00002-1.52772e-15 9.31373-3.05544e-15 12 2.68622 12 5.99984 12 9.31345 9.31373 11.9997 6.00002 11.9997 2.6863 11.9997-3.81941e-15 9.31345 0 5.99984Z" fill-rule="evenodd" transform="matrix(-1 0 0 1 5971 3745)"/><path d="M0 5.5C-7.00223e-16 2.46243 2.46243 -7.00223e-16 5.5-1.40045e-15 8.53757-2.80089e-15 11 2.46243 11 5.5 11 8.53757 8.53757 11 5.5 11 2.46243 11-3.50112e-15 8.53757 0 5.5Z" fill-rule="evenodd" transform="matrix(-1 0 0 1 5941 3782)"/><path d="M0 6.00002C-7.63882e-16 2.6863 2.6863 -7.63882e-16 6.00002-1.52776e-15 9.31373-3.05553e-15 12 2.6863 12 6.00002 12 9.31373 9.31373 12 6.00002 12 2.6863 12-3.81941e-15 9.31373 0 6.00002Z" fill-rule="evenodd" transform="matrix(-1 0 0 1 5912 3774)"/><path d="M0 6.00002C-7.63882e-16 2.6863 2.6863 -7.63882e-16 6.00002-1.52776e-15 9.31373-3.05553e-15 12 2.6863 12 6.00002 12 9.31373 9.31373 12 6.00002 12 2.6863 12-3.81941e-15 9.31373 0 6.00002Z" fill-rule="evenodd" transform="matrix(-1 0 0 1 5883 3786)"/><path d="M0 5.5C-7.00223e-16 2.46243 2.46243 -7.00223e-16 5.5-1.40045e-15 8.53757-2.80089e-15 11 2.46243 11 5.5 11 8.53757 8.53757 11 5.5 11 2.46243 11-3.50112e-15 8.53757 0 5.5Z" fill-rule="evenodd" transform="matrix(-1 0 0 1 5853 3807)"/><path d="M0 6.00002C-7.63882e-16 2.6863 2.6863 -7.63882e-16 6.00002-1.52776e-15 9.31373-3.05553e-15 12 2.6863 12 6.00002 12 9.31373 9.31373 12 6.00002 12 2.6863 12-3.81941e-15 9.31373 0 6.00002Z" fill-rule="evenodd" transform="matrix(-1 0 0 1 5824 3837)"/><path d="M0 5.5C-7.00223e-16 2.46243 2.46243 -7.00223e-16 5.5-1.40045e-15 8.53757-2.80089e-15 11 2.46243 11 5.5 11 8.53757 8.53757 11 5.5 11 2.46243 11-3.50112e-15 8.53757 0 5.5Z" fill-rule="evenodd" transform="matrix(-1 0 0 1 5794 3849)"/><path d="M0 5.5C-7.63882e-16 2.46243 2.6863 -7.00223e-16 6.00002-1.40045e-15 9.31373-2.80089e-15 12 2.46243 12 5.5 12 8.53757 9.31373 11 6.00002 11 2.6863 11-3.81941e-15 8.53757 0 5.5Z" fill-rule="evenodd" transform="matrix(-1 0 0 1 5765 3864)"/><path d="M0 6.00002C-7.00223e-16 2.6863 2.46243 -7.63882e-16 5.5-1.52776e-15 8.53757-3.05553e-15 11 2.6863 11 6.00002 11 9.31373 8.53757 12 5.5 12 2.46243 12-3.50112e-15 9.31373 0 6.00002Z" fill-rule="evenodd" transform="matrix(-1 0 0 1 5735 3884)"/><path d="M0 5.5C-7.63882e-16 2.46243 2.6863 -7.00223e-16 6.00002-1.40045e-15 9.31373-2.80089e-15 12 2.46243 12 5.5 12 8.53757 9.31373 11 6.00002 11 2.6863 11-3.81941e-15 8.53757 0 5.5Z" fill-rule="evenodd" transform="matrix(-1 0 0 1 5706 3929)"/><path d="M0 5.5C-7.00223e-16 2.46243 2.46243 -7.00223e-16 5.5-1.40045e-15 8.53757-2.80089e-15 11 2.46243 11 5.5 11 8.53757 8.53757 11 5.5 11 2.46243 11-3.50112e-15 8.53757 0 5.5Z" fill-rule="evenodd" transform="matrix(-1 0 0 1 5676 3961)"/><path d="M0 5.5C-7.00223e-16 2.46243 2.46243 -7.00223e-16 5.5-1.40045e-15 8.53757-2.80089e-15 11 2.46243 11 5.5 11 8.53757 8.53757 11 5.5 11 2.46243 11-3.50112e-15 8.53757 0 5.5Z" fill-rule="evenodd" transform="matrix(-1 0 0 1 5647 3973)"/><path d="M0 5.99984C-7.63882e-16 2.68622 2.6863 -7.63859e-16 6.00002-1.52772e-15 9.31373-3.05544e-15 12 2.68622 12 5.99984 12 9.31345 9.31373 11.9997 6.00002 11.9997 2.6863 11.9997-3.81941e-15 9.31345 0 5.99984Z" fill-rule="evenodd" transform="matrix(-1 0 0 1 5618 4009)"/><path d="M0 5.5C-7.63882e-16 2.46243 2.6863 -7.00223e-16 6.00002-1.40045e-15 9.31373-2.80089e-15 12 2.46243 12 5.5 12 8.53757 9.31373 11 6.00002 11 2.6863 11-3.81941e-15 8.53757 0 5.5Z" fill-rule="evenodd" transform="matrix(-1 0 0 1 5589 4027)"/><path d="M0 5.5C-7.00223e-16 2.46243 2.46243 -7.00223e-16 5.5-1.40045e-15 8.53757-2.80089e-15 11 2.46243 11 5.5 11 8.53757 8.53757 11 5.5 11 2.46243 11-3.50112e-15 8.53757 0 5.5Z" fill-rule="evenodd" transform="matrix(-1 0 0 1 5559 4074)"/><path d="M0 5.5C-7.63882e-16 2.46243 2.6863 -7.00223e-16 6.00002-1.40045e-15 9.31373-2.80089e-15 12 2.46243 12 5.5 12 8.53757 9.31373 11 6.00002 11 2.6863 11-3.81941e-15 8.53757 0 5.5Z" fill-rule="evenodd" transform="matrix(-1 0 0 1 5530 4084)"/><path d="M0 5.5C-7.00223e-16 2.46243 2.46243 -7.00223e-16 5.5-1.40045e-15 8.53757-2.80089e-15 11 2.46243 11 5.5 11 8.53757 8.53757 11 5.5 11 2.46243 11-3.50112e-15 8.53757 0 5.5Z" fill-rule="evenodd" transform="matrix(-1 0 0 1 5500 4074)"/><path d="M0 5.5C-7.63882e-16 2.46243 2.6863 -7.00223e-16 6.00002-1.40045e-15 9.31373-2.80089e-15 12 2.46243 12 5.5 12 8.53757 9.31373 11 6.00002 11 2.6863 11-3.81941e-15 8.53757 0 5.5Z" fill-rule="evenodd" transform="matrix(-1 0 0 1 5971 3810)"/><path d="M0 6.00002C-7.00223e-16 2.6863 2.46243 -7.63882e-16 5.5-1.52776e-15 8.53757-3.05553e-15 11 2.6863 11 6.00002 11 9.31373 8.53757 12 5.5 12 2.46243 12-3.50112e-15 9.31373 0 6.00002Z" fill-rule="evenodd" transform="matrix(-1 0 0 1 5941 3846)"/><path d="M0 5.5C-7.63882e-16 2.46243 2.6863 -7.00223e-16 6.00002-1.40045e-15 9.31373-2.80089e-15 12 2.46243 12 5.5 12 8.53757 9.31373 11 6.00002 11 2.6863 11-3.81941e-15 8.53757 0 5.5Z" fill-rule="evenodd" transform="matrix(-1 0 0 1 5912 3839)"/><path d="M0 5.5C-7.63882e-16 2.46243 2.6863 -7.00223e-16 6.00002-1.40045e-15 9.31373-2.80089e-15 12 2.46243 12 5.5 12 8.53757 9.31373 11 6.00002 11 2.6863 11-3.81941e-15 8.53757 0 5.5Z" fill-rule="evenodd" transform="matrix(-1 0 0 1 5883 3851)"/><path d="M0 6.00002C-7.00223e-16 2.6863 2.46243 -7.63882e-16 5.5-1.52776e-15 8.53757-3.05553e-15 11 2.6863 11 6.00002 11 9.31373 8.53757 12 5.5 12 2.46243 12-3.50112e-15 9.31373 0 6.00002Z" fill-rule="evenodd" transform="matrix(-1 0 0 1 5853 3871)"/><path d="M0 5.5C-7.63882e-16 2.46243 2.6863 -7.00223e-16 6.00002-1.40045e-15 9.31373-2.80089e-15 12 2.46243 12 5.5 12 8.53757 9.31373 11 6.00002 11 2.6863 11-3.81941e-15 8.53757 0 5.5Z" fill-rule="evenodd" transform="matrix(-1 0 0 1 5824 3902)"/><path d="M0 6.00002C-7.00223e-16 2.6863 2.46243 -7.63882e-16 5.5-1.52776e-15 8.53757-3.05553e-15 11 2.6863 11 6.00002 11 9.31373 8.53757 12 5.5 12 2.46243 12-3.50112e-15 9.31373 0 6.00002Z" fill-rule="evenodd" transform="matrix(-1 0 0 1 5794 3913)"/><path d="M0 5.5C-7.63882e-16 2.46243 2.6863 -7.00223e-16 6.00002-1.40045e-15 9.31373-2.80089e-15 12 2.46243 12 5.5 12 8.53757 9.31373 11 6.00002 11 2.6863 11-3.81941e-15 8.53757 0 5.5Z" fill-rule="evenodd" transform="matrix(-1 0 0 1 5765 3928)"/><path d="M0 6.00002C-7.00223e-16 2.6863 2.46243 -7.63882e-16 5.5-1.52776e-15 8.53757-3.05553e-15 11 2.6863 11 6.00002 11 9.31373 8.53757 12 5.5 12 2.46243 12-3.50112e-15 9.31373 0 6.00002Z" fill-rule="evenodd" transform="matrix(-1 0 0 1 5735 3948)"/><path d="M0 6.00002C-7.63882e-16 2.6863 2.6863 -7.63882e-16 6.00002-1.52776e-15 9.31373-3.05553e-15 12 2.6863 12 6.00002 12 9.31373 9.31373 12 6.00002 12 2.6863 12-3.81941e-15 9.31373 0 6.00002Z" fill-rule="evenodd" transform="matrix(-1 0 0 1 5706 3993)"/><path d="M0 6.00002C-7.00223e-16 2.6863 2.46243 -7.63882e-16 5.5-1.52776e-15 8.53757-3.05553e-15 11 2.6863 11 6.00002 11 9.31373 8.53757 12 5.5 12 2.46243 12-3.50112e-15 9.31373 0 6.00002Z" fill-rule="evenodd" transform="matrix(-1 0 0 1 5676 4025)"/><path d="M0 5.5C-7.00223e-16 2.46243 2.46243 -7.00223e-16 5.5-1.40045e-15 8.53757-2.80089e-15 11 2.46243 11 5.5 11 8.53757 8.53757 11 5.5 11 2.46243 11-3.50112e-15 8.53757 0 5.5Z" fill-rule="evenodd" transform="matrix(-1 0 0 1 5647 4037)"/><path d="M0 5.5C-7.63882e-16 2.46243 2.6863 -7.00223e-16 6.00002-1.40045e-15 9.31373-2.80089e-15 12 2.46243 12 5.5 12 8.53757 9.31373 11 6.00002 11 2.6863 11-3.81941e-15 8.53757 0 5.5Z" fill-rule="evenodd" transform="matrix(-1 0 0 1 5618 4074)"/><path d="M0 6.00002C-7.63882e-16 2.6863 2.6863 -7.63882e-16 6.00002-1.52776e-15 9.31373-3.05553e-15 12 2.6863 12 6.00002 12 9.31373 9.31373 12 6.00002 12 2.6863 12-3.81941e-15 9.31373 0 6.00002Z" fill-rule="evenodd" transform="matrix(-1 0 0 1 5589 4091)"/><path d="M0 6.00002C-7.00223e-16 2.6863 2.46243 -7.63882e-16 5.5-1.52776e-15 8.53757-3.05553e-15 11 2.6863 11 6.00002 11 9.31373 8.53757 12 5.5 12 2.46243 12-3.50112e-15 9.31373 0 6.00002Z" fill-rule="evenodd" transform="matrix(-1 0 0 1 5559 4138)"/><path d="M0 6.00002C-7.63882e-16 2.6863 2.6863 -7.63882e-16 6.00002-1.52776e-15 9.31373-3.05553e-15 12 2.6863 12 6.00002 12 9.31373 9.31373 12 6.00002 12 2.6863 12-3.81941e-15 9.31373 0 6.00002Z" fill-rule="evenodd" transform="matrix(-1 0 0 1 5530 4148)"/><path d="M0 6.00002C-7.00223e-16 2.6863 2.46243 -7.63882e-16 5.5-1.52776e-15 8.53757-3.05553e-15 11 2.6863 11 6.00002 11 9.31373 8.53757 12 5.5 12 2.46243 12-3.50112e-15 9.31373 0 6.00002Z" fill-rule="evenodd" transform="matrix(-1 0 0 1 5500 4138)"/><path d="M5987 4218.5C5993.35 4218.5 5998.5 4223.65 5998.5 4230L5998.5 4230C5998.5 4236.35 5993.35 4241.5 5987 4241.5L5484 4241.5C5477.65 4241.5 5472.5 4236.35 5472.5 4230L5472.5 4230C5472.5 4223.65 5477.65 4218.5 5484 4218.5Z" stroke="#0F1B37" stroke-width="4.58333" stroke-linejoin="round" stroke-miterlimit="10" fill="url(#fill1)" fill-rule="evenodd"/></g></svg>