<svg width="590" height="577" xmlns="http://www.w3.org/2000/svg" xmlns:xlink="http://www.w3.org/1999/xlink" xml:space="preserve" overflow="hidden"><defs><linearGradient x1="6292.5" y1="3598.5" x2="6292.5" y2="4124.5" gradientUnits="userSpaceOnUse" spreadMethod="reflect" id="fill0"><stop offset="0" stop-color="#00B050"/><stop offset="0.5" stop-color="#FFFF00"/><stop offset="1" stop-color="#FF0000"/></linearGradient><linearGradient x1="6865.5" y1="4159" x2="6339.5" y2="4159" gradientUnits="userSpaceOnUse" spreadMethod="reflect" id="fill1"><stop offset="0" stop-color="#00B050"/><stop offset="0.5" stop-color="#FFFF00"/><stop offset="1" stop-color="#FF0000"/></linearGradient></defs><g transform="translate(-6278 -3596)"><path d="M6280.5 3610.5C6280.5 3603.87 6285.87 3598.5 6292.5 3598.5L6292.5 3598.5C6299.13 3598.5 6304.5 3603.87 6304.5 3610.5L6304.5 4112.5C6304.5 4119.13 6299.13 4124.5 6292.5 4124.5L6292.5 4124.5C6285.87 4124.5 6280.5 4119.13 6280.5 4112.5Z" stroke="#0F1B37" stroke-width="4.58333" stroke-linejoin="round" stroke-miterlimit="10" fill="url(#fill0)" fill-rule="evenodd"/><path d="M0 5.5C-7.00223e-16 2.46243 2.46243 -7.00223e-16 5.5-1.40045e-15 8.53757-2.80089e-15 11 2.46243 11 5.5 11 8.53757 8.53757 11 5.5 11 2.46243 11-3.50112e-15 8.53757 0 5.5Z" fill-rule="evenodd" transform="matrix(-1 0 0 1 6838 3610)"/><path d="M0 5.5C-7.63882e-16 2.46243 2.6863 -7.00223e-16 6.00002-1.40045e-15 9.31373-2.80089e-15 12 2.46243 12 5.5 12 8.53757 9.31373 11 6.00002 11 2.6863 11-3.81941e-15 8.53757 0 5.5Z" fill-rule="evenodd" transform="matrix(-1 0 0 1 6809 3771)"/><path d="M0 6.00002C-7.00223e-16 2.6863 2.46243 -7.63882e-16 5.5-1.52776e-15 8.53757-3.05553e-15 11 2.6863 11 6.00002 11 9.31373 8.53757 12 5.5 12 2.46243 12-3.50112e-15 9.31373 0 6.00002Z" fill-rule="evenodd" transform="matrix(-1 0 0 1 6779 3763)"/><path d="M0 5.5C-7.63882e-16 2.46243 2.6863 -7.00223e-16 6.00002-1.40045e-15 9.31373-2.80089e-15 12 2.46243 12 5.5 12 8.53757 9.31373 11 6.00002 11 2.6863 11-3.81941e-15 8.53757 0 5.5Z" fill-rule="evenodd" transform="matrix(-1 0 0 1 6750 3775)"/><path d="M0 6.00002C-7.00223e-16 2.6863 2.46243 -7.63882e-16 5.5-1.52776e-15 8.53757-3.05553e-15 11 2.6863 11 6.00002 11 9.31373 8.53757 12 5.5 12 2.46243 12-3.50112e-15 9.31373 0 6.00002Z" fill-rule="evenodd" transform="matrix(-1 0 0 1 6720 3795)"/><path d="M0 5.5C-7.63882e-16 2.46243 2.6863 -7.00223e-16 6.00002-1.40045e-15 9.31373-2.80089e-15 12 2.46243 12 5.5 12 8.53757 9.31373 11 6.00002 11 2.6863 11-3.81941e-15 8.53757 0 5.5Z" fill-rule="evenodd" transform="matrix(-1 0 0 1 6691 3826)"/><path d="M0 6.00002C-7.63882e-16 2.6863 2.6863 -7.63882e-16 6.00002-1.52776e-15 9.31373-3.05553e-15 12 2.6863 12 6.00002 12 9.31373 9.31373 12 6.00002 12 2.6863 12-3.81941e-15 9.31373 0 6.00002Z" fill-rule="evenodd" transform="matrix(-1 0 0 1 6662 3942)"/><path d="M0 5.5C-7.00223e-16 2.46243 2.46243 -7.00223e-16 5.5-1.40045e-15 8.53757-2.80089e-15 11 2.46243 11 5.5 11 8.53757 8.53757 11 5.5 11 2.46243 11-3.50112e-15 8.53757 0 5.5Z" fill-rule="evenodd" transform="matrix(-1 0 0 1 6632 3957)"/><path d="M0 5.5C-7.00223e-16 2.46243 2.46243 -7.00223e-16 5.5-1.40045e-15 8.53757-2.80089e-15 11 2.46243 11 5.5 11 8.53757 8.53757 11 5.5 11 2.46243 11-3.50112e-15 8.53757 0 5.5Z" fill-rule="evenodd" transform="matrix(-1 0 0 1 6696 3644)"/><path d="M0 6.00002C-7.63882e-16 2.6863 2.6863 -7.63882e-16 6.00002-1.52776e-15 9.31373-3.05553e-15 12 2.6863 12 6.00002 12 9.31373 9.31373 12 6.00002 12 2.6863 12-3.81941e-15 9.31373 0 6.00002Z" fill-rule="evenodd" transform="matrix(-1 0 0 1 6667 3688)"/><path d="M0 5.5C-7.63882e-16 2.46243 2.6863 -7.00223e-16 6.00002-1.40045e-15 9.31373-2.80089e-15 12 2.46243 12 5.5 12 8.53757 9.31373 11 6.00002 11 2.6863 11-3.81941e-15 8.53757 0 5.5Z" fill-rule="evenodd" transform="matrix(-1 0 0 1 6544 3721)"/><path d="M0 6.00002C-7.00223e-16 2.6863 2.46243 -7.63882e-16 5.5-1.52776e-15 8.53757-3.05553e-15 11 2.6863 11 6.00002 11 9.31373 8.53757 12 5.5 12 2.46243 12-3.50112e-15 9.31373 0 6.00002Z" fill-rule="evenodd" transform="matrix(-1 0 0 1 6514 3732)"/><path d="M0 5.5C-7.63859e-16 2.46243 2.68622 -7.00223e-16 5.99984-1.40045e-15 9.31345-2.80089e-15 11.9997 2.46243 11.9997 5.5 11.9997 8.53757 9.31345 11 5.99984 11 2.68622 11-3.8193e-15 8.53757 0 5.5Z" fill-rule="evenodd" transform="matrix(-1 0 0 1 6485 3769)"/><path d="M0 5.5C-7.63882e-16 2.46243 2.6863 -7.00223e-16 6.00002-1.40045e-15 9.31373-2.80089e-15 12 2.46243 12 5.5 12 8.53757 9.31373 11 6.00002 11 2.6863 11-3.81941e-15 8.53757 0 5.5Z" fill-rule="evenodd" transform="matrix(-1 0 0 1 6456 3787)"/><path d="M0 5.5C-7.63882e-16 2.46243 2.6863 -7.00223e-16 6.00002-1.40045e-15 9.31373-2.80089e-15 12 2.46243 12 5.5 12 8.53757 9.31373 11 6.00002 11 2.6863 11-3.81941e-15 8.53757 0 5.5Z" fill-rule="evenodd" transform="matrix(-1 0 0 1 6481 3866)"/><path d="M0 6.00002C-7.63859e-16 2.6863 2.68622 -7.63882e-16 5.99984-1.52776e-15 9.31345-3.05553e-15 11.9997 2.6863 11.9997 6.00002 11.9997 9.31373 9.31345 12 5.99984 12 2.68622 12-3.8193e-15 9.31373 0 6.00002Z" fill-rule="evenodd" transform="matrix(-1 0 0 1 6397 3948)"/><path d="M0 6.00002C-7.63882e-16 2.6863 2.6863 -7.63882e-16 6.00002-1.52776e-15 9.31373-3.05553e-15 12 2.6863 12 6.00002 12 9.31373 9.31373 12 6.00002 12 2.6863 12-3.81941e-15 9.31373 0 6.00002Z" fill-rule="evenodd" transform="matrix(-1 0 0 1 6368 3938)"/><path d="M0 6.00002C-7.00223e-16 2.6863 2.46243 -7.63882e-16 5.5-1.52776e-15 8.53757-3.05553e-15 11 2.6863 11 6.00002 11 9.31373 8.53757 12 5.5 12 2.46243 12-3.50112e-15 9.31373 0 6.00002Z" fill-rule="evenodd" transform="matrix(-1 0 0 1 6838 3674)"/><path d="M0 6.00002C-7.63882e-16 2.6863 2.6863 -7.63882e-16 6.00002-1.52776e-15 9.31373-3.05553e-15 12 2.6863 12 6.00002 12 9.31373 9.31373 12 6.00002 12 2.6863 12-3.81941e-15 9.31373 0 6.00002Z" fill-rule="evenodd" transform="matrix(-1 0 0 1 6809 3835)"/><path d="M0 5.5C-7.00223e-16 2.46243 2.46243 -7.00223e-16 5.5-1.40045e-15 8.53757-2.80089e-15 11 2.46243 11 5.5 11 8.53757 8.53757 11 5.5 11 2.46243 11-3.50112e-15 8.53757 0 5.5Z" fill-rule="evenodd" transform="matrix(-1 0 0 1 6779 3828)"/><path d="M0 5.5C-7.63882e-16 2.46243 2.6863 -7.00223e-16 6.00002-1.40045e-15 9.31373-2.80089e-15 12 2.46243 12 5.5 12 8.53757 9.31373 11 6.00002 11 2.6863 11-3.81941e-15 8.53757 0 5.5Z" fill-rule="evenodd" transform="matrix(-1 0 0 1 6750 3906)"/><path d="M0 5.5C-7.00223e-16 2.46243 2.46243 -7.00223e-16 5.5-1.40045e-15 8.53757-2.80089e-15 11 2.46243 11 5.5 11 8.53757 8.53757 11 5.5 11 2.46243 11-3.50112e-15 8.53757 0 5.5Z" fill-rule="evenodd" transform="matrix(-1 0 0 1 6720 3965)"/><path d="M0 6.00002C-7.63882e-16 2.6863 2.6863 -7.63882e-16 6.00002-1.52776e-15 9.31373-3.05553e-15 12 2.6863 12 6.00002 12 9.31373 9.31373 12 6.00002 12 2.6863 12-3.81941e-15 9.31373 0 6.00002Z" fill-rule="evenodd" transform="matrix(-1 0 0 1 6691 3995)"/><path d="M0 5.5C-7.63882e-16 2.46243 2.6863 -7.00223e-16 6.00002-1.40045e-15 9.31373-2.80089e-15 12 2.46243 12 5.5 12 8.53757 9.31373 11 6.00002 11 2.6863 11-3.81941e-15 8.53757 0 5.5Z" fill-rule="evenodd" transform="matrix(-1 0 0 1 6662 4007)"/><path d="M0 6.00002C-7.00223e-16 2.6863 2.46243 -7.63882e-16 5.5-1.52776e-15 8.53757-3.05553e-15 11 2.6863 11 6.00002 11 9.31373 8.53757 12 5.5 12 2.46243 12-3.50112e-15 9.31373 0 6.00002Z" fill-rule="evenodd" transform="matrix(-1 0 0 1 6632 4021)"/><path d="M0 6.00002C-7.00223e-16 2.6863 2.46243 -7.63882e-16 5.5-1.52776e-15 8.53757-3.05553e-15 11 2.6863 11 6.00002 11 9.31373 8.53757 12 5.5 12 2.46243 12-3.50112e-15 9.31373 0 6.00002Z" fill-rule="evenodd" transform="matrix(-1 0 0 1 6696 3708)"/><path d="M0 5.5C-7.63882e-16 2.46243 2.6863 -7.00223e-16 6.00002-1.40045e-15 9.31373-2.80089e-15 12 2.46243 12 5.5 12 8.53757 9.31373 11 6.00002 11 2.6863 11-3.81941e-15 8.53757 0 5.5Z" fill-rule="evenodd" transform="matrix(-1 0 0 1 6667 3753)"/><path d="M0 6.00002C-7.63882e-16 2.6863 2.6863 -7.63882e-16 6.00002-1.52776e-15 9.31373-3.05553e-15 12 2.6863 12 6.00002 12 9.31373 9.31373 12 6.00002 12 2.6863 12-3.81941e-15 9.31373 0 6.00002Z" fill-rule="evenodd" transform="matrix(-1 0 0 1 6544 3785)"/><path d="M0 5.5C-7.00223e-16 2.46243 2.46243 -7.00223e-16 5.5-1.40045e-15 8.53757-2.80089e-15 11 2.46243 11 5.5 11 8.53757 8.53757 11 5.5 11 2.46243 11-3.50112e-15 8.53757 0 5.5Z" fill-rule="evenodd" transform="matrix(-1 0 0 1 6568 3829)"/><path d="M0 6.00002C-7.00223e-16 2.6863 2.46243 -7.63882e-16 5.5-1.52776e-15 8.53757-3.05553e-15 11 2.6863 11 6.00002 11 9.31373 8.53757 12 5.5 12 2.46243 12-3.50112e-15 9.31373 0 6.00002Z" fill-rule="evenodd" transform="matrix(-1 0 0 1 6539 3865)"/><path d="M0 6.00002C-7.00223e-16 2.6863 2.46243 -7.63882e-16 5.5-1.52776e-15 8.53757-3.05553e-15 11 2.6863 11 6.00002 11 9.31373 8.53757 12 5.5 12 2.46243 12-3.50112e-15 9.31373 0 6.00002Z" fill-rule="evenodd" transform="matrix(-1 0 0 1 6510 3883)"/><path d="M0 5.5C-7.63882e-16 2.46243 2.6863 -7.00223e-16 6.00002-1.40045e-15 9.31373-2.80089e-15 12 2.46243 12 5.5 12 8.53757 9.31373 11 6.00002 11 2.6863 11-3.81941e-15 8.53757 0 5.5Z" fill-rule="evenodd" transform="matrix(-1 0 0 1 6481 3930)"/><path d="M0 5.5C-7.63859e-16 2.46243 2.68622 -7.00223e-16 5.99984-1.40045e-15 9.31345-2.80089e-15 11.9997 2.46243 11.9997 5.5 11.9997 8.53757 9.31345 11 5.99984 11 2.68622 11-3.8193e-15 8.53757 0 5.5Z" fill-rule="evenodd" transform="matrix(-1 0 0 1 6397 4013)"/><path d="M0 5.5C-7.63882e-16 2.46243 2.6863 -7.00223e-16 6.00002-1.40045e-15 9.31373-2.80089e-15 12 2.46243 12 5.5 12 8.53757 9.31373 11 6.00002 11 2.6863 11-3.81941e-15 8.53757 0 5.5Z" fill-rule="evenodd" transform="matrix(-1 0 0 1 6368 4003)"/><path d="M0 5.5C-7.00223e-16 2.46243 2.46243 -7.00223e-16 5.5-1.40045e-15 8.53757-2.80089e-15 11 2.46243 11 5.5 11 8.53757 8.53757 11 5.5 11 2.46243 11-3.50112e-15 8.53757 0 5.5Z" fill-rule="evenodd" transform="matrix(-1 0 0 1 6838 3930)"/><path d="M0 5.5C-7.63882e-16 2.46243 2.6863 -7.00223e-16 6.00002-1.40045e-15 9.31373-2.80089e-15 12 2.46243 12 5.5 12 8.53757 9.31373 11 6.00002 11 2.6863 11-3.81941e-15 8.53757 0 5.5Z" fill-rule="evenodd" transform="matrix(-1 0 0 1 6809 3966)"/><path d="M0 5.5C-7.00223e-16 2.46243 2.46243 -7.00223e-16 5.5-1.40045e-15 8.53757-2.80089e-15 11 2.46243 11 5.5 11 8.53757 8.53757 11 5.5 11 2.46243 11-3.50112e-15 8.53757 0 5.5Z" fill-rule="evenodd" transform="matrix(-1 0 0 1 6779 3959)"/><path d="M0 6.00002C-7.63882e-16 2.6863 2.6863 -7.63882e-16 6.00002-1.52776e-15 9.31373-3.05553e-15 12 2.6863 12 6.00002 12 9.31373 9.31373 12 6.00002 12 2.6863 12-3.81941e-15 9.31373 0 6.00002Z" fill-rule="evenodd" transform="matrix(-1 0 0 1 6750 3970)"/><path d="M0 6.00002C-7.00223e-16 2.6863 2.46243 -7.63882e-16 5.5-1.52776e-15 8.53757-3.05553e-15 11 2.6863 11 6.00002 11 9.31373 8.53757 12 5.5 12 2.46243 12-3.50112e-15 9.31373 0 6.00002Z" fill-rule="evenodd" transform="matrix(-1 0 0 1 6720 4029)"/><path d="M0 5.5C-7.63882e-16 2.46243 2.6863 -7.00223e-16 6.00002-1.40045e-15 9.31373-2.80089e-15 12 2.46243 12 5.5 12 8.53757 9.31373 11 6.00002 11 2.6863 11-3.81941e-15 8.53757 0 5.5Z" fill-rule="evenodd" transform="matrix(-1 0 0 1 6691 4060)"/><path d="M0 6.00002C-7.63882e-16 2.6863 2.6863 -7.63882e-16 6.00002-1.52776e-15 9.31373-3.05553e-15 12 2.6863 12 6.00002 12 9.31373 9.31373 12 6.00002 12 2.6863 12-3.81941e-15 9.31373 0 6.00002Z" fill-rule="evenodd" transform="matrix(-1 0 0 1 6662 4071)"/><path d="M0 5.5C-7.00223e-16 2.46243 2.46243 -7.00223e-16 5.5-1.40045e-15 8.53757-2.80089e-15 11 2.46243 11 5.5 11 8.53757 8.53757 11 5.5 11 2.46243 11-3.50112e-15 8.53757 0 5.5Z" fill-rule="evenodd" transform="matrix(-1 0 0 1 6632 4086)"/><path d="M0 5.5C-7.63882e-16 2.46243 2.6863 -7.00223e-16 6.00002-1.40045e-15 9.31373-2.80089e-15 12 2.46243 12 5.5 12 8.53757 9.31373 11 6.00002 11 2.6863 11-3.81941e-15 8.53757 0 5.5Z" fill-rule="evenodd" transform="matrix(-1 0 0 1 6603 3773)"/><path d="M0 6.00002C-7.00223e-16 2.6863 2.46243 -7.63882e-16 5.5-1.52776e-15 8.53757-3.05553e-15 11 2.6863 11 6.00002 11 9.31373 8.53757 12 5.5 12 2.46243 12-3.50112e-15 9.31373 0 6.00002Z" fill-rule="evenodd" transform="matrix(-1 0 0 1 6627 3849)"/><path d="M0 5.5C-7.63882e-16 2.46243 2.6863 -7.00223e-16 6.00002-1.40045e-15 9.31373-2.80089e-15 12 2.46243 12 5.5 12 8.53757 9.31373 11 6.00002 11 2.6863 11-3.81941e-15 8.53757 0 5.5Z" fill-rule="evenodd" transform="matrix(-1 0 0 1 6598 3882)"/><path d="M0 6.00002C-7.00223e-16 2.6863 2.46243 -7.63882e-16 5.5-1.52776e-15 8.53757-3.05553e-15 11 2.6863 11 6.00002 11 9.31373 8.53757 12 5.5 12 2.46243 12-3.50112e-15 9.31373 0 6.00002Z" fill-rule="evenodd" transform="matrix(-1 0 0 1 6568 3893)"/><path d="M0 5.5C-7.00223e-16 2.46243 2.46243 -7.00223e-16 5.5-1.40045e-15 8.53757-2.80089e-15 11 2.46243 11 5.5 11 8.53757 8.53757 11 5.5 11 2.46243 11-3.50112e-15 8.53757 0 5.5Z" fill-rule="evenodd" transform="matrix(-1 0 0 1 6539 3930)"/><path d="M0 5.99984C-7.63882e-16 2.68622 2.6863 -7.63859e-16 6.00002-1.52772e-15 9.31373-3.05544e-15 12 2.68622 12 5.99984 12 9.31345 9.31373 11.9997 6.00002 11.9997 2.6863 11.9997-3.81941e-15 9.31345 0 5.99984Z" fill-rule="evenodd" transform="matrix(-1 0 0 1 6456 4020)"/><path d="M0 6.00002C-7.00223e-16 2.6863 2.46243 -7.63882e-16 5.5-1.52776e-15 8.53757-3.05553e-15 11 2.6863 11 6.00002 11 9.31373 8.53757 12 5.5 12 2.46243 12-3.50112e-15 9.31373 0 6.00002Z" fill-rule="evenodd" transform="matrix(-1 0 0 1 6426 4067)"/><path d="M0 6.00002C-7.63859e-16 2.6863 2.68622 -7.63882e-16 5.99984-1.52776e-15 9.31345-3.05553e-15 11.9997 2.6863 11.9997 6.00002 11.9997 9.31373 9.31345 12 5.99984 12 2.68622 12-3.8193e-15 9.31373 0 6.00002Z" fill-rule="evenodd" transform="matrix(-1 0 0 1 6397 4077)"/><path d="M0 6.00002C-7.63882e-16 2.6863 2.6863 -7.63882e-16 6.00002-1.52776e-15 9.31373-3.05553e-15 12 2.6863 12 6.00002 12 9.31373 9.31373 12 6.00002 12 2.6863 12-3.81941e-15 9.31373 0 6.00002Z" fill-rule="evenodd" transform="matrix(-1 0 0 1 6368 4067)"/><path d="M6854 4147.5C6860.35 4147.5 6865.5 4152.65 6865.5 4159L6865.5 4159C6865.5 4165.35 6860.35 4170.5 6854 4170.5L6351 4170.5C6344.65 4170.5 6339.5 4165.35 6339.5 4159L6339.5 4159C6339.5 4152.65 6344.65 4147.5 6351 4147.5Z" stroke="#0F1B37" stroke-width="4.58333" stroke-linejoin="round" stroke-miterlimit="10" fill="url(#fill1)" fill-rule="evenodd"/></g></svg>