<svg width="1985" height="1407" xmlns="http://www.w3.org/2000/svg" xmlns:xlink="http://www.w3.org/1999/xlink" xml:space="preserve" overflow="hidden"><g transform="translate(-4347 -5944)"><path d="M4731.95 7138.43 4699.74 7267.64 6223.51 7267.64 6191.3 7138.43ZM5968.47 7055.07 5970.6 7055.19C5979.06 7055.58 5986.09 7055.78 5991.71 7055.78L5970.6 7055.19 5968.47 7055.07ZM4811.82 6682.9 4864.8 6682.9C4863.57 6696.76 4852.16 6707.35 4838.31 6707.35 4824.45 6707.35 4813.04 6696.76 4811.82 6682.9ZM5102.78 6644.19 5100.99 6649.98C5086.7 6683.77 5066.03 6714.19 5040.48 6739.75L5020.88 6755.93 5032.93 6755.95 5069.66 6755.95C5103.66 6755.95 5120.66 6748.34 5120.66 6733.12 5120.66 6726.22 5116.48 6704.31 5108.12 6667.39ZM4797.56 6642.14 4879.06 6642.14C4885.98 6642.14 4891.28 6647.44 4891.28 6654.37 4891.28 6661.29 4885.98 6666.59 4879.06 6666.59L4797.56 6666.59C4790.63 6666.59 4785.34 6661.29 4785.34 6654.37 4785.34 6647.44 4790.63 6642.14 4797.56 6642.14ZM4797.56 6601.38 4879.06 6601.38C4885.98 6601.38 4891.28 6606.67 4891.28 6613.6 4891.28 6620.53 4885.98 6625.83 4879.06 6625.83L4797.56 6625.83C4790.63 6625.83 4785.34 6620.53 4785.34 6613.6 4785.34 6606.67 4790.63 6601.38 4797.56 6601.38ZM4838.72 6389.01C4794.3 6389.42 4758.03 6425.29 4757.22 6469.72L4757.22 6472.98C4757.63 6482.76 4759.26 6492.54 4762.92 6501.51 4766.18 6509.66 4771.07 6517.41 4776.78 6523.93 4785.74 6535.34 4793.89 6547.57 4800.41 6560.61L4838.31 6560.61 4876.61 6560.61C4882.72 6547.57 4890.87 6535.34 4900.25 6523.93 4906.36 6517.41 4910.84 6509.66 4914.1 6501.51 4917.36 6492.54 4919.4 6482.76 4919.81 6472.98L4920.21 6472.98 4920.21 6469.72C4919.4 6424.88 4883.13 6389.42 4838.72 6389.01ZM4838.31 6364.96C4896.17 6365.37 4943.03 6411.84 4944.26 6469.72L4944.26 6473.39 4943.13 6483.19 4942.12 6492.03C4940.89 6498.15 4939.16 6504.16 4936.92 6510.07L4935.72 6512.52 4929.13 6525.92C4926.02 6530.96 4922.45 6535.75 4918.58 6540.23 4908.8 6550.83 4898.21 6571.62 4893.73 6580.59 4892.5 6583.44 4889.65 6585.07 4886.39 6585.07L4790.23 6585.07C4786.97 6585.07 4784.11 6583.44 4782.89 6580.59 4778.41 6571.62 4767.81 6550.83 4758.03 6540.23 4750.29 6531.27 4744.18 6521.08 4739.7 6510.07 4735.22 6498.25 4732.77 6486.02 4732.36 6473.39L4732.36 6469.72C4733.58 6411.84 4780.45 6365.37 4838.31 6364.96ZM5909.98 6354.98 5895.04 6357.56C5880.81 6361.57 5873.7 6368.96 5873.7 6379.73 5873.7 6409.62 5873.32 6454.36 5872.57 6513.95 5871.81 6573.54 5871.43 6618.28 5871.43 6648.17 5871.43 6677.67 5871.81 6721.93 5872.57 6780.93 5873.32 6839.94 5873.7 6884.19 5873.7 6913.7 5873.7 6928.45 5886.67 6936.99 5912.61 6939.32 5909.15 6938.93 5924.93 6938.73 5959.94 6938.73 5984.8 6938.73 6004.57 6934.08 6019.27 6924.76 6037.43 6913.11 6053.75 6891.57 6068.23 6860.12 6095.24 6801.12 6108.75 6728.72 6108.75 6642.93 6108.75 6559.08 6095.46 6490.75 6068.87 6437.96 6041.21 6383.22 6004.25 6355.85 5958 6355.85 5929.3 6355.85 5913.44 6355.64 5910.4 6355.2ZM4840.86 6337.05C4728.77 6337.05 4637.91 6427.94 4637.91 6540.06 4637.91 6652.18 4728.77 6743.07 4840.86 6743.07L4881.33 6738.99 4881.76 6738.94C4908.18 6733.53 4932.73 6722.99 4954.33 6708.4L4979.98 6687.22 4984.36 6683.61C5021.09 6646.87 5043.8 6596.12 5043.8 6540.06 5043.8 6526.04 5042.38 6512.36 5039.68 6499.14L5031.25 6471.98 5027.85 6461.04C5017.58 6436.75 5002.72 6414.88 4984.36 6396.51L4968.44 6383.37 4954.33 6371.72C4921.94 6349.83 4882.89 6337.05 4840.86 6337.05ZM5086.06 6239.93 5086.07 6239.93 5089.9 6245.21C5091.39 6248.73 5093.08 6254.01 5094.99 6261.05 5100.69 6282.36 5128.86 6397.1 5179.51 6605.26 5251.07 6897.9 5286.85 7045.55 5286.85 7048.22 5286.85 7052.78 5284 7055.07 5278.29 7055.07 5273.77 7055.07 5267.18 7054.5 5258.5 7053.35 5249.82 7052.21 5243.22 7051.64 5238.71 7051.64 5234.19 7051.64 5227.41 7052.21 5218.38 7053.35 5209.34 7054.5 5202.57 7055.07 5198.05 7055.07 5191.39 7055.07 5182.89 7026.24 5172.55 6968.59 5162.21 6910.93 5151.69 6881.73 5140.99 6880.97 5132.19 6880.2 5109.25 6879.82 5072.16 6879.82L5015.81 6879.82C4976.58 6879.82 4954.24 6880.2 4948.77 6880.97 4940.21 6882.11 4931.11 6911.41 4921.49 6968.87 4911.86 7026.34 4904.43 7055.07 4899.2 7055.07L4818.96 7055.07C4814.2 7055.07 4811.82 7052.4 4811.82 7047.08 4811.82 7043.27 4813.49 7034.71 4816.81 7021.39L4862.51 6821.37 4840.86 6822.46C4782.39 6822.46 4728.07 6804.68 4683.01 6774.23L4648.34 6745.61 4623.63 6781.6C4540.5 6892.13 4450.1 6943.85 4412.59 6942.78 4391.93 6931.7 4349.68 6874.85 4347 6854.52 4356.79 6818.27 4432.36 6746.59 4562.13 6698.83L4600.56 6686.54 4580.73 6649.98C4566.44 6616.19 4558.54 6579.05 4558.54 6540.06 4558.54 6384.09 4684.94 6257.65 4840.86 6257.65 4879.84 6257.65 4916.97 6265.56 4950.75 6279.85L4989.24 6300.75 4990.23 6296.69C4992.78 6285.96 4995.49 6274.46 4998.34 6262.19 5001.19 6247.73 5004.28 6240.5 5007.61 6240.5 5012.13 6240.5 5018.79 6241.45 5027.58 6243.35 5036.38 6245.26 5043.04 6246.21 5047.55 6246.21 5051.83 6246.21 5058.31 6245.16 5066.99 6243.07 5071.33 6242.02 5075.09 6241.24 5078.27 6240.71ZM4863.13 6027.36 4830.93 6156.57 6094.16 6156.57 6061.95 6027.36ZM4799.57 5944 6125.97 5944 6203.23 6239.93 5951.22 6239.93 5991.53 6243.58C6040.61 6253.11 6078.92 6276.95 6106.48 6315.09 6132.85 6351.58 6153.28 6400.69 6167.76 6462.41 6181.37 6519.87 6188.18 6580.04 6188.18 6642.93 6188.18 6752.01 6170.89 6846.34 6136.31 6925.92 6103.4 7001.67 6062.39 7044.28 6013.26 7053.75L5999.23 7055.07 6257.58 7055.07 6332 7351 4593.59 7351 4667.59 7055.07 5797.3 7055.07 5798.49 7055.78 5798.49 7055.78 5797.3 7055.07 5792.41 7052.14C5791.06 7049.71 5790.38 7046.07 5790.38 7041.22 5790.38 6998.91 5791.3 6935.05 5793.14 6849.64 5794.97 6764.24 5795.89 6700.19 5795.89 6657.48 5795.89 6612.45 5795.03 6544.71 5793.3 6454.26 5791.57 6363.81 5790.7 6296.07 5790.7 6251.04 5790.7 6246.96 5791.41 6243.91 5792.81 6241.87L5796.82 6239.93 5399.36 6239.93 5402.41 6243.13C5404.08 6245.92 5406.11 6250.1 5408.48 6255.67 5458.2 6377.13 5534.28 6557.78 5636.73 6797.61 5641.27 6807.61 5645.48 6816.26 5649.37 6823.56 5650.88 6807.42 5651.64 6770.52 5651.64 6712.86 5651.64 6662.9 5650.61 6587.95 5648.56 6488.02 5646.51 6388.08 5645.48 6313.33 5645.48 6263.74 5645.48 6251.06 5647.64 6244.72 5651.96 6244.72 5655.86 6244.72 5661.75 6245.3 5669.63 6246.45 5677.52 6247.6 5683.41 6248.18 5687.3 6248.18 5691.41 6248.18 5697.57 6247.6 5705.78 6246.45 5714 6245.3 5720.16 6244.72 5724.26 6244.72 5728.8 6244.72 5731.07 6248.95 5731.07 6257.4 5731.07 6301.6 5730.21 6368.29 5728.48 6457.46 5726.75 6546.63 5725.88 6613.51 5725.88 6658.09 5725.88 6699.99 5726.1 6762.73 5726.53 6846.33 5726.96 6929.93 5727.18 6992.68 5727.18 7034.57 5727.18 7047.25 5724.48 7053.6 5719.08 7053.6 5715.83 7053.6 5710.97 7053.02 5704.49 7051.87 5698 7050.71 5693.14 7050.14 5689.9 7050.14 5686.44 7050.14 5681.14 7050.71 5674.01 7051.87 5666.88 7053.02 5661.58 7053.6 5658.12 7053.6 5654.23 7053.6 5649.59 7047.25 5644.18 7034.57 5597.5 6922.72 5526.71 6755.91 5431.83 6534.14 5417.13 6500.31 5408.59 6481.48 5406.22 6477.64 5404.05 6477.64 5402.97 6485.52 5402.97 6501.28 5402.97 6560.47 5403.51 6649.35 5404.59 6767.92 5405.67 6886.5 5406.22 6975.38 5406.22 7034.57 5406.22 7047.25 5404.05 7053.6 5399.73 7053.6 5396.06 7053.6 5390.44 7053.02 5382.87 7051.87 5375.31 7050.71 5369.69 7050.14 5366.01 7050.14 5362.12 7050.14 5356.34 7050.71 5348.67 7051.87 5341 7053.02 5335.21 7053.6 5331.32 7053.6 5325.92 7053.6 5323.22 7049.75 5323.22 7042.07 5323.22 6999.79 5324.35 6936.08 5326.62 6850.94 5328.89 6765.81 5330.03 6701.91 5330.03 6659.25 5330.03 6612.74 5329.05 6528.95 5327.11 6407.88 5326.68 6376.36 5325.6 6329.09 5323.87 6266.05L5323.54 6258.56C5323.33 6252.79 5325.92 6249.71 5331.32 6249.33 5345.37 6248.95 5356.4 6248.18 5364.39 6247.03 5367.42 6246.64 5373.15 6245.1 5381.58 6242.41L5393.68 6239.93 5086.07 6239.93 5086.07 6239.93 5086.06 6239.93 4722.36 6239.93Z" fill="#324C89" fill-rule="evenodd"/></g></svg>