<svg width="1100" height="780" xmlns="http://www.w3.org/2000/svg" xmlns:xlink="http://www.w3.org/1999/xlink" xml:space="preserve" overflow="hidden"><defs><clipPath id="clip0"><rect x="322" y="7816" width="1100" height="780"/></clipPath></defs><g clip-path="url(#clip0)" transform="translate(-322 -7816)"><path d="M535.323 8478.16 517.475 8549.79 1361.88 8549.79 1344.03 8478.16 535.323 8478.16ZM636.573 8430.4C639.225 8430.4 643.203 8430.72 648.506 8431.36L654.083 8431.94 654.087 8431.94C654.088 8431.94 654.09 8431.94 654.091 8431.95L661.007 8431.95C661.008 8431.94 661.008 8431.94 661.008 8431.94L819.63 8431.94C819.63 8431.94 819.63 8431.94 819.631 8431.95L826.771 8431.95C826.772 8431.94 826.773 8431.94 826.774 8431.94L826.778 8431.94 832.418 8431.36C837.791 8430.72 841.804 8430.4 844.456 8430.4 846.968 8430.4 850.701 8430.72 855.656 8431.36L860.834 8431.94 860.838 8431.94C860.839 8431.94 860.84 8431.94 860.842 8431.95L867.625 8431.95C867.625 8431.94 867.625 8431.94 867.626 8431.94L953.592 8431.94C953.592 8431.94 953.592 8431.94 953.593 8431.95L1015.17 8431.95 1015.17 8431.94 1148.29 8431.94 1148.29 8431.95 1174.31 8431.95 1174.31 8431.94 1242.4 8431.94 1242.4 8431.95 1268.55 8431.95 1268.55 8431.94 1380.76 8431.94 1422 8596 458.651 8596 499.659 8431.94 613.357 8431.94C613.357 8431.94 613.358 8431.94 613.358 8431.95L620.145 8431.95C620.147 8431.94 620.148 8431.94 620.149 8431.94L620.153 8431.94 625.373 8431.36C630.328 8430.72 634.061 8430.4 636.573 8430.4ZM663.842 8286.74C663.95 8294.42 664.059 8302.1 664.168 8309.78 664.299 8318.07 664.451 8326.97 664.626 8336.46 665.324 8374.42 665.673 8402.84 665.673 8421.71 665.673 8425.25 665.237 8427.91 664.364 8429.68L661.008 8431.94 654.087 8431.94 648.506 8431.36C643.203 8430.72 639.225 8430.4 636.573 8430.4 634.061 8430.4 630.328 8430.72 625.373 8431.36L620.149 8431.94 613.357 8431.94 610.248 8430.48C609.376 8429.25 608.939 8427.4 608.939 8424.93 608.939 8401.34 609.672 8365.9 611.138 8318.6 611.296 8313.13 611.454 8307.66 611.612 8302.19L611.669 8302.19C627.447 8300.58 642.532 8296.63 656.57 8290.69L663.842 8286.74ZM725.217 8234.19 706.298 8257.14C699.221 8264.22 691.468 8270.63 683.145 8276.26L663.842 8286.74C663.841 8286.72 663.841 8286.7 663.841 8286.67 663.666 8272.46 663.579 8260.64 663.579 8251.2 663.579 8242.84 665.115 8238.01 668.185 8236.73 671.971 8235.23 690.93 8234.38 725.062 8234.19L725.217 8234.19ZM579.584 8225.62 608.939 8225.62C608.262 8233.31 601.939 8239.18 594.262 8239.18 586.584 8239.18 580.261 8233.31 579.584 8225.62ZM571.681 8203.03 613.276 8203.03 616.843 8203.03C620.682 8203.03 623.617 8205.96 623.617 8209.81 623.617 8213.65 620.682 8216.58 616.843 8216.58L613.306 8216.58 571.681 8216.58C567.842 8216.58 564.906 8213.65 564.906 8209.81 564.906 8205.96 567.842 8203.03 571.681 8203.03ZM571.681 8180.43 613.025 8180.43 616.843 8180.43C620.682 8180.43 623.617 8183.37 623.617 8187.21 623.617 8191.05 620.682 8193.99 616.843 8193.99L613.216 8193.99 571.681 8193.99C567.842 8193.99 564.906 8191.05 564.906 8187.21 564.906 8183.37 567.842 8180.43 571.681 8180.43ZM594.488 8062.7C569.875 8062.93 549.777 8082.81 549.326 8107.44L549.326 8109.25C549.552 8114.67 550.455 8120.1 552.487 8125.07 554.294 8129.59 557.003 8133.88 560.165 8137.5 565.132 8143.82 569.649 8150.6 573.261 8157.83L594.262 8157.83 612.611 8157.83 615.488 8157.83C618.875 8150.6 623.391 8143.82 628.585 8137.5 631.972 8133.88 634.456 8129.59 636.262 8125.07 638.069 8120.1 639.198 8114.67 639.424 8109.25L639.65 8109.25 639.65 8107.44C639.311 8088.8 627.922 8073.08 611.864 8066.29L610.194 8065.77 610.194 8065.77 603.476 8063.67C600.57 8063.06 597.564 8062.73 594.488 8062.7ZM594.262 8049.37C598.27 8049.4 602.183 8049.82 605.963 8050.61L609.876 8051.84 609.876 8051.84 616.868 8054.03C637.731 8062.87 652.465 8083.38 652.973 8107.44L652.973 8109.48C652.747 8116.48 651.392 8123.26 648.908 8129.81 646.65 8135.91 643.037 8141.56 638.747 8146.53 633.327 8152.41 627.456 8163.93 624.972 8168.91 624.295 8170.49 622.714 8171.39 620.907 8171.39L612.88 8171.39 567.616 8171.39C565.81 8171.39 564.229 8170.49 563.552 8168.91 561.068 8163.93 555.197 8152.41 549.777 8146.53 545.487 8141.56 542.1 8135.91 539.616 8129.81 537.132 8123.26 535.777 8116.48 535.551 8109.48L535.551 8107.44C536.229 8075.35 562.197 8049.59 594.262 8049.37ZM984.148 8046.27C965.477 8046.27 949.933 8063 937.519 8096.46 925.788 8127.77 919.922 8164.45 919.922 8206.49 919.922 8248.31 925.788 8284.88 937.519 8316.19 949.933 8349.65 965.477 8366.38 984.148 8366.38 1003.11 8366.38 1018.85 8349.65 1031.36 8316.19 1043.19 8284.88 1049.11 8247.99 1049.11 8205.52 1049.11 8163.48 1043.14 8126.92 1031.22 8095.82 1018.7 8062.79 1003.01 8046.27 984.148 8046.27ZM1093.53 7980.97C1095.22 7980.97 1097.78 7981.29 1101.21 7981.93 1104.64 7982.57 1107.2 7982.9 1108.9 7982.9 1110.49 7982.9 1112.89 7982.68 1116.09 7982.25 1119.28 7981.82 1121.68 7981.61 1123.28 7981.61 1125.25 7981.61 1126.24 7983.22 1126.24 7986.43 1126.24 8003.81 1125.79 8030.03 1124.9 8065.09 1124 8100.16 1123.56 8126.38 1123.56 8143.75 1123.56 8154.69 1133.05 8204.23 1152.04 8292.38 1158.33 8321.55 1161.77 8336.14 1162.33 8336.14 1162.52 8335.92 1162.75 8335.17 1163.03 8333.88 1164.16 8328.95 1166.56 8315.23 1170.22 8292.71 1176.99 8250.88 1183.95 8203.38 1191.09 8150.19 1191.37 8144.82 1191.51 8127.88 1191.51 8099.36 1191.51 8086.7 1191.35 8067.77 1191.02 8042.57 1190.69 8017.37 1190.53 7998.44 1190.53 7985.79 1190.53 7982.57 1191.51 7980.97 1193.49 7980.97 1195.27 7980.97 1197.95 7981.29 1201.52 7981.93 1205.1 7982.57 1207.82 7982.9 1209.7 7982.9 1211.3 7982.9 1213.7 7982.57 1216.89 7981.93 1220.09 7981.29 1222.48 7980.97 1224.08 7980.97 1226.24 7980.97 1227.32 7982.68 1227.32 7986.11 1227.32 7999.62 1227.14 8019.95 1226.76 8047.08 1226.38 8074.21 1226.2 8094.53 1226.2 8108.04 1226.2 8130.13 1226.24 8143.54 1226.34 8148.26 1226.62 8158.98 1233.72 8206.06 1247.63 8289.49 1249.13 8298.93 1251.57 8312.44 1254.96 8330.02 1255.05 8330.88 1255.24 8331.63 1255.52 8332.28 1256.09 8332.28 1259.42 8318.01 1265.53 8289.49 1284.05 8203.05 1293.31 8154.26 1293.31 8143.11 1293.31 8125.52 1292.88 8099.25 1292.04 8064.29 1291.19 8029.33 1290.77 8003.16 1290.77 7985.79 1290.77 7982.57 1291.14 7980.97 1291.9 7980.97 1293.78 7980.97 1296.57 7981.29 1300.28 7981.93 1304 7982.57 1306.79 7982.9 1308.67 7982.9 1310.36 7982.9 1312.95 7982.57 1316.43 7981.93 1319.91 7981.29 1322.54 7980.97 1324.32 7980.97 1326.3 7980.97 1327.42 7982.25 1327.71 7984.83L1327.71 7993.83C1327.71 8010.78 1327.94 8036.08 1328.41 8069.76 1328.88 8103.43 1329.12 8128.74 1329.12 8145.68 1329.12 8147.4 1319.72 8193.3 1300.92 8283.38 1294.62 8314.69 1284.99 8361.45 1272.02 8423.64 1271.41 8426.54 1270.78 8428.71 1270.15 8430.16L1268.55 8431.94 1242.4 8431.94 1240.4 8430.16C1239.67 8428.71 1239.03 8426.54 1238.46 8423.64 1231.51 8386.32 1221.5 8327.56 1208.43 8247.34 1201.95 8286.81 1191.84 8345.57 1178.12 8423.64 1177.6 8426.54 1176.99 8428.71 1176.29 8430.16L1174.31 8431.94 1148.29 8431.94 1146.61 8430.16C1145.95 8428.71 1145.32 8426.54 1144.71 8423.64 1138.22 8392.54 1128.49 8345.79 1115.52 8283.38 1097.57 8198.01 1088.59 8152.12 1088.59 8145.68 1088.59 8128.09 1088.83 8101.61 1089.3 8066.22 1089.77 8030.83 1090 8004.34 1090 7986.76 1090 7982.9 1091.18 7980.97 1093.53 7980.97ZM821.218 7980.97C823.87 7980.97 827.743 7981.29 832.837 7981.93 837.931 7982.57 841.804 7982.9 844.456 7982.9 846.968 7982.9 850.736 7982.57 855.76 7981.93 860.785 7981.29 864.553 7980.97 867.065 7980.97 870.694 7980.97 872.508 7983.32 872.508 7988.04 872.508 8012.92 871.81 8050.29 870.415 8100.16 869.019 8150.03 868.321 8187.4 868.321 8212.28 868.321 8235.87 869.089 8271.31 870.624 8318.6 872.159 8365.9 872.927 8401.34 872.927 8424.93 872.927 8427.4 872.404 8429.25 871.357 8430.48L867.626 8431.94 860.838 8431.94 855.656 8431.36C850.701 8430.72 846.968 8430.4 844.456 8430.4 841.804 8430.4 837.791 8430.72 832.418 8431.36L826.774 8431.94 819.63 8431.94 816.769 8430.48C815.967 8429.25 815.566 8427.4 815.566 8424.93 815.566 8405.63 815.949 8376.67 816.717 8338.07 817.484 8299.46 817.869 8270.51 817.869 8251.2 817.869 8242.84 816.263 8238.01 813.054 8236.73 808.867 8235.01 784.722 8234.15 740.619 8234.15L725.217 8234.19 725.402 8233.97C736.648 8217.31 744.775 8198.37 748.943 8177.99L750.636 8166.89 756.418 8166.87C791.07 8166.66 810.227 8165.71 813.891 8164.02 817.101 8162.73 818.706 8158.12 818.706 8150.19 818.706 8132.17 818.322 8105.04 817.555 8068.79 816.787 8032.55 816.403 8005.42 816.403 7987.4 816.403 7983.11 818.008 7980.97 821.218 7980.97ZM614.173 7980.97C616.685 7980.97 620.523 7981.29 625.687 7981.93 630.851 7982.57 634.759 7982.9 637.411 7982.9 639.923 7982.9 643.831 7982.57 649.134 7981.93 654.438 7981.29 658.346 7980.97 660.858 7980.97 664.068 7980.97 665.673 7982.9 665.673 7986.76 665.673 7991.37 665.64 7996.56 665.575 8002.33L665.502 8007.03 683.145 8016.62C724.76 8044.75 752.121 8092.4 752.121 8146.44 752.121 8151.84 751.847 8157.18 751.313 8162.44L750.636 8166.89 750.636 8166.89 748.942 8177.99C744.774 8198.37 736.648 8217.31 725.402 8233.97L725.217 8234.19 725.062 8234.19C690.93 8234.38 671.97 8235.23 668.185 8236.73 665.114 8238.01 663.579 8242.84 663.579 8251.2 663.579 8260.64 663.666 8272.46 663.841 8286.67 663.841 8286.7 663.841 8286.72 663.842 8286.74L656.569 8290.69C642.532 8296.63 627.447 8300.58 611.669 8302.19L611.612 8302.19 595.673 8302.99C563.272 8302.99 533.171 8293.14 508.202 8276.26L488.988 8260.39 475.297 8280.34C429.229 8341.61 379.136 8370.29 358.345 8369.7 346.896 8363.55 323.484 8332.03 322 8320.76 327.426 8300.67 369.304 8260.94 441.215 8234.46L462.513 8227.64 451.52 8207.38C443.603 8188.65 439.226 8168.05 439.226 8146.44 439.226 8059.97 509.269 7989.88 595.673 7989.88L608.956 7990.55C608.996 7996.72 609.036 8002.88 609.077 8009.04 609.168 8016.83 609.306 8025.39 609.489 8034.73L609.501 8035.29 595.673 8033.89C533.561 8033.89 483.209 8084.28 483.209 8146.44 483.209 8208.59 533.561 8258.98 595.673 8258.98L612.769 8257.25 618.339 8256.69C662.266 8247.7 696.864 8213.08 705.853 8169.12L706.101 8166.66 706.101 8166.66 708.137 8146.44C708.138 8115.36 695.55 8087.22 675.198 8066.86L664.419 8057.96 664.419 8057.96 658.553 8053.11C646.587 8045.02 632.981 8039.18 618.339 8036.18L609.502 8035.29C609.497 8035.1 609.493 8034.92 609.489 8034.73 609.306 8025.39 609.168 8016.83 609.077 8009.04 609.036 8002.88 608.996 7996.72 608.956 7990.55 608.951 7989.72 608.945 7988.88 608.939 7988.04 608.939 7983.32 610.684 7980.97 614.173 7980.97ZM608.019 7862.21 590.171 7933.85 1290.2 7933.85 1272.35 7862.21 608.019 7862.21ZM572.793 7816 1307.82 7816 1350.64 7980.06 1014.05 7980.06 1014.71 7980.44C1030.43 7991.65 1044.34 8012.2 1056.44 8042.09 1075.11 8087.99 1084.45 8142.79 1084.45 8206.49 1084.45 8270.19 1075.16 8324.98 1056.59 8370.88 1046.91 8394.69 1036.06 8412.54 1024.03 8424.45L1015.17 8431.94 953.592 8431.94 944.777 8424.53C932.753 8412.68 921.926 8394.9 912.297 8371.2 893.724 8325.52 884.437 8270.61 884.437 8206.49 884.437 8143 893.822 8088.2 912.591 8042.09 924.688 8012.2 938.58 7991.65 954.267 7980.44L954.923 7980.06 963.894 7974.83C967.175 7973.34 970.528 7972.22 973.952 7971.47L984.441 7970.35 984.441 7970.35C977.305 7970.35 970.456 7971.84 963.894 7974.83L954.923 7980.06 530.007 7980.06 572.793 7816Z" fill="#324C89" fill-rule="evenodd"/></g></svg>