<svg width="802" height="1755" xmlns="http://www.w3.org/2000/svg" xmlns:xlink="http://www.w3.org/1999/xlink" xml:space="preserve" overflow="hidden"><defs><clipPath id="clip0"><rect x="9716" y="366" width="802" height="1755"/></clipPath></defs><g clip-path="url(#clip0)" transform="translate(-9716 -366)"><path d="M13.504 145 13.504 86.6317 64.0147 86.2775 68.0001 75.7762 34.4271 0 22.3287 5.6846 51.5605 70.4458 0 70.4458 0 139.315 13.504 145Z" fill="#231F20" fill-rule="evenodd" transform="matrix(1 0 0 -1 9866 1729)"/><path d="M10.3423 91.0001 15.1674 84.4673 89 84.4673 87.439 70.0422 83.3234 68.3295 83.3234 0 13.4467 0 13.4467 68.5061 6.03152 68.5061 0 77.087 10.3423 91.0001ZM26.9112 68.5061 26.9112 14.7783 69.8589 14.7783 69.8589 68.5061 26.9112 68.5061Z" fill="#231F20" fill-rule="evenodd" transform="matrix(1 0 0 -1 9716 1727)"/><path d="M8.87504 52.9999 29.0002 43.1962 29.0002 0 15.4644 0 15.4644 33.198 0 41.1081 8.87504 52.9999Z" fill="#231F20" fill-rule="evenodd" transform="matrix(1 0 0 -1 9818 1689)"/><path d="M11.9004 93.0002 25.3818 44.176 56.3054 93.0002 65.2751 82.8166 29.8756 27.4282 32.1313 19.4978 66.8204 32.6086 89.8044 93.0002 99.9997 82.8166 77.0158 19.8526 22.9662 0 0 83.5085 11.9004 93.0002Z" fill="#231F20" fill-rule="evenodd" transform="matrix(1 0 0 -1 9949 1729)"/><path d="M8.85718 91.0001 29.0002 81.2185 29.0002 0 15.4644 0 15.4644 70.7307 0 79.1351 8.85718 91.0001Z" fill="#231F20" fill-rule="evenodd" transform="matrix(1 0 0 -1 10060 1727)"/><path d="M10.5019 91.0001 15.3931 84.4673 64.0003 84.4673 64.0003 0 50.3514 0 50.3514 68.5061 6.13207 68.5061 0 77.087 10.5019 91.0001Z" fill="#231F20" fill-rule="evenodd" transform="matrix(1 0 0 -1 10105 1727)"/><path d="M8.87496 52.9999 28.9999 43.1962 28.9999 0 15.4463 0 15.4463 33.198 0 41.1081 8.87496 52.9999Z" fill="#231F20" fill-rule="evenodd" transform="matrix(1 0 0 -1 10186 1689)"/><path d="M15.0323 92.0001 19.9232 85.4564 63.2941 85.4564 63.2941 17.88 74.9999 18.3929 74.9999 3.09496 0 0 0 15.298 49.6463 17.3672 49.6463 69.4688 10.6629 69.4688 4.53128 78.0639 15.0323 92.0001Z" fill="#231F20" fill-rule="evenodd" transform="matrix(1 0 0 -1 10227 1728)"/><path d="M14.4183 92.9998 19.2127 86.4355 90.0001 86.4355 88.4667 71.9409 84.3421 70.22 84.3421 1.56124 70.9813 1.56124 70.9813 70.3974 30.8813 70.3974 33.6134 3.81442 0 0 0 15.3463 19.3889 17.9542 17.5206 70.3974 10.1351 70.3974 4.12457 79.0196 14.4183 92.9998Z" fill="#231F20" fill-rule="evenodd" transform="matrix(1 0 0 -1 9716 1579)"/><path d="M8.83929 52.9999 29.0002 43.1962 29.0002 0 15.4644 0 15.4644 33.198 0 41.1081 8.83929 52.9999Z" fill="#231F20" fill-rule="evenodd" transform="matrix(1 0 0 -1 9820 1539)"/><path d="M10.3349 92.0001 15.1483 85.3955 63.0003 85.3955 63.0003 0 49.5684 0 49.5684 69.259 6.03456 69.259 0 77.9341 10.3349 92.0001Z" fill="#231F20" fill-rule="evenodd" transform="matrix(1 0 0 -1 9864 1578)"/><path d="M14.8284 92.0001 19.6529 85.4564 62.4352 85.4564 62.4352 17.88 73.9999 18.3929 73.9999 3.09496 0 0 0 15.298 48.9726 17.3672 48.9726 69.4688 10.5183 69.4688 4.46979 78.0639 14.8284 92.0001Z" fill="#231F20" fill-rule="evenodd" transform="matrix(1 0 0 -1 9943 1578)"/><path d="M10.4427 92.0001 15.3151 85.3955 80.9998 85.3955 79.4413 70.8119 75.2498 69.0804 75.2498 0 61.6723 0 61.6723 69.259 6.09009 69.259 0 77.9341 10.4427 92.0001Z" fill="#231F20" fill-rule="evenodd" transform="matrix(1 0 0 -1 10122 1578)"/><path d="M26.2956 93.9998 38.5716 21.0699 56.9144 23.6835 67.1266 88.2535 82.0002 92.9615 68.3364 9.75625 0 0 0 15.4846 24.9257 18.9754 12.9699 86.159 26.2956 93.9998Z" fill="#231F20" fill-rule="evenodd" transform="matrix(1 0 0 -1 10027 1581)"/><path d="M13.0001 53.0003 13.0001 0 0 0 0 47.731 13.0001 53.0003Z" fill="#231F20" fill-rule="evenodd" transform="matrix(1 0 0 -1 10128 1578)"/><path d="M13.4145 93.0002 19.4492 17.6791 57.1441 22.6546 63.1434 70.0104 33.0406 70.0104 40.6151 85.9603 79.0001 85.9603 69.3549 9.10421 6.88423 0 0 83.0491 13.4145 93.0002Z" fill="#231F20" fill-rule="evenodd" transform="matrix(1 0 0 -1 9813 1420)"/><path d="M10.3139 92.0001 15.1436 85.3955 79.9997 85.3955 78.4429 70.8119 74.3208 69.0804 74.3208 0 60.9108 0 60.9108 69.259 6.01504 69.259 0 77.9341 10.3139 92.0001Z" fill="#231F20" fill-rule="evenodd" transform="matrix(1 0 0 -1 9716 1419)"/><path d="M8.84474 53.0003 28.9999 43.1965 28.9999 0 15.456 0 15.456 33.1982 0 41.1084 8.84474 53.0003Z" fill="#231F20" fill-rule="evenodd" transform="matrix(1 0 0 -1 9904 1380)"/><path d="M10.2896 93.0002 14.571 86.4358 85.9999 86.4358 73.1731 7.77077 16.7911 0 8.40436 70.3977 4.79236 70.3977 0 79.02 10.2896 93.0002ZM22.2708 70.3977 27.9441 17.7769 61.8614 21.5735 69.5611 70.3977 22.2708 70.3977Z" fill="#231F20" fill-rule="evenodd" transform="matrix(1 0 0 -1 9948 1420)"/><path d="M10.3347 92.0001 15.166 85.3955 62.9999 85.3955 62.9999 0 49.568 0 49.568 69.259 6.03451 69.259 0 77.9341 10.3347 92.0001Z" fill="#231F20" fill-rule="evenodd" transform="matrix(1 0 0 -1 10048 1419)"/><path d="M14.8285 92.0001 19.6706 85.4564 62.4532 85.4564 62.4532 17.88 74.0003 18.3929 74.0003 3.09496 0 0 0 15.298 48.9728 17.3672 48.9728 69.4688 10.5182 69.4688 4.46981 78.0639 14.8285 92.0001Z" fill="#231F20" fill-rule="evenodd" transform="matrix(1 0 0 -1 10127 1419)"/><path d="M8.86261 53.0003 29.0002 43.1965 29.0002 0 15.4561 0 15.4561 33.1982 0 41.1084 8.86261 53.0003Z" fill="#231F20" fill-rule="evenodd" transform="matrix(1 0 0 -1 10204 1380)"/><path d="M19.9287 95.0002 39.9999 85.1793 39.9999 8.11912 0 0 0 15.3518 26.4826 21.2195 26.4826 74.6493 11.0953 83.0875 19.9287 95.0002Z" fill="#231F20" fill-rule="evenodd" transform="matrix(1 0 0 -1 10243 1422)"/><path d="M8.85712 92.0001 28.9999 82.1111 28.9999 0 15.4464 0 15.4464 71.508 0 80.0048 8.85712 92.0001Z" fill="#231F20" fill-rule="evenodd" transform="matrix(1 0 0 -1 10297 1419)"/><path d="M10.4251 92.0001 15.333 85.3955 81.0001 85.3955 79.4238 70.8119 75.2323 69.0804 75.2323 0 61.6547 0 61.6547 69.259 6.07224 69.259 0 77.9341 10.4251 92.0001Z" fill="#231F20" fill-rule="evenodd" transform="matrix(1 0 0 -1 10437 1419)"/><path d="M22.0263 91.0001 55.7469 50.4274 62.4521 86.5078 76.747 86.5078 68.1311 35.7431 85.9999 14.1694 79.6484 0 23.2294 65.964 13.5872 1.56255 0 1.56255 12.5435 85.6555 22.0263 91.0001Z" fill="#231F20" fill-rule="evenodd" transform="matrix(1 0 0 -1 10343 1420)"/><path d="M14.0001 52.9999 14.0001 0 0 0 0 47.7306 14.0001 52.9999Z" fill="#231F20" fill-rule="evenodd" transform="matrix(1 0 0 -1 9721 1419)"/><path d="M12.9997 52.9999 12.9997 0 0 0 0 47.7306 12.9997 52.9999Z" fill="#231F20" fill-rule="evenodd" transform="matrix(1 0 0 -1 10443 1419)"/><path d="M20.0157 76C35.5252 76 46.127 70.5209 46.127 55.5153 46.127 43.426 37.1671 35.7023 25.0109 34.359 27.1068 31.6725 29.4297 28.7562 31.2985 26.2995L50.9999 0 35.8397 0 12.6102 32.68 12.0513 32.68 12.0513 0 0 0 0 75.5581C5.43181 75.8939 11.6147 76 20.0157 76ZM18.3739 66.0315C16.051 66.0315 13.8329 65.9255 12.0513 65.8195L12.0513 41.8706C13.1691 41.747 15.2651 41.6409 17.9198 41.6409 27.6657 41.6409 33.5167 46.6781 33.5167 54.1721 33.5167 62.4613 28.4167 66.0315 18.3739 66.0315Z" fill="#231F20" fill-rule="evenodd" transform="matrix(1 0 0 -1 10142 1874)"/><path d="M24.0653 76C40.7604 76 49.4039 69.3039 49.4039 57.6916 49.4039 49.9912 44.1855 43.1894 36.349 40.511L36.349 40.2819C46.3195 38.3788 50.9999 30.9074 50.9999 23.1013 50.9999 13.2687 44.4187 0 20.8912 0 16.2289 0 8.51785 0.229058 0 0.33476L0 75.6652C6.02527 75.7709 14.7584 76 24.0653 76ZM22.039 66.2907C18.6139 66.2907 15.3322 66.1674 12.3733 66.0617L12.3733 43.7357C14.4177 43.6299 16.3544 43.6299 18.9545 43.6299 30.4493 43.6299 36.4567 48.2115 36.4567 55.8061 36.4567 61.9383 32.9419 66.2907 22.039 66.2907ZM19.2953 34.5902C18.0579 34.5902 14.0769 34.5902 12.3733 34.4845L12.3733 10.4846C14.3101 10.1497 17.3586 9.92066 21.3396 9.92066 32.5832 9.92066 37.9271 15.2775 37.9271 22.8722 37.9271 31.4713 30.0907 34.5902 19.2953 34.5902Z" fill="#231F20" fill-rule="evenodd" transform="matrix(1 0 0 -1 10076 1874)"/><path d="M0 76 54 76 54 65.6355 33.0572 65.6355 33.0572 0 20.8007 0 20.8007 65.6355 0 65.6355 0 76Z" fill="#231F20" fill-rule="evenodd" transform="matrix(1 0 0 -1 9716 1874)"/><path d="M0 76 12.4156 76 12.4156 44.5689 48.6921 44.5689 48.6921 76 60.9998 76 60.9998 0 48.6921 0 48.6921 34.1156 12.4156 34.1156 12.4156 0 0 0 0 76Z" fill="#231F20" fill-rule="evenodd" transform="matrix(1 0 0 -1 9779 1874)"/><path d="M0 76 39.9999 76 39.9999 65.76 12.2394 65.76 12.2394 44.1422 38.6518 44.1422 38.6518 34.1156 12.2394 34.1156 12.2394 10.4711 39.9999 10.4711 39.9999 0 0 0 0 76Z" fill="#231F20" fill-rule="evenodd" transform="matrix(1 0 0 -1 9859 1874)"/><path d="M0 76 12.2121 76 12.2121 44.5689 47.9117 44.5689 47.9117 76 60.0002 76 60.0002 0 47.9117 0 47.9117 34.1156 12.2121 34.1156 12.2121 0 0 0 0 76Z" fill="#231F20" fill-rule="evenodd" transform="matrix(1 0 0 -1 9940 1874)"/><path d="M0 76 39.9999 76 39.9999 65.76 12.2503 65.76 12.2503 44.1422 38.6683 44.1422 38.6683 34.1156 12.2503 34.1156 12.2503 10.4711 39.9999 10.4711 39.9999 0 0 0 0 76Z" fill="#231F20" fill-rule="evenodd" transform="matrix(1 0 0 -1 10020 1874)"/><path d="M0 76 40.0002 76 40.0002 65.76 12.2449 65.76 12.2449 44.1422 38.6515 44.1422 38.6515 34.1156 12.2449 34.1156 12.2449 10.4711 40.0002 10.4711 40.0002 0 0 0 0 76Z" fill="#231F20" fill-rule="evenodd" transform="matrix(1 0 0 -1 10205 1874)"/><path d="M0 76 13.0111 76 24.6769 29.8311C26.0223 24.7645 26.9074 19.9289 27.5801 14.8622L27.6863 14.8622C28.4829 19.8222 29.368 24.6577 30.7134 29.28L43.6006 76 56.9481 76 70.1717 29.1556C71.3047 25.1022 72.4199 20.0356 73.1988 15.1822L73.3227 15.1822C74.1193 19.9289 74.8983 24.32 76.0135 28.4978L87.7855 76 100 76 80.3859 0 65.3567 0 52.4694 46.9511C51.1241 51.5555 50.3452 56.4089 49.5486 61.2444L49.4247 61.2444C48.8759 56.5155 47.9731 51.8933 46.7516 47.1644L33.9706 0 19.6141 0 0 76Z" fill="#231F20" fill-rule="evenodd" transform="matrix(1 0 0 -1 10255 1874)"/><path d="M27.8269 77.9997C32.3082 77.9997 36.9135 77.4325 41.5188 76.6527L40.8458 65.7707C36.453 67.1176 31.6351 67.8974 27.1536 67.8974 17.7304 67.8974 12.9126 63.5198 12.9126 57.2281 12.9126 42.0748 46.0001 47.693 46.0001 24.0149 46.0001 10.1022 35.0004 0 16.9511 0 11.4425 0 6.05773 0.655792 1.70027 1.79003L2.35573 13.3455C6.62453 11.7682 12.5761 10.5453 18.067 10.5453 26.3566 10.5453 33.1053 14.019 33.1053 22.2071 33.1053 38.158 0 31.4232 0 55.8812 0 68.9077 10.2202 77.9997 27.8269 77.9997Z" fill="#231F20" fill-rule="evenodd" transform="matrix(1 0 0 -1 10090 1997)"/><path d="M20.0332 76.0003C35.5079 76.0003 46.127 70.5212 46.127 55.5156 46.127 43.4262 37.167 35.7025 24.9935 34.3592 27.0893 31.6727 29.4298 28.7564 31.2986 26.2996L50.9999 0 35.8397 0 12.6103 32.6802 12.0514 32.6802 12.0514 0 0 0 0 75.5585C5.4319 75.8942 11.6147 76.0003 20.0332 76.0003ZM18.3565 66.0319C16.051 66.0319 13.8154 65.9258 12.0514 65.8198L12.0514 41.8708C13.1692 41.7472 15.2826 41.6411 17.9199 41.6411 27.6657 41.6411 33.5168 46.6784 33.5168 54.1723 33.5168 62.4616 28.4167 66.0319 18.3565 66.0319Z" fill="#231F20" fill-rule="evenodd" transform="matrix(1 0 0 -1 10031 1996)"/><path d="M0 77 12.3282 77 12.3282 27.8677C12.3282 17.7501 15.7181 10.1176 29.8305 10.1176 42.2657 10.1176 47.9036 15.2828 47.9036 29.4474L47.9036 77 59.9998 77 59.9998 30.3527C59.9998 10.1176 49.0454 0 29.0632 0 5.08476 0 0 13.0286 0 26.9802L0 77Z" fill="#231F20" fill-rule="evenodd" transform="matrix(1 0 0 -1 9716 1997)"/><path d="M0 76.0003 15.972 76.0003 40.8368 34.5601C44.165 28.9245 47.1939 22.8623 49.9762 17.3512 49.5183 26.009 49.1837 42.3291 49.1837 53.4758L49.1837 76.0003 60.9998 76.0003 60.9998 0 45.2744 0 19.5292 43.2357C16.1833 48.7469 13.489 54.1513 11.1645 59.218 11.6048 51.7869 11.8337 36.3735 11.8337 25.5646L11.8337 0 0 0 0 76.0003Z" fill="#231F20" fill-rule="evenodd" transform="matrix(1 0 0 -1 9795 1996)"/><path d="M0 76.0003 12 76.0003 12 0 0 0 0 76.0003Z" fill="#231F20" fill-rule="evenodd" transform="matrix(1 0 0 -1 9876 1996)"/><path d="M0 76.0003 13.6385 76.0003 29.7715 29.1557C31.3686 24.7646 33.1811 19.3601 34.6526 13.7423L34.7783 13.7423C36.1421 19.0223 37.5059 23.7512 39.785 29.9379L56.2589 76.0003 69.0001 76.0003 41.3821 0 27.277 0 0 76.0003Z" fill="#231F20" fill-rule="evenodd" transform="matrix(1 0 0 -1 9897 1996)"/><path d="M0 76.0003 40.0002 76.0003 40.0002 65.7603 12.2395 65.7603 12.2395 44.1424 38.6699 44.1424 38.6699 34.1157 12.2395 34.1157 12.2395 10.4711 40.0002 10.4711 40.0002 0 0 0 0 76.0003Z" fill="#231F20" fill-rule="evenodd" transform="matrix(1 0 0 -1 9975 1996)"/><path d="M0 76.0003 12 76.0003 12 0 0 0 0 76.0003Z" fill="#231F20" fill-rule="evenodd" transform="matrix(1 0 0 -1 10150 1996)"/><path d="M0 76.0003 54 76.0003 54 65.6358 33.0859 65.6358 33.0859 0 20.7896 0 20.7896 65.6358 0 65.6358 0 76.0003Z" fill="#231F20" fill-rule="evenodd" transform="matrix(1 0 0 -1 10172 1996)"/><path d="M0 76.0003 13.349 76.0003 24.5735 52.018C26.5921 47.5024 28.3802 43.2357 29.9557 39.1824L30.1859 39.1824C31.8502 43.6802 34.0985 48.5335 36.4535 53.3691L47.1114 76.0003 60.0002 76.0003 35.8868 27.129 35.8868 0 23.6708 0 23.6708 27.129 0 76.0003Z" fill="#231F20" fill-rule="evenodd" transform="matrix(1 0 0 -1 10228 1996)"/><path d="M36.109 78C56.4082 78 69.9998 65.3279 69.9998 39.9482 69.9998 14.8166 53.838 0 33.8909 0 11.0212 0 0 14.923 0 38.1582 0 63.2897 16.2676 78 36.109 78ZM35 67.2243C23.4154 67.2243 12.9402 57.7955 12.9402 39.6115 12.9402 22.4376 19.9295 10.8821 34.7712 10.8821 45.9153 10.8821 57.0774 19.8678 57.0774 38.7253 57.0774 57.0157 49.0491 67.2243 35 67.2243Z" fill="#231F20" fill-rule="evenodd" transform="matrix(1 0 0 -1 9716 2121)"/><path d="M27.8267 78C32.308 78 36.9134 77.4329 41.501 76.6531L40.828 65.771C36.4527 67.118 31.635 67.8977 27.1359 67.8977 17.7306 67.8977 12.895 63.5201 12.895 57.2284 12.895 42.075 46.0001 47.6932 46.0001 24.015 46.0001 10.1023 35.0005 0 16.9334 0 11.4424 0 6.04017 0.655795 1.68274 1.79004L2.35572 13.3456C6.62464 11.7683 12.5585 10.5453 18.067 10.5453 26.3566 10.5453 33.0873 14.0191 33.0873 22.2072 33.0873 38.1582 0 31.4234 0 55.8814 0 68.908 10.2203 78 27.8267 78Z" fill="#231F20" fill-rule="evenodd" transform="matrix(1 0 0 -1 10108 2121)"/><path d="M20.0439 77C35.5133 77 46.1286 71.4489 46.1286 56.2458 46.1286 43.9974 37.1544 36.1721 25.0024 34.8111 27.1152 32.0893 29.4373 29.1346 31.3053 26.6456L51.0002 0 35.8449 0 12.606 33.11 12.0647 33.11 12.0647 0 0 0 0 76.5523C5.43019 76.8925 11.6282 77 20.0439 77ZM18.3679 66.9004C16.0455 66.9004 13.8282 66.793 12.0647 66.6856L12.0647 42.4216C13.1646 42.2963 15.2774 42.1888 17.9311 42.1888 27.6562 42.1888 33.5229 47.2924 33.5229 54.8849 33.5229 63.2832 28.4419 66.9004 18.3679 66.9004Z" fill="#231F20" fill-rule="evenodd" transform="matrix(1 0 0 -1 9972 2120)"/><path d="M0 76 40.0002 76 40.0002 65.6355 12.3948 65.6355 12.3948 43.3422 38.5115 43.3422 38.5115 33.3156 12.3948 33.3156 12.3948 0 0 0 0 76Z" fill="#231F20" fill-rule="evenodd" transform="matrix(1 0 0 -1 9799 2120)"/><path d="M15.9299 76 27.9998 76 27.9998 21.1521C27.9998 8.67866 23.0216 0 8.6462 0 5.10038 0 2.34064 0.439214 0 0.895953L0 11.4545C1.88639 10.7869 4.54128 10.2422 7.19648 10.2422 12.8557 10.2422 15.9299 12.5788 15.9299 21.6967L15.9299 76Z" fill="#231F20" fill-rule="evenodd" transform="matrix(1 0 0 -1 9868 2120)"/><path d="M0 76 39.9999 76 39.9999 65.76 12.2518 65.76 12.2518 44.1422 38.6344 44.1422 38.6344 34.1156 12.2518 34.1156 12.2518 10.4711 39.9999 10.4711 39.9999 0 0 0 0 76Z" fill="#231F20" fill-rule="evenodd" transform="matrix(1 0 0 -1 9916 2120)"/><path d="M0 77 12.314 77 12.314 27.8677C12.314 17.7501 15.7049 10.1176 29.8395 10.1176 42.2607 10.1176 47.9177 15.2828 47.9177 29.4474L47.9177 77 59.9998 77 59.9998 30.3527C59.9998 10.1176 49.0422 0 29.0361 0 5.08637 0 0 13.0286 0 26.9802L0 77Z" fill="#231F20" fill-rule="evenodd" transform="matrix(1 0 0 -1 10034 2121)"/><path d="M27.4675 76 41.1922 76 69.0001 0 55.2751 0 49.3805 16.7645 18.4011 16.7645 12.4885 0 0 0 27.4675 76ZM33.7208 62.1511C32.9325 58.3111 31.6782 54.151 30.1908 50.0978L21.5546 26.56 46.0837 26.56 37.3576 50.4355C35.8886 54.3822 34.8672 57.9733 33.9356 62.1511L33.7208 62.1511Z" fill="#231F20" fill-rule="evenodd" transform="matrix(1 0 0 -1 10159 2120)"/><path d="M0 76 12.1566 76 12.1566 10.6845 38.0002 10.6845 38.0002 0 0 0 0 76Z" fill="#231F20" fill-rule="evenodd" transform="matrix(1 0 0 -1 10237 2120)"/><path d="M0 76 39.9999 76 39.9999 65.76 12.2569 65.76 12.2569 44.1422 38.6517 44.1422 38.6517 34.1156 12.2569 34.1156 12.2569 10.4711 39.9999 10.4711 39.9999 0 0 0 0 76Z" fill="#231F20" fill-rule="evenodd" transform="matrix(1 0 0 -1 10285 2120)"/><path d="M11.3118 76 25.8584 76 40.4046 32.0888C42.1899 26.56 43.6568 21.5111 44.5405 16.5511L44.7702 16.5511C45.8839 22.1689 47.1212 26.0088 48.9061 31.6444L63.8062 76 78.4586 76 90.0001 0 77.133 0 71.1943 40.4089C69.9571 48.5333 69.4091 54.0444 68.8433 59.0044L68.6137 59.0044C67.7299 54.7022 66.5988 49.7599 64.69 44.1422L50.4792 0 37.8243 0 24.2853 40.9778C22.2704 46.9511 20.3613 53.4755 19.4776 59.0044L19.2479 59.0044C18.806 52.4622 18.0106 46.4889 17.233 39.2889L12.4252 0 0 0 11.3118 76Z" fill="#231F20" fill-rule="evenodd" transform="matrix(1 0 0 -1 10337 2120)"/><path d="M0.00711988 82.389 55.1073 0.0115681 92.0073 47.2901 45.686 141.012 0.00711988 82.389Z" fill="#2F7789" fill-rule="evenodd" transform="matrix(1 0 0 -1 10083 1087)"/><path d="M106.001 227.014 0.00115243 96.1722 0.00115243 0.0141106 97.8881 96.6344 106.001 227.014Z" fill="#797C58" fill-rule="evenodd" transform="matrix(1 0 0 -1 9716 1249)"/><path d="M0.00434224 140.766 5.90406 0.0102942 123.004 113.029 57.1064 211.01 0.00434224 140.766Z" fill="#26A594" fill-rule="evenodd" transform="matrix(1 0 0 -1 9914 1048)"/><path d="M64.2281 178.009 0.00562952 98.3899 65.5616 0.00887059 124.005 56.9533 64.2281 178.009Z" fill="#83111F" fill-rule="evenodd" transform="matrix(1 0 0 -1 9971 935)"/><path d="M101.008 86.3999 74.5077 140.009 0.00779626 67.7509 33.4669 0.00906428 101.008 86.3999Z" fill="#489CBC" fill-rule="evenodd" transform="matrix(1 0 0 -1 10095 946)"/><path d="M46.4249 0.00990005 92.0063 58.8024 58.5324 127.01 0.0064869 69.9118 46.4249 0.00990005Z" fill="#261417" fill-rule="evenodd" transform="matrix(1 0 0 -1 10037 1005)"/><path d="M74.9574 468.008 28.5064 468.008 0.00283756 0.00848742 92.003 114.82 74.9574 468.008Z" fill="#60BD8D" fill-rule="evenodd" transform="matrix(1 0 0 -1 9822 1022)"/><path d="M8.10593 130.33 0.00245564 0.0117147 106.002 103.801 100.164 245.012 8.10593 130.33Z" fill="#0B4843" fill-rule="evenodd" transform="matrix(1 0 0 -1 9814 1152)"/><path d="M60.6133 113.008 41.2895 153.002C41.2895 153.002 0.00276554 89.5599 0.00276554 64.9198 0.00276554 25.7981 18.2993 0.00154329 18.2993 0.00154329L74.9777 0.00154329 85.0027 61.3973 48.6223 61.3973 60.6133 113.008Z" fill="#83111F" fill-rule="evenodd" transform="matrix(1 0 0 -1 9828 520)"/></g></svg>