<svg width="1985" height="1754" xmlns="http://www.w3.org/2000/svg" xmlns:xlink="http://www.w3.org/1999/xlink" xml:space="preserve" overflow="hidden"><g transform="translate(-7490 -367)"><rect x="9132" y="663" width="138" height="814" fill="#324C89"/><rect x="8894" y="764" width="138" height="713" fill="#324C89"/><rect x="8656" y="885" width="138" height="592" fill="#324C89"/><rect x="8418" y="738" width="138" height="739" fill="#324C89"/><rect x="8180" y="1178" width="138" height="299" fill="#324C89"/><rect x="7942" y="1265" width="138" height="212" fill="#324C89"/><path d="M7875.33 1560.38 7843.13 1689.62 9366.53 1689.62 9334.33 1560.38 7875.33 1560.38ZM7810.98 1477 9400.6 1477 9475 1773 7737 1773 7810.98 1477Z" fill="#324C89" fill-rule="evenodd"/><path d="M8006.69 450.376 7974.5 579.624 9236.99 579.624 9204.8 450.376 8006.69 450.376ZM7943.16 367 9268.78 367 9346 663 7866 663 7943.16 367Z" fill="#324C89" fill-rule="evenodd"/><path d="M7941.23 1024 8022.77 1024C8029.7 1024 8035 1029.2 8035 1036 8035 1042.8 8029.7 1048 8022.77 1048L7941.23 1048C7934.3 1048 7929 1042.8 7929 1036 7929 1029.2 7934.3 1024 7941.23 1024Z" fill="#324C89" fill-rule="evenodd"/><path d="M7941.23 1065 8022.77 1065C8029.7 1065 8035 1070.2 8035 1077 8035 1083.8 8029.7 1089 8022.77 1089L7941.23 1089C7934.3 1089 7929 1083.8 7929 1077 7929 1070.2 7934.3 1065 7941.23 1065Z" fill="#324C89" fill-rule="evenodd"/><path d="M7955 1105C7956.22 1119.17 7967.64 1130 7981.5 1130 7995.36 1130 8006.78 1119.17 8008 1105L7955 1105Z" fill="#324C89" fill-rule="evenodd"/><path d="M7982 788C7982 788 7982 788 7982 788 7982 788 7982 788 7982 788 7924.11 788.407 7877.22 834.852 7876 892.704L7876 896.371C7876.41 909 7878.85 921.222 7883.34 933.037 7887.82 944.037 7893.94 954.222 7901.68 963.185 7911.47 973.778 7922.07 994.556 7926.55 1003.52 7927.78 1006.37 7930.63 1008 7933.89 1008L8030.11 1008C8033.37 1008 8036.22 1006.37 8037.45 1003.52 8041.93 994.556 8052.53 973.778 8062.32 963.185 8070.06 954.222 8076.58 944.037 8080.66 933.037 8085.15 921.222 8087.59 909 8088 896.371L8088 892.704C8086.78 834.852 8039.89 788.407 7982 788ZM8063.54 895.963C8063.13 905.741 8061.09 915.518 8057.83 924.482 8054.57 932.63 8050.08 940.37 8043.97 946.889 8034.59 958.296 8026.44 970.519 8020.32 983.556L7982 983.556 7944.08 983.556C7937.56 970.519 7929.41 958.296 7920.44 946.889 7914.73 940.37 7909.84 932.63 7906.58 924.482 7902.91 915.518 7901.28 905.741 7900.87 895.963L7900.87 892.704C7901.68 848.296 7937.97 812.445 7982.41 812.037L7982.41 812.037 7982.41 812.037C7982.41 812.037 7982.41 812.037 7982.41 812.037 7982.41 812.037 7982.41 812.037 7982.41 812.037L7982.41 812.037 7982.41 812.037C8026.85 812.445 8063.13 847.889 8063.95 892.704L8063.95 895.963Z" fill="#324C89" fill-rule="evenodd"/><path d="M7984.12 759.654C7872.04 759.654 7781.19 850.507 7781.19 962.581 7781.19 1074.65 7872.04 1165.51 7984.12 1165.51 8096.19 1165.51 8187.05 1074.66 8187.05 962.581 8187.05 850.507 8096.19 759.654 7984.12 759.654ZM7984.12 680.292C8140.02 680.292 8266.41 806.678 8266.41 962.581 8266.41 1118.48 8140.02 1244.87 7984.12 1244.87 7925.65 1244.87 7871.34 1227.1 7826.29 1196.66L7791.62 1168.05 7766.92 1204.02C7683.79 1314.51 7593.41 1366.21 7555.89 1365.14 7535.23 1354.06 7492.99 1297.23 7490.31 1276.91 7500.1 1240.68 7575.66 1169.03 7705.42 1121.29L7743.85 1109 7724.01 1072.46C7709.73 1038.69 7701.83 1001.56 7701.83 962.581 7701.83 806.677 7828.21 680.292 7984.12 680.292Z" fill="#324C89" fill-rule="evenodd"/><path d="M8935.57 1928.47C8926.15 1928.47 8918.3 1931.99 8912.04 1939.04 8905.77 1946.08 8902.64 1954.32 8902.64 1963.76 8902.64 1973.19 8905.84 1981.34 8912.23 1988.19 8918.62 1995.04 8926.41 1998.46 8935.57 1998.46 8945 1998.46 8952.85 1994.97 8959.11 1987.99 8965.37 1981.01 8968.5 1972.8 8968.5 1963.37 8968.5 1953.93 8965.37 1945.76 8959.11 1938.84 8952.85 1931.93 8945 1928.47 8935.57 1928.47ZM8328.3 1920.13C8320.16 1920.13 8313.45 1923.56 8308.15 1930.41 8303.24 1936.74 8300.79 1944.17 8300.79 1952.7 8300.79 1956.19 8302.6 1957.94 8306.21 1957.94 8315.77 1957.94 8330.62 1956.45 8350.77 1953.48 8355.03 1952.83 8357.16 1951.8 8357.16 1950.38 8357.16 1942.36 8354.32 1935.32 8348.64 1929.24 8342.95 1923.17 8336.17 1920.13 8328.3 1920.13ZM8737.04 1882.9C8740.66 1882.9 8746.18 1883.29 8753.61 1884.07 8761.03 1884.84 8766.62 1885.23 8770.36 1885.23 8774.11 1885.23 8779.72 1884.91 8787.21 1884.26 8794.7 1883.61 8800.32 1883.29 8804.07 1883.29 8807.17 1883.29 8808.72 1884.58 8808.72 1887.17 8808.72 1887.69 8808.59 1888.91 8808.33 1890.85 8805.49 1916.06 8804.07 1945.27 8804.07 1978.49 8804.07 1987.93 8804.26 2001.98 8804.65 2020.66 8805.04 2039.34 8805.23 2053.33 8805.23 2062.64 8805.23 2065.35 8803.62 2066.97 8800.39 2067.49 8796 2068.26 8786.12 2068.65 8770.75 2068.65 8755.25 2068.65 8745.31 2068.26 8740.92 2067.49 8738.08 2066.97 8736.33 2066.13 8735.69 2064.97 8735.43 2064.45 8735.3 2062.51 8735.3 2059.15 8735.3 2050.23 8735.49 2036.82 8735.88 2018.92 8736.27 2001.02 8736.46 1987.54 8736.46 1978.49 8736.46 1941.78 8735.04 1912.57 8732.2 1890.85 8731.94 1888.79 8731.81 1887.43 8731.81 1886.78 8731.81 1884.2 8733.56 1882.9 8737.04 1882.9ZM8154.3 1875.73C8170.7 1875.73 8184.39 1879.61 8195.37 1887.36 8207.64 1896.28 8213.77 1908.69 8213.77 1924.59L8213.77 1986.44C8213.77 1994.84 8213.83 2007.41 8213.96 2024.15 8214.09 2040.89 8214.16 2053.46 8214.16 2061.86 8214.16 2065.35 8212.35 2067.36 8208.73 2067.87 8205.12 2068.39 8195.69 2068.65 8180.45 2068.65 8164.18 2068.65 8154.11 2068.26 8150.23 2067.49 8146.36 2066.71 8144.42 2064.06 8144.42 2059.54 8144.42 2053.46 8144.62 2044.28 8145 2032 8145.39 2019.73 8145.59 2010.48 8145.59 2004.28 8145.59 1999.5 8145.46 1992.35 8145.2 1982.85 8144.94 1973.35 8144.81 1966.21 8144.81 1961.43 8144.81 1943.72 8137.13 1934.87 8121.76 1934.87 8116.72 1934.87 8110.85 1937.06 8104.13 1941.46 8096.9 1946.37 8093.28 1951.22 8093.28 1956L8093.28 2060.7C8093.28 2064.97 8091.28 2067.36 8087.28 2067.87 8082.76 2068.39 8073.53 2068.65 8059.58 2068.65 8044.47 2068.65 8034.65 2068.26 8030.13 2067.49 8026.13 2066.84 8024.13 2064.71 8024.13 2061.09 8024.13 2051.01 8024.19 2035.82 8024.32 2015.52 8024.45 1995.23 8024.52 1979.98 8024.52 1969.77 8024.52 1937.58 8022 1912.31 8016.96 1893.96 8016.7 1892.79 8016.58 1891.82 8016.58 1891.05 8016.58 1888.98 8017.54 1887.56 8019.48 1886.78 8027.62 1885.88 8038.46 1884.46 8052.02 1882.52 8072.56 1878.51 8084.12 1876.51 8086.7 1876.51 8088.12 1876.51 8089.22 1880.87 8089.99 1889.59 8090.77 1898.32 8091.86 1902.68 8093.28 1902.68 8091.86 1902.68 8098.81 1898.19 8114.11 1889.21 8129.41 1880.22 8142.81 1875.73 8154.3 1875.73ZM8914.27 1874.95C8933.77 1874.95 8948.68 1881.93 8959.01 1895.89 8961.08 1898.74 8962.5 1900.16 8963.27 1900.16 8964.44 1900.16 8965.02 1897.83 8965.02 1893.18 8965.02 1882.84 8966.18 1877.67 8968.5 1877.67 8970.57 1877.67 8981.74 1878.73 9002.02 1880.87 9022.29 1883 9032.82 1884.2 9033.59 1884.46 9035.79 1885.23 9036.88 1886.91 9036.88 1889.5 9036.88 1898.42 9036.59 1911.73 9036.01 1929.44 9035.43 1947.15 9035.14 1960.46 9035.14 1969.38 9035.14 1974.68 9035.2 1982.63 9035.33 1993.23 9035.46 2003.83 9035.53 2011.78 9035.53 2017.08 9035.53 2053.91 9027.78 2080.35 9012.28 2096.38 8996.27 2112.79 8969.67 2121 8932.47 2121 8921.63 2121 8906.84 2119.25 8888.12 2115.77 8864.22 2111.37 8852.28 2106.2 8852.28 2100.25 8852.28 2097.8 8855.05 2085.13 8860.61 2062.25 8861.51 2058.63 8862.93 2056.82 8864.87 2056.82 8865.52 2056.95 8866.23 2057.21 8867 2057.6 8886.89 2067.42 8905.29 2072.33 8922.21 2072.33 8931.51 2072.33 8940.74 2070.01 8949.91 2065.35 8961.01 2059.8 8966.57 2052.82 8966.57 2044.41L8966.57 2031.42C8953.39 2043.83 8936.48 2050.04 8915.82 2050.04 8891.54 2050.04 8871.58 2041.31 8855.96 2023.86 8840.85 2007.06 8833.29 1986.38 8833.29 1961.82 8833.29 1937.13 8840.53 1916.64 8854.99 1900.35 8870.1 1883.42 8889.86 1874.95 8914.27 1874.95ZM8335.85 1870.49C8360.65 1870.49 8381.7 1879.54 8399 1897.64 8416.3 1915.74 8424.96 1937.26 8424.96 1962.21 8424.96 1975.26 8420.76 1982.69 8412.37 1984.5 8410.95 1984.76 8397.58 1986.18 8372.27 1988.77 8357.03 1990.45 8334.3 1992.45 8304.08 1994.78 8305.89 2003.18 8311.38 2009.58 8320.55 2013.97 8328.04 2017.59 8336.56 2019.4 8346.12 2019.4 8357.61 2019.4 8369.17 2016.3 8380.79 2010.1 8385.7 2006.99 8390.61 2003.89 8395.51 2000.79 8398.22 2002.08 8402.78 2008.67 8409.17 2020.57 8415.56 2032.46 8418.76 2040.02 8418.76 2043.25 8418.76 2044.15 8417.79 2045.64 8415.85 2047.71 8400.1 2064.64 8375.63 2073.11 8342.44 2073.11 8311.7 2073.11 8286.91 2064.13 8268.05 2046.16 8248.68 2027.93 8239 2003.57 8239 1973.06 8239 1943.33 8247.65 1918.97 8264.95 1899.97 8282.77 1880.32 8306.41 1870.49 8335.85 1870.49ZM8674.95 1865.45C8677.02 1865.45 8682.12 1872.4 8690.25 1886.3 8698.39 1900.19 8702.46 1908.3 8702.46 1910.63 8702.46 1911.92 8701.49 1913.67 8699.55 1915.86 8695.93 1914.96 8692.32 1914.51 8688.7 1914.51 8681.08 1914.51 8674.69 1916.19 8669.53 1919.55 8663.33 1923.43 8660.23 1928.92 8660.23 1936.03 8660.23 1940.55 8663.52 1946.31 8670.11 1953.29 8680.05 1963.76 8686.18 1970.8 8688.51 1974.42 8695.09 1984.24 8698.39 1994.78 8698.39 2006.02 8698.39 2012.62 8697.1 2019.6 8694.51 2026.96 8691.54 2035.11 8687.8 2041.05 8683.28 2044.8 8673.72 2053.07 8662.55 2060.05 8649.77 2065.74 8635.95 2071.69 8623.23 2074.66 8611.61 2074.66 8609.02 2074.66 8603.24 2067.65 8594.27 2053.62 8585.29 2039.6 8580.81 2031.04 8580.81 2027.93 8580.81 2026.77 8581.52 2026.06 8582.94 2025.8 8591.98 2024.12 8601.08 2022.44 8610.25 2020.76 8621.61 2017.14 8627.3 2011.19 8627.3 2002.92 8627.3 1997.23 8624 1990.64 8617.42 1983.14 8605.67 1970.09 8599.53 1963.17 8599.01 1962.4 8592.43 1953.09 8589.14 1943.27 8589.14 1932.93 8589.14 1913.54 8598.95 1897.06 8618.58 1883.49 8636.14 1871.46 8654.93 1865.45 8674.95 1865.45ZM8531.69 1865.45C8533.76 1865.45 8538.86 1872.4 8546.99 1886.3 8555.13 1900.19 8559.2 1908.3 8559.2 1910.63 8559.2 1911.92 8558.23 1913.67 8556.29 1915.86 8552.68 1914.96 8549.06 1914.51 8545.44 1914.51 8537.82 1914.51 8531.43 1916.19 8526.27 1919.55 8520.07 1923.43 8516.97 1928.92 8516.97 1936.03 8516.97 1940.55 8520.26 1946.31 8526.85 1953.29 8536.79 1963.76 8542.93 1970.8 8545.25 1974.42 8551.84 1984.24 8555.13 1994.78 8555.13 2006.02 8555.13 2012.62 8553.84 2019.6 8551.25 2026.96 8548.28 2035.11 8544.54 2041.05 8540.02 2044.8 8530.46 2053.07 8519.29 2060.05 8506.51 2065.74 8492.69 2071.69 8479.97 2074.66 8468.35 2074.66 8465.76 2074.66 8459.99 2067.65 8451.01 2053.62 8442.04 2039.6 8437.55 2031.04 8437.55 2027.93 8437.55 2026.77 8438.26 2026.06 8439.68 2025.8 8448.72 2024.12 8457.82 2022.44 8466.99 2020.76 8478.36 2017.14 8484.04 2011.19 8484.04 2002.92 8484.04 1997.23 8480.75 1990.64 8474.16 1983.14 8462.41 1970.09 8456.27 1963.17 8455.76 1962.4 8449.17 1953.09 8445.88 1943.27 8445.88 1932.93 8445.88 1913.54 8455.69 1897.06 8475.32 1883.49 8492.88 1871.46 8511.67 1865.45 8531.69 1865.45ZM9306.03 1816.01C9309.52 1816.01 9314.49 1816.79 9320.95 1818.34 9328.31 1820.02 9333.41 1820.99 9336.25 1821.25 9342.84 1822.15 9352.78 1823.38 9366.08 1824.93 9369.31 1825.19 9370.92 1826.29 9370.92 1828.23 9370.92 1833.4 9370.5 1841.22 9369.67 1851.69 9368.82 1862.16 9368.41 1870.04 9368.41 1875.34 9368.41 1881.68 9370.28 1884.84 9374.02 1884.84 9378.54 1884.84 9385.39 1884.65 9394.56 1884.26 9403.72 1883.87 9410.63 1883.68 9415.28 1883.68 9418.12 1883.68 9419.54 1884.65 9419.54 1886.59 9419.54 1889.56 9419.22 1894.02 9418.58 1899.97 9417.93 1905.91 9417.61 1910.37 9417.61 1913.34 9417.61 1916.45 9417.67 1920.97 9417.8 1926.92 9417.93 1932.86 9418 1937.39 9418 1940.49 9418 1943.2 9416.12 1944.56 9412.38 1944.56 9409.79 1944.56 9405.47 1944.46 9399.4 1944.27 9393.33 1944.08 9389 1943.98 9386.42 1943.98L9371.89 1943.98C9369.96 1943.98 9368.99 1946.82 9368.99 1952.51 9368.99 1955.61 9368.99 1960.2 9368.99 1966.28 9369.12 1972.48 9369.18 1977.07 9369.18 1980.04 9369.18 1990.9 9370.41 1998.4 9372.86 2002.53 9376.35 2008.09 9383.19 2010.87 9393.39 2010.87 9396.62 2010.87 9401.24 2010.13 9407.24 2008.64 9413.25 2007.15 9417.48 2006.41 9419.93 2006.41 9422.64 2006.41 9424 2007.83 9424 2010.68 9424 2014.55 9423.52 2020.44 9422.55 2028.32 9421.58 2036.21 9421.09 2041.99 9421.09 2045.67 9421.09 2049.36 9420.71 2051.72 9419.93 2052.75 9419.16 2053.78 9417.03 2055.27 9413.54 2057.21 9396.88 2066.39 9378.41 2070.98 9358.14 2070.98 9320.82 2070.98 9302.16 2056.69 9302.16 2028.13 9302.16 2019.6 9302.48 2006.77 9303.12 1989.64 9303.77 1972.51 9304.09 1959.68 9304.09 1951.15 9304.09 1945.47 9300.8 1942.62 9294.21 1942.62 9293.7 1942.62 9292.86 1942.62 9291.7 1942.62 9290.53 1942.75 9289.7 1942.82 9289.18 1942.82 9284.27 1942.82 9281.82 1941.07 9281.82 1937.58 9281.82 1935.51 9281.98 1932.35 9282.3 1928.08 9282.62 1923.81 9282.79 1920.65 9282.79 1918.58 9282.79 1915.86 9282.62 1911.73 9282.3 1906.17 9281.98 1900.61 9281.82 1896.48 9281.82 1893.76 9281.82 1891.18 9285.95 1889.75 9294.21 1889.5 9298.86 1889.37 9301.38 1888.07 9301.77 1885.62 9302.54 1880.71 9302.8 1872.95 9302.54 1862.35 9302.03 1845.68 9301.77 1837.73 9301.77 1838.5 9301.77 1823.51 9303.19 1816.01 9306.03 1816.01ZM8771.14 1800.69C8781.21 1800.69 8789.93 1803.73 8797.29 1809.81 8805.16 1816.27 8809.1 1824.48 8809.1 1834.43 8809.1 1856.92 8796.45 1868.17 8771.14 1868.17 8760.29 1868.17 8751.31 1865.33 8744.21 1859.64 8736.46 1853.43 8732.59 1845.03 8732.59 1834.43 8732.59 1824.35 8736.59 1816.08 8744.6 1809.61 8751.96 1803.67 8760.81 1800.69 8771.14 1800.69ZM7768.26 1795.46C7772.27 1795.46 7778.3 1795.65 7786.37 1796.04 7794.44 1796.43 7800.48 1796.62 7804.49 1796.62 7808.62 1796.62 7814.75 1796.43 7822.89 1796.04 7831.02 1795.65 7837.09 1795.46 7841.1 1795.46 7843.29 1795.46 7844.39 1796.62 7844.39 1798.95 7844.39 1808.51 7843.91 1822.96 7842.94 1842.28 7841.97 1861.61 7841.48 1876.05 7841.48 1885.62 7841.48 1896.74 7844.52 1902.29 7850.59 1902.29 7865.96 1902.29 7877.9 1898.09 7886.42 1889.69 7892.75 1883.49 7899.14 1872.18 7905.6 1855.76 7909.73 1843.22 7916.51 1824.74 7925.94 1800.31 7927.36 1797.08 7930.27 1795.46 7934.66 1795.46 7938.02 1795.46 7943.08 1795.65 7949.86 1796.04 7956.64 1796.43 7961.71 1796.62 7965.07 1796.62 7968.56 1796.62 7973.75 1796.49 7980.66 1796.24 7987.57 1795.98 7992.71 1795.85 7996.06 1795.85 7999.16 1795.85 8000.71 1797.33 8000.71 1800.31 8000.71 1804.57 7998 1814.98 7992.58 1831.52 7976.56 1880.38 7958.16 1910.89 7937.37 1923.04 7933.11 1925.49 7930.98 1927.5 7930.98 1929.05 7930.98 1928.92 7942.89 1948.31 7966.72 1987.22 7990.54 2026.12 8002.46 2049.26 8002.46 2056.63 8002.46 2062.19 8000.07 2065.81 7995.29 2067.49 7991.41 2068.78 7981.21 2069.43 7964.68 2069.43 7948.8 2069.43 7937.18 2068.78 7929.81 2067.49 7926.33 2066.84 7924.04 2066.16 7922.94 2065.45 7921.84 2064.74 7920.45 2062.9 7918.77 2059.92 7909.35 2042.6 7899.98 2025.28 7890.69 2007.96 7875.32 1980.04 7866.15 1964.66 7863.18 1961.82 7849.23 1966.86 7842.26 1970.48 7842.26 1972.67 7842.26 1982.37 7842.65 1997.01 7843.42 2016.59 7844.2 2036.17 7844.58 2050.88 7844.58 2060.7 7844.58 2064.71 7842.84 2066.97 7839.35 2067.49 7832.64 2068.52 7820.5 2069.04 7802.94 2069.04 7786.15 2069.04 7775.04 2068.52 7769.62 2067.49 7765.87 2066.71 7764 2064.71 7764 2061.48 7764 2047.52 7764.68 2026.45 7766.03 1998.27 7767.39 1970.09 7768.07 1948.96 7768.07 1934.87 7768.07 1919.87 7767.42 1897.35 7766.13 1867.3 7764.84 1837.24 7764.19 1814.72 7764.19 1799.73 7764.19 1796.88 7765.55 1795.46 7768.26 1795.46ZM9139.01 1791C9141.08 1791 9142.11 1792.36 9142.11 1795.07 9142.11 1799.21 9141.85 1804.83 9141.34 1811.94 9140.82 1820.21 9140.56 1825.84 9140.56 1828.81 9139.79 1858.02 9139.4 1881.09 9139.4 1898.03 9139.4 1900.61 9140.04 1901.9 9141.34 1901.9 9141.59 1901.9 9144.89 1899.64 9151.21 1895.12 9158.71 1889.82 9165.87 1885.62 9172.72 1882.52 9182.92 1877.99 9192.8 1875.73 9202.35 1875.73 9218.88 1875.73 9232.7 1880.06 9243.81 1888.72 9255.82 1898.03 9261.82 1910.76 9261.82 1926.92L9261.43 2060.7C9261.43 2065.23 9259.63 2067.74 9256.01 2068.26 9251.88 2068.78 9242.45 2069.04 9227.73 2069.04 9213.52 2069.04 9203.64 2068.52 9198.09 2067.49 9193.83 2066.71 9191.7 2063.93 9191.7 2059.15 9191.7 2048.03 9191.89 2031.29 9192.28 2008.93 9192.67 1986.57 9192.86 1969.83 9192.86 1958.71 9192.86 1943.59 9185.18 1936.03 9169.81 1936.03 9164.64 1936.03 9158.58 1938.1 9151.6 1942.23 9143.98 1946.76 9140.17 1951.48 9140.17 1956.39L9140.17 2004.28C9140.17 2010.48 9140.3 2019.82 9140.56 2032.3 9140.82 2044.77 9140.95 2054.11 9140.95 2060.31 9140.95 2065.1 9138.95 2067.74 9134.94 2068.26 9130.94 2068.78 9119.71 2069.04 9101.24 2069.04 9090.65 2069.04 9083.03 2068.52 9078.38 2067.49 9073.73 2066.45 9071.41 2064.19 9071.41 2060.7 9071.41 2050.49 9071.47 2035.14 9071.6 2014.65 9071.73 1994.16 9071.79 1978.81 9071.79 1968.6 9071.79 1926.34 9071.34 1891.37 9070.44 1863.71 9070.05 1854.01 9069.73 1844.32 9069.47 1834.63 9068.82 1823.38 9067.66 1813.75 9065.98 1805.74 9065.59 1804.06 9065.4 1802.83 9065.4 1802.05 9065.4 1800.11 9066.37 1798.82 9068.31 1798.17 9072.31 1797.01 9078.19 1796.3 9085.93 1796.04 9096.27 1795.65 9102.27 1795.33 9103.95 1795.07 9127.32 1792.36 9139.01 1791 9139.01 1791Z" fill="#324C89" fill-rule="evenodd"/></g></svg>