<svg width="718" height="508" xmlns="http://www.w3.org/2000/svg" xmlns:xlink="http://www.w3.org/1999/xlink" xml:space="preserve" overflow="hidden"><defs><clipPath id="clip0"><rect x="283" y="2855" width="718" height="508"/></clipPath></defs><g clip-path="url(#clip0)" transform="translate(-283 -2855)"><path d="M422.242 3286.25 410.592 3332.9 961.757 3332.9 950.107 3286.25ZM519.172 3154.38 518.729 3154.76 519.194 3154.4ZM548.891 3135.54C543.23 3161.27 534.411 3199.59 522.432 3250.49 521.53 3254.27 520.3 3256.15 518.741 3256.15L578.918 3256.15C577.36 3256.15 576.088 3254.27 575.103 3250.49 569.032 3226.16 560.295 3187.84 548.891 3135.54ZM451.132 3121.78 457.419 3121.78 457.419 3121.78 470.293 3121.78C469.851 3126.78 465.724 3130.61 460.713 3130.61L459.814 3130.44 457.163 3129.93C453.868 3128.62 451.464 3125.53 451.132 3121.78ZM475.452 3107.06C477.957 3107.06 479.874 3108.98 479.873 3111.48 479.873 3113.98 477.957 3115.89 475.452 3115.89L455.817 3115.89 455.817 3115.89 445.973 3115.89C443.468 3115.89 441.552 3113.98 441.552 3111.48 441.551 3108.98 443.468 3107.06 445.973 3107.06L453.414 3107.06ZM449.524 3092.35 475.452 3092.35C477.958 3092.35 479.874 3094.26 479.874 3096.76 479.874 3099.26 477.957 3101.18 475.452 3101.18L451.849 3101.18 450.164 3094.84ZM445.973 3092.35 449.524 3092.35 450.164 3094.84 451.849 3101.18 445.973 3101.18C443.468 3101.18 441.551 3099.26 441.551 3096.76 441.551 3094.26 443.468 3092.35 445.973 3092.35ZM445.359 3075.35 445.757 3077.22C446.246 3079.35 446.858 3081.89 447.593 3084.82 446.859 3081.89 446.246 3079.35 445.757 3077.22ZM460.712 3006.99C465.945 3007.03 470.929 3008.1 475.468 3010.02L476.177 3010.4 481.919 3013.51C492.034 3020.3 498.758 3031.75 499.035 3044.81L499.035 3046.14C498.887 3050.7 498.003 3055.11 496.382 3059.38 494.908 3063.35 492.549 3067.03 489.749 3070.27 486.211 3074.1 482.379 3081.6 480.758 3084.84L478.245 3086.37 478.105 3086.46 448.013 3086.46 443.32 3086.46C442.141 3086.46 441.109 3085.87 440.667 3084.84 439.046 3081.6 435.214 3074.1 431.676 3070.27 428.876 3067.03 426.665 3063.35 425.044 3059.38 423.422 3055.11 422.538 3050.7 422.39 3046.14L422.391 3044.81C422.667 3031.75 429.392 3020.3 439.506 3013.51L445.017 3010.53 444.903 3017.44 444.841 3021.17 440.207 3024.28C434.882 3029.54 431.529 3036.79 431.381 3044.81L431.382 3045.99C431.529 3049.52 432.118 3053.05 433.445 3056.29 434.624 3059.23 436.393 3062.03 438.456 3064.38L445.275 3074.95 445.275 3074.95 447.005 3077.63 460.713 3077.63 474.568 3077.63 475.851 3075.34 478.4 3070.79C479.837 3068.58 481.421 3066.44 483.116 3064.38 485.327 3062.03 486.949 3059.23 488.128 3056.29 489.307 3053.05 490.044 3049.52 490.191 3045.99L490.339 3045.99 490.339 3044.81C490.191 3036.72 486.838 3029.47 481.514 3024.23L475.857 3020.45 475.857 3020.45 475.857 3020.45 475.976 3016.7 475.857 3020.45 472.202 3018.01C468.709 3016.54 464.876 3015.71 460.86 3015.67 456.843 3015.71 453.011 3016.55 449.518 3018.03L444.841 3021.17 444.903 3017.44 445.018 3010.53 445.957 3010.02C450.496 3008.1 455.48 3007.03 460.712 3006.99ZM461.634 2996.91C456.566 2996.91 451.618 2997.42 446.839 2998.4L445.204 2998.91 445.204 2998.91 433.06 3002.67C406.712 3013.8 388.225 3039.85 388.225 3070.21 388.226 3110.69 421.091 3143.5 461.634 3143.5L463.394 3143.33 476.428 3142.02C481.207 3141.04 485.816 3139.6 490.208 3137.74L491.709 3136.93 493.84 3144.53 499.61 3164.71 499.666 3164.9C505.163 3183.92 508.157 3193.43 508.649 3193.43 508.814 3193.29 509.019 3192.8 509.265 3191.96 510.249 3188.75 512.341 3179.8 515.541 3165.11L517.596 3155.37 517.597 3155.37 501.383 3164.16 499.61 3164.71 493.84 3144.53 491.71 3136.93 502.677 3130.99C510.488 3125.72 517.229 3118.99 522.505 3111.19L528.653 3099.88 528.653 3099.88 529.274 3098.74C532.988 3089.97 535.042 3080.33 535.042 3070.21L534.038 3060.26 533.551 3055.44C528.662 3031.58 512.164 3011.94 490.208 3002.67L476.545 2998.44 476.428 2998.4C471.649 2997.42 466.702 2996.91 461.634 2996.91ZM850.033 2961.85 851.481 2962.69C851.803 2963.24 851.964 2964.08 851.964 2965.2 851.964 2973.03 851.75 2984.78 851.32 3000.44 850.891 3016.11 850.676 3027.85 850.676 3035.69 850.677 3044.08 862.013 3073.58 884.685 3124.21 890.05 3112.32 896.201 3097.57 903.138 3079.95 912.794 3055.61 917.622 3041 917.622 3036.1 917.622 3028.55 917.336 3017.12 916.764 3001.81 916.192 2986.49 915.906 2975.06 915.906 2967.51 915.905 2963.73 916.728 2961.85 918.373 2961.85 919.661 2961.85 921.627 2962.06 924.274 2962.48 926.92 2962.89 928.887 2963.1 930.174 2963.1 928.887 2963.1 926.92 2962.89 924.274 2962.47 921.628 2962.06 919.661 2961.85 918.374 2961.85L918.373 2961.85ZM810.605 2961.85 804.606 2962.47C801.939 2962.89 799.938 2963.1 798.605 2963.1 797.197 2963.1 795.141 2962.89 792.437 2962.47L786.728 2961.89 792.437 2962.47C795.141 2962.89 797.197 2963.1 798.605 2963.1 799.938 2963.1 801.939 2962.89 804.606 2962.47 807.273 2962.06 809.273 2961.85 810.606 2961.85 812.533 2961.85 813.496 2963.38 813.496 2966.46 813.496 2982.68 813.125 3007.05 812.384 3039.57 811.644 3072.08 811.273 3096.45 811.273 3112.67 811.273 3128.05 811.681 3151.16 812.496 3182 813.311 3212.84 813.718 3235.95 813.718 3251.33 813.718 3254.55 812.607 3256.15 810.384 3256.15L810.383 3256.15 785.825 3256.15C784.121 3256.15 783.27 3254.55 783.27 3251.33 783.27 3238.74 783.473 3219.86 783.881 3194.69 784.288 3169.52 784.492 3150.64 784.492 3138.05 784.492 3132.6 783.64 3129.45 781.936 3128.61 779.714 3127.49 766.897 3126.93 743.487 3126.93 720.15 3126.93 707.334 3127.49 705.037 3128.61 703.407 3129.45 702.592 3132.6 702.592 3138.05 702.592 3150.36 702.777 3168.89 703.148 3193.64 703.518 3218.4 703.704 3236.92 703.704 3249.23 703.704 3253.85 702.777 3256.15 700.925 3256.15L700.343 3256.1 700.925 3256.15 700.925 3256.15 785.825 3256.15 810.384 3256.15 871.06 3256.15C869.63 3256.15 868.915 3254.13 868.915 3250.07 868.915 3242.94 869.165 3232.1 869.666 3217.56 870.167 3203.01 870.417 3192.1 870.417 3184.83 870.417 3178.54 869.523 3172.94 867.734 3168.05 862.585 3155.04 854.896 3135.47 844.668 3109.31 835.943 3085.96 829.649 3068.2 825.786 3056.03 824.499 3051.84 823.855 3047.78 823.855 3043.87 823.712 3026.25 823.641 3000.79 823.641 2967.51 823.641 2963.73 824.499 2961.85 826.215 2961.85 827.431 2961.85 829.237 2962.06 831.633 2962.48 834.029 2962.89 835.835 2963.1 837.051 2963.1 838.482 2963.1 840.627 2962.89 843.488 2962.48L850.031 2961.85 850.03 2961.85 843.489 2962.47C840.627 2962.89 838.482 2963.1 837.051 2963.1 835.835 2963.1 834.03 2962.89 831.634 2962.47L826.217 2961.85 826.216 2961.85 826.215 2961.85 810.607 2961.85 810.606 2961.85ZM701.148 2961.85 701.146 2961.85 694.924 2962.47C692.109 2962.89 690.035 2963.1 688.702 2963.1 690.035 2963.1 692.109 2962.89 694.924 2962.48 697.74 2962.06 699.814 2961.85 701.148 2961.85 702.851 2961.85 703.704 2963.1 703.704 2965.62 703.704 2977.65 703.426 2995.72 702.87 3019.85 702.315 3043.97 702.037 3062.05 702.037 3074.07 702.037 3077.99 702.815 3080.37 704.37 3081.21 706.222 3082.46 719.261 3083.09 743.487 3083.09 767.193 3083.09 780.158 3082.46 782.38 3081.21 784.084 3080.37 784.936 3077.36 784.936 3072.19 784.936 3060.44 784.733 3042.75 784.325 3019.11 783.918 2995.48 783.714 2977.79 783.714 2966.04 783.714 2964.64 783.927 2963.59 784.353 2962.89L786.27 2961.85 701.148 2961.85ZM676.366 2961.85 650.049 2961.85 650.049 2961.85 650.048 2961.85 643.157 2962.47C646.193 2962.06 648.49 2961.85 650.049 2961.85L650.049 2961.85 650.049 2961.85 652.079 2962.48C652.572 2962.89 652.879 2963.52 653.002 2964.36 653.002 2964.22 653.002 2966.18 653.002 2970.24 653.002 2981.28 653.208 2997.79 653.618 3019.74 654.028 3041.7 654.233 3058.2 654.233 3069.25 654.233 3070.37 646.029 3100.29 629.621 3159.03 624.124 3179.45 615.714 3209.93 604.393 3250.49 603.326 3254.27 602.219 3256.15 601.07 3256.15L676.366 3256.15 674.283 3254.95C673.82 3254.14 673.589 3252.94 673.589 3251.33 673.589 3235.95 673.978 3212.84 674.755 3182 675.533 3151.16 675.922 3128.05 675.922 3112.67 675.922 3096.45 675.533 3072.08 674.755 3039.57 673.978 3007.05 673.589 2982.68 673.589 2966.46 673.589 2963.38 674.514 2961.85 676.366 2961.85ZM562.55 2961.85 556.892 2962.41 556.275 2962.47 555.959 2962.51 549.999 2963.1C548.358 2963.1 545.979 2962.89 542.861 2962.47L535.848 2961.85 535.846 2961.85 535.846 2961.85 448.596 2961.85 455.302 2962.47C458.296 2962.89 460.532 2963.1 462.009 2963.1 463.403 2963.1 465.495 2962.96 468.285 2962.68 471.074 2962.41 473.167 2962.27 474.561 2962.27 476.284 2962.27 477.145 2963.31 477.145 2965.41L477.114 2969.54 482.214 2970.32C495.509 2973.03 507.863 2978.33 518.729 2985.66L533.626 2997.93 533.504 2990.46C533.343 2979.67 533.262 2971.18 533.262 2964.99 533.262 2962.89 534.124 2961.85 535.846 2961.85 537.405 2961.85 539.744 2962.06 542.861 2962.48 545.979 2962.89 548.358 2963.1 549.999 2963.1L555.959 2962.51 556.275 2962.47 556.892 2962.41 562.551 2961.85C564.438 2961.85 565.382 2962.96 565.382 2965.2 565.382 2974.01 565.218 2987.26 564.889 3004.95 564.561 3022.64 564.397 3035.9 564.397 3044.71 564.397 3059.11 564.438 3067.85 564.52 3070.93 564.766 3077.92 570.961 3108.62 583.102 3163.02 584.415 3169.17 586.548 3177.98 589.502 3189.45 589.584 3190.01 589.748 3190.5 589.994 3190.92 590.486 3190.92 593.399 3181.61 598.731 3163.02 614.894 3106.66 622.975 3074.84 622.975 3067.57 622.975 3056.1 622.606 3038.97 621.867 3016.18 621.129 2993.38 620.76 2976.32 620.76 2964.99 620.76 2962.89 621.088 2961.85 621.745 2961.85 623.385 2961.85 625.826 2962.06 629.067 2962.48 632.307 2962.9 634.748 2963.1 636.389 2963.1 634.748 2963.1 632.307 2962.89 629.067 2962.47L621.746 2961.85 621.745 2961.85 562.551 2961.85 562.551 2961.85ZM469.692 2885.1 458.042 2931.75 914.97 2931.75 903.32 2885.1ZM926.475 2855 954.423 2961.85 942.512 2961.85 942.512 2961.85 942.511 2961.85 936.343 2962.47C939.097 2962.06 941.153 2961.85 942.512 2961.85 944.229 2961.85 945.087 2964.15 945.087 2968.77 945.087 2976.74 945.159 2988.77 945.302 3004.85 945.445 3020.93 945.516 3032.96 945.516 3040.93 945.516 3048.9 939.15 3070.02 926.42 3104.28 917.98 3125.68 909.575 3147.07 901.207 3168.47 899.133 3173.78 898.096 3179.24 898.097 3184.83 898.096 3192.38 898.293 3203.68 898.686 3218.71 899.08 3233.74 899.276 3244.97 899.277 3252.38 899.276 3254.89 898.382 3256.15 896.594 3256.15L974.083 3256.15 1001 3363 372.195 3363 398.963 3256.15 496.712 3256.15C495.482 3256.15 494.333 3254.27 493.267 3250.49 489.021 3235.28 483.183 3214.33 475.753 3187.64L471.313 3171.68 472.075 3171.64 471.314 3171.68 461.634 3172.17C440.485 3172.17 420.837 3165.75 404.539 3154.76L391.998 3144.42 383.061 3157.42C352.991 3197.32 320.294 3216 306.723 3215.61 299.25 3211.61 283.969 3191.08 283 3183.74 286.542 3170.66 313.876 3144.78 360.815 3127.53L374.717 3123.1 367.541 3109.9C362.374 3097.7 359.516 3084.29 359.516 3070.21 359.516 3020.93 394.52 2979.82 441.054 2970.32L445.502 2969.64 451.193 2968.77 445.502 2969.64 445.518 2965.62C445.518 2964.36 445.774 2963.42 446.287 2962.79L448.594 2961.85 418.772 2961.85 446.7 2855Z" fill="#324C89" fill-rule="evenodd"/></g></svg>