<svg width="336" height="337" xmlns="http://www.w3.org/2000/svg" xmlns:xlink="http://www.w3.org/1999/xlink" xml:space="preserve" overflow="hidden"><g transform="translate(-2032 -1069)"><path d="M2190 1121 2190 1171.96 2219.12 1171.96C2218.63 1187.67 2205.74 1200.16 2190 1200.15L2190 1222C2217.86 1222 2240.57 1199.68 2241 1171.86L2241 1171.86 2241 1121Z" fill="#FFFFFF" fill-rule="evenodd"/><path d="M2266 1121 2266 1171.96 2295.12 1171.96C2294.62 1187.67 2281.73 1200.14 2266 1200.15L2266 1222C2293.86 1222 2316.57 1199.68 2317 1171.86L2317 1171.86 2317 1121Z" fill="#FFFFFF" fill-rule="evenodd"/><path d="M2210 1354 2210 1303.09 2180.88 1303.09C2181.37 1287.39 2194.26 1274.93 2210 1274.93L2210 1253C2182.14 1253 2159.43 1275.3 2159 1303.09L2159 1303.09 2159 1354Z" fill="#FFFFFF" fill-rule="evenodd"/><path d="M2134 1354 2134 1303.09 2104.88 1303.09C2105.38 1287.4 2118.27 1274.94 2134 1274.93L2134 1253C2106.14 1253 2083.43 1275.3 2083 1303.09L2083 1303.09 2083 1354Z" fill="#FFFFFF" fill-rule="evenodd"/></g></svg>