<svg width="279" height="279" xmlns="http://www.w3.org/2000/svg" xmlns:xlink="http://www.w3.org/1999/xlink" xml:space="preserve" overflow="hidden"><g transform="translate(-537 -884)"><path d="M145.33 87.4781 145.33 99.103C143.295 99.103 141.552 98.8124 139.517 98.8124 137.575 98.7642 135.632 98.8612 133.705 99.103L133.705 87.4781C122.764 88.0148 111.976 90.2707 101.736 94.1624L106.095 104.625C102.317 106.078 98.8299 107.531 95.3424 109.275L90.983 98.5218C85.5878 101.168 80.4339 104.28 75.5799 107.822L63.083 95.3249C85.0944 78.7 111.933 69.7197 139.517 69.7499 210.141 69.7499 267.392 127.002 267.392 197.625L267.392 209.25 249.955 209.25 249.955 197.625C249.917 185.975 248.053 174.404 244.433 163.331L233.68 167.69C232.517 163.912 231.064 160.425 229.611 156.937L240.364 152.578C235.973 142.727 230.092 133.611 222.927 125.55L214.789 133.687C212.226 130.737 209.51 127.924 206.652 125.259L214.789 117.122C206.798 109.693 197.796 103.43 188.052 98.5218L183.692 109.275C180.205 107.531 176.717 106.078 172.939 104.625L177.299 93.8718C167.044 90.0765 156.256 87.9189 145.33 87.4781Z" fill="#FFFFFF" transform="matrix(1 0 0 1 537 884)"/><path d="M34.6018 124.387 47.0986 136.884C43.8968 141.794 41.0789 146.944 38.6705 152.287L49.4236 156.937C47.9705 160.425 46.5174 164.203 45.3549 167.69L34.6018 163.331C30.9812 174.404 29.118 185.975 29.0799 197.625L29.0799 209.25 11.6424 209.25 11.6424 197.625C11.5833 171.432 19.6005 145.858 34.6018 124.387Z" fill="#FFFFFF" transform="matrix(1 0 0 1 537 884)"/><path d="M147.655 192.394C148.236 192.684 148.527 193.265 149.108 193.847 153.294 198.811 152.663 206.23 147.699 210.416 142.734 214.603 135.316 213.972 131.129 209.007 131.116 208.991 131.103 208.975 131.089 208.959L40.7049 101.719Z" fill="#FFFFFF" transform="matrix(1 0 0 1 537 884)"/></g></svg>