<svg width="280" height="279" xmlns="http://www.w3.org/2000/svg" xmlns:xlink="http://www.w3.org/1999/xlink" xml:space="preserve" overflow="hidden"><g transform="translate(-1043 -884)"><path d="M100.266 126.422C100.266 149.672 119.156 168.562 142.406 168.562 165.656 168.562 184.547 149.672 184.547 126.422 184.547 103.172 165.656 84.2812 142.406 84.2812 119.156 84.2812 100.266 103.172 100.266 126.422ZM165.947 138.919 165.947 147.928 118.575 147.928 118.575 138.919C118.575 137.175 119.447 135.431 120.9 134.269 124.387 131.653 128.166 129.909 132.525 128.747 135.722 127.875 138.919 127.294 142.406 127.294 145.603 127.294 149.09 127.875 152.287 128.747 156.356 129.909 160.425 131.653 163.912 134.269 165.075 135.431 165.947 137.175 165.947 138.919ZM142.406 100.556C148.8 100.556 154.322 105.787 154.322 112.472L154.322 112.472C154.322 118.866 149.09 124.387 142.406 124.387 136.012 124.387 130.491 119.156 130.491 112.472 130.491 105.787 135.722 100.556 142.406 100.556Z" fill="#FFFFFF" transform="matrix(1.00359 0 0 1 1043 884)"/><path d="M264.469 92.9999 273.187 92.9999 273.187 101.719 264.469 101.719Z" fill="#FFFFFF" transform="matrix(1.00359 0 0 1 1043 884)"/><path d="M214.772 92.9999 223.2 92.9999 223.2 101.719 214.772 101.719Z" fill="#FFFFFF" transform="matrix(1.00359 0 0 1 1043 884)"/><path d="M231.628 92.9999 240.056 92.9999 240.056 101.719 231.628 101.719Z" fill="#FFFFFF" transform="matrix(1.00359 0 0 1 1043 884)"/><path d="M248.194 92.9999 256.622 92.9999 256.622 101.719 248.194 101.719Z" fill="#FFFFFF" transform="matrix(1.00359 0 0 1 1043 884)"/><path d="M197.625 92.9999 206.344 92.9999 206.344 101.719 197.625 101.719Z" fill="#FFFFFF" transform="matrix(1.00359 0 0 1 1043 884)"/><path d="M197.625 58.125 206.344 58.125 206.344 66.8437 197.625 66.8437Z" fill="#FFFFFF" transform="matrix(1.00359 0 0 1 1043 884)"/><path d="M197.625 75.5624 206.344 75.5624 206.344 84.2812 197.625 84.2812Z" fill="#FFFFFF" transform="matrix(1.00359 0 0 1 1043 884)"/><path d="M197.625 40.6875 206.344 40.6875 206.344 49.4062 197.625 49.4062Z" fill="#FFFFFF" transform="matrix(1.00359 0 0 1 1043 884)"/><path d="M197.625 23.25 206.344 23.25 206.344 31.9687 197.625 31.9687Z" fill="#FFFFFF" transform="matrix(1.00359 0 0 1 1043 884)"/><path d="M231.628 23.25 240.056 23.25 240.056 31.9687 231.628 31.9687Z" fill="#FFFFFF" transform="matrix(1.00359 0 0 1 1043 884)"/><path d="M248.194 23.25 256.622 23.25 256.622 31.9687 248.194 31.9687Z" fill="#FFFFFF" transform="matrix(1.00359 0 0 1 1043 884)"/><path d="M214.772 23.25 223.2 23.25 223.2 31.9687 214.772 31.9687Z" fill="#FFFFFF" transform="matrix(1.00359 0 0 1 1043 884)"/><path d="M264.469 23.25 273.187 23.25 273.187 31.9687 264.469 31.9687Z" fill="#FFFFFF" transform="matrix(1.00359 0 0 1 1043 884)"/><path d="M264.469 40.6875 273.187 40.6875 273.187 49.4062 264.469 49.4062Z" fill="#FFFFFF" transform="matrix(1.00359 0 0 1 1043 884)"/><path d="M264.469 58.125 273.187 58.125 273.187 66.8437 264.469 66.8437Z" fill="#FFFFFF" transform="matrix(1.00359 0 0 1 1043 884)"/><path d="M264.469 75.5624 273.187 75.5624 273.187 84.2812 264.469 84.2812Z" fill="#FFFFFF" transform="matrix(1.00359 0 0 1 1043 884)"/><path d="M203.437 175.828C203.728 176.409 204.309 176.7 204.89 176.7 205.181 176.7 205.472 176.409 205.762 175.828L210.122 163.912 223.781 177.572 229.884 171.469 216.225 157.809 228.14 153.45C228.722 153.159 229.012 152.578 229.012 151.997 229.012 151.706 228.722 151.415 228.14 151.125L193.556 139.5C193.556 139.5 193.265 139.5 193.265 139.5L193.265 139.5C192.684 139.5 192.103 140.081 192.103 140.662 192.103 140.662 192.103 140.953 192.103 140.953L203.437 175.828Z" fill="#FFFFFF" transform="matrix(1.00359 0 0 1 1043 884)"/><path d="M84.2812 69.7499 5.8125 69.7499 5.8125 130.781 84.2812 130.781 84.2812 69.7499ZM75.5624 122.062 14.5312 122.062 14.5312 78.4687 75.5624 78.4687 75.5624 122.062Z" fill="#FFFFFF" transform="matrix(1.00359 0 0 1 1043 884)"/><path d="M26.1562 85.7343 61.0312 85.7343 61.0312 94.453 26.1562 94.453Z" fill="#FFFFFF" transform="matrix(1.00359 0 0 1 1043 884)"/><path d="M26.1562 103.172 49.4062 103.172 49.4062 111.891 26.1562 111.891Z" fill="#FFFFFF" transform="matrix(1.00359 0 0 1 1043 884)"/><path d="M247.031 43.5937 212.156 43.5937 212.156 61.0312 241.219 61.0312 241.219 87.1874 258.656 87.1874 258.656 55.2187C258.656 48.825 253.425 43.5937 247.031 43.5937Z" fill="#FFFFFF" transform="matrix(1.00359 0 0 1 1043 884)"/><path d="M241.219 188.906 43.5937 188.906 43.5937 142.406 26.1562 142.406 26.1562 194.719C26.1562 201.112 31.3875 206.344 37.7812 206.344L119.156 206.344 119.156 223.781 90.0937 223.781 90.0937 241.219 194.719 241.219 194.719 223.781 165.656 223.781 165.656 206.344 247.031 206.344C253.425 206.344 258.656 201.112 258.656 194.719L258.656 107.531 241.219 107.531 241.219 188.906Z" fill="#FFFFFF" transform="matrix(1.00359 0 0 1 1043 884)"/><path d="M191.812 43.5937 37.7812 43.5937C31.3875 43.5937 26.1562 48.825 26.1562 55.2187L26.1562 61.0312 191.812 61.0312 191.812 43.5937Z" fill="#FFFFFF" transform="matrix(1.00359 0 0 1 1043 884)"/></g></svg>